<?xml version="1.0" encoding="UTF-8"?>
<svg id="Layer_2" data-name="Layer 2" xmlns="http://www.w3.org/2000/svg" viewBox="0 0 93.85 71.15">
  <defs>
    <style>
      .cls-1 {
        fill: #fff;
      }

      .cls-2 {
        fill: #a8d37e;
      }

      .cls-3, .cls-4 {
        fill: #231f20;
      }

      .cls-5 {
        fill: #665226;
      }

      .cls-5, .cls-6 {
        stroke: #71b5d8;
        stroke-miterlimit: 10;
        stroke-width: 3px;
      }

      .cls-6 {
        fill: #71b5d8;
      }

      .cls-4 {
        opacity: .78;
      }
    </style>
  </defs>
  <g id="exploreSugar">
    <g>
      <rect class="cls-1" x="0" y="0" width="93.85" height="71.15" rx="35.57" ry="35.57"/>
      <g>
        <path class="cls-6" d="m54.49,64.51h-18.77c-1.2,0-2.21-.89-2.35-2.08l-4.88-39.67c-.17-1.41.93-2.66,2.35-2.66h27.31c1.4,0,2.49,1.2,2.36,2.59l-3.66,39.67c-.11,1.22-1.14,2.15-2.36,2.15Z"/>
        <path class="cls-5" d="m53.03,63.33h-16.02c-1.02,0-1.88-.81-2.01-1.88l-4.17-35.81c-.15-1.28.79-2.4,2.01-2.4h23.32c1.19,0,2.13,1.08,2.02,2.34l-3.13,35.81c-.1,1.1-.97,1.94-2.02,1.94Z"/>
        <circle class="cls-3" cx="38.2" cy="61.16" r="1.15"/>
        <circle class="cls-3" cx="37.05" cy="58.85" r="1.15"/>
        <circle class="cls-3" cx="41.06" cy="61.16" r="1.15"/>
        <circle class="cls-3" cx="39.9" cy="58.85" r="1.15"/>
        <circle class="cls-3" cx="42.65" cy="58.85" r="1.15"/>
        <circle class="cls-3" cx="43.8" cy="61.16" r="1.15"/>
        <circle class="cls-3" cx="52.25" cy="61.16" r="1.15"/>
        <circle class="cls-3" cx="53.4" cy="58.85" r="1.15"/>
        <circle class="cls-3" cx="49.4" cy="61.16" r="1.15"/>
        <circle class="cls-3" cx="50.55" cy="58.85" r="1.15"/>
        <circle class="cls-3" cx="47.81" cy="58.85" r="1.15"/>
        <circle class="cls-3" cx="46.65" cy="61.16" r="1.15"/>
        <circle class="cls-3" cx="45.23" cy="58.85" r="1.15"/>
        <path class="cls-4" d="m42.73,21.97h4.44v34.35c0,1.23-1,2.22-2.22,2.22h0c-1.23,0-2.22-1-2.22-2.22V21.97h0Z"/>
        <path class="cls-3" d="m44.95,6.64h0c1.23,0,2.22,1,2.22,2.22v9.36h-4.44v-9.36c0-1.23,1-2.22,2.22-2.22Z"/>
        <circle class="cls-3" cx="37.88" cy="56.34" r="1.15"/>
        <circle class="cls-3" cx="36.73" cy="54.04" r="1.15"/>
        <circle class="cls-3" cx="40.74" cy="56.34" r="1.15"/>
        <circle class="cls-3" cx="39.58" cy="54.04" r="1.15"/>
        <circle class="cls-3" cx="42.33" cy="54.04" r="1.15"/>
        <circle class="cls-3" cx="43.48" cy="56.34" r="1.15"/>
        <circle class="cls-3" cx="51.93" cy="56.34" r="1.15"/>
        <circle class="cls-3" cx="53.08" cy="54.04" r="1.15"/>
        <circle class="cls-3" cx="49.08" cy="56.34" r="1.15"/>
        <circle class="cls-3" cx="50.23" cy="54.04" r="1.15"/>
        <circle class="cls-3" cx="47.49" cy="54.04" r="1.15"/>
        <circle class="cls-3" cx="46.33" cy="56.34" r="1.15"/>
        <circle class="cls-3" cx="44.91" cy="54.04" r="1.15"/>
        <rect class="cls-2" x="26.24" y="18.22" width="36.52" height="3.75" rx="1.87" ry="1.87"/>
      </g>
    </g>
  </g>
</svg>