<?xml version="1.0" encoding="UTF-8"?>
<svg id="Layer_2" data-name="Layer 2" xmlns="http://www.w3.org/2000/svg" viewBox="0 0 860.4 431.75">
  <defs>
    <style>
      .cls-1 {
        letter-spacing: -.02em;
      }

      .cls-2 {
        fill: #f1f2f2;
      }

      .cls-3 {
        fill: #a8d37e;
      }

      .cls-4, .cls-5, .cls-6 {
        fill: #231f20;
      }

      .cls-7 {
        fill: #3b57a7;
      }

      .cls-8 {
        letter-spacing: -.03em;
      }

      .cls-9 {
        fill: #d6cdd5;
        font-size: 28px;
      }

      .cls-9, .cls-10, .cls-11 {
        font-family: TrebuchetMS-Bold, 'Trebuchet MS';
        font-weight: 700;
      }

      .cls-12 {
        fill: #72cbcb;
      }

      .cls-12, .cls-13, .cls-14, .cls-15 {
        stroke-miterlimit: 10;
      }

      .cls-12, .cls-15 {
        stroke: #72cbcb;
      }

      .cls-16 {
        letter-spacing: -.11em;
      }

      .cls-10 {
        font-size: 27px;
      }

      .cls-10, .cls-15, .cls-11 {
        fill: #fff;
      }

      .cls-13 {
        fill: #665226;
      }

      .cls-13, .cls-14 {
        stroke: #71b5d8;
      }

      .cls-13, .cls-14, .cls-15 {
        stroke-width: 3px;
      }

      .cls-14 {
        fill: #70ccd8;
      }

      .cls-11 {
        font-size: 39px;
      }

      .cls-5 {
        opacity: .89;
      }

      .cls-6 {
        opacity: .78;
      }
    </style>
  </defs>
  <g id="exploreSugar">
    <g>
      <rect class="cls-7" x="0" y="0" width="860.4" height="431.75" rx="57.84" ry="57.84"/>
      <g>
        <g>
          <path class="cls-12" d="m505.82,184.72c-8.13,0-14.72,2.22-14.72,4.96,0,5.92,6.59,10.71,14.72,10.71s14.72-4.8,14.72-10.71c0-2.74-6.59-4.96-14.72-4.96Z"/>
          <path class="cls-12" d="m566.81,174.42c-.66-.77-1.73-1.03-2.74-1.13-5.63-.52-10.83,2.77-15.58,5.84-1.2.77-22.61,11.34-27.46,10.67l-.48,2.27c7.88.19,39.16-9.22,42.99-11.35,1.19-.66,2.41-1.38,3.19-2.5s.97-2.76.09-3.8Z"/>
        </g>
        <path class="cls-15" d="m494.77,190.68c-.32.37.41.54.37,1.03-.05.47,1.3,1.11,4.38,1.22,5.68.19,11.8,1.42,17.1-.64.41-.16.53-.67.25-1l-8.34-9.54c-1.62-1.64-4.26-1.65-5.9-.04l-7.85,8.97"/>
      </g>
      <g>
        <g>
          <path class="cls-12" d="m589.92,184.72c-8.13,0-14.72,2.22-14.72,4.96,0,5.92,6.59,10.71,14.72,10.71s14.72-4.8,14.72-10.71c0-2.74-6.59-4.96-14.72-4.96Z"/>
          <path class="cls-12" d="m650.91,174.42c-.66-.77-1.73-1.03-2.74-1.13-5.63-.52-10.83,2.77-15.58,5.84-1.2.77-22.61,11.34-27.46,10.67l-.48,2.27c7.88.19,39.16-9.22,42.99-11.35,1.19-.66,2.41-1.38,3.19-2.5s.97-2.76.09-3.8Z"/>
        </g>
        <path class="cls-15" d="m578.88,190.68c-.32.37.41.54.37,1.03-.05.47,1.3,1.11,4.38,1.22,5.68.19,11.8,1.42,17.1-.64.41-.16.53-.67.25-1l-8.34-9.54c-1.62-1.64-4.26-1.65-5.9-.04l-7.85,8.97"/>
      </g>
      <g>
        <g>
          <path class="cls-12" d="m674.03,184.72c-8.13,0-14.72,2.22-14.72,4.96,0,5.92,6.59,10.71,14.72,10.71s14.72-4.8,14.72-10.71c0-2.74-6.59-4.96-14.72-4.96Z"/>
          <path class="cls-12" d="m735.02,174.42c-.66-.77-1.73-1.03-2.74-1.13-5.63-.52-10.83,2.77-15.58,5.84-1.2.77-22.61,11.34-27.46,10.67l-.48,2.27c7.88.19,39.16-9.22,42.99-11.35,1.19-.66,2.41-1.38,3.19-2.5s.97-2.76.09-3.8Z"/>
        </g>
        <path class="cls-15" d="m662.98,190.68c-.32.37.41.54.37,1.03-.05.47,1.3,1.11,4.38,1.22,5.68.19,11.8,1.42,17.1-.64.41-.16.53-.67.25-1l-8.34-9.54c-1.62-1.64-4.26-1.65-5.9-.04l-7.85,8.97"/>
      </g>
      <text class="cls-11" transform="translate(478.71 89.22)"><tspan x="0" y="0">Attack stats </tspan></text>
      <text class="cls-9" transform="translate(484.6 149.85)"><tspan x="0" y="0">teaspoons of sugar</tspan></text>
      <text class="cls-9" transform="translate(489.09 305.14)"><tspan x="0" y="0">defense st</tspan><tspan class="cls-8" x="135.06" y="0">r</tspan><tspan x="146.15" y="0">ategy</tspan></text>
      <g>
        <g>
          <path class="cls-12" d="m750.11,184.72c-8.13,0-14.72,2.22-14.72,4.96,0,5.92,6.59,10.71,14.72,10.71s14.72-4.8,14.72-10.71c0-2.74-6.59-4.96-14.72-4.96Z"/>
          <path class="cls-12" d="m811.1,174.42c-.66-.77-1.73-1.03-2.74-1.13-5.63-.52-10.83,2.77-15.58,5.84-1.2.77-22.61,11.34-27.46,10.67l-.48,2.27c7.88.19,39.16-9.22,42.99-11.35,1.19-.66,2.41-1.38,3.19-2.5s.97-2.76.09-3.8Z"/>
        </g>
        <path class="cls-15" d="m739.06,190.68c-.32.37.41.54.37,1.03-.05.47,1.3,1.11,4.38,1.22,5.68.19,11.8,1.42,17.1-.64.41-.16.53-.67.25-1l-8.34-9.54c-1.62-1.64-4.26-1.65-5.9-.04l-7.85,8.97"/>
      </g>
      <g>
        <g>
          <path class="cls-12" d="m504.12,230.38c-8.13,0-14.72,2.22-14.72,4.96,0,5.92,6.59,10.71,14.72,10.71s14.72-4.8,14.72-10.71c0-2.74-6.59-4.96-14.72-4.96Z"/>
          <path class="cls-12" d="m565.11,220.08c-.66-.77-1.73-1.03-2.74-1.13-5.63-.52-10.83,2.77-15.58,5.84-1.2.77-22.61,11.34-27.46,10.67l-.48,2.27c7.88.19,39.16-9.22,42.99-11.35,1.19-.66,2.41-1.38,3.19-2.5s.97-2.76.09-3.8Z"/>
        </g>
        <path class="cls-15" d="m493.07,236.35c-.32.37.41.54.37,1.03-.05.47,1.3,1.11,4.38,1.22,5.68.19,11.8,1.42,17.1-.64.41-.16.53-.67.25-1l-8.34-9.54c-1.62-1.64-4.26-1.65-5.9-.04l-7.85,8.97"/>
      </g>
      <g>
        <g>
          <path class="cls-12" d="m588.22,230.38c-8.13,0-14.72,2.22-14.72,4.96,0,5.92,6.59,10.71,14.72,10.71s14.72-4.8,14.72-10.71c0-2.74-6.59-4.96-14.72-4.96Z"/>
          <path class="cls-12" d="m649.21,220.08c-.66-.77-1.73-1.03-2.74-1.13-5.63-.52-10.83,2.77-15.58,5.84-1.2.77-22.61,11.34-27.46,10.67l-.48,2.27c7.88.19,39.16-9.22,42.99-11.35,1.19-.66,2.41-1.38,3.19-2.5s.97-2.76.09-3.8Z"/>
        </g>
        <path class="cls-15" d="m577.18,236.35c-.32.37.41.54.37,1.03-.05.47,1.3,1.11,4.38,1.22,5.68.19,11.8,1.42,17.1-.64.41-.16.53-.67.25-1l-8.34-9.54c-1.62-1.64-4.26-1.65-5.9-.04l-7.85,8.97"/>
      </g>
      <g>
        <g>
          <path class="cls-12" d="m672.33,230.38c-8.13,0-14.72,2.22-14.72,4.96,0,5.92,6.59,10.71,14.72,10.71s14.72-4.8,14.72-10.71c0-2.74-6.59-4.96-14.72-4.96Z"/>
          <path class="cls-12" d="m733.32,220.08c-.66-.77-1.73-1.03-2.74-1.13-5.63-.52-10.83,2.77-15.58,5.84-1.2.77-22.61,11.34-27.46,10.67l-.48,2.27c7.88.19,39.16-9.22,42.99-11.35,1.19-.66,2.41-1.38,3.19-2.5s.97-2.76.09-3.8Z"/>
        </g>
        <path class="cls-15" d="m661.29,236.35c-.32.37.41.54.37,1.03-.05.47,1.3,1.11,4.38,1.22,5.68.19,11.8,1.42,17.1-.64.41-.16.53-.67.25-1l-8.34-9.54c-1.62-1.64-4.26-1.65-5.9-.04l-7.85,8.97"/>
      </g>
      <g>
        <g>
          <path class="cls-12" d="m748.41,230.38c-8.13,0-14.72,2.22-14.72,4.96,0,5.92,6.59,10.71,14.72,10.71s14.72-4.8,14.72-10.71c0-2.74-6.59-4.96-14.72-4.96Z"/>
          <path class="cls-12" d="m809.4,220.08c-.66-.77-1.73-1.03-2.74-1.13-5.63-.52-10.83,2.77-15.58,5.84-1.2.77-22.61,11.34-27.46,10.67l-.48,2.27c7.88.19,39.16-9.22,42.99-11.35,1.19-.66,2.41-1.38,3.19-2.5s.97-2.76.09-3.8Z"/>
        </g>
        <path class="cls-15" d="m737.37,236.35c-.32.37.41.54.37,1.03-.05.47,1.3,1.11,4.38,1.22,5.68.19,11.8,1.42,17.1-.64.41-.16.53-.67.25-1l-8.34-9.54c-1.62-1.64-4.26-1.65-5.9-.04l-7.85,8.97"/>
      </g>
      <circle class="cls-2" cx="229.5" cy="193.72" r="114.71"/>
      <g>
        <path class="cls-14" d="m262.69,289.82h-62.34c-3.98,0-7.33-2.97-7.82-6.91l-16.22-131.76c-.58-4.7,3.09-8.84,7.82-8.84h90.73c4.64,0,8.27,3.98,7.84,8.6l-12.17,131.76c-.37,4.05-3.77,7.15-7.84,7.15Z"/>
        <rect class="cls-3" x="168.84" y="136.08" width="121.32" height="12.46" rx="6.23" ry="6.23"/>
        <path class="cls-13" d="m257.85,285.92h-53.23c-3.4,0-6.26-2.68-6.68-6.24l-13.85-118.96c-.49-4.24,2.63-7.98,6.68-7.98h77.48c3.96,0,7.06,3.6,6.7,7.76l-10.39,118.96c-.32,3.66-3.22,6.46-6.7,6.46Z"/>
        <circle class="cls-4" cx="208.58" cy="278.7" r="3.83"/>
        <circle class="cls-4" cx="204.75" cy="271.04" r="3.83"/>
        <circle class="cls-4" cx="218.06" cy="278.7" r="3.83"/>
        <circle class="cls-4" cx="214.23" cy="271.04" r="3.83"/>
        <circle class="cls-4" cx="223.35" cy="271.04" r="3.83"/>
        <circle class="cls-4" cx="227.17" cy="278.7" r="3.83"/>
        <circle class="cls-4" cx="255.24" cy="278.7" r="3.83"/>
        <circle class="cls-4" cx="259.07" cy="271.04" r="3.83"/>
        <circle class="cls-4" cx="245.77" cy="278.7" r="3.83"/>
        <circle class="cls-4" cx="249.59" cy="271.04" r="3.83"/>
        <circle class="cls-4" cx="240.48" cy="271.04" r="3.83"/>
        <circle class="cls-4" cx="236.65" cy="278.7" r="3.83"/>
        <circle class="cls-4" cx="231.91" cy="271.04" r="3.83"/>
        <path class="cls-6" d="m223.62,153.39h14.76v116.92c0,2.52-2.04,4.56-4.56,4.56h-5.64c-2.52,0-4.56-2.04-4.56-4.56v-116.92h0Z"/>
        <path class="cls-4" d="m228.53,97.61h4.95c2.71,0,4.91,2.2,4.91,4.91v33.55h-14.76v-33.55c0-2.71,2.2-4.91,4.91-4.91Z"/>
        <rect class="cls-5" x="223.62" y="148.58" width="14.76" height="4.81"/>
        <circle class="cls-4" cx="207.52" cy="262.71" r="3.83"/>
        <circle class="cls-4" cx="203.69" cy="255.06" r="3.83"/>
        <circle class="cls-4" cx="217" cy="262.71" r="3.83"/>
        <circle class="cls-4" cx="213.17" cy="255.06" r="3.83"/>
        <circle class="cls-4" cx="222.28" cy="255.06" r="3.83"/>
        <circle class="cls-4" cx="226.11" cy="262.71" r="3.83"/>
        <circle class="cls-4" cx="254.18" cy="262.71" r="3.83"/>
        <circle class="cls-4" cx="258.01" cy="255.06" r="3.83"/>
        <circle class="cls-4" cx="244.7" cy="262.71" r="3.83"/>
        <circle class="cls-4" cx="248.53" cy="255.06" r="3.83"/>
        <circle class="cls-4" cx="239.42" cy="255.06" r="3.83"/>
        <circle class="cls-4" cx="235.59" cy="262.71" r="3.83"/>
        <circle class="cls-4" cx="230.85" cy="255.06" r="3.83"/>
      </g>
      <text class="cls-10" transform="translate(63.76 365.33)"><tspan x="0" y="0">500ml medium Bubble</tspan><tspan class="cls-1" x="283.41" y="0"> </tspan><tspan class="cls-16" x="291.05" y="0">T</tspan><tspan x="304.58" y="0">ea</tspan></text>
      <g>
        <path class="cls-2" d="m486.23,341.96c.74,0,1.37.26,1.9.78.52.52.78,1.16.78,1.9s-.26,1.38-.78,1.9c-.52.52-1.16.78-1.9.78s-1.37-.26-1.9-.78c-.52-.52-.78-1.16-.78-1.9s.26-1.37.78-1.9c.52-.52,1.16-.78,1.9-.78Z"/>
        <path class="cls-2" d="m508.31,349.97l-.94-2.87h-5.06l-1,2.87h-2.08l5.52-13.78h.49l5.12,13.78h-2.06Zm-3.4-10.21l-2.11,5.98h4.04l-1.93-5.98Z"/>
        <path class="cls-2" d="m511.01,349.38l.62-1.67c.98.64,1.77.96,2.38.96,1.09,0,1.63-.46,1.63-1.37,0-.66-.53-1.22-1.58-1.69-.81-.37-1.36-.65-1.64-.84-.28-.19-.53-.41-.73-.65-.21-.24-.36-.5-.46-.78-.1-.28-.15-.57-.15-.89,0-.82.3-1.45.89-1.91.59-.46,1.37-.69,2.33-.69.72,0,1.64.23,2.74.69l-.5,1.63c-.7-.56-1.4-.83-2.11-.83-.42,0-.77.1-1.06.3-.29.2-.43.45-.43.75,0,.64.36,1.12,1.09,1.45l1.26.58c.77.35,1.34.75,1.69,1.21s.53,1.02.53,1.7c0,.89-.31,1.59-.94,2.09-.62.5-1.49.76-2.6.76-1.05,0-2.03-.26-2.95-.78Z"/>
        <path class="cls-2" d="m525.77,349.97l-3.12-4.97-1.54,1.59v3.39h-1.76v-14.01h1.76v8.69l3.8-4.62h2.06l-3.18,3.78,3.89,6.16h-1.91Z"/>
        <path class="cls-2" d="m540.03,337.54c-.36-.12-.69-.19-1-.19-.54,0-.98.2-1.33.61-.35.41-.52.92-.52,1.55,0,.17.02.34.05.52h2.02v1.48h-2.02v8.45h-1.76v-8.45h-1.45v-1.48h1.45c0-1.27.31-2.26.94-2.99.62-.72,1.45-1.08,2.48-1.08.51,0,1.06.09,1.65.28l-.49,1.3Z"/>
        <path class="cls-2" d="m541.03,344.98c0-1.53.41-2.77,1.24-3.72.83-.94,1.91-1.41,3.26-1.41,1.42,0,2.53.45,3.31,1.36.79.91,1.18,2.16,1.18,3.77s-.4,2.87-1.21,3.79c-.8.92-1.9,1.39-3.28,1.39s-2.52-.47-3.31-1.4c-.79-.93-1.19-2.19-1.19-3.78Zm1.86,0c0,2.49.88,3.74,2.64,3.74.82,0,1.47-.33,1.93-1,.47-.67.7-1.58.7-2.74,0-2.46-.88-3.69-2.63-3.69-.8,0-1.45.33-1.92.98-.48.66-.72,1.56-.72,2.71Z"/>
        <path class="cls-2" d="m557.28,341.73c-.38-.27-.77-.4-1.16-.4-.62,0-1.17.29-1.64.86-.47.58-.7,1.27-.7,2.08v5.7h-1.76v-9.94h1.76v1.59c.64-1.18,1.6-1.77,2.87-1.77.32,0,.77.05,1.36.17l-.73,1.72Z"/>
        <path class="cls-2" d="m565.13,347.16v-11.2h1.76v10.9c0,.53.15.95.46,1.26.31.31.71.46,1.2.46v1.58c-2.28,0-3.42-1-3.42-3Z"/>
        <path class="cls-2" d="m569.94,344.98c0-1.53.41-2.77,1.24-3.72.83-.94,1.91-1.41,3.26-1.41,1.42,0,2.53.45,3.31,1.36.79.91,1.18,2.16,1.18,3.77s-.4,2.87-1.21,3.79c-.8.92-1.9,1.39-3.28,1.39s-2.52-.47-3.31-1.4c-.79-.93-1.19-2.19-1.19-3.78Zm1.86,0c0,2.49.88,3.74,2.64,3.74.82,0,1.47-.33,1.93-1,.47-.67.7-1.58.7-2.74,0-2.46-.88-3.69-2.63-3.69-.8,0-1.45.33-1.92.98-.48.66-.72,1.56-.72,2.71Z"/>
        <path class="cls-2" d="m589.97,350.16h-.46l-2.91-6.76-2.9,6.76h-.46l-3.55-10.15h1.88l2.12,6.52,2.64-6.52h.46l2.73,6.52,2.28-6.52h1.73l-3.56,10.15Z"/>
        <path class="cls-2" d="m603.29,345.17h-7.16c0,1.16.32,2.06.96,2.68.56.54,1.29.82,2.17.82,1.01,0,1.85-.29,2.52-.88l.74,1.27c-.27.27-.69.51-1.25.71-.71.26-1.49.39-2.36.39-1.25,0-2.31-.42-3.18-1.27-.97-.93-1.46-2.19-1.46-3.77s.5-2.95,1.49-3.94c.89-.88,1.94-1.33,3.16-1.33,1.42,0,2.53.4,3.33,1.2.78.77,1.17,1.78,1.17,3.05,0,.39-.05.75-.14,1.08Zm-4.28-3.84c-.79,0-1.44.25-1.98.76-.51.48-.79,1.08-.86,1.8h5.5c0-.71-.22-1.31-.67-1.78-.49-.52-1.15-.78-1.99-.78Z"/>
        <path class="cls-2" d="m610.69,341.73c-.38-.27-.77-.4-1.16-.4-.62,0-1.17.29-1.64.86-.47.58-.7,1.27-.7,2.08v5.7h-1.76v-9.94h1.76v1.59c.64-1.18,1.6-1.77,2.87-1.77.32,0,.77.05,1.36.17l-.73,1.72Z"/>
        <path class="cls-2" d="m617.75,349.38l.62-1.67c.98.64,1.77.96,2.38.96,1.09,0,1.63-.46,1.63-1.37,0-.66-.53-1.22-1.58-1.69-.81-.37-1.36-.65-1.64-.84-.28-.19-.53-.41-.73-.65-.21-.24-.36-.5-.46-.78-.1-.28-.15-.57-.15-.89,0-.82.3-1.45.89-1.91.59-.46,1.37-.69,2.33-.69.72,0,1.64.23,2.74.69l-.5,1.63c-.7-.56-1.4-.83-2.11-.83-.42,0-.77.1-1.06.3-.29.2-.43.45-.43.75,0,.64.36,1.12,1.09,1.45l1.26.58c.77.35,1.34.75,1.69,1.21s.53,1.02.53,1.7c0,.89-.31,1.59-.94,2.09-.62.5-1.49.76-2.6.76-1.05,0-2.03-.26-2.95-.78Z"/>
        <path class="cls-2" d="m627.76,340.03v6.34c0,1.53.66,2.3,1.99,2.3.58,0,1.11-.17,1.6-.5s.8-.72.96-1.16v-6.98h1.76v9.94h-1.76v-1.37c-.2.39-.6.75-1.19,1.07-.6.33-1.18.49-1.75.49-1.09,0-1.92-.31-2.5-.94-.58-.62-.87-1.51-.87-2.66v-6.52h1.76Z"/>
        <path class="cls-2" d="m636.11,352.69l.96-1.41c1.03.69,1.97,1.03,2.84,1.03.8,0,1.43-.14,1.89-.41.46-.28.69-.62.69-1.02,0-.8-.58-1.21-1.74-1.21-.2,0-.56.05-1.08.15-.52.1-.92.15-1.22.15-1.41,0-2.12-.53-2.12-1.6,0-.33.17-.62.5-.89.33-.27.74-.46,1.23-.57-1.4-.66-2.1-1.79-2.1-3.41,0-1.04.36-1.91,1.09-2.6.72-.69,1.62-1.04,2.68-1.04.98,0,1.74.2,2.29.6l.88-1.06,1.15,1.09-1.06.8c.45.59.68,1.36.68,2.3,0,1-.31,1.84-.94,2.52-.62.68-1.44,1.07-2.46,1.17l-1.46.15c-.17.02-.41.08-.7.2-.29.11-.44.26-.44.45,0,.25.3.38.91.38.27,0,.68-.05,1.24-.14.56-.1.98-.14,1.25-.14.98,0,1.74.23,2.29.7.55.47.82,1.11.82,1.94,0,.92-.41,1.65-1.23,2.22-.82.56-1.86.84-3.11.84-.64,0-1.32-.11-2.03-.34-.71-.23-1.28-.51-1.72-.83Zm3.74-11.42c-.61,0-1.11.22-1.5.65-.39.43-.58.96-.58,1.58,0,.69.19,1.27.56,1.72.37.46.88.68,1.52.68s1.11-.22,1.47-.66c.35-.44.53-1.02.53-1.74,0-.62-.19-1.14-.57-1.58-.38-.43-.86-.65-1.42-.65Z"/>
        <path class="cls-2" d="m651.62,348.83c-.71.88-1.78,1.33-3.24,1.33-.78,0-1.46-.28-2.03-.85-.57-.57-.86-1.27-.86-2.11,0-1.01.44-1.86,1.32-2.56.88-.7,2-1.04,3.37-1.04.37,0,.79.08,1.26.24,0-1.61-.72-2.41-2.15-2.41-1.1,0-1.95.3-2.54.89l-.74-1.47c.33-.27.8-.51,1.39-.7.59-.2,1.16-.29,1.69-.29,1.44,0,2.49.33,3.14.98.65.66.98,1.7.98,3.13v3.56c0,.87.26,1.45.78,1.74v.88c-.72,0-1.25-.1-1.61-.31-.36-.2-.61-.54-.77-1.01Zm-.17-3.74c-.56-.12-.95-.19-1.17-.19-.89,0-1.62.23-2.18.69-.56.46-.84,1-.84,1.62,0,1.03.61,1.55,1.83,1.55.89,0,1.68-.42,2.37-1.27v-2.4Z"/>
        <path class="cls-2" d="m661.39,341.73c-.38-.27-.77-.4-1.16-.4-.62,0-1.17.29-1.64.86-.47.58-.7,1.27-.7,2.08v5.7h-1.76v-9.94h1.76v1.59c.64-1.18,1.6-1.77,2.87-1.77.32,0,.77.05,1.36.17l-.73,1.72Z"/>
        <path class="cls-2" d="m669.24,347.16v-11.2h1.76v10.9c0,.53.15.95.46,1.26.31.31.71.46,1.2.46v1.58c-2.28,0-3.42-1-3.42-3Z"/>
        <path class="cls-2" d="m683.07,345.17h-7.16c0,1.16.32,2.06.96,2.68.56.54,1.29.82,2.17.82,1.01,0,1.85-.29,2.52-.88l.74,1.27c-.27.27-.69.51-1.25.71-.71.26-1.49.39-2.36.39-1.25,0-2.31-.42-3.18-1.27-.97-.93-1.46-2.19-1.46-3.77s.5-2.95,1.49-3.94c.89-.88,1.94-1.33,3.16-1.33,1.42,0,2.53.4,3.33,1.2.78.77,1.17,1.78,1.17,3.05,0,.39-.05.75-.14,1.08Zm-4.28-3.84c-.79,0-1.44.25-1.98.76-.51.48-.79,1.08-.86,1.8h5.5c0-.71-.22-1.31-.67-1.78-.49-.52-1.15-.78-1.99-.78Z"/>
        <path class="cls-2" d="m688.64,350.16h-.46l-4.26-10.15h1.93l2.63,6.96,2.68-6.96h1.85l-4.36,10.15Z"/>
        <path class="cls-2" d="m702.74,345.17h-7.16c0,1.16.32,2.06.96,2.68.56.54,1.29.82,2.17.82,1.01,0,1.85-.29,2.52-.88l.74,1.27c-.27.27-.69.51-1.25.71-.71.26-1.49.39-2.36.39-1.25,0-2.31-.42-3.18-1.27-.97-.93-1.46-2.19-1.46-3.77s.5-2.95,1.49-3.94c.89-.88,1.94-1.33,3.16-1.33,1.42,0,2.53.4,3.33,1.2.78.77,1.17,1.78,1.17,3.05,0,.39-.05.75-.14,1.08Zm-4.28-3.84c-.79,0-1.44.25-1.98.76-.51.48-.79,1.08-.86,1.8h5.5c0-.71-.22-1.31-.67-1.78-.49-.52-1.15-.78-1.99-.78Z"/>
        <path class="cls-2" d="m704.87,347.16v-11.2h1.76v10.9c0,.53.15.95.46,1.26.31.31.71.46,1.2.46v1.58c-2.28,0-3.42-1-3.42-3Z"/>
        <path class="cls-2" d="m709.69,349.38l.62-1.67c.98.64,1.77.96,2.38.96,1.09,0,1.63-.46,1.63-1.37,0-.66-.53-1.22-1.58-1.69-.81-.37-1.36-.65-1.64-.84-.28-.19-.53-.41-.73-.65-.21-.24-.36-.5-.46-.78-.1-.28-.15-.57-.15-.89,0-.82.3-1.45.89-1.91.59-.46,1.37-.69,2.33-.69.72,0,1.64.23,2.74.69l-.5,1.63c-.7-.56-1.4-.83-2.11-.83-.42,0-.77.1-1.06.3-.29.2-.43.45-.43.75,0,.64.36,1.12,1.09,1.45l1.26.58c.77.35,1.34.75,1.69,1.21s.53,1.02.53,1.7c0,.89-.31,1.59-.94,2.09-.62.5-1.49.76-2.6.76-1.05,0-2.03-.26-2.95-.78Z"/>
        <path class="cls-2" d="m486.23,364.76c.74,0,1.37.26,1.9.78.52.52.78,1.16.78,1.9s-.26,1.38-.78,1.9c-.52.52-1.16.78-1.9.78s-1.37-.26-1.9-.78c-.52-.52-.78-1.16-.78-1.9s.26-1.37.78-1.9c.52-.52,1.16-.78,1.9-.78Z"/>
        <path class="cls-2" d="m508.13,372.77l-3.63-5.84c-.41,0-1.07-.03-1.97-.09v5.93h-1.86v-13.59c.07,0,.55-.02,1.44-.07.89-.05,1.54-.07,1.95-.07,3.27,0,4.9,1.3,4.9,3.9,0,.85-.26,1.62-.79,2.31-.53.68-1.15,1.11-1.87,1.28l3.94,6.25h-2.12Zm-5.59-11.92v4.42c.45.06.88.09,1.3.09,1.11,0,1.92-.18,2.43-.54.51-.36.76-1,.76-1.92,0-.76-.27-1.31-.82-1.64-.54-.33-1.4-.5-2.58-.5-.19,0-.55.03-1.09.09Z"/>
        <path class="cls-2" d="m519.11,367.97h-7.16c0,1.16.32,2.06.96,2.68.56.54,1.29.82,2.17.82,1.01,0,1.85-.29,2.52-.88l.74,1.27c-.27.27-.69.51-1.25.71-.71.26-1.49.39-2.36.39-1.25,0-2.31-.42-3.18-1.27-.97-.93-1.46-2.19-1.46-3.77s.5-2.95,1.49-3.94c.89-.88,1.94-1.33,3.16-1.33,1.42,0,2.53.4,3.33,1.2.78.77,1.17,1.78,1.17,3.05,0,.39-.05.75-.14,1.08Zm-4.28-3.84c-.79,0-1.44.25-1.98.76-.51.48-.79,1.08-.86,1.8h5.5c0-.71-.22-1.31-.67-1.78-.49-.52-1.15-.78-1.99-.78Z"/>
        <path class="cls-2" d="m527.4,372.76v-.73c-.61.61-1.5.92-2.67.92-1.24,0-2.25-.45-3.02-1.34-.77-.89-1.16-2.08-1.16-3.56s.45-2.76,1.34-3.82c.89-1.05,1.95-1.58,3.18-1.58,1.03,0,1.81.24,2.34.72v-4.61h1.76v14h-1.76Zm0-7.62c-.45-.67-1.05-1-1.83-1-.95,0-1.71.35-2.3,1.06-.58.71-.88,1.6-.88,2.69,0,2.39,1.09,3.59,3.27,3.59.28,0,.61-.09,1-.26.39-.18.63-.36.73-.56v-5.51Z"/>
        <path class="cls-2" d="m533.36,362.83v6.34c0,1.53.66,2.3,1.99,2.3.58,0,1.11-.17,1.6-.5s.8-.72.96-1.16v-6.98h1.76v9.94h-1.76v-1.37c-.2.39-.6.75-1.19,1.07-.6.33-1.18.49-1.75.49-1.09,0-1.92-.31-2.5-.94-.58-.62-.87-1.51-.87-2.66v-6.52h1.76Z"/>
        <path class="cls-2" d="m549.57,363.64l-.87,1.24c-.18-.18-.5-.35-.95-.51-.46-.16-.9-.24-1.34-.24-.96,0-1.72.33-2.28,1.01-.56.67-.84,1.59-.84,2.76s.29,2.05.86,2.66c.58.61,1.37.91,2.39.91.79,0,1.59-.31,2.39-.92l.7,1.48c-.95.61-2.12.92-3.52.92s-2.47-.46-3.36-1.36c-.88-.91-1.33-2.14-1.33-3.69s.46-2.85,1.38-3.81c.92-.96,2.18-1.44,3.77-1.44.51,0,1.07.11,1.67.32.6.22,1.04.44,1.33.67Z"/>
        <path class="cls-2" d="m559.85,367.97h-7.16c0,1.16.32,2.06.96,2.68.56.54,1.29.82,2.17.82,1.01,0,1.85-.29,2.52-.88l.74,1.27c-.27.27-.69.51-1.25.71-.71.26-1.49.39-2.36.39-1.25,0-2.31-.42-3.18-1.27-.97-.93-1.46-2.19-1.46-3.77s.5-2.95,1.49-3.94c.89-.88,1.94-1.33,3.16-1.33,1.42,0,2.53.4,3.33,1.2.78.77,1.17,1.78,1.17,3.05,0,.39-.05.75-.14,1.08Zm-4.28-3.84c-.79,0-1.44.25-1.98.76-.51.48-.79,1.08-.86,1.8h5.5c0-.71-.22-1.31-.67-1.78-.49-.52-1.15-.78-1.99-.78Z"/>
        <path class="cls-2" d="m561.19,372.18l.62-1.67c.98.64,1.77.96,2.38.96,1.09,0,1.63-.46,1.63-1.37,0-.66-.53-1.22-1.58-1.69-.81-.37-1.36-.65-1.64-.84-.28-.19-.53-.41-.73-.65-.21-.24-.36-.5-.46-.78-.1-.28-.15-.57-.15-.89,0-.82.3-1.45.89-1.91.59-.46,1.37-.69,2.33-.69.72,0,1.64.23,2.74.69l-.5,1.63c-.7-.56-1.4-.83-2.11-.83-.42,0-.77.1-1.06.3-.29.2-.43.45-.43.75,0,.64.36,1.12,1.09,1.45l1.26.58c.77.35,1.34.75,1.69,1.21s.53,1.02.53,1.7c0,.89-.31,1.59-.94,2.09-.62.5-1.49.76-2.6.76-1.05,0-2.03-.26-2.95-.78Z"/>
        <path class="cls-2" d="m586.35,360.34c-.36-.12-.69-.19-1-.19-.54,0-.98.2-1.33.61-.35.41-.52.92-.52,1.55,0,.17.02.34.05.52h2.02v1.48h-2.02v8.45h-1.76v-8.45h-1.45v-1.48h1.45c0-1.27.31-2.26.94-2.99.62-.72,1.45-1.08,2.48-1.08.51,0,1.06.09,1.65.28l-.49,1.3Z"/>
        <path class="cls-2" d="m593.4,364.53c-.38-.27-.77-.4-1.16-.4-.62,0-1.17.29-1.64.86-.47.58-.7,1.27-.7,2.08v5.7h-1.76v-9.94h1.76v1.59c.64-1.18,1.6-1.77,2.87-1.77.32,0,.77.05,1.36.17l-.73,1.72Z"/>
        <path class="cls-2" d="m603.76,367.97h-7.16c0,1.16.32,2.06.96,2.68.56.54,1.29.82,2.17.82,1.01,0,1.85-.29,2.52-.88l.74,1.27c-.27.27-.69.51-1.25.71-.71.26-1.49.39-2.36.39-1.25,0-2.31-.42-3.18-1.27-.97-.93-1.46-2.19-1.46-3.77s.5-2.95,1.49-3.94c.89-.88,1.94-1.33,3.16-1.33,1.42,0,2.53.4,3.33,1.2.78.77,1.17,1.78,1.17,3.05,0,.39-.05.75-.14,1.08Zm-4.28-3.84c-.79,0-1.44.25-1.98.76-.51.48-.79,1.08-.86,1.8h5.5c0-.71-.22-1.31-.67-1.78-.49-.52-1.15-.78-1.99-.78Z"/>
        <path class="cls-2" d="m612.12,376.67v-4.48c-.51.51-1.37.77-2.58.77-1.35,0-2.42-.45-3.19-1.36-.77-.91-1.15-2.16-1.15-3.77s.44-2.85,1.32-3.78c.88-.93,2.01-1.4,3.4-1.4.87,0,1.67.31,2.42.94l.47-.75h1.07v13.83h-1.76Zm0-11.77c-.51-.51-1.14-.76-1.9-.76-1,0-1.77.34-2.33,1.01s-.83,1.57-.83,2.68.28,2.05.83,2.69c.56.64,1.31.96,2.25.96.85,0,1.51-.22,1.98-.65v-5.93Z"/>
        <path class="cls-2" d="m618.01,362.83v6.34c0,1.53.66,2.3,1.99,2.3.58,0,1.11-.17,1.6-.5s.8-.72.96-1.16v-6.98h1.76v9.94h-1.76v-1.37c-.2.39-.6.75-1.19,1.07-.6.33-1.18.49-1.75.49-1.09,0-1.92-.31-2.5-.94-.58-.62-.87-1.51-.87-2.66v-6.52h1.76Z"/>
        <path class="cls-2" d="m635.09,367.97h-7.16c0,1.16.32,2.06.96,2.68.56.54,1.29.82,2.17.82,1.01,0,1.85-.29,2.52-.88l.74,1.27c-.27.27-.69.51-1.25.71-.71.26-1.49.39-2.36.39-1.25,0-2.31-.42-3.18-1.27-.97-.93-1.46-2.19-1.46-3.77s.5-2.95,1.49-3.94c.89-.88,1.94-1.33,3.16-1.33,1.42,0,2.53.4,3.33,1.2.78.77,1.17,1.78,1.17,3.05,0,.39-.05.75-.14,1.08Zm-4.28-3.84c-.79,0-1.44.25-1.98.76-.51.48-.79,1.08-.86,1.8h5.5c0-.71-.22-1.31-.67-1.78-.49-.52-1.15-.78-1.99-.78Z"/>
        <path class="cls-2" d="m643.19,372.77v-5.78c0-1.06-.16-1.8-.48-2.22-.32-.42-.85-.63-1.6-.63-.4,0-.82.12-1.26.36-.44.24-.78.54-1.01.89v7.38h-1.76v-9.94h1.21l.56,1.28c.58-.98,1.53-1.46,2.85-1.46,2.18,0,3.27,1.32,3.27,3.97v6.15h-1.76Z"/>
        <path class="cls-2" d="m654.96,363.64l-.87,1.24c-.18-.18-.5-.35-.95-.51-.46-.16-.9-.24-1.34-.24-.96,0-1.72.33-2.28,1.01-.56.67-.84,1.59-.84,2.76s.29,2.05.86,2.66c.58.61,1.37.91,2.39.91.79,0,1.59-.31,2.39-.92l.7,1.48c-.95.61-2.12.92-3.52.92s-2.47-.46-3.36-1.36c-.88-.91-1.33-2.14-1.33-3.69s.46-2.85,1.38-3.81c.92-.96,2.18-1.44,3.77-1.44.51,0,1.07.11,1.67.32.6.22,1.04.44,1.33.67Z"/>
        <path class="cls-2" d="m660.66,374.46c-.23.63-.71,1.16-1.44,1.58-.73.42-1.55.63-2.45.63v-1.58c.74,0,1.37-.17,1.89-.51.53-.34.79-.76.79-1.26,0-.54-.1-1.08-.29-1.61-.19-.53-.44-1.18-.74-1.96l-2.69-6.91h1.8l2.92,7.68,2.63-7.68h1.8l-4.21,11.62Z"/>
        <path class="cls-2" d="m671.31,367.78c0-1.53.41-2.77,1.24-3.72.83-.94,1.91-1.41,3.26-1.41,1.42,0,2.53.45,3.31,1.36.79.91,1.18,2.16,1.18,3.77s-.4,2.87-1.21,3.79c-.8.92-1.9,1.39-3.28,1.39s-2.52-.47-3.31-1.4c-.79-.93-1.19-2.19-1.19-3.78Zm1.86,0c0,2.49.88,3.74,2.64,3.74.82,0,1.47-.33,1.93-1,.47-.67.7-1.58.7-2.74,0-2.46-.88-3.69-2.63-3.69-.8,0-1.45.33-1.92.98-.48.66-.72,1.56-.72,2.71Z"/>
        <path class="cls-2" d="m687.53,360.34c-.36-.12-.69-.19-1-.19-.54,0-.98.2-1.33.61-.35.41-.52.92-.52,1.55,0,.17.02.34.05.52h2.02v1.48h-2.02v8.45h-1.76v-8.45h-1.45v-1.48h1.45c0-1.27.31-2.26.94-2.99.62-.72,1.45-1.08,2.48-1.08.51,0,1.06.09,1.65.28l-.49,1.3Z"/>
        <path class="cls-2" d="m702.4,363.64l-.87,1.24c-.18-.18-.5-.35-.95-.51-.46-.16-.9-.24-1.34-.24-.96,0-1.72.33-2.28,1.01-.56.67-.84,1.59-.84,2.76s.29,2.05.86,2.66c.58.61,1.37.91,2.39.91.79,0,1.59-.31,2.39-.92l.7,1.48c-.95.61-2.12.92-3.52.92s-2.47-.46-3.36-1.36c-.88-.91-1.33-2.14-1.33-3.69s.46-2.85,1.38-3.81c.92-.96,2.18-1.44,3.77-1.44.51,0,1.07.11,1.67.32.6.22,1.04.44,1.33.67Z"/>
        <path class="cls-2" d="m703.66,367.78c0-1.53.41-2.77,1.24-3.72.83-.94,1.91-1.41,3.26-1.41,1.42,0,2.53.45,3.31,1.36.79.91,1.18,2.16,1.18,3.77s-.4,2.87-1.21,3.79c-.8.92-1.9,1.39-3.28,1.39s-2.52-.47-3.31-1.4c-.79-.93-1.19-2.19-1.19-3.78Zm1.86,0c0,2.49.88,3.74,2.64,3.74.82,0,1.47-.33,1.93-1,.47-.67.7-1.58.7-2.74,0-2.46-.88-3.69-2.63-3.69-.8,0-1.45.33-1.92.98-.48.66-.72,1.56-.72,2.71Z"/>
        <path class="cls-2" d="m720.62,372.77v-5.78c0-1.06-.16-1.8-.48-2.22-.32-.42-.85-.63-1.6-.63-.4,0-.82.12-1.26.36-.44.24-.78.54-1.01.89v7.38h-1.76v-9.94h1.21l.56,1.28c.58-.98,1.53-1.46,2.85-1.46,2.18,0,3.27,1.32,3.27,3.97v6.15h-1.76Z"/>
        <path class="cls-2" d="m724.24,372.18l.62-1.67c.98.64,1.77.96,2.38.96,1.09,0,1.63-.46,1.63-1.37,0-.66-.53-1.22-1.58-1.69-.81-.37-1.36-.65-1.64-.84-.28-.19-.53-.41-.73-.65-.21-.24-.36-.5-.46-.78-.1-.28-.15-.57-.15-.89,0-.82.3-1.45.89-1.91.59-.46,1.37-.69,2.33-.69.72,0,1.64.23,2.74.69l-.5,1.63c-.7-.56-1.4-.83-2.11-.83-.42,0-.77.1-1.06.3-.29.2-.43.45-.43.75,0,.64.36,1.12,1.09,1.45l1.26.58c.77.35,1.34.75,1.69,1.21s.53,1.02.53,1.7c0,.89-.31,1.59-.94,2.09-.62.5-1.49.76-2.6.76-1.05,0-2.03-.26-2.95-.78Z"/>
        <path class="cls-2" d="m734.25,362.83v6.34c0,1.53.66,2.3,1.99,2.3.58,0,1.11-.17,1.6-.5s.8-.72.96-1.16v-6.98h1.76v9.94h-1.76v-1.37c-.2.39-.6.75-1.19,1.07-.6.33-1.18.49-1.75.49-1.09,0-1.92-.31-2.5-.94-.58-.62-.87-1.51-.87-2.66v-6.52h1.76Z"/>
        <path class="cls-2" d="m754.47,372.77v-6.29c0-1.56-.68-2.35-2.03-2.35-.43,0-.83.13-1.2.39-.37.26-.62.56-.76.9v7.35h-1.76v-7.06c0-.49-.18-.87-.55-1.15-.37-.28-.85-.42-1.46-.42-.35,0-.73.14-1.13.41-.4.27-.68.57-.85.9v7.33h-1.76v-9.94h1.15l.58,1.15c.68-.89,1.53-1.34,2.55-1.34,1.42,0,2.42.44,2.99,1.33.2-.38.57-.69,1.1-.95s1.09-.38,1.66-.38c1.03,0,1.82.3,2.38.91.56.61.84,1.46.84,2.57v6.64h-1.76Z"/>
        <path class="cls-2" d="m760.5,372.22v4.44h-1.76v-13.83h1.76v.82c.67-.67,1.48-1,2.42-1,1.41,0,2.51.44,3.29,1.32.79.88,1.18,2.17,1.18,3.86,0,1.51-.4,2.74-1.19,3.7-.79.96-1.94,1.43-3.43,1.43-.42,0-.87-.07-1.35-.22-.48-.15-.79-.32-.92-.51Zm0-7.25v5.79c.11.17.35.33.71.48.36.15.71.23,1.05.23,2.19,0,3.28-1.24,3.28-3.71,0-1.26-.26-2.17-.78-2.76-.52-.58-1.35-.87-2.5-.87-.25,0-.55.09-.91.26-.36.17-.64.37-.85.58Z"/>
        <path class="cls-2" d="m769.95,364.22h-1.15v-1.39h1.15v-2.08l1.76-.68v2.76h2.73v1.39h-2.73v4.94c0,.84.14,1.43.42,1.78.28.35.73.53,1.36.53.45,0,.92-.11,1.4-.34l.26,1.55c-.73.19-1.53.28-2.4.28-.79,0-1.45-.29-1.99-.88-.54-.58-.81-1.32-.81-2.21v-5.64Z"/>
        <path class="cls-2" d="m777.71,372.77v-8.45h-1.36v-1.48h3.13v9.94h-1.76Zm.96-13.69c.3,0,.56.11.77.32s.32.47.32.77-.11.56-.32.77c-.21.21-.47.32-.77.32s-.55-.11-.77-.32-.32-.47-.32-.77.1-.56.32-.77c.21-.21.47-.32.77-.32Z"/>
        <path class="cls-2" d="m781.62,367.78c0-1.53.41-2.77,1.24-3.72.83-.94,1.91-1.41,3.26-1.41,1.42,0,2.53.45,3.31,1.36.79.91,1.18,2.16,1.18,3.77s-.4,2.87-1.21,3.79c-.8.92-1.9,1.39-3.28,1.39s-2.52-.47-3.31-1.4c-.79-.93-1.19-2.19-1.19-3.78Zm1.86,0c0,2.49.88,3.74,2.64,3.74.82,0,1.47-.33,1.93-1,.47-.67.7-1.58.7-2.74,0-2.46-.88-3.69-2.63-3.69-.8,0-1.45.33-1.92.98-.48.66-.72,1.56-.72,2.71Z"/>
        <path class="cls-2" d="m798.58,372.77v-5.78c0-1.06-.16-1.8-.48-2.22-.32-.42-.85-.63-1.6-.63-.4,0-.82.12-1.26.36-.44.24-.78.54-1.01.89v7.38h-1.76v-9.94h1.21l.56,1.28c.58-.98,1.53-1.46,2.85-1.46,2.18,0,3.27,1.32,3.27,3.97v6.15h-1.76Z"/>
      </g>
    </g>
  </g>
</svg>