<?xml version="1.0" encoding="UTF-8"?>
<svg id="Layer_2" data-name="Layer 2" xmlns="http://www.w3.org/2000/svg" viewBox="0 0 860.4 431.75">
  <defs>
    <style>
      .cls-1 {
        letter-spacing: -.02em;
      }

      .cls-2 {
        fill: #f1f2f2;
      }

      .cls-3 {
        fill: #a8d37e;
      }

      .cls-4, .cls-5, .cls-6 {
        fill: #231f20;
      }

      .cls-7 {
        fill: #3b57a7;
      }

      .cls-8 {
        letter-spacing: -.03em;
      }

      .cls-9 {
        fill: #d6cdd5;
        font-size: 28px;
      }

      .cls-9, .cls-10, .cls-11 {
        font-family: TrebuchetMS-Bold, 'Trebuchet MS';
        font-weight: 700;
      }

      .cls-12 {
        fill: #72cbcb;
      }

      .cls-12, .cls-13, .cls-14, .cls-15 {
        stroke-miterlimit: 10;
      }

      .cls-12, .cls-15 {
        stroke: #72cbcb;
      }

      .cls-16 {
        letter-spacing: -.11em;
      }

      .cls-10 {
        font-size: 27px;
      }

      .cls-10, .cls-15, .cls-11 {
        fill: #fff;
      }

      .cls-13 {
        fill: #665226;
      }

      .cls-13, .cls-14 {
        stroke: #71b5d8;
      }

      .cls-13, .cls-14, .cls-15 {
        stroke-width: 3px;
      }

      .cls-14 {
        fill: #70ccd8;
      }

      .cls-11 {
        font-size: 39px;
      }

      .cls-5 {
        opacity: .89;
      }

      .cls-6 {
        opacity: .78;
      }
    </style>
  </defs>
  <g id="exploreSugar">
    <rect class="cls-7" x="0" y="0" width="860.4" height="431.75" rx="57.84" ry="57.84"/>
    <g>
      <g>
        <path class="cls-12" d="m486.98,168.14c-8.13,0-14.72,2.22-14.72,4.96,0,5.92,6.59,10.71,14.72,10.71s14.72-4.8,14.72-10.71c0-2.74-6.59-4.96-14.72-4.96Z"/>
        <path class="cls-12" d="m547.97,157.84c-.66-.77-1.73-1.03-2.74-1.13-5.63-.52-10.83,2.77-15.58,5.84-1.2.77-22.61,11.34-27.46,10.67l-.48,2.27c7.88.19,39.16-9.22,42.99-11.35,1.19-.66,2.41-1.38,3.19-2.5s.97-2.76.09-3.8Z"/>
      </g>
      <path class="cls-15" d="m475.94,174.1c-.32.37.41.54.37,1.03-.05.47,1.3,1.11,4.38,1.22,5.68.19,11.8,1.42,17.1-.64.41-.16.53-.67.25-1l-8.34-9.54c-1.62-1.64-4.26-1.65-5.9-.04l-7.85,8.97"/>
    </g>
    <g>
      <g>
        <path class="cls-12" d="m571.09,168.14c-8.13,0-14.72,2.22-14.72,4.96,0,5.92,6.59,10.71,14.72,10.71s14.72-4.8,14.72-10.71c0-2.74-6.59-4.96-14.72-4.96Z"/>
        <path class="cls-12" d="m632.07,157.84c-.66-.77-1.73-1.03-2.74-1.13-5.63-.52-10.83,2.77-15.58,5.84-1.2.77-22.61,11.34-27.46,10.67l-.48,2.27c7.88.19,39.16-9.22,42.99-11.35,1.19-.66,2.41-1.38,3.19-2.5s.97-2.76.09-3.8Z"/>
      </g>
      <path class="cls-15" d="m560.04,174.1c-.32.37.41.54.37,1.03-.05.47,1.3,1.11,4.38,1.22,5.68.19,11.8,1.42,17.1-.64.41-.16.53-.67.25-1l-8.34-9.54c-1.62-1.64-4.26-1.65-5.9-.04l-7.85,8.97"/>
    </g>
    <g>
      <g>
        <path class="cls-12" d="m655.19,168.14c-8.13,0-14.72,2.22-14.72,4.96,0,5.92,6.59,10.71,14.72,10.71s14.72-4.8,14.72-10.71c0-2.74-6.59-4.96-14.72-4.96Z"/>
        <path class="cls-12" d="m716.18,157.84c-.66-.77-1.73-1.03-2.74-1.13-5.63-.52-10.83,2.77-15.58,5.84-1.2.77-22.61,11.34-27.46,10.67l-.48,2.27c7.88.19,39.16-9.22,42.99-11.35,1.19-.66,2.41-1.38,3.19-2.5s.97-2.76.09-3.8Z"/>
      </g>
      <path class="cls-15" d="m644.15,174.1c-.32.37.41.54.37,1.03-.05.47,1.3,1.11,4.38,1.22,5.68.19,11.8,1.42,17.1-.64.41-.16.53-.67.25-1l-8.34-9.54c-1.62-1.64-4.26-1.65-5.9-.04l-7.85,8.97"/>
    </g>
    <text class="cls-11" transform="translate(467.97 83.18)"><tspan x="0" y="0">Attack stats </tspan></text>
    <text class="cls-9" transform="translate(465.77 133.28)"><tspan x="0" y="0">teaspoons of sugar</tspan></text>
    <text class="cls-9" transform="translate(470.26 288.56)"><tspan x="0" y="0">defense st</tspan><tspan class="cls-8" x="135.06" y="0">r</tspan><tspan x="146.15" y="0">ategy</tspan></text>
    <g>
      <g>
        <path class="cls-12" d="m732.34,175.08c-8.13,0-14.72,2.22-14.72,4.96,0,5.92,6.59,10.71,14.72,10.71s14.72-4.8,14.72-10.71c0-2.74-6.59-4.96-14.72-4.96Z"/>
        <path class="cls-12" d="m793.33,164.78c-.66-.77-1.73-1.03-2.74-1.13-5.63-.52-10.83,2.77-15.58,5.84-1.2.77-22.61,11.34-27.46,10.67l-.48,2.27c7.88.19,39.16-9.22,42.99-11.35,1.19-.66,2.41-1.38,3.19-2.5s.97-2.76.09-3.8Z"/>
      </g>
      <path class="cls-15" d="m721.3,181.05c-.32.37.41.54.37,1.03-.05.47,1.3,1.11,4.38,1.22,5.68.19,11.8,1.42,17.1-.64.41-.16.53-.67.25-1l-8.34-9.54c-1.62-1.64-4.26-1.65-5.9-.04l-7.85,8.97"/>
    </g>
    <g>
      <g>
        <path class="cls-12" d="m485.28,213.81c-8.13,0-14.72,2.22-14.72,4.96,0,5.92,6.59,10.71,14.72,10.71s14.72-4.8,14.72-10.71c0-2.74-6.59-4.96-14.72-4.96Z"/>
        <path class="cls-12" d="m546.27,203.5c-.66-.77-1.73-1.03-2.74-1.13-5.63-.52-10.83,2.77-15.58,5.84-1.2.77-22.61,11.34-27.46,10.67l-.48,2.27c7.88.19,39.16-9.22,42.99-11.35,1.19-.66,2.41-1.38,3.19-2.5s.97-2.76.09-3.8Z"/>
      </g>
      <path class="cls-15" d="m474.24,219.77c-.32.37.41.54.37,1.03-.05.47,1.3,1.11,4.38,1.22,5.68.19,11.8,1.42,17.1-.64.41-.16.53-.67.25-1l-8.34-9.54c-1.62-1.64-4.26-1.65-5.9-.04l-7.85,8.97"/>
    </g>
    <g>
      <g>
        <path class="cls-12" d="m569.39,213.81c-8.13,0-14.72,2.22-14.72,4.96,0,5.92,6.59,10.71,14.72,10.71s14.72-4.8,14.72-10.71c0-2.74-6.59-4.96-14.72-4.96Z"/>
        <path class="cls-12" d="m630.38,203.5c-.66-.77-1.73-1.03-2.74-1.13-5.63-.52-10.83,2.77-15.58,5.84-1.2.77-22.61,11.34-27.46,10.67l-.48,2.27c7.88.19,39.16-9.22,42.99-11.35,1.19-.66,2.41-1.38,3.19-2.5s.97-2.76.09-3.8Z"/>
      </g>
      <path class="cls-15" d="m558.34,219.77c-.32.37.41.54.37,1.03-.05.47,1.3,1.11,4.38,1.22,5.68.19,11.8,1.42,17.1-.64.41-.16.53-.67.25-1l-8.34-9.54c-1.62-1.64-4.26-1.65-5.9-.04l-7.85,8.97"/>
    </g>
    <g>
      <g>
        <path class="cls-12" d="m653.49,213.81c-8.13,0-14.72,2.22-14.72,4.96,0,5.92,6.59,10.71,14.72,10.71s14.72-4.8,14.72-10.71c0-2.74-6.59-4.96-14.72-4.96Z"/>
        <path class="cls-12" d="m714.48,203.5c-.66-.77-1.73-1.03-2.74-1.13-5.63-.52-10.83,2.77-15.58,5.84-1.2.77-22.61,11.34-27.46,10.67l-.48,2.27c7.88.19,39.16-9.22,42.99-11.35,1.19-.66,2.41-1.38,3.19-2.5s.97-2.76.09-3.8Z"/>
      </g>
      <path class="cls-15" d="m642.45,219.77c-.32.37.41.54.37,1.03-.05.47,1.3,1.11,4.38,1.22,5.68.19,11.8,1.42,17.1-.64.41-.16.53-.67.25-1l-8.34-9.54c-1.62-1.64-4.26-1.65-5.9-.04l-7.85,8.97"/>
    </g>
    <g>
      <g>
        <path class="cls-12" d="m730.64,220.75c-8.13,0-14.72,2.22-14.72,4.96,0,5.92,6.59,10.71,14.72,10.71s14.72-4.8,14.72-10.71c0-2.74-6.59-4.96-14.72-4.96Z"/>
        <path class="cls-12" d="m791.63,210.45c-.66-.77-1.73-1.03-2.74-1.13-5.63-.52-10.83,2.77-15.58,5.84-1.2.77-22.61,11.34-27.46,10.67l-.48,2.27c7.88.19,39.16-9.22,42.99-11.35,1.19-.66,2.41-1.38,3.19-2.5s.97-2.76.09-3.8Z"/>
      </g>
      <path class="cls-15" d="m719.6,226.71c-.32.37.41.54.37,1.03-.05.47,1.3,1.11,4.38,1.22,5.68.19,11.8,1.42,17.1-.64.41-.16.53-.67.25-1l-8.34-9.54c-1.62-1.64-4.26-1.65-5.9-.04l-7.85,8.97"/>
    </g>
    <circle class="cls-2" cx="229.5" cy="193.72" r="114.71"/>
    <g>
      <path class="cls-14" d="m262.69,289.82h-62.34c-3.98,0-7.33-2.97-7.82-6.91l-16.22-131.76c-.58-4.7,3.09-8.84,7.82-8.84h90.73c4.64,0,8.27,3.98,7.84,8.6l-12.17,131.76c-.37,4.05-3.77,7.15-7.84,7.15Z"/>
      <rect class="cls-3" x="168.84" y="136.08" width="121.32" height="12.46" rx="6.23" ry="6.23"/>
      <path class="cls-13" d="m257.85,285.92h-53.23c-3.4,0-6.26-2.68-6.68-6.24l-13.85-118.96c-.49-4.24,2.63-7.98,6.68-7.98h77.48c3.96,0,7.06,3.6,6.7,7.76l-10.39,118.96c-.32,3.66-3.22,6.46-6.7,6.46Z"/>
      <circle class="cls-4" cx="208.58" cy="278.7" r="3.83"/>
      <circle class="cls-4" cx="204.75" cy="271.04" r="3.83"/>
      <circle class="cls-4" cx="218.06" cy="278.7" r="3.83"/>
      <circle class="cls-4" cx="214.23" cy="271.04" r="3.83"/>
      <circle class="cls-4" cx="223.35" cy="271.04" r="3.83"/>
      <circle class="cls-4" cx="227.17" cy="278.7" r="3.83"/>
      <circle class="cls-4" cx="255.24" cy="278.7" r="3.83"/>
      <circle class="cls-4" cx="259.07" cy="271.04" r="3.83"/>
      <circle class="cls-4" cx="245.77" cy="278.7" r="3.83"/>
      <circle class="cls-4" cx="249.59" cy="271.04" r="3.83"/>
      <circle class="cls-4" cx="240.48" cy="271.04" r="3.83"/>
      <circle class="cls-4" cx="236.65" cy="278.7" r="3.83"/>
      <circle class="cls-4" cx="231.91" cy="271.04" r="3.83"/>
      <path class="cls-6" d="m223.62,153.39h14.76v116.92c0,2.52-2.04,4.56-4.56,4.56h-5.64c-2.52,0-4.56-2.04-4.56-4.56v-116.92h0Z"/>
      <path class="cls-4" d="m228.53,97.61h4.95c2.71,0,4.91,2.2,4.91,4.91v33.55h-14.76v-33.55c0-2.71,2.2-4.91,4.91-4.91Z"/>
      <rect class="cls-5" x="223.62" y="148.58" width="14.76" height="4.81"/>
      <circle class="cls-4" cx="207.52" cy="262.71" r="3.83"/>
      <circle class="cls-4" cx="203.69" cy="255.06" r="3.83"/>
      <circle class="cls-4" cx="217" cy="262.71" r="3.83"/>
      <circle class="cls-4" cx="213.17" cy="255.06" r="3.83"/>
      <circle class="cls-4" cx="222.28" cy="255.06" r="3.83"/>
      <circle class="cls-4" cx="226.11" cy="262.71" r="3.83"/>
      <circle class="cls-4" cx="254.18" cy="262.71" r="3.83"/>
      <circle class="cls-4" cx="258.01" cy="255.06" r="3.83"/>
      <circle class="cls-4" cx="244.7" cy="262.71" r="3.83"/>
      <circle class="cls-4" cx="248.53" cy="255.06" r="3.83"/>
      <circle class="cls-4" cx="239.42" cy="255.06" r="3.83"/>
      <circle class="cls-4" cx="235.59" cy="262.71" r="3.83"/>
      <circle class="cls-4" cx="230.85" cy="255.06" r="3.83"/>
    </g>
    <text class="cls-10" transform="translate(63.76 365.33)"><tspan x="0" y="0">500ml medium Bubble</tspan><tspan class="cls-1" x="283.41" y="0"> </tspan><tspan class="cls-16" x="291.05" y="0">T</tspan><tspan x="304.58" y="0">ea</tspan></text>
    <g>
      <path class="cls-2" d="m469.51,314.11c1.05,0,1.95.37,2.7,1.11.74.74,1.11,1.64,1.11,2.7s-.37,1.95-1.11,2.7c-.74.74-1.64,1.11-2.7,1.11s-1.95-.37-2.7-1.11c-.74-.74-1.11-1.64-1.11-2.7s.37-1.95,1.11-2.7c.74-.74,1.64-1.11,2.7-1.11Z"/>
      <path class="cls-2" d="m493.31,325.49l-1.33-4.07h-7.19l-1.42,4.07h-2.95l7.84-19.58h.7l7.28,19.58h-2.93Zm-4.83-14.52l-2.99,8.5h5.73l-2.74-8.5Z"/>
      <path class="cls-2" d="m497.15,324.64l.88-2.37c1.4.91,2.52,1.37,3.38,1.37,1.55,0,2.32-.65,2.32-1.95,0-.93-.75-1.73-2.24-2.4-1.15-.53-1.93-.93-2.33-1.2-.4-.27-.75-.58-1.04-.93-.29-.35-.51-.72-.66-1.11-.15-.39-.22-.81-.22-1.26,0-1.16.42-2.07,1.27-2.72.84-.65,1.95-.97,3.31-.97,1.03,0,2.32.33,3.89.97l-.71,2.32c-.99-.79-1.99-1.19-2.99-1.19-.6,0-1.1.14-1.51.42-.41.28-.61.64-.61,1.07,0,.91.51,1.59,1.54,2.06l1.79.82c1.1.5,1.9,1.07,2.4,1.71s.75,1.45.75,2.41c0,1.27-.44,2.26-1.33,2.97-.89.72-2.12,1.07-3.69,1.07-1.49,0-2.88-.37-4.19-1.11Z"/>
      <path class="cls-2" d="m518.12,325.49l-4.43-7.07-2.19,2.25v4.81h-2.5v-19.91h2.5v12.35l5.41-6.56h2.93l-4.52,5.37,5.52,8.75h-2.72Z"/>
      <path class="cls-2" d="m538.38,307.82c-.51-.18-.98-.26-1.42-.26-.76,0-1.4.29-1.89.87-.5.58-.75,1.31-.75,2.2,0,.24.02.48.07.74h2.87v2.11h-2.87v12.01h-2.5v-12.01h-2.06v-2.11h2.06c0-1.8.44-3.22,1.33-4.25.89-1.03,2.06-1.54,3.52-1.54.73,0,1.51.13,2.35.4l-.7,1.85Z"/>
      <path class="cls-2" d="m539.81,318.39c0-2.18.59-3.94,1.76-5.28,1.17-1.34,2.72-2.01,4.63-2.01,2.02,0,3.59.64,4.71,1.93,1.12,1.29,1.67,3.07,1.67,5.36s-.57,4.07-1.71,5.39c-1.14,1.31-2.7,1.97-4.67,1.97s-3.58-.66-4.71-1.99-1.69-3.12-1.69-5.37Zm2.64,0c0,3.54,1.25,5.31,3.76,5.31,1.17,0,2.08-.47,2.75-1.42.66-.95,1-2.25,1-3.89,0-3.5-1.25-5.25-3.74-5.25-1.14,0-2.05.47-2.74,1.4-.68.93-1.02,2.21-1.02,3.85Z"/>
      <path class="cls-2" d="m562.89,313.78c-.54-.38-1.09-.57-1.65-.57-.89,0-1.66.41-2.33,1.23s-1,1.8-1,2.95v8.09h-2.5v-14.12h2.5v2.25c.91-1.68,2.27-2.52,4.07-2.52.45,0,1.09.08,1.94.24l-1.04,2.44Z"/>
      <path class="cls-2" d="m574.05,321.49v-15.91h2.5v15.49c0,.76.22,1.35.65,1.79.44.43,1,.65,1.71.65v2.24c-3.24,0-4.86-1.42-4.86-4.26Z"/>
      <path class="cls-2" d="m580.89,318.39c0-2.18.59-3.94,1.76-5.28,1.17-1.34,2.72-2.01,4.63-2.01,2.02,0,3.59.64,4.71,1.93,1.12,1.29,1.67,3.07,1.67,5.36s-.57,4.07-1.71,5.39c-1.14,1.31-2.7,1.97-4.67,1.97s-3.58-.66-4.71-1.99-1.69-3.12-1.69-5.37Zm2.64,0c0,3.54,1.25,5.31,3.76,5.31,1.17,0,2.08-.47,2.75-1.42.66-.95,1-2.25,1-3.89,0-3.5-1.25-5.25-3.74-5.25-1.14,0-2.05.47-2.74,1.4-.68.93-1.02,2.21-1.02,3.85Z"/>
      <path class="cls-2" d="m609.35,325.75h-.66l-4.14-9.61-4.13,9.61h-.66l-5.05-14.42h2.68l3.02,9.27,3.76-9.27h.66l3.88,9.27,3.24-9.27h2.47l-5.06,14.42Z"/>
      <path class="cls-2" d="m628.28,318.67h-10.18c0,1.65.45,2.92,1.36,3.81.8.77,1.83,1.16,3.08,1.16,1.43,0,2.63-.42,3.59-1.25l1.05,1.81c-.39.39-.98.72-1.78,1-1,.37-2.12.55-3.35.55-1.78,0-3.28-.6-4.52-1.81-1.38-1.33-2.07-3.11-2.07-5.35s.71-4.2,2.12-5.6c1.27-1.26,2.76-1.88,4.5-1.88,2.01,0,3.59.57,4.73,1.7,1.11,1.09,1.66,2.54,1.66,4.34,0,.55-.07,1.06-.2,1.53Zm-6.08-5.46c-1.12,0-2.05.36-2.81,1.08-.72.69-1.13,1.54-1.23,2.56h7.82c0-1.01-.32-1.85-.95-2.53-.69-.74-1.64-1.11-2.83-1.11Z"/>
      <path class="cls-2" d="m638.79,313.78c-.54-.38-1.09-.57-1.65-.57-.89,0-1.66.41-2.33,1.23s-1,1.8-1,2.95v8.09h-2.5v-14.12h2.5v2.25c.91-1.68,2.27-2.52,4.07-2.52.45,0,1.09.08,1.94.24l-1.04,2.44Z"/>
      <path class="cls-2" d="m648.82,324.64l.88-2.37c1.4.91,2.52,1.37,3.38,1.37,1.55,0,2.32-.65,2.32-1.95,0-.93-.75-1.73-2.24-2.4-1.15-.53-1.93-.93-2.33-1.2-.4-.27-.75-.58-1.04-.93-.29-.35-.51-.72-.66-1.11-.15-.39-.22-.81-.22-1.26,0-1.16.42-2.07,1.27-2.72.84-.65,1.95-.97,3.31-.97,1.03,0,2.32.33,3.89.97l-.71,2.32c-.99-.79-1.99-1.19-2.99-1.19-.6,0-1.1.14-1.51.42-.41.28-.61.64-.61,1.07,0,.91.51,1.59,1.54,2.06l1.79.82c1.1.5,1.9,1.07,2.4,1.71s.75,1.45.75,2.41c0,1.27-.44,2.26-1.33,2.97-.89.72-2.12,1.07-3.69,1.07-1.49,0-2.88-.37-4.19-1.11Z"/>
      <path class="cls-2" d="m663.05,311.37v9c0,2.18.94,3.27,2.83,3.27.83,0,1.58-.24,2.27-.71s1.14-1.02,1.36-1.65v-9.91h2.5v14.12h-2.5v-1.95c-.28.55-.85,1.06-1.69,1.52-.85.46-1.68.69-2.49.69-1.55,0-2.73-.44-3.55-1.33-.82-.89-1.23-2.15-1.23-3.78v-9.27h2.5Z"/>
      <path class="cls-2" d="m674.91,329.35l1.36-2c1.46.97,2.8,1.46,4.03,1.46,1.13,0,2.03-.2,2.68-.59.65-.39.98-.88.98-1.46,0-1.14-.83-1.71-2.48-1.71-.28,0-.79.07-1.53.21-.74.14-1.31.21-1.73.21-2,0-3.01-.75-3.01-2.27,0-.46.23-.89.71-1.27.47-.38,1.05-.65,1.75-.82-1.99-.93-2.98-2.55-2.98-4.85,0-1.48.51-2.71,1.54-3.69s2.3-1.48,3.81-1.48c1.39,0,2.47.29,3.26.86l1.25-1.5,1.63,1.54-1.5,1.13c.64.84.96,1.93.96,3.27,0,1.42-.44,2.62-1.33,3.59-.89.97-2.05,1.52-3.49,1.66l-2.07.21c-.25.03-.58.12-.99.28-.41.16-.62.38-.62.64,0,.36.43.54,1.29.54.38,0,.97-.07,1.77-.2.8-.14,1.39-.2,1.78-.2,1.39,0,2.47.33,3.25,1,.78.66,1.17,1.58,1.17,2.76,0,1.3-.58,2.35-1.75,3.15-1.16.8-2.64,1.2-4.42,1.2-.91,0-1.88-.16-2.89-.49s-1.82-.72-2.44-1.19Zm5.31-16.23c-.87,0-1.58.31-2.13.92s-.82,1.36-.82,2.24c0,.98.27,1.8.8,2.45.53.65,1.25.97,2.16.97s1.58-.31,2.08-.94c.5-.63.75-1.45.75-2.47,0-.88-.27-1.63-.81-2.24-.54-.62-1.22-.92-2.02-.92Z"/>
      <path class="cls-2" d="m696.96,323.86c-1,1.26-2.54,1.88-4.6,1.88-1.11,0-2.07-.4-2.88-1.21-.81-.8-1.22-1.8-1.22-3,0-1.43.63-2.64,1.88-3.63,1.25-.99,2.85-1.48,4.79-1.48.53,0,1.12.11,1.79.34,0-2.28-1.02-3.43-3.06-3.43-1.56,0-2.77.42-3.61,1.27l-1.05-2.1c.47-.39,1.13-.72,1.97-1,.84-.28,1.64-.42,2.41-.42,2.05,0,3.54.47,4.46,1.4.93.93,1.39,2.41,1.39,4.44v5.06c0,1.24.37,2.07,1.11,2.48v1.25c-1.02,0-1.78-.14-2.29-.43-.51-.29-.87-.77-1.09-1.44Zm-.24-5.31c-.79-.18-1.34-.26-1.66-.26-1.27,0-2.3.33-3.1.98s-1.2,1.42-1.2,2.31c0,1.47.87,2.2,2.6,2.2,1.27,0,2.39-.6,3.36-1.81v-3.42Z"/>
      <path class="cls-2" d="m710.84,313.78c-.54-.38-1.09-.57-1.65-.57-.89,0-1.66.41-2.33,1.23s-1,1.8-1,2.95v8.09h-2.5v-14.12h2.5v2.25c.91-1.68,2.27-2.52,4.07-2.52.45,0,1.09.08,1.94.24l-1.04,2.44Z"/>
      <path class="cls-2" d="m721.99,321.49v-15.91h2.5v15.49c0,.76.22,1.35.65,1.79.44.43,1,.65,1.71.65v2.24c-3.24,0-4.86-1.42-4.86-4.26Z"/>
      <path class="cls-2" d="m741.65,318.67h-10.18c0,1.65.45,2.92,1.36,3.81.8.77,1.83,1.16,3.08,1.16,1.43,0,2.63-.42,3.59-1.25l1.05,1.81c-.39.39-.98.72-1.78,1-1,.37-2.12.55-3.35.55-1.78,0-3.28-.6-4.52-1.81-1.38-1.33-2.07-3.11-2.07-5.35s.71-4.2,2.12-5.6c1.27-1.26,2.76-1.88,4.5-1.88,2.01,0,3.59.57,4.73,1.7,1.11,1.09,1.66,2.54,1.66,4.34,0,.55-.07,1.06-.2,1.53Zm-6.08-5.46c-1.12,0-2.05.36-2.81,1.08-.72.69-1.13,1.54-1.23,2.56h7.82c0-1.01-.32-1.85-.95-2.53-.69-.74-1.64-1.11-2.83-1.11Z"/>
      <path class="cls-2" d="m749.57,325.75h-.66l-6.05-14.42h2.74l3.73,9.89,3.81-9.89h2.62l-6.2,14.42Z"/>
      <path class="cls-2" d="m769.6,318.67h-10.18c0,1.65.45,2.92,1.36,3.81.8.77,1.83,1.16,3.08,1.16,1.43,0,2.63-.42,3.59-1.25l1.05,1.81c-.39.39-.98.72-1.78,1-1,.37-2.12.55-3.35.55-1.78,0-3.28-.6-4.52-1.81-1.38-1.33-2.07-3.11-2.07-5.35s.71-4.2,2.12-5.6c1.27-1.26,2.76-1.88,4.5-1.88,2.01,0,3.59.57,4.73,1.7,1.11,1.09,1.66,2.54,1.66,4.34,0,.55-.07,1.06-.2,1.53Zm-6.08-5.46c-1.12,0-2.05.36-2.81,1.08-.72.69-1.13,1.54-1.23,2.56h7.82c0-1.01-.32-1.85-.95-2.53-.69-.74-1.64-1.11-2.83-1.11Z"/>
      <path class="cls-2" d="m772.63,321.49v-15.91h2.5v15.49c0,.76.22,1.35.65,1.79.44.43,1,.65,1.71.65v2.24c-3.24,0-4.86-1.42-4.86-4.26Z"/>
      <path class="cls-2" d="m779.47,324.64l.88-2.37c1.4.91,2.52,1.37,3.38,1.37,1.55,0,2.32-.65,2.32-1.95,0-.93-.75-1.73-2.24-2.4-1.15-.53-1.93-.93-2.33-1.2-.4-.27-.75-.58-1.04-.93-.29-.35-.51-.72-.66-1.11-.15-.39-.22-.81-.22-1.26,0-1.16.42-2.07,1.27-2.72.84-.65,1.95-.97,3.31-.97,1.03,0,2.32.33,3.89.97l-.71,2.32c-.99-.79-1.99-1.19-2.99-1.19-.6,0-1.1.14-1.51.42-.41.28-.61.64-.61,1.07,0,.91.51,1.59,1.54,2.06l1.79.82c1.1.5,1.9,1.07,2.4,1.71s.75,1.45.75,2.41c0,1.27-.44,2.26-1.33,2.97-.89.72-2.12,1.07-3.69,1.07-1.49,0-2.88-.37-4.19-1.11Z"/>
      <path class="cls-2" d="m469.51,346.51c1.05,0,1.95.37,2.7,1.11.74.74,1.11,1.64,1.11,2.7s-.37,1.95-1.11,2.7c-.74.74-1.64,1.11-2.7,1.11s-1.95-.37-2.7-1.11c-.74-.74-1.11-1.64-1.11-2.7s.37-1.95,1.11-2.7c.74-.74,1.64-1.11,2.7-1.11Z"/>
      <path class="cls-2" d="m493.06,357.89l-5.15-8.29c-.59,0-1.52-.04-2.79-.13v8.42h-2.64v-19.31c.1,0,.78-.03,2.05-.1,1.27-.07,2.2-.1,2.78-.1,4.64,0,6.96,1.85,6.96,5.54,0,1.21-.37,2.3-1.12,3.28-.75.97-1.63,1.58-2.66,1.81l5.6,8.89h-3.02Zm-7.95-16.94v6.28c.63.09,1.25.13,1.85.13,1.58,0,2.73-.25,3.45-.77.72-.51,1.08-1.42,1.08-2.73,0-1.08-.39-1.86-1.16-2.33s-2-.71-3.67-.71c-.26,0-.78.04-1.56.13Z"/>
      <path class="cls-2" d="m508.66,351.07h-10.18c0,1.65.45,2.92,1.36,3.81.8.77,1.83,1.16,3.08,1.16,1.43,0,2.63-.42,3.59-1.25l1.05,1.81c-.39.39-.98.72-1.78,1-1,.37-2.12.55-3.35.55-1.78,0-3.28-.6-4.52-1.81-1.38-1.33-2.07-3.11-2.07-5.35s.71-4.2,2.12-5.6c1.27-1.26,2.76-1.88,4.5-1.88,2.01,0,3.59.57,4.73,1.7,1.11,1.09,1.66,2.54,1.66,4.34,0,.55-.07,1.06-.2,1.53Zm-6.08-5.46c-1.12,0-2.05.36-2.81,1.08-.72.69-1.13,1.54-1.23,2.56h7.82c0-1.01-.32-1.85-.95-2.53-.69-.74-1.64-1.11-2.83-1.11Z"/>
      <path class="cls-2" d="m520.44,357.87v-1.04c-.87.87-2.14,1.3-3.8,1.3-1.77,0-3.2-.63-4.3-1.9s-1.65-2.95-1.65-5.06.63-3.93,1.9-5.42c1.27-1.5,2.77-2.25,4.52-2.25,1.46,0,2.57.34,3.32,1.03v-6.55h2.5v19.89h-2.5Zm0-10.84c-.63-.95-1.5-1.42-2.6-1.42-1.34,0-2.43.5-3.26,1.5-.83,1-1.25,2.28-1.25,3.82,0,3.4,1.55,5.1,4.64,5.1.4,0,.87-.12,1.42-.38.55-.25.9-.52,1.04-.8v-7.83Z"/>
      <path class="cls-2" d="m528.91,343.77v9c0,2.18.94,3.27,2.83,3.27.83,0,1.58-.24,2.27-.71s1.14-1.02,1.36-1.65v-9.91h2.5v14.12h-2.5v-1.95c-.28.55-.85,1.06-1.69,1.52-.85.46-1.68.69-2.49.69-1.55,0-2.73-.44-3.55-1.33-.82-.89-1.23-2.15-1.23-3.78v-9.27h2.5Z"/>
      <path class="cls-2" d="m551.94,344.91l-1.24,1.77c-.25-.25-.71-.5-1.35-.73-.65-.23-1.28-.34-1.91-.34-1.36,0-2.44.48-3.24,1.43-.8.95-1.2,2.26-1.2,3.92s.41,2.91,1.23,3.78c.82.87,1.95,1.3,3.4,1.3,1.12,0,2.26-.44,3.4-1.3l.99,2.11c-1.34.87-3.01,1.3-5,1.3s-3.52-.65-4.77-1.94c-1.26-1.29-1.89-3.04-1.89-5.25s.65-4.06,1.96-5.42c1.31-1.36,3.09-2.04,5.36-2.04.73,0,1.52.15,2.37.46s1.48.62,1.89.95Z"/>
      <path class="cls-2" d="m566.55,351.07h-10.18c0,1.65.45,2.92,1.36,3.81.8.77,1.83,1.16,3.08,1.16,1.43,0,2.63-.42,3.59-1.25l1.05,1.81c-.39.39-.98.72-1.78,1-1,.37-2.12.55-3.35.55-1.78,0-3.28-.6-4.52-1.81-1.38-1.33-2.07-3.11-2.07-5.35s.71-4.2,2.12-5.6c1.27-1.26,2.76-1.88,4.5-1.88,2.01,0,3.59.57,4.73,1.7,1.11,1.09,1.66,2.54,1.66,4.34,0,.55-.07,1.06-.2,1.53Zm-6.08-5.46c-1.12,0-2.05.36-2.81,1.08-.72.69-1.13,1.54-1.23,2.56h7.82c0-1.01-.32-1.85-.95-2.53-.69-.74-1.64-1.11-2.83-1.11Z"/>
      <path class="cls-2" d="m588.17,344.91l-1.24,1.77c-.25-.25-.71-.5-1.35-.73-.65-.23-1.28-.34-1.91-.34-1.36,0-2.44.48-3.24,1.43-.8.95-1.2,2.26-1.2,3.92s.41,2.91,1.23,3.78c.82.87,1.95,1.3,3.4,1.3,1.12,0,2.26-.44,3.4-1.3l.99,2.11c-1.34.87-3.01,1.3-5,1.3s-3.52-.65-4.77-1.94c-1.26-1.29-1.89-3.04-1.89-5.25s.65-4.06,1.96-5.42c1.31-1.36,3.09-2.04,5.36-2.04.73,0,1.52.15,2.37.46s1.48.62,1.89.95Z"/>
      <path class="cls-2" d="m589.96,350.79c0-2.18.59-3.94,1.76-5.28,1.17-1.34,2.72-2.01,4.63-2.01,2.02,0,3.59.64,4.71,1.93,1.12,1.29,1.67,3.07,1.67,5.36s-.57,4.07-1.71,5.39c-1.14,1.31-2.7,1.97-4.67,1.97s-3.58-.66-4.71-1.99-1.69-3.12-1.69-5.37Zm2.64,0c0,3.54,1.25,5.31,3.76,5.31,1.17,0,2.08-.47,2.75-1.42.66-.95,1-2.25,1-3.89,0-3.5-1.25-5.25-3.74-5.25-1.14,0-2.05.47-2.74,1.4-.68.93-1.02,2.21-1.02,3.85Z"/>
      <path class="cls-2" d="m614.06,357.89v-8.21c0-1.5-.23-2.56-.68-3.16-.45-.6-1.21-.9-2.27-.9-.57,0-1.17.17-1.79.51s-1.1.76-1.44,1.27v10.49h-2.5v-14.12h1.71l.79,1.82c.83-1.39,2.18-2.08,4.05-2.08,3.09,0,4.64,1.88,4.64,5.64v8.74h-2.5Z"/>
      <path class="cls-2" d="m619.2,357.04l.88-2.37c1.4.91,2.52,1.37,3.38,1.37,1.55,0,2.32-.65,2.32-1.95,0-.93-.75-1.73-2.24-2.4-1.15-.53-1.93-.93-2.33-1.2-.4-.27-.75-.58-1.04-.93-.29-.35-.51-.72-.66-1.11-.15-.39-.22-.81-.22-1.26,0-1.16.42-2.07,1.27-2.72.84-.65,1.95-.97,3.31-.97,1.03,0,2.32.33,3.89.97l-.71,2.32c-.99-.79-1.99-1.19-2.99-1.19-.6,0-1.1.14-1.51.42-.41.28-.61.64-.61,1.07,0,.91.51,1.59,1.54,2.06l1.79.82c1.1.5,1.9,1.07,2.4,1.71s.75,1.45.75,2.41c0,1.27-.44,2.26-1.33,2.97-.89.72-2.12,1.07-3.69,1.07-1.49,0-2.88-.37-4.19-1.11Z"/>
      <path class="cls-2" d="m633.43,343.77v9c0,2.18.94,3.27,2.83,3.27.83,0,1.58-.24,2.27-.71s1.14-1.02,1.36-1.65v-9.91h2.5v14.12h-2.5v-1.95c-.28.55-.85,1.06-1.69,1.52-.85.46-1.68.69-2.49.69-1.55,0-2.73-.44-3.55-1.33-.82-.89-1.23-2.15-1.23-3.78v-9.27h2.5Z"/>
      <path class="cls-2" d="m662.15,357.89v-8.94c0-2.22-.96-3.33-2.89-3.33-.61,0-1.17.19-1.7.56-.53.37-.89.8-1.08,1.27v10.44h-2.5v-10.03c0-.69-.26-1.24-.78-1.64-.52-.4-1.21-.6-2.08-.6-.5,0-1.04.19-1.6.58-.57.39-.97.81-1.21,1.28v10.42h-2.5v-14.12h1.63l.83,1.63c.97-1.27,2.18-1.9,3.63-1.9,2.02,0,3.44.63,4.25,1.88.28-.54.8-.98,1.57-1.34s1.55-.54,2.36-.54c1.46,0,2.59.43,3.39,1.3.8.87,1.2,2.08,1.2,3.65v9.44h-2.5Z"/>
      <path class="cls-2" d="m670.72,357.11v6.31h-2.5v-19.66h2.5v1.16c.95-.95,2.1-1.42,3.44-1.42,2,0,3.56.62,4.68,1.87,1.12,1.25,1.67,3.08,1.67,5.48,0,2.15-.56,3.9-1.69,5.25-1.12,1.36-2.75,2.04-4.88,2.04-.6,0-1.24-.11-1.92-.32-.68-.21-1.12-.45-1.31-.72Zm0-10.3v8.23c.16.24.49.46,1,.68.51.22,1.01.32,1.49.32,3.11,0,4.67-1.76,4.67-5.27,0-1.78-.37-3.09-1.11-3.92-.74-.83-1.92-1.24-3.55-1.24-.35,0-.78.12-1.29.37s-.91.52-1.21.83Z"/>
      <path class="cls-2" d="m684.16,345.74h-1.63v-1.98h1.63v-2.95l2.5-.96v3.92h3.88v1.98h-3.88v7.01c0,1.19.2,2.03.6,2.53.4.5,1.04.75,1.93.75.64,0,1.31-.16,1.99-.49l.37,2.2c-1.04.26-2.18.4-3.41.4-1.12,0-2.06-.42-2.83-1.25-.77-.83-1.15-1.88-1.15-3.14v-8.02Z"/>
      <path class="cls-2" d="m695.18,357.89v-12.01h-1.94v-2.11h4.44v14.12h-2.5Zm1.37-19.46c.43,0,.8.15,1.1.46s.45.67.45,1.09-.15.8-.45,1.1c-.3.3-.67.45-1.1.45s-.78-.15-1.09-.45-.46-.67-.46-1.1.15-.8.45-1.09.66-.45,1.09-.45Z"/>
      <path class="cls-2" d="m700.74,350.79c0-2.18.59-3.94,1.76-5.28,1.17-1.34,2.72-2.01,4.63-2.01,2.02,0,3.59.64,4.71,1.93,1.12,1.29,1.67,3.07,1.67,5.36s-.57,4.07-1.71,5.39c-1.14,1.31-2.7,1.97-4.67,1.97s-3.58-.66-4.71-1.99-1.69-3.12-1.69-5.37Zm2.64,0c0,3.54,1.25,5.31,3.76,5.31,1.17,0,2.08-.47,2.75-1.42.66-.95,1-2.25,1-3.89,0-3.5-1.25-5.25-3.74-5.25-1.14,0-2.05.47-2.74,1.4-.68.93-1.02,2.21-1.02,3.85Z"/>
      <path class="cls-2" d="m724.84,357.89v-8.21c0-1.5-.23-2.56-.68-3.16-.45-.6-1.21-.9-2.27-.9-.57,0-1.17.17-1.79.51s-1.1.76-1.44,1.27v10.49h-2.5v-14.12h1.71l.79,1.82c.83-1.39,2.18-2.08,4.05-2.08,3.09,0,4.64,1.88,4.64,5.64v8.74h-2.5Z"/>
      <path class="cls-2" d="m489.78,372.62c-.51-.18-.98-.26-1.42-.26-.76,0-1.4.29-1.89.87-.5.58-.75,1.31-.75,2.2,0,.24.02.48.07.74h2.87v2.11h-2.87v12.01h-2.5v-12.01h-2.06v-2.11h2.06c0-1.8.44-3.22,1.33-4.25.89-1.03,2.06-1.54,3.52-1.54.73,0,1.51.13,2.35.4l-.7,1.85Z"/>
      <path class="cls-2" d="m499.8,378.58c-.54-.38-1.09-.57-1.65-.57-.89,0-1.66.41-2.33,1.23s-1,1.8-1,2.95v8.09h-2.5v-14.12h2.5v2.25c.91-1.68,2.27-2.52,4.07-2.52.45,0,1.09.08,1.94.24l-1.04,2.44Z"/>
      <path class="cls-2" d="m514.51,383.47h-10.18c0,1.65.45,2.92,1.36,3.81.8.77,1.83,1.16,3.08,1.16,1.43,0,2.63-.42,3.59-1.25l1.05,1.81c-.39.39-.98.72-1.78,1-1,.37-2.12.55-3.35.55-1.78,0-3.28-.6-4.52-1.81-1.38-1.33-2.07-3.11-2.07-5.35s.71-4.2,2.12-5.6c1.27-1.26,2.76-1.88,4.5-1.88,2.01,0,3.59.57,4.73,1.7,1.11,1.09,1.66,2.54,1.66,4.34,0,.55-.07,1.06-.2,1.53Zm-6.08-5.46c-1.12,0-2.05.36-2.81,1.08-.72.69-1.13,1.54-1.23,2.56h7.82c0-1.01-.32-1.85-.95-2.53-.69-.74-1.64-1.11-2.83-1.11Z"/>
      <path class="cls-2" d="m526.39,395.82v-6.37c-.73.73-1.95,1.09-3.67,1.09-1.92,0-3.43-.64-4.53-1.93-1.09-1.29-1.64-3.07-1.64-5.36s.63-4.05,1.88-5.37c1.25-1.32,2.86-1.98,4.83-1.98,1.23,0,2.38.44,3.44,1.33l.67-1.07h1.52v19.66h-2.5Zm0-16.73c-.72-.72-1.62-1.08-2.7-1.08-1.42,0-2.52.48-3.31,1.44s-1.19,2.23-1.19,3.81.4,2.91,1.19,3.82c.79.91,1.86,1.36,3.2,1.36,1.2,0,2.14-.31,2.81-.92v-8.42Z"/>
      <path class="cls-2" d="m534.76,376.17v9c0,2.18.94,3.27,2.83,3.27.83,0,1.58-.24,2.27-.71s1.14-1.02,1.36-1.65v-9.91h2.5v14.12h-2.5v-1.95c-.28.55-.85,1.06-1.69,1.52-.85.46-1.68.69-2.49.69-1.55,0-2.73-.44-3.55-1.33-.82-.89-1.23-2.15-1.23-3.78v-9.27h2.5Z"/>
      <path class="cls-2" d="m559.03,383.47h-10.18c0,1.65.45,2.92,1.36,3.81.8.77,1.83,1.16,3.08,1.16,1.43,0,2.63-.42,3.59-1.25l1.05,1.81c-.39.39-.98.72-1.78,1-1,.37-2.12.55-3.35.55-1.78,0-3.28-.6-4.52-1.81-1.38-1.33-2.07-3.11-2.07-5.35s.71-4.2,2.12-5.6c1.27-1.26,2.76-1.88,4.5-1.88,2.01,0,3.59.57,4.73,1.7,1.11,1.09,1.66,2.54,1.66,4.34,0,.55-.07,1.06-.2,1.53Zm-6.08-5.46c-1.12,0-2.05.36-2.81,1.08-.72.69-1.13,1.54-1.23,2.56h7.82c0-1.01-.32-1.85-.95-2.53-.69-.74-1.64-1.11-2.83-1.11Z"/>
      <path class="cls-2" d="m570.55,390.29v-8.21c0-1.5-.23-2.56-.68-3.16-.45-.6-1.21-.9-2.27-.9-.57,0-1.17.17-1.79.51s-1.1.76-1.44,1.27v10.49h-2.5v-14.12h1.71l.79,1.82c.83-1.39,2.18-2.08,4.05-2.08,3.09,0,4.64,1.88,4.64,5.64v8.74h-2.5Z"/>
      <path class="cls-2" d="m587.27,377.31l-1.24,1.77c-.25-.25-.71-.5-1.35-.73-.65-.23-1.28-.34-1.91-.34-1.36,0-2.44.48-3.24,1.43-.8.95-1.2,2.26-1.2,3.92s.41,2.91,1.23,3.78c.82.87,1.95,1.3,3.4,1.3,1.12,0,2.26-.44,3.4-1.3l.99,2.11c-1.34.87-3.01,1.3-5,1.3s-3.52-.65-4.77-1.94c-1.26-1.29-1.89-3.04-1.89-5.25s.65-4.06,1.96-5.42c1.31-1.36,3.09-2.04,5.36-2.04.73,0,1.52.15,2.37.46s1.48.62,1.89.95Z"/>
      <path class="cls-2" d="m595.38,392.69c-.33.9-1.01,1.64-2.05,2.24-1.04.6-2.2.9-3.49.9v-2.24c1.05,0,1.94-.24,2.69-.73.75-.49,1.12-1.08,1.12-1.79,0-.77-.14-1.54-.41-2.29-.27-.75-.62-1.68-1.05-2.79l-3.82-9.82h2.56l4.15,10.92,3.73-10.92h2.56l-5.99,16.52Z"/>
      <path class="cls-2" d="m606.58,386.58c.54,0,1.01.19,1.4.58.39.39.58.85.58,1.4s-.19,1.01-.58,1.4c-.39.39-.85.59-1.4.59s-1.01-.2-1.4-.59c-.39-.39-.58-.86-.58-1.4s.19-1.01.58-1.4c.39-.39.85-.58,1.4-.58Zm.38-1.33h-.94c-.68-4.42-1.02-7.49-1.02-9.22v-5.4h2.98v5.39c0,1.68-.34,4.75-1.03,9.23Z"/>
    </g>
  </g>
</svg>