<?xml version="1.0" encoding="UTF-8"?>
<svg id="Layer_2" data-name="Layer 2" xmlns="http://www.w3.org/2000/svg" viewBox="0 0 861.91 431.75">
  <defs>
    <style>
      .cls-1 {
        letter-spacing: -.02em;
      }

      .cls-2 {
        fill: #f1f2f2;
      }

      .cls-3 {
        fill: #a8d37e;
      }

      .cls-4, .cls-5, .cls-6 {
        fill: #231f20;
      }

      .cls-7 {
        fill: #3b57a7;
      }

      .cls-8 {
        letter-spacing: -.03em;
      }

      .cls-9 {
        fill: #d6cdd5;
        font-size: 28px;
      }

      .cls-9, .cls-10, .cls-11 {
        font-family: TrebuchetMS-Bold, 'Trebuchet MS';
        font-weight: 700;
      }

      .cls-12 {
        fill: #72cbcb;
      }

      .cls-12, .cls-13, .cls-14, .cls-15 {
        stroke-miterlimit: 10;
      }

      .cls-12, .cls-15 {
        stroke: #72cbcb;
      }

      .cls-16 {
        letter-spacing: -.11em;
      }

      .cls-10 {
        font-size: 27px;
      }

      .cls-10, .cls-15, .cls-11 {
        fill: #fff;
      }

      .cls-13 {
        fill: #665226;
      }

      .cls-13, .cls-14 {
        stroke: #71b5d8;
      }

      .cls-13, .cls-14, .cls-15 {
        stroke-width: 3px;
      }

      .cls-14 {
        fill: #70ccd8;
      }

      .cls-11 {
        font-size: 39px;
      }

      .cls-5 {
        opacity: .89;
      }

      .cls-6 {
        opacity: .78;
      }
    </style>
  </defs>
  <g id="exploreSugar">
    <rect class="cls-7" x="0" y="0" width="860.4" height="431.75" rx="57.84" ry="57.84"/>
    <g>
      <g>
        <path class="cls-12" d="m498.66,177.11c-8.13,0-14.72,2.22-14.72,4.96,0,5.92,6.59,10.71,14.72,10.71s14.72-4.8,14.72-10.71c0-2.74-6.59-4.96-14.72-4.96Z"/>
        <path class="cls-12" d="m559.64,166.81c-.66-.77-1.73-1.03-2.74-1.13-5.63-.52-10.83,2.77-15.58,5.84-1.2.77-22.61,11.34-27.46,10.67l-.48,2.27c7.88.19,39.16-9.22,42.99-11.35,1.19-.66,2.41-1.38,3.19-2.5s.97-2.76.09-3.8Z"/>
      </g>
      <path class="cls-15" d="m487.61,183.07c-.32.37.41.54.37,1.03-.05.47,1.3,1.11,4.38,1.22,5.68.19,11.8,1.42,17.1-.64.41-.16.53-.67.25-1l-8.34-9.54c-1.62-1.64-4.26-1.65-5.9-.04l-7.85,8.97"/>
    </g>
    <g>
      <g>
        <path class="cls-12" d="m582.76,177.11c-8.13,0-14.72,2.22-14.72,4.96,0,5.92,6.59,10.71,14.72,10.71s14.72-4.8,14.72-10.71c0-2.74-6.59-4.96-14.72-4.96Z"/>
        <path class="cls-12" d="m643.75,166.81c-.66-.77-1.73-1.03-2.74-1.13-5.63-.52-10.83,2.77-15.58,5.84-1.2.77-22.61,11.34-27.46,10.67l-.48,2.27c7.88.19,39.16-9.22,42.99-11.35,1.19-.66,2.41-1.38,3.19-2.5s.97-2.76.09-3.8Z"/>
      </g>
      <path class="cls-15" d="m571.72,183.07c-.32.37.41.54.37,1.03-.05.47,1.3,1.11,4.38,1.22,5.68.19,11.8,1.42,17.1-.64.41-.16.53-.67.25-1l-8.34-9.54c-1.62-1.64-4.26-1.65-5.9-.04l-7.85,8.97"/>
    </g>
    <g>
      <g>
        <path class="cls-12" d="m666.87,177.11c-8.13,0-14.72,2.22-14.72,4.96,0,5.92,6.59,10.71,14.72,10.71s14.72-4.8,14.72-10.71c0-2.74-6.59-4.96-14.72-4.96Z"/>
        <path class="cls-12" d="m727.86,166.81c-.66-.77-1.73-1.03-2.74-1.13-5.63-.52-10.83,2.77-15.58,5.84-1.2.77-22.61,11.34-27.46,10.67l-.48,2.27c7.88.19,39.16-9.22,42.99-11.35,1.19-.66,2.41-1.38,3.19-2.5s.97-2.76.09-3.8Z"/>
      </g>
      <path class="cls-15" d="m655.82,183.07c-.32.37.41.54.37,1.03-.05.47,1.3,1.11,4.38,1.22,5.68.19,11.8,1.42,17.1-.64.41-.16.53-.67.25-1l-8.34-9.54c-1.62-1.64-4.26-1.65-5.9-.04l-7.85,8.97"/>
    </g>
    <text class="cls-11" transform="translate(479.65 92.15)"><tspan x="0" y="0">Attack stats </tspan></text>
    <text class="cls-9" transform="translate(477.44 142.25)"><tspan x="0" y="0">teaspoons of sugar</tspan></text>
    <text class="cls-9" transform="translate(481.93 297.53)"><tspan x="0" y="0">defense st</tspan><tspan class="cls-8" x="135.06" y="0">r</tspan><tspan x="146.15" y="0">ategy</tspan></text>
    <g>
      <g>
        <path class="cls-12" d="m744.02,184.05c-8.13,0-14.72,2.22-14.72,4.96,0,5.92,6.59,10.71,14.72,10.71s14.72-4.8,14.72-10.71c0-2.74-6.59-4.96-14.72-4.96Z"/>
        <path class="cls-12" d="m805,173.75c-.66-.77-1.73-1.03-2.74-1.13-5.63-.52-10.83,2.77-15.58,5.84-1.2.77-22.61,11.34-27.46,10.67l-.48,2.27c7.88.19,39.16-9.22,42.99-11.35,1.19-.66,2.41-1.38,3.19-2.5s.97-2.76.09-3.8Z"/>
      </g>
      <path class="cls-15" d="m732.97,190.01c-.32.37.41.54.37,1.03-.05.47,1.3,1.11,4.38,1.22,5.68.19,11.8,1.42,17.1-.64.41-.16.53-.67.25-1l-8.34-9.54c-1.62-1.64-4.26-1.65-5.9-.04l-7.85,8.97"/>
    </g>
    <g>
      <g>
        <path class="cls-12" d="m496.96,222.77c-8.13,0-14.72,2.22-14.72,4.96,0,5.92,6.59,10.71,14.72,10.71s14.72-4.8,14.72-10.71c0-2.74-6.59-4.96-14.72-4.96Z"/>
        <path class="cls-12" d="m557.95,212.47c-.66-.77-1.73-1.03-2.74-1.13-5.63-.52-10.83,2.77-15.58,5.84-1.2.77-22.61,11.34-27.46,10.67l-.48,2.27c7.88.19,39.16-9.22,42.99-11.35,1.19-.66,2.41-1.38,3.19-2.5s.97-2.76.09-3.8Z"/>
      </g>
      <path class="cls-15" d="m485.91,228.74c-.32.37.41.54.37,1.03-.05.47,1.3,1.11,4.38,1.22,5.68.19,11.8,1.42,17.1-.64.41-.16.53-.67.25-1l-8.34-9.54c-1.62-1.64-4.26-1.65-5.9-.04l-7.85,8.97"/>
    </g>
    <g>
      <g>
        <path class="cls-12" d="m581.06,222.77c-8.13,0-14.72,2.22-14.72,4.96,0,5.92,6.59,10.71,14.72,10.71s14.72-4.8,14.72-10.71c0-2.74-6.59-4.96-14.72-4.96Z"/>
        <path class="cls-12" d="m642.05,212.47c-.66-.77-1.73-1.03-2.74-1.13-5.63-.52-10.83,2.77-15.58,5.84-1.2.77-22.61,11.34-27.46,10.67l-.48,2.27c7.88.19,39.16-9.22,42.99-11.35,1.19-.66,2.41-1.38,3.19-2.5s.97-2.76.09-3.8Z"/>
      </g>
      <path class="cls-15" d="m570.02,228.74c-.32.37.41.54.37,1.03-.05.47,1.3,1.11,4.38,1.22,5.68.19,11.8,1.42,17.1-.64.41-.16.53-.67.25-1l-8.34-9.54c-1.62-1.64-4.26-1.65-5.9-.04l-7.85,8.97"/>
    </g>
    <g>
      <g>
        <path class="cls-12" d="m665.17,222.77c-8.13,0-14.72,2.22-14.72,4.96,0,5.92,6.59,10.71,14.72,10.71s14.72-4.8,14.72-10.71c0-2.74-6.59-4.96-14.72-4.96Z"/>
        <path class="cls-12" d="m726.16,212.47c-.66-.77-1.73-1.03-2.74-1.13-5.63-.52-10.83,2.77-15.58,5.84-1.2.77-22.61,11.34-27.46,10.67l-.48,2.27c7.88.19,39.16-9.22,42.99-11.35,1.19-.66,2.41-1.38,3.19-2.5s.97-2.76.09-3.8Z"/>
      </g>
      <path class="cls-15" d="m654.13,228.74c-.32.37.41.54.37,1.03-.05.47,1.3,1.11,4.38,1.22,5.68.19,11.8,1.42,17.1-.64.41-.16.53-.67.25-1l-8.34-9.54c-1.62-1.64-4.26-1.65-5.9-.04l-7.85,8.97"/>
    </g>
    <g>
      <g>
        <path class="cls-12" d="m742.32,229.71c-8.13,0-14.72,2.22-14.72,4.96,0,5.92,6.59,10.71,14.72,10.71s14.72-4.8,14.72-10.71c0-2.74-6.59-4.96-14.72-4.96Z"/>
        <path class="cls-12" d="m803.31,219.41c-.66-.77-1.73-1.03-2.74-1.13-5.63-.52-10.83,2.77-15.58,5.84-1.2.77-22.61,11.34-27.46,10.67l-.48,2.27c7.88.19,39.16-9.22,42.99-11.35,1.19-.66,2.41-1.38,3.19-2.5s.97-2.76.09-3.8Z"/>
      </g>
      <path class="cls-15" d="m731.27,235.68c-.32.37.41.54.37,1.03-.05.47,1.3,1.11,4.38,1.22,5.68.19,11.8,1.42,17.1-.64.41-.16.53-.67.25-1l-8.34-9.54c-1.62-1.64-4.26-1.65-5.9-.04l-7.85,8.97"/>
    </g>
    <circle class="cls-2" cx="229.5" cy="193.72" r="114.71"/>
    <g>
      <path class="cls-14" d="m262.69,289.82h-62.34c-3.98,0-7.33-2.97-7.82-6.91l-16.22-131.76c-.58-4.7,3.09-8.84,7.82-8.84h90.73c4.64,0,8.27,3.98,7.84,8.6l-12.17,131.76c-.37,4.05-3.77,7.15-7.84,7.15Z"/>
      <rect class="cls-3" x="168.84" y="136.08" width="121.32" height="12.46" rx="6.23" ry="6.23"/>
      <path class="cls-13" d="m257.85,285.92h-53.23c-3.4,0-6.26-2.68-6.68-6.24l-13.85-118.96c-.49-4.24,2.63-7.98,6.68-7.98h77.48c3.96,0,7.06,3.6,6.7,7.76l-10.39,118.96c-.32,3.66-3.22,6.46-6.7,6.46Z"/>
      <circle class="cls-4" cx="208.58" cy="278.7" r="3.83"/>
      <circle class="cls-4" cx="204.75" cy="271.04" r="3.83"/>
      <circle class="cls-4" cx="218.06" cy="278.7" r="3.83"/>
      <circle class="cls-4" cx="214.23" cy="271.04" r="3.83"/>
      <circle class="cls-4" cx="223.35" cy="271.04" r="3.83"/>
      <circle class="cls-4" cx="227.17" cy="278.7" r="3.83"/>
      <circle class="cls-4" cx="255.24" cy="278.7" r="3.83"/>
      <circle class="cls-4" cx="259.07" cy="271.04" r="3.83"/>
      <circle class="cls-4" cx="245.77" cy="278.7" r="3.83"/>
      <circle class="cls-4" cx="249.59" cy="271.04" r="3.83"/>
      <circle class="cls-4" cx="240.48" cy="271.04" r="3.83"/>
      <circle class="cls-4" cx="236.65" cy="278.7" r="3.83"/>
      <circle class="cls-4" cx="231.91" cy="271.04" r="3.83"/>
      <path class="cls-6" d="m223.62,153.39h14.76v116.92c0,2.52-2.04,4.56-4.56,4.56h-5.64c-2.52,0-4.56-2.04-4.56-4.56v-116.92h0Z"/>
      <path class="cls-4" d="m228.53,97.61h4.95c2.71,0,4.91,2.2,4.91,4.91v33.55h-14.76v-33.55c0-2.71,2.2-4.91,4.91-4.91Z"/>
      <rect class="cls-5" x="223.62" y="148.58" width="14.76" height="4.81"/>
      <circle class="cls-4" cx="207.52" cy="262.71" r="3.83"/>
      <circle class="cls-4" cx="203.69" cy="255.06" r="3.83"/>
      <circle class="cls-4" cx="217" cy="262.71" r="3.83"/>
      <circle class="cls-4" cx="213.17" cy="255.06" r="3.83"/>
      <circle class="cls-4" cx="222.28" cy="255.06" r="3.83"/>
      <circle class="cls-4" cx="226.11" cy="262.71" r="3.83"/>
      <circle class="cls-4" cx="254.18" cy="262.71" r="3.83"/>
      <circle class="cls-4" cx="258.01" cy="255.06" r="3.83"/>
      <circle class="cls-4" cx="244.7" cy="262.71" r="3.83"/>
      <circle class="cls-4" cx="248.53" cy="255.06" r="3.83"/>
      <circle class="cls-4" cx="239.42" cy="255.06" r="3.83"/>
      <circle class="cls-4" cx="235.59" cy="262.71" r="3.83"/>
      <circle class="cls-4" cx="230.85" cy="255.06" r="3.83"/>
    </g>
    <text class="cls-10" transform="translate(63.76 365.33)"><tspan x="0" y="0">500ml medium Bubble</tspan><tspan class="cls-1" x="283.41" y="0"> </tspan><tspan class="cls-16" x="291.05" y="0">T</tspan><tspan x="304.58" y="0">ea</tspan></text>
    <g>
      <path class="cls-2" d="m480.39,322.13c.94,0,1.74.33,2.4.99s.99,1.46.99,2.4-.33,1.74-.99,2.4-1.46.99-2.4.99-1.74-.33-2.4-.99-.99-1.46-.99-2.4.33-1.74.99-2.4,1.46-.99,2.4-.99Z"/>
      <path class="cls-2" d="m503.55,332.24l-1.18-3.62h-6.39l-1.27,3.62h-2.62l6.97-17.4h.62l6.47,17.4h-2.6Zm-4.29-12.9l-2.66,7.56h5.1l-2.44-7.56Z"/>
      <path class="cls-2" d="m506.96,331.49l.79-2.11c1.24.81,2.24,1.22,3,1.22,1.38,0,2.06-.58,2.06-1.73,0-.83-.66-1.54-1.99-2.13-1.02-.47-1.71-.82-2.07-1.07s-.66-.52-.93-.83-.46-.64-.59-.98-.19-.72-.19-1.12c0-1.03.38-1.84,1.12-2.41s1.73-.87,2.94-.87c.91,0,2.07.29,3.46.87l-.63,2.06c-.88-.7-1.77-1.05-2.66-1.05-.53,0-.98.12-1.34.38s-.54.57-.54.95c0,.8.46,1.41,1.37,1.83l1.59.73c.98.45,1.69.95,2.13,1.52s.67,1.29.67,2.14c0,1.12-.39,2.01-1.18,2.64s-1.88.96-3.28.96c-1.32,0-2.56-.33-3.73-.98Z"/>
      <path class="cls-2" d="m525.6,332.24l-3.94-6.28-1.95,2v4.28h-2.23v-17.7h2.23v10.98l4.8-5.84h2.6l-4.02,4.77,4.91,7.78h-2.41Z"/>
      <path class="cls-2" d="m543.61,316.54c-.45-.16-.88-.23-1.27-.23-.68,0-1.24.26-1.68.77s-.66,1.17-.66,1.96c0,.21.02.43.06.66h2.55v1.88h-2.55v10.68h-2.23v-10.68h-1.83v-1.88h1.83c0-1.6.39-2.86,1.18-3.77s1.83-1.37,3.13-1.37c.65,0,1.34.12,2.09.35l-.62,1.64Z"/>
      <path class="cls-2" d="m544.88,325.94c0-1.94.52-3.5,1.56-4.69s2.42-1.79,4.12-1.79c1.8,0,3.19.57,4.18,1.72s1.49,2.73,1.49,4.76-.51,3.62-1.52,4.79-2.4,1.75-4.15,1.75-3.18-.59-4.18-1.77-1.5-2.77-1.5-4.77Zm2.34,0c0,3.15,1.11,4.72,3.34,4.72,1.04,0,1.85-.42,2.44-1.27s.88-2,.88-3.46c0-3.11-1.11-4.66-3.33-4.66-1.02,0-1.83.41-2.43,1.24s-.91,1.97-.91,3.42Z"/>
      <path class="cls-2" d="m565.4,321.84c-.48-.34-.97-.5-1.46-.5-.79,0-1.48.36-2.07,1.09s-.88,1.6-.88,2.62v7.2h-2.23v-12.55h2.23v2c.81-1.49,2.02-2.24,3.62-2.24.4,0,.97.07,1.72.21l-.93,2.17Z"/>
      <path class="cls-2" d="m575.31,328.69v-14.14h2.23v13.77c0,.67.19,1.2.58,1.59s.89.58,1.52.58v1.99c-2.88,0-4.32-1.26-4.32-3.79Z"/>
      <path class="cls-2" d="m581.4,325.94c0-1.94.52-3.5,1.56-4.69s2.42-1.79,4.12-1.79c1.8,0,3.19.57,4.18,1.72s1.49,2.73,1.49,4.76-.51,3.62-1.52,4.79-2.4,1.75-4.15,1.75-3.18-.59-4.18-1.77-1.5-2.77-1.5-4.77Zm2.34,0c0,3.15,1.11,4.72,3.34,4.72,1.04,0,1.85-.42,2.44-1.27s.88-2,.88-3.46c0-3.11-1.11-4.66-3.33-4.66-1.02,0-1.83.41-2.43,1.24s-.91,1.97-.91,3.42Z"/>
      <path class="cls-2" d="m606.7,332.48h-.59l-3.68-8.54-3.67,8.54h-.59l-4.49-12.82h2.38l2.68,8.24,3.34-8.24h.59l3.45,8.24,2.88-8.24h2.19l-4.5,12.82Z"/>
      <path class="cls-2" d="m623.52,326.19h-9.05c0,1.47.4,2.6,1.21,3.39.71.69,1.62,1.03,2.74,1.03,1.27,0,2.34-.37,3.19-1.11l.94,1.61c-.34.34-.87.64-1.58.89-.89.33-1.88.49-2.98.49-1.58,0-2.92-.54-4.02-1.61-1.23-1.18-1.84-2.77-1.84-4.76s.63-3.73,1.89-4.98c1.12-1.12,2.46-1.68,4-1.68,1.79,0,3.19.5,4.21,1.51.98.97,1.48,2.25,1.48,3.86,0,.49-.06.95-.18,1.36Zm-5.4-4.85c-.99,0-1.82.32-2.5.96-.64.61-1,1.37-1.09,2.27h6.95c0-.9-.28-1.65-.84-2.25-.62-.66-1.46-.98-2.52-.98Z"/>
      <path class="cls-2" d="m632.86,321.84c-.48-.34-.97-.5-1.46-.5-.79,0-1.48.36-2.07,1.09s-.88,1.6-.88,2.62v7.2h-2.23v-12.55h2.23v2c.81-1.49,2.02-2.24,3.62-2.24.4,0,.97.07,1.72.21l-.93,2.17Z"/>
      <path class="cls-2" d="m641.78,331.49l.79-2.11c1.24.81,2.24,1.22,3,1.22,1.38,0,2.06-.58,2.06-1.73,0-.83-.66-1.54-1.99-2.13-1.02-.47-1.71-.82-2.07-1.07s-.66-.52-.93-.83-.46-.64-.59-.98-.19-.72-.19-1.12c0-1.03.38-1.84,1.12-2.41s1.73-.87,2.94-.87c.91,0,2.07.29,3.46.87l-.63,2.06c-.88-.7-1.77-1.05-2.66-1.05-.53,0-.98.12-1.34.38s-.54.57-.54.95c0,.8.46,1.41,1.37,1.83l1.59.73c.98.45,1.69.95,2.13,1.52s.67,1.29.67,2.14c0,1.12-.39,2.01-1.18,2.64s-1.88.96-3.28.96c-1.32,0-2.56-.33-3.73-.98Z"/>
      <path class="cls-2" d="m654.43,319.69v8c0,1.94.84,2.91,2.52,2.91.73,0,1.41-.21,2.02-.63s1.01-.91,1.21-1.46v-8.81h2.23v12.55h-2.23v-1.73c-.25.49-.75.94-1.51,1.35s-1.49.62-2.21.62c-1.38,0-2.43-.39-3.16-1.18s-1.1-1.91-1.1-3.36v-8.24h2.23Z"/>
      <path class="cls-2" d="m664.97,335.68l1.21-1.78c1.3.87,2.49,1.3,3.59,1.3,1.01,0,1.8-.17,2.38-.52s.87-.78.87-1.29c0-1.02-.73-1.52-2.2-1.52-.25,0-.7.06-1.36.19s-1.17.19-1.54.19c-1.78,0-2.67-.67-2.67-2.02,0-.41.21-.79.63-1.12s.94-.58,1.55-.73c-1.77-.83-2.65-2.27-2.65-4.31,0-1.31.46-2.41,1.37-3.28s2.04-1.31,3.39-1.31c1.23,0,2.2.25,2.89.76l1.11-1.34,1.45,1.37-1.34,1.01c.57.74.86,1.71.86,2.91,0,1.27-.39,2.33-1.18,3.19s-1.82,1.35-3.11,1.48l-1.84.19c-.22.02-.51.11-.88.25s-.55.33-.55.57c0,.32.38.48,1.15.48.34,0,.86-.06,1.57-.18s1.24-.18,1.58-.18c1.23,0,2.2.29,2.89.88s1.04,1.41,1.04,2.46c0,1.16-.52,2.09-1.55,2.8s-2.35,1.07-3.93,1.07c-.81,0-1.67-.14-2.57-.43s-1.62-.64-2.17-1.05Zm4.72-14.43c-.77,0-1.4.27-1.89.82s-.73,1.21-.73,1.99c0,.88.24,1.6.71,2.17s1.11.86,1.92.86,1.41-.28,1.85-.84.67-1.29.67-2.2c0-.78-.24-1.45-.72-1.99s-1.08-.82-1.8-.82Z"/>
      <path class="cls-2" d="m684.57,330.8c-.89,1.12-2.25,1.68-4.09,1.68-.98,0-1.84-.36-2.56-1.07s-1.08-1.6-1.08-2.67c0-1.27.56-2.35,1.67-3.23s2.53-1.32,4.26-1.32c.47,0,1,.1,1.59.3,0-2.03-.91-3.05-2.72-3.05-1.39,0-2.46.38-3.21,1.12l-.94-1.86c.42-.34,1.01-.64,1.75-.88s1.46-.37,2.14-.37c1.82,0,3.14.41,3.97,1.24s1.24,2.14,1.24,3.95v4.5c0,1.1.33,1.84.98,2.2v1.11c-.91,0-1.58-.13-2.03-.39s-.77-.68-.97-1.28Zm-.21-4.72c-.7-.16-1.2-.23-1.48-.23-1.12,0-2.04.29-2.75.87s-1.07,1.26-1.07,2.05c0,1.3.77,1.96,2.31,1.96,1.12,0,2.12-.54,2.99-1.61v-3.04Z"/>
      <path class="cls-2" d="m696.91,321.84c-.48-.34-.97-.5-1.46-.5-.79,0-1.48.36-2.07,1.09s-.88,1.6-.88,2.62v7.2h-2.23v-12.55h2.23v2c.81-1.49,2.02-2.24,3.62-2.24.4,0,.97.07,1.72.21l-.93,2.17Z"/>
      <path class="cls-2" d="m706.82,328.69v-14.14h2.23v13.77c0,.67.19,1.2.58,1.59s.89.58,1.52.58v1.99c-2.88,0-4.32-1.26-4.32-3.79Z"/>
      <path class="cls-2" d="m724.29,326.19h-9.05c0,1.47.4,2.6,1.21,3.39.71.69,1.62,1.03,2.74,1.03,1.27,0,2.34-.37,3.19-1.11l.94,1.61c-.34.34-.87.64-1.58.89-.89.33-1.88.49-2.98.49-1.58,0-2.92-.54-4.02-1.61-1.23-1.18-1.84-2.77-1.84-4.76s.63-3.73,1.89-4.98c1.12-1.12,2.46-1.68,4-1.68,1.79,0,3.19.5,4.21,1.51.98.97,1.48,2.25,1.48,3.86,0,.49-.06.95-.18,1.36Zm-5.4-4.85c-.99,0-1.82.32-2.5.96-.64.61-1,1.37-1.09,2.27h6.95c0-.9-.28-1.65-.84-2.25-.62-.66-1.46-.98-2.52-.98Z"/>
      <path class="cls-2" d="m731.34,332.48h-.59l-5.38-12.82h2.44l3.32,8.79,3.39-8.79h2.33l-5.51,12.82Z"/>
      <path class="cls-2" d="m749.14,326.19h-9.05c0,1.47.4,2.6,1.21,3.39.71.69,1.62,1.03,2.74,1.03,1.27,0,2.34-.37,3.19-1.11l.94,1.61c-.34.34-.87.64-1.58.89-.89.33-1.88.49-2.98.49-1.58,0-2.92-.54-4.02-1.61-1.23-1.18-1.84-2.77-1.84-4.76s.63-3.73,1.89-4.98c1.12-1.12,2.46-1.68,4-1.68,1.79,0,3.19.5,4.21,1.51.98.97,1.48,2.25,1.48,3.86,0,.49-.06.95-.18,1.36Zm-5.4-4.85c-.99,0-1.82.32-2.5.96-.64.61-1,1.37-1.09,2.27h6.95c0-.9-.28-1.65-.84-2.25-.62-.66-1.46-.98-2.52-.98Z"/>
      <path class="cls-2" d="m751.83,328.69v-14.14h2.23v13.77c0,.67.19,1.2.58,1.59s.89.58,1.52.58v1.99c-2.88,0-4.32-1.26-4.32-3.79Z"/>
      <path class="cls-2" d="m757.91,331.49l.79-2.11c1.24.81,2.24,1.22,3,1.22,1.38,0,2.06-.58,2.06-1.73,0-.83-.66-1.54-1.99-2.13-1.02-.47-1.71-.82-2.07-1.07s-.66-.52-.93-.83-.46-.64-.59-.98-.19-.72-.19-1.12c0-1.03.38-1.84,1.12-2.41s1.73-.87,2.94-.87c.91,0,2.07.29,3.46.87l-.63,2.06c-.88-.7-1.77-1.05-2.66-1.05-.53,0-.98.12-1.34.38s-.54.57-.54.95c0,.8.46,1.41,1.37,1.83l1.59.73c.98.45,1.69.95,2.13,1.52s.67,1.29.67,2.14c0,1.12-.39,2.01-1.18,2.64s-1.88.96-3.28.96c-1.32,0-2.56-.33-3.73-.98Z"/>
      <path class="cls-2" d="m480.39,350.93c.94,0,1.74.33,2.4.99s.99,1.46.99,2.4-.33,1.74-.99,2.4-1.46.99-2.4.99-1.74-.33-2.4-.99-.99-1.46-.99-2.4.33-1.74.99-2.4,1.46-.99,2.4-.99Z"/>
      <path class="cls-2" d="m503.32,361.04l-4.58-7.37c-.52,0-1.35-.04-2.48-.12v7.49h-2.34v-17.17c.09,0,.69-.03,1.82-.09s1.95-.09,2.47-.09c4.12,0,6.19,1.64,6.19,4.92,0,1.08-.33,2.05-1,2.91s-1.45,1.4-2.37,1.61l4.98,7.9h-2.68Zm-7.07-15.06v5.58c.56.08,1.11.12,1.64.12,1.41,0,2.43-.23,3.07-.68s.96-1.26.96-2.43c0-.96-.34-1.65-1.03-2.07s-1.77-.63-3.26-.63c-.23,0-.7.04-1.38.12Z"/>
      <path class="cls-2" d="m517.19,354.98h-9.05c0,1.47.4,2.6,1.21,3.39.71.69,1.62,1.03,2.74,1.03,1.27,0,2.34-.37,3.19-1.11l.94,1.61c-.34.34-.87.64-1.58.89-.89.33-1.88.49-2.98.49-1.58,0-2.92-.54-4.02-1.61-1.23-1.18-1.84-2.77-1.84-4.76s.63-3.73,1.89-4.98c1.12-1.12,2.46-1.68,4-1.68,1.79,0,3.19.5,4.21,1.51.98.97,1.48,2.25,1.48,3.86,0,.49-.06.95-.18,1.36Zm-5.4-4.85c-.99,0-1.82.32-2.5.96-.64.61-1,1.37-1.09,2.27h6.95c0-.9-.28-1.65-.84-2.25-.62-.66-1.46-.98-2.52-.98Z"/>
      <path class="cls-2" d="m527.66,361.03v-.93c-.77.77-1.9,1.16-3.38,1.16-1.57,0-2.84-.56-3.82-1.69s-1.46-2.62-1.46-4.5.56-3.49,1.69-4.82,2.46-2,4.02-2c1.3,0,2.28.3,2.95.91v-5.82h2.23v17.68h-2.23Zm0-9.63c-.56-.84-1.33-1.27-2.31-1.27-1.2,0-2.16.45-2.9,1.34s-1.11,2.02-1.11,3.4c0,3.02,1.38,4.54,4.12,4.54.35,0,.77-.11,1.27-.33s.8-.46.93-.71v-6.96Z"/>
      <path class="cls-2" d="m535.19,348.49v8c0,1.94.84,2.91,2.52,2.91.73,0,1.41-.21,2.02-.63s1.01-.91,1.21-1.46v-8.81h2.23v12.55h-2.23v-1.73c-.25.49-.75.94-1.51,1.35s-1.49.62-2.21.62c-1.38,0-2.43-.39-3.16-1.18s-1.1-1.91-1.1-3.36v-8.24h2.23Z"/>
      <path class="cls-2" d="m555.66,349.51l-1.1,1.57c-.23-.23-.63-.44-1.2-.64s-1.14-.3-1.69-.3c-1.21,0-2.17.42-2.88,1.27s-1.07,2.01-1.07,3.49.36,2.59,1.09,3.36,1.73,1.15,3.02,1.15c1,0,2.01-.39,3.02-1.16l.88,1.88c-1.2.77-2.68,1.16-4.44,1.16s-3.12-.57-4.24-1.72-1.68-2.7-1.68-4.66.58-3.61,1.74-4.82,2.75-1.82,4.76-1.82c.65,0,1.35.14,2.11.41s1.32.55,1.68.84Z"/>
      <path class="cls-2" d="m568.65,354.98h-9.05c0,1.47.4,2.6,1.21,3.39.71.69,1.62,1.03,2.74,1.03,1.27,0,2.34-.37,3.19-1.11l.94,1.61c-.34.34-.87.64-1.58.89-.89.33-1.88.49-2.98.49-1.58,0-2.92-.54-4.02-1.61-1.23-1.18-1.84-2.77-1.84-4.76s.63-3.73,1.89-4.98c1.12-1.12,2.46-1.68,4-1.68,1.79,0,3.19.5,4.21,1.51.98.97,1.48,2.25,1.48,3.86,0,.49-.06.95-.18,1.36Zm-5.4-4.85c-.99,0-1.82.32-2.5.96-.64.61-1,1.37-1.09,2.27h6.95c0-.9-.28-1.65-.84-2.25-.62-.66-1.46-.98-2.52-.98Z"/>
      <path class="cls-2" d="m587.86,349.51l-1.1,1.57c-.23-.23-.63-.44-1.2-.64s-1.14-.3-1.69-.3c-1.21,0-2.17.42-2.88,1.27s-1.07,2.01-1.07,3.49.36,2.59,1.09,3.36,1.73,1.15,3.02,1.15c1,0,2.01-.39,3.02-1.16l.88,1.88c-1.2.77-2.68,1.16-4.44,1.16s-3.12-.57-4.24-1.72-1.68-2.7-1.68-4.66.58-3.61,1.74-4.82,2.75-1.82,4.76-1.82c.65,0,1.35.14,2.11.41s1.32.55,1.68.84Z"/>
      <path class="cls-2" d="m589.46,354.74c0-1.94.52-3.5,1.56-4.69s2.42-1.79,4.12-1.79c1.8,0,3.19.57,4.18,1.72s1.49,2.73,1.49,4.76-.51,3.62-1.52,4.79-2.4,1.75-4.15,1.75-3.18-.59-4.18-1.77-1.5-2.77-1.5-4.77Zm2.34,0c0,3.15,1.11,4.72,3.34,4.72,1.04,0,1.85-.42,2.44-1.27s.88-2,.88-3.46c0-3.11-1.11-4.66-3.33-4.66-1.02,0-1.83.41-2.43,1.24s-.91,1.97-.91,3.42Z"/>
      <path class="cls-2" d="m610.88,361.04v-7.3c0-1.34-.2-2.27-.6-2.81s-1.08-.8-2.02-.8c-.51,0-1.04.15-1.59.46s-.98.68-1.28,1.12v9.33h-2.23v-12.55h1.52l.7,1.62c.73-1.23,1.93-1.85,3.6-1.85,2.75,0,4.12,1.67,4.12,5.02v7.77h-2.23Z"/>
      <path class="cls-2" d="m615.45,360.29l.79-2.11c1.24.81,2.24,1.22,3,1.22,1.38,0,2.06-.58,2.06-1.73,0-.83-.66-1.54-1.99-2.13-1.02-.47-1.71-.82-2.07-1.07s-.66-.52-.93-.83-.46-.64-.59-.98-.19-.72-.19-1.12c0-1.03.38-1.84,1.12-2.41s1.73-.87,2.94-.87c.91,0,2.07.29,3.46.87l-.63,2.06c-.88-.7-1.77-1.05-2.66-1.05-.53,0-.98.12-1.34.38s-.54.57-.54.95c0,.8.46,1.41,1.37,1.83l1.59.73c.98.45,1.69.95,2.13,1.52s.67,1.29.67,2.14c0,1.12-.39,2.01-1.18,2.64s-1.88.96-3.28.96c-1.32,0-2.56-.33-3.73-.98Z"/>
      <path class="cls-2" d="m628.09,348.49v8c0,1.94.84,2.91,2.52,2.91.73,0,1.41-.21,2.02-.63s1.01-.91,1.21-1.46v-8.81h2.23v12.55h-2.23v-1.73c-.25.49-.75.94-1.51,1.35s-1.49.62-2.21.62c-1.38,0-2.43-.39-3.16-1.18s-1.1-1.91-1.1-3.36v-8.24h2.23Z"/>
      <path class="cls-2" d="m653.63,361.04v-7.95c0-1.98-.86-2.96-2.57-2.96-.54,0-1.04.17-1.51.5s-.79.71-.96,1.13v9.28h-2.23v-8.92c0-.62-.23-1.1-.7-1.46s-1.08-.53-1.85-.53c-.45,0-.92.17-1.42.52s-.86.72-1.07,1.14v9.26h-2.23v-12.55h1.45l.74,1.45c.86-1.12,1.93-1.69,3.22-1.69,1.8,0,3.05.56,3.77,1.68.25-.48.71-.88,1.39-1.2s1.38-.48,2.1-.48c1.3,0,2.3.38,3.01,1.15s1.07,1.85,1.07,3.24v8.39h-2.23Z"/>
      <path class="cls-2" d="m661.25,360.35v5.61h-2.23v-17.47h2.23v1.03c.84-.84,1.86-1.27,3.06-1.27,1.78,0,3.17.55,4.16,1.66s1.49,2.73,1.49,4.88c0,1.91-.5,3.46-1.5,4.67s-2.45,1.81-4.34,1.81c-.53,0-1.1-.09-1.71-.28s-.99-.4-1.17-.64Zm0-9.15v7.31c.14.21.44.41.89.6s.89.29,1.32.29c2.77,0,4.15-1.56,4.15-4.69,0-1.59-.33-2.75-.98-3.48s-1.71-1.1-3.15-1.1c-.31,0-.7.11-1.15.33s-.81.46-1.08.74Z"/>
      <path class="cls-2" d="m673.19,350.25h-1.45v-1.76h1.45v-2.62l2.23-.86v3.48h3.45v1.76h-3.45v6.23c0,1.05.18,1.8.53,2.25s.93.67,1.72.67c.57,0,1.16-.14,1.77-.43l.33,1.96c-.92.23-1.93.35-3.04.35-.99,0-1.83-.37-2.51-1.11s-1.03-1.67-1.03-2.79v-7.12Z"/>
      <path class="cls-2" d="m682.99,361.04v-10.68h-1.72v-1.88h3.95v12.55h-2.23Zm1.22-17.3c.38,0,.71.13.98.4s.4.59.4.97-.13.71-.4.98-.6.4-.98.4-.7-.13-.97-.4-.4-.6-.4-.98.13-.71.4-.97.59-.4.97-.4Z"/>
      <path class="cls-2" d="m687.93,354.74c0-1.94.52-3.5,1.56-4.69s2.42-1.79,4.12-1.79c1.8,0,3.19.57,4.18,1.72s1.49,2.73,1.49,4.76-.51,3.62-1.52,4.79-2.4,1.75-4.15,1.75-3.18-.59-4.18-1.77-1.5-2.77-1.5-4.77Zm2.34,0c0,3.15,1.11,4.72,3.34,4.72,1.04,0,1.85-.42,2.44-1.27s.88-2,.88-3.46c0-3.11-1.11-4.66-3.33-4.66-1.02,0-1.83.41-2.43,1.24s-.91,1.97-.91,3.42Z"/>
      <path class="cls-2" d="m709.35,361.04v-7.3c0-1.34-.2-2.27-.6-2.81s-1.08-.8-2.02-.8c-.51,0-1.04.15-1.59.46s-.98.68-1.28,1.12v9.33h-2.23v-12.55h1.52l.7,1.62c.73-1.23,1.93-1.85,3.6-1.85,2.75,0,4.12,1.67,4.12,5.02v7.77h-2.23Z"/>
      <path class="cls-2" d="m728.76,345.34c-.45-.16-.88-.23-1.27-.23-.68,0-1.24.26-1.68.77s-.66,1.17-.66,1.96c0,.21.02.43.06.66h2.55v1.88h-2.55v10.68h-2.23v-10.68h-1.83v-1.88h1.83c0-1.6.39-2.86,1.18-3.77s1.83-1.37,3.13-1.37c.65,0,1.34.12,2.09.35l-.62,1.64Z"/>
      <path class="cls-2" d="m737.66,350.64c-.48-.34-.97-.5-1.46-.5-.79,0-1.48.36-2.07,1.09s-.88,1.6-.88,2.62v7.2h-2.23v-12.55h2.23v2c.81-1.49,2.02-2.24,3.62-2.24.4,0,.97.07,1.72.21l-.93,2.17Z"/>
      <path class="cls-2" d="m750.74,354.98h-9.05c0,1.47.4,2.6,1.21,3.39.71.69,1.62,1.03,2.74,1.03,1.27,0,2.34-.37,3.19-1.11l.94,1.61c-.34.34-.87.64-1.58.89-.89.33-1.88.49-2.98.49-1.58,0-2.92-.54-4.02-1.61-1.23-1.18-1.84-2.77-1.84-4.76s.63-3.73,1.89-4.98c1.12-1.12,2.46-1.68,4-1.68,1.79,0,3.19.5,4.21,1.51.98.97,1.48,2.25,1.48,3.86,0,.49-.06.95-.18,1.36Zm-5.4-4.85c-.99,0-1.82.32-2.5.96-.64.61-1,1.37-1.09,2.27h6.95c0-.9-.28-1.65-.84-2.25-.62-.66-1.46-.98-2.52-.98Z"/>
      <path class="cls-2" d="m761.3,365.96v-5.66c-.65.65-1.73.97-3.26.97-1.71,0-3.05-.57-4.03-1.72s-1.46-2.73-1.46-4.76.56-3.6,1.67-4.78,2.54-1.76,4.29-1.76c1.09,0,2.11.39,3.06,1.18l.6-.95h1.35v17.47h-2.23Zm0-14.87c-.64-.64-1.44-.96-2.4-.96-1.26,0-2.24.43-2.94,1.28s-1.05,1.98-1.05,3.39.35,2.58,1.05,3.39,1.65,1.21,2.85,1.21c1.07,0,1.9-.27,2.5-.82v-7.49Z"/>
      <path class="cls-2" d="m768.74,348.49v8c0,1.94.84,2.91,2.52,2.91.73,0,1.41-.21,2.02-.63s1.01-.91,1.21-1.46v-8.81h2.23v12.55h-2.23v-1.73c-.25.49-.75.94-1.51,1.35s-1.49.62-2.21.62c-1.38,0-2.43-.39-3.16-1.18s-1.1-1.91-1.1-3.36v-8.24h2.23Z"/>
      <path class="cls-2" d="m790.32,354.98h-9.05c0,1.47.4,2.6,1.21,3.39.71.69,1.62,1.03,2.74,1.03,1.27,0,2.34-.37,3.19-1.11l.94,1.61c-.34.34-.87.64-1.58.89-.89.33-1.88.49-2.98.49-1.58,0-2.92-.54-4.02-1.61-1.23-1.18-1.84-2.77-1.84-4.76s.63-3.73,1.89-4.98c1.12-1.12,2.46-1.68,4-1.68,1.79,0,3.19.5,4.21,1.51.98.97,1.48,2.25,1.48,3.86,0,.49-.06.95-.18,1.36Zm-5.4-4.85c-.99,0-1.82.32-2.5.96-.64.61-1,1.37-1.09,2.27h6.95c0-.9-.28-1.65-.84-2.25-.62-.66-1.46-.98-2.52-.98Z"/>
      <path class="cls-2" d="m800.56,361.04v-7.3c0-1.34-.2-2.27-.6-2.81s-1.08-.8-2.02-.8c-.51,0-1.04.15-1.59.46s-.98.68-1.28,1.12v9.33h-2.23v-12.55h1.52l.7,1.62c.73-1.23,1.93-1.85,3.6-1.85,2.75,0,4.12,1.67,4.12,5.02v7.77h-2.23Z"/>
      <path class="cls-2" d="m815.42,349.51l-1.1,1.57c-.23-.23-.63-.44-1.2-.64s-1.14-.3-1.69-.3c-1.21,0-2.17.42-2.88,1.27s-1.07,2.01-1.07,3.49.36,2.59,1.09,3.36,1.73,1.15,3.02,1.15c1,0,2.01-.39,3.02-1.16l.88,1.88c-1.2.77-2.68,1.16-4.44,1.16s-3.12-.57-4.24-1.72-1.68-2.7-1.68-4.66.58-3.61,1.74-4.82,2.75-1.82,4.76-1.82c.65,0,1.35.14,2.11.41s1.32.55,1.68.84Z"/>
      <path class="cls-2" d="m822.63,363.18c-.29.8-.9,1.46-1.82,1.99s-1.96.8-3.1.8v-1.99c.93,0,1.73-.22,2.39-.65s1-.96,1-1.59c0-.69-.12-1.37-.36-2.03s-.55-1.49-.94-2.48l-3.4-8.73h2.27l3.69,9.7,3.32-9.7h2.27l-5.32,14.68Z"/>
    </g>
  </g>
</svg>