<?xml version="1.0" encoding="UTF-8"?>
<svg id="Layer_2" data-name="Layer 2" xmlns="http://www.w3.org/2000/svg" viewBox="0 0 860.4 431.75">
  <defs>
    <style>
      .cls-1 {
        letter-spacing: -.02em;
      }

      .cls-2 {
        letter-spacing: -.13em;
      }

      .cls-3 {
        fill: #f2ec63;
      }

      .cls-4 {
        fill: #f1f2f2;
      }

      .cls-5 {
        fill: #a24123;
      }

      .cls-6, .cls-7 {
        fill: #c64127;
      }

      .cls-8 {
        fill: #484021;
      }

      .cls-9 {
        fill: #3b57a7;
      }

      .cls-10 {
        fill: #bc8d2d;
        stroke: #9a5825;
        stroke-width: 10px;
      }

      .cls-10, .cls-7, .cls-11, .cls-12 {
        stroke-miterlimit: 10;
      }

      .cls-13 {
        letter-spacing: -.03em;
      }

      .cls-7 {
        stroke: #aa4227;
        stroke-width: 2px;
      }

      .cls-14 {
        fill: #d6cdd5;
        font-size: 28px;
      }

      .cls-14, .cls-15, .cls-16 {
        font-family: TrebuchetMS-Bold, 'Trebuchet MS';
        font-weight: 700;
      }

      .cls-11 {
        fill: #72cbcb;
      }

      .cls-11, .cls-12 {
        stroke: #72cbcb;
      }

      .cls-15 {
        font-size: 27px;
      }

      .cls-15, .cls-12, .cls-16 {
        fill: #fff;
      }

      .cls-12 {
        stroke-width: 3px;
      }

      .cls-16 {
        font-size: 39px;
      }
    </style>
  </defs>
  <g id="exploreSugar">
    <g>
      <rect class="cls-9" x="0" y="0" width="860.4" height="431.75" rx="57.84" ry="57.84"/>
      <g>
        <g>
          <path class="cls-11" d="m505.82,184.72c-8.13,0-14.72,2.22-14.72,4.96,0,5.92,6.59,10.71,14.72,10.71s14.72-4.8,14.72-10.71c0-2.74-6.59-4.96-14.72-4.96Z"/>
          <path class="cls-11" d="m566.81,174.42c-.66-.77-1.73-1.03-2.74-1.13-5.63-.52-10.83,2.77-15.58,5.84-1.2.77-22.61,11.34-27.46,10.67l-.48,2.27c7.88.19,39.16-9.22,42.99-11.35,1.19-.66,2.41-1.38,3.19-2.5s.97-2.76.09-3.8Z"/>
        </g>
        <path class="cls-12" d="m494.77,190.68c-.32.37.41.54.37,1.03-.05.47,1.3,1.11,4.38,1.22,5.68.19,11.8,1.42,17.1-.64.41-.16.53-.67.25-1l-8.34-9.54c-1.62-1.64-4.26-1.65-5.9-.04l-7.85,8.97"/>
      </g>
      <text class="cls-16" transform="translate(478.71 89.22)"><tspan x="0" y="0">Attack stats </tspan></text>
      <text class="cls-14" transform="translate(484.6 149.85)"><tspan x="0" y="0">teaspoons of sugar</tspan></text>
      <text class="cls-14" transform="translate(488.55 263.28)"><tspan x="0" y="0">defense st</tspan><tspan class="cls-13" x="135.06" y="0">r</tspan><tspan x="146.15" y="0">ategy</tspan></text>
      <circle class="cls-4" cx="223.25" cy="195.66" r="114.71"/>
      <text class="cls-15" transform="translate(164.74 365.33)"><tspan x="0" y="0">Kaya</tspan><tspan class="cls-1" x="59.84" y="0"> </tspan><tspan class="cls-2" x="67.49" y="0">T</tspan><tspan x="80.53" y="0">oast</tspan></text>
      <g>
        <path class="cls-4" d="m485.69,300.1c.74,0,1.37.26,1.9.78.52.52.78,1.16.78,1.9s-.26,1.38-.78,1.9c-.52.52-1.16.78-1.9.78s-1.37-.26-1.9-.78c-.52-.52-.78-1.16-.78-1.9s.26-1.37.78-1.9c.52-.52,1.16-.78,1.9-.78Z"/>
        <path class="cls-4" d="m508.72,295.02l-.62,1.59c-.59-.43-1.53-.65-2.8-.65-1.19,0-2.15.51-2.87,1.54-.72,1.03-1.08,2.35-1.08,3.97s.37,2.8,1.11,3.76c.74.96,1.69,1.44,2.86,1.44,1.27,0,2.25-.45,2.94-1.36l1.02,1.42c-1.08,1.07-2.46,1.61-4.16,1.61s-3.17-.64-4.19-1.92-1.53-2.97-1.53-5.07.54-3.71,1.63-5.06c1.09-1.34,2.5-2.01,4.22-2.01,1.48,0,2.63.24,3.47.73Z"/>
        <path class="cls-4" d="m510.63,303.12c0-1.53.41-2.77,1.24-3.72.83-.94,1.91-1.41,3.26-1.41,1.42,0,2.53.45,3.31,1.36.79.91,1.18,2.16,1.18,3.77s-.4,2.87-1.21,3.79c-.8.92-1.9,1.39-3.28,1.39s-2.52-.47-3.31-1.4c-.79-.93-1.19-2.19-1.19-3.78Zm1.86,0c0,2.49.88,3.74,2.64,3.74.82,0,1.47-.33,1.93-1,.47-.67.7-1.58.7-2.74,0-2.46-.88-3.69-2.63-3.69-.8,0-1.45.33-1.92.98-.48.66-.72,1.56-.72,2.71Z"/>
        <path class="cls-4" d="m527.58,308.11v-5.78c0-1.06-.16-1.8-.48-2.22-.32-.42-.85-.63-1.6-.63-.4,0-.82.12-1.26.36-.44.24-.78.54-1.01.89v7.38h-1.76v-9.94h1.21l.56,1.28c.58-.98,1.53-1.46,2.85-1.46,2.18,0,3.27,1.32,3.27,3.97v6.15h-1.76Z"/>
        <path class="cls-4" d="m531.2,307.52l.62-1.67c.98.64,1.77.96,2.38.96,1.09,0,1.63-.46,1.63-1.37,0-.66-.53-1.22-1.58-1.69-.81-.37-1.36-.65-1.64-.84-.28-.19-.53-.41-.73-.65-.21-.24-.36-.5-.46-.78-.1-.28-.15-.57-.15-.89,0-.82.3-1.45.89-1.91.59-.46,1.37-.69,2.33-.69.72,0,1.64.23,2.74.69l-.5,1.63c-.7-.56-1.4-.83-2.11-.83-.42,0-.77.1-1.06.3-.29.2-.43.45-.43.75,0,.64.36,1.12,1.09,1.45l1.26.58c.77.35,1.34.75,1.69,1.21s.53,1.02.53,1.7c0,.89-.31,1.59-.94,2.09-.62.5-1.49.76-2.6.76-1.05,0-2.03-.26-2.95-.78Z"/>
        <path class="cls-4" d="m541.21,298.17v6.34c0,1.53.66,2.3,1.99,2.3.58,0,1.11-.17,1.6-.5s.8-.72.96-1.16v-6.98h1.76v9.94h-1.76v-1.37c-.2.39-.6.75-1.19,1.07-.6.33-1.18.49-1.75.49-1.09,0-1.92-.31-2.5-.94-.58-.62-.87-1.51-.87-2.66v-6.52h1.76Z"/>
        <path class="cls-4" d="m561.43,308.11v-6.29c0-1.56-.68-2.35-2.03-2.35-.43,0-.83.13-1.2.39-.37.26-.62.56-.76.9v7.35h-1.76v-7.06c0-.49-.18-.87-.55-1.15-.37-.28-.85-.42-1.46-.42-.35,0-.73.14-1.13.41-.4.27-.68.57-.85.9v7.33h-1.76v-9.94h1.15l.58,1.15c.68-.89,1.53-1.34,2.55-1.34,1.42,0,2.42.44,2.99,1.33.2-.38.57-.69,1.1-.95s1.09-.38,1.66-.38c1.03,0,1.82.3,2.38.91.56.61.84,1.46.84,2.57v6.64h-1.76Z"/>
        <path class="cls-4" d="m574.06,303.31h-7.16c0,1.16.32,2.06.96,2.68.56.54,1.29.82,2.17.82,1.01,0,1.85-.29,2.52-.88l.74,1.27c-.27.27-.69.51-1.25.71-.71.26-1.49.39-2.36.39-1.25,0-2.31-.42-3.18-1.27-.97-.93-1.46-2.19-1.46-3.77s.5-2.95,1.49-3.94c.89-.88,1.94-1.33,3.16-1.33,1.42,0,2.53.4,3.33,1.2.78.77,1.17,1.78,1.17,3.05,0,.39-.05.75-.14,1.08Zm-4.28-3.84c-.79,0-1.44.25-1.98.76-.51.48-.79,1.08-.86,1.8h5.5c0-.71-.22-1.31-.67-1.78-.49-.52-1.15-.78-1.99-.78Z"/>
        <path class="cls-4" d="m590.97,308.3h-.46l-2.91-6.76-2.9,6.76h-.46l-3.55-10.15h1.88l2.12,6.52,2.64-6.52h.46l2.73,6.52,2.28-6.52h1.73l-3.56,10.15Z"/>
        <path class="cls-4" d="m596.78,308.11v-8.45h-1.36v-1.48h3.13v9.94h-1.76Zm.96-13.69c.3,0,.56.11.77.32s.32.47.32.77-.11.56-.32.77c-.21.21-.47.32-.77.32s-.55-.11-.77-.32-.32-.47-.32-.77.1-.56.32-.77c.21-.21.47-.32.77-.32Z"/>
        <path class="cls-4" d="m601.97,299.57h-1.15v-1.39h1.15v-2.08l1.76-.68v2.76h2.73v1.39h-2.73v4.94c0,.84.14,1.43.42,1.78.28.35.73.53,1.36.53.45,0,.92-.11,1.4-.34l.26,1.55c-.73.19-1.53.28-2.4.28-.79,0-1.45-.29-1.99-.88-.54-.58-.81-1.32-.81-2.21v-5.64Z"/>
        <path class="cls-4" d="m615,308.11v-6.24c0-.74-.18-1.33-.55-1.75-.37-.43-.88-.64-1.54-.64-.43,0-.85.12-1.29.38-.43.25-.76.54-.99.88v7.38h-1.76v-14.01h1.76v5.17c.23-.36.61-.67,1.14-.91.52-.24,1.06-.37,1.62-.37,1.05,0,1.88.35,2.47,1.04.6.69.9,1.64.9,2.84v6.24h-1.76Z"/>
        <path class="cls-4" d="m625.12,305.3v-11.2h1.76v10.9c0,.53.15.95.46,1.26.31.31.71.46,1.2.46v1.58c-2.28,0-3.42-1-3.42-3Z"/>
        <path class="cls-4" d="m629.93,303.12c0-1.53.41-2.77,1.24-3.72.83-.94,1.91-1.41,3.26-1.41,1.42,0,2.53.45,3.31,1.36.79.91,1.18,2.16,1.18,3.77s-.4,2.87-1.21,3.79c-.8.92-1.9,1.39-3.28,1.39s-2.52-.47-3.31-1.4c-.79-.93-1.19-2.19-1.19-3.78Zm1.86,0c0,2.49.88,3.74,2.64,3.74.82,0,1.47-.33,1.93-1,.47-.67.7-1.58.7-2.74,0-2.46-.88-3.69-2.63-3.69-.8,0-1.45.33-1.92.98-.48.66-.72,1.56-.72,2.71Z"/>
        <path class="cls-4" d="m649.96,308.3h-.46l-2.91-6.76-2.9,6.76h-.46l-3.55-10.15h1.88l2.12,6.52,2.64-6.52h.46l2.73,6.52,2.28-6.52h1.73l-3.56,10.15Z"/>
        <path class="cls-4" d="m659.99,307.52l.62-1.67c.98.64,1.77.96,2.38.96,1.09,0,1.63-.46,1.63-1.37,0-.66-.53-1.22-1.58-1.69-.81-.37-1.36-.65-1.64-.84-.28-.19-.53-.41-.73-.65-.21-.24-.36-.5-.46-.78-.1-.28-.15-.57-.15-.89,0-.82.3-1.45.89-1.91.59-.46,1.37-.69,2.33-.69.72,0,1.64.23,2.74.69l-.5,1.63c-.7-.56-1.4-.83-2.11-.83-.42,0-.77.1-1.06.3-.29.2-.43.45-.43.75,0,.64.36,1.12,1.09,1.45l1.26.58c.77.35,1.34.75,1.69,1.21s.53,1.02.53,1.7c0,.89-.31,1.59-.94,2.09-.62.5-1.49.76-2.6.76-1.05,0-2.03-.26-2.95-.78Z"/>
        <path class="cls-4" d="m670,298.17v6.34c0,1.53.66,2.3,1.99,2.3.58,0,1.11-.17,1.6-.5s.8-.72.96-1.16v-6.98h1.76v9.94h-1.76v-1.37c-.2.39-.6.75-1.19,1.07-.6.33-1.18.49-1.75.49-1.09,0-1.92-.31-2.5-.94-.58-.62-.87-1.51-.87-2.66v-6.52h1.76Z"/>
        <path class="cls-4" d="m678.35,310.83l.96-1.41c1.03.69,1.97,1.03,2.84,1.03.8,0,1.43-.14,1.89-.41.46-.28.69-.62.69-1.02,0-.8-.58-1.21-1.74-1.21-.2,0-.56.05-1.08.15-.52.1-.92.15-1.22.15-1.41,0-2.12-.53-2.12-1.6,0-.33.17-.62.5-.89.33-.27.74-.46,1.23-.57-1.4-.66-2.1-1.79-2.1-3.41,0-1.04.36-1.91,1.09-2.6.72-.69,1.62-1.04,2.68-1.04.98,0,1.74.2,2.29.6l.88-1.06,1.15,1.09-1.06.8c.45.59.68,1.36.68,2.3,0,1-.31,1.84-.94,2.52-.62.68-1.44,1.07-2.46,1.17l-1.46.15c-.17.02-.41.08-.7.2-.29.11-.44.26-.44.45,0,.25.3.38.91.38.27,0,.68-.05,1.24-.14.56-.1.98-.14,1.25-.14.98,0,1.74.23,2.29.7.55.47.82,1.11.82,1.94,0,.92-.41,1.65-1.23,2.22-.82.56-1.86.84-3.11.84-.64,0-1.32-.11-2.03-.34-.71-.23-1.28-.51-1.72-.83Zm3.74-11.42c-.61,0-1.11.22-1.5.65-.39.43-.58.96-.58,1.58,0,.69.19,1.27.56,1.72.37.46.88.68,1.52.68s1.11-.22,1.47-.66c.35-.44.53-1.02.53-1.74,0-.62-.19-1.14-.57-1.58-.38-.43-.86-.65-1.42-.65Z"/>
        <path class="cls-4" d="m693.86,306.97c-.71.88-1.78,1.33-3.24,1.33-.78,0-1.46-.28-2.03-.85-.57-.57-.86-1.27-.86-2.11,0-1.01.44-1.86,1.32-2.56.88-.7,2-1.04,3.37-1.04.37,0,.79.08,1.26.24,0-1.61-.72-2.41-2.15-2.41-1.1,0-1.95.3-2.54.89l-.74-1.47c.33-.27.8-.51,1.39-.7.59-.2,1.16-.29,1.69-.29,1.44,0,2.49.33,3.14.98.65.66.98,1.7.98,3.13v3.56c0,.87.26,1.45.78,1.74v.88c-.72,0-1.25-.1-1.61-.31-.36-.2-.61-.54-.77-1.01Zm-.17-3.74c-.56-.12-.95-.19-1.17-.19-.89,0-1.62.23-2.18.69-.56.46-.84,1-.84,1.62,0,1.03.61,1.55,1.83,1.55.89,0,1.68-.42,2.37-1.27v-2.4Z"/>
        <path class="cls-4" d="m703.63,299.87c-.38-.27-.77-.4-1.16-.4-.62,0-1.17.29-1.64.86-.47.58-.7,1.27-.7,2.08v5.7h-1.76v-9.94h1.76v1.59c.64-1.18,1.6-1.77,2.87-1.77.32,0,.77.05,1.36.17l-.73,1.72Z"/>
        <path class="cls-4" d="m717.64,308.1v-.73c-.61.61-1.5.92-2.67.92-1.24,0-2.25-.45-3.02-1.34-.77-.89-1.16-2.08-1.16-3.56s.45-2.76,1.34-3.82c.89-1.05,1.95-1.58,3.18-1.58,1.03,0,1.81.24,2.34.72v-4.61h1.76v14h-1.76Zm0-7.62c-.45-.67-1.05-1-1.83-1-.95,0-1.71.35-2.3,1.06-.58.71-.88,1.6-.88,2.69,0,2.39,1.09,3.59,3.27,3.59.28,0,.61-.09,1-.26.39-.18.63-.36.73-.56v-5.51Z"/>
        <path class="cls-4" d="m727.33,299.87c-.38-.27-.77-.4-1.16-.4-.62,0-1.17.29-1.64.86-.47.58-.7,1.27-.7,2.08v5.7h-1.76v-9.94h1.76v1.59c.64-1.18,1.6-1.77,2.87-1.77.32,0,.77.05,1.36.17l-.73,1.72Z"/>
        <path class="cls-4" d="m730.16,308.11v-8.45h-1.36v-1.48h3.13v9.94h-1.76Zm.96-13.69c.3,0,.56.11.77.32s.32.47.32.77-.11.56-.32.77c-.21.21-.47.32-.77.32s-.55-.11-.77-.32-.32-.47-.32-.77.1-.56.32-.77c.21-.21.47-.32.77-.32Z"/>
        <path class="cls-4" d="m740.84,308.11v-5.78c0-1.06-.16-1.8-.48-2.22-.32-.42-.85-.63-1.6-.63-.4,0-.82.12-1.26.36-.44.24-.78.54-1.01.89v7.38h-1.76v-9.94h1.21l.56,1.28c.58-.98,1.53-1.46,2.85-1.46,2.18,0,3.27,1.32,3.27,3.97v6.15h-1.76Z"/>
        <path class="cls-4" d="m751.53,308.11l-3.12-4.97-1.54,1.59v3.39h-1.76v-14.01h1.76v8.69l3.8-4.62h2.06l-3.18,3.78,3.89,6.16h-1.91Z"/>
        <path class="cls-4" d="m754.04,307.52l.62-1.67c.98.64,1.77.96,2.38.96,1.09,0,1.63-.46,1.63-1.37,0-.66-.53-1.22-1.58-1.69-.81-.37-1.36-.65-1.64-.84-.28-.19-.53-.41-.73-.65-.21-.24-.36-.5-.46-.78-.1-.28-.15-.57-.15-.89,0-.82.3-1.45.89-1.91.59-.46,1.37-.69,2.33-.69.72,0,1.64.23,2.74.69l-.5,1.63c-.7-.56-1.4-.83-2.11-.83-.42,0-.77.1-1.06.3-.29.2-.43.45-.43.75,0,.64.36,1.12,1.09,1.45l1.26.58c.77.35,1.34.75,1.69,1.21s.53,1.02.53,1.7c0,.89-.31,1.59-.94,2.09-.62.5-1.49.76-2.6.76-1.05,0-2.03-.26-2.95-.78Z"/>
        <path class="cls-4" d="m772.59,294.43v.77c-1.22,1.77-1.84,4.35-1.84,7.75,0,4.03.61,6.75,1.84,8.16v.97c-1.25-.87-2.22-2.12-2.91-3.75-.69-1.63-1.03-3.43-1.03-5.4,0-1.68.39-3.38,1.18-5.1.79-1.72,1.71-2.85,2.76-3.4Z"/>
        <path class="cls-4" d="m783.45,303.31h-7.16c0,1.16.32,2.06.96,2.68.56.54,1.29.82,2.17.82,1.01,0,1.85-.29,2.52-.88l.74,1.27c-.27.27-.69.51-1.25.71-.71.26-1.49.39-2.36.39-1.25,0-2.31-.42-3.18-1.27-.97-.93-1.46-2.19-1.46-3.77s.5-2.95,1.49-3.94c.89-.88,1.94-1.33,3.16-1.33,1.42,0,2.53.4,3.33,1.2.78.77,1.17,1.78,1.17,3.05,0,.39-.05.75-.14,1.08Zm-4.28-3.84c-.79,0-1.44.25-1.98.76-.51.48-.79,1.08-.86,1.8h5.5c0-.71-.22-1.31-.67-1.78-.49-.52-1.15-.78-1.99-.78Z"/>
        <path class="cls-4" d="m787.48,305.5c.38,0,.71.14.98.41.27.27.41.6.41.98s-.14.71-.41.99c-.27.28-.6.41-.98.41s-.71-.14-.98-.41c-.27-.27-.41-.6-.41-.99s.14-.71.41-.98c.27-.27.6-.41.98-.41Z"/>
        <path class="cls-4" d="m792.06,310.83l.96-1.41c1.03.69,1.97,1.03,2.84,1.03.8,0,1.43-.14,1.89-.41.46-.28.69-.62.69-1.02,0-.8-.58-1.21-1.74-1.21-.2,0-.56.05-1.08.15-.52.1-.92.15-1.22.15-1.41,0-2.12-.53-2.12-1.6,0-.33.17-.62.5-.89.33-.27.74-.46,1.23-.57-1.4-.66-2.1-1.79-2.1-3.41,0-1.04.36-1.91,1.09-2.6.72-.69,1.62-1.04,2.68-1.04.98,0,1.74.2,2.29.6l.88-1.06,1.15,1.09-1.06.8c.45.59.68,1.36.68,2.3,0,1-.31,1.84-.94,2.52-.62.68-1.44,1.07-2.46,1.17l-1.46.15c-.17.02-.41.08-.7.2-.29.11-.44.26-.44.45,0,.25.3.38.91.38.27,0,.68-.05,1.24-.14.56-.1.98-.14,1.25-.14.98,0,1.74.23,2.29.7.55.47.82,1.11.82,1.94,0,.92-.41,1.65-1.23,2.22-.82.56-1.86.84-3.11.84-.64,0-1.32-.11-2.03-.34-.71-.23-1.28-.51-1.72-.83Zm3.74-11.42c-.61,0-1.11.22-1.5.65-.39.43-.58.96-.58,1.58,0,.69.19,1.27.56,1.72.37.46.88.68,1.52.68s1.11-.22,1.47-.66c.35-.44.53-1.02.53-1.74,0-.62-.19-1.14-.57-1.58-.38-.43-.86-.65-1.42-.65Z"/>
        <path class="cls-4" d="m803.99,305.5c.38,0,.71.14.98.41.27.27.41.6.41.98s-.14.71-.41.99c-.27.28-.6.41-.98.41s-.71-.14-.98-.41c-.27-.27-.41-.6-.41-.99s.14-.71.41-.98c.27-.27.6-.41.98-.41Z"/>
        <path class="cls-4" d="m507.55,330.91l-3.83-6.25-1.81,2.57v3.68h-1.86v-13.59h1.86v7.39l5.05-7.39h2.07l-4.06,5.89,4.64,7.7h-2.05Z"/>
        <path class="cls-4" d="m509.61,325.92c0-1.53.41-2.77,1.24-3.72.83-.94,1.91-1.41,3.26-1.41,1.42,0,2.53.45,3.31,1.36.79.91,1.18,2.16,1.18,3.77s-.4,2.87-1.21,3.79c-.8.92-1.9,1.39-3.28,1.39s-2.52-.47-3.31-1.4c-.79-.93-1.19-2.19-1.19-3.78Zm1.86,0c0,2.49.88,3.74,2.64,3.74.82,0,1.47-.33,1.93-1,.47-.67.7-1.58.7-2.74,0-2.46-.88-3.69-2.63-3.69-.8,0-1.45.33-1.92.98-.48.66-.72,1.56-.72,2.71Z"/>
        <path class="cls-4" d="m522.21,330.36v4.44h-1.76v-13.83h1.76v.82c.67-.67,1.48-1,2.42-1,1.41,0,2.51.44,3.29,1.32.79.88,1.18,2.17,1.18,3.86,0,1.51-.4,2.74-1.19,3.7-.79.96-1.94,1.43-3.43,1.43-.42,0-.87-.07-1.35-.22-.48-.15-.79-.32-.92-.51Zm0-7.25v5.79c.11.17.35.33.71.48.36.15.71.23,1.05.23,2.19,0,3.28-1.24,3.28-3.71,0-1.26-.26-2.17-.78-2.76-.52-.58-1.35-.87-2.5-.87-.25,0-.55.09-.91.26-.36.17-.64.37-.85.58Z"/>
        <path class="cls-4" d="m531.89,330.91v-8.45h-1.36v-1.48h3.13v9.94h-1.76Zm.96-13.69c.3,0,.56.11.77.32s.32.47.32.77-.11.56-.32.77c-.21.21-.47.32-.77.32s-.55-.11-.77-.32-.32-.47-.32-.77.1-.56.32-.77c.21-.21.47-.32.77-.32Z"/>
        <path class="cls-4" d="m541.7,330.29l.68-1.71c.35.25.78.46,1.29.63.52.17.98.26,1.39.26.72,0,1.3-.2,1.74-.59.44-.4.66-.9.66-1.51,0-.46-.12-.88-.37-1.28-.24-.39-.86-.82-1.84-1.29l-1.09-.51c-.93-.43-1.58-.95-1.94-1.54-.37-.59-.55-1.31-.55-2.14,0-1.01.36-1.86,1.08-2.52.72-.67,1.64-1,2.76-1,1.5,0,2.55.24,3.14.73l-.55,1.61c-.25-.18-.62-.35-1.13-.52-.51-.17-.98-.25-1.41-.25-.63,0-1.13.18-1.49.54-.36.36-.54.82-.54,1.38,0,.35.06.66.19.95.13.28.31.52.54.71.23.19.71.46,1.42.81l1.11.53c.93.44,1.58.96,1.95,1.57.37.61.56,1.38.56,2.32,0,1.02-.41,1.89-1.23,2.6-.82.71-1.92,1.07-3.29,1.07-1.21,0-2.24-.29-3.09-.85Z"/>
        <path class="cls-4" d="m552.17,330.91v-8.45h-1.36v-1.48h3.13v9.94h-1.76Zm.96-13.69c.3,0,.56.11.77.32s.32.47.32.77-.11.56-.32.77c-.21.21-.47.32-.77.32s-.55-.11-.77-.32-.32-.47-.32-.77.1-.56.32-.77c.21-.21.47-.32.77-.32Z"/>
        <path class="cls-4" d="m565.1,326.11h-7.16c0,1.16.32,2.06.96,2.68.56.54,1.29.82,2.17.82,1.01,0,1.85-.29,2.52-.88l.74,1.27c-.27.27-.69.51-1.25.71-.71.26-1.49.39-2.36.39-1.25,0-2.31-.42-3.18-1.27-.97-.93-1.46-2.19-1.46-3.77s.5-2.95,1.49-3.94c.89-.88,1.94-1.33,3.16-1.33,1.42,0,2.53.4,3.33,1.2.78.77,1.17,1.78,1.17,3.05,0,.39-.05.75-.14,1.08Zm-4.28-3.84c-.79,0-1.44.25-1.98.76-.51.48-.79,1.08-.86,1.8h5.5c0-.71-.22-1.31-.67-1.78-.49-.52-1.15-.78-1.99-.78Z"/>
        <path class="cls-4" d="m576.28,331.1h-.46l-2.91-6.76-2.9,6.76h-.46l-3.55-10.15h1.88l2.12,6.52,2.64-6.52h.46l2.73,6.52,2.28-6.52h1.73l-3.56,10.15Z"/>
        <path class="cls-4" d="m589.84,330.91h-2.74v-13.59c1.74-.06,2.86-.09,3.35-.09,1.9,0,3.4.58,4.51,1.73,1.11,1.15,1.66,2.69,1.66,4.61,0,4.9-2.26,7.35-6.78,7.35Zm-.88-11.92v10.16c.41.06.93.09,1.54.09,1.3,0,2.32-.49,3.06-1.46.74-.97,1.11-2.33,1.11-4.06,0-3.22-1.44-4.82-4.33-4.82-.17,0-.63.03-1.38.09Z"/>
        <path class="cls-4" d="m604.22,329.77c-.71.88-1.78,1.33-3.24,1.33-.78,0-1.46-.28-2.03-.85-.57-.57-.86-1.27-.86-2.11,0-1.01.44-1.86,1.32-2.56.88-.7,2-1.04,3.37-1.04.37,0,.79.08,1.26.24,0-1.61-.72-2.41-2.15-2.41-1.1,0-1.95.3-2.54.89l-.74-1.47c.33-.27.8-.51,1.39-.7.59-.2,1.16-.29,1.69-.29,1.44,0,2.49.33,3.14.98.65.66.98,1.7.98,3.13v3.56c0,.87.26,1.45.78,1.74v.88c-.72,0-1.25-.1-1.61-.31-.36-.2-.61-.54-.77-1.01Zm-.17-3.74c-.56-.12-.95-.19-1.17-.19-.89,0-1.62.23-2.18.69-.56.46-.84,1-.84,1.62,0,1.03.61,1.55,1.83,1.55.89,0,1.68-.42,2.37-1.27v-2.4Z"/>
        <path class="cls-4" d="m609.45,330.91v-8.45h-1.36v-1.48h3.13v9.94h-1.76Zm.96-13.69c.3,0,.56.11.77.32s.32.47.32.77-.11.56-.32.77c-.21.21-.47.32-.77.32s-.55-.11-.77-.32-.32-.47-.32-.77.1-.56.32-.77c.21-.21.47-.32.77-.32Z"/>
        <path class="cls-4" d="m619.96,326.22v-1.62h3.97v1.62h-3.97Z"/>
        <path class="cls-4" d="m634.21,321.78l-.87,1.24c-.18-.18-.5-.35-.95-.51-.46-.16-.9-.24-1.34-.24-.96,0-1.72.33-2.28,1.01-.56.67-.84,1.59-.84,2.76s.29,2.05.86,2.66c.58.61,1.37.91,2.39.91.79,0,1.59-.31,2.39-.92l.7,1.48c-.95.61-2.12.92-3.52.92s-2.47-.46-3.36-1.36c-.88-.91-1.33-2.14-1.33-3.69s.46-2.85,1.38-3.81c.92-.96,2.18-1.44,3.77-1.44.51,0,1.07.11,1.67.32.6.22,1.04.44,1.33.67Z"/>
        <path class="cls-4" d="m635.47,325.92c0-1.53.41-2.77,1.24-3.72.83-.94,1.91-1.41,3.26-1.41,1.42,0,2.53.45,3.31,1.36.79.91,1.18,2.16,1.18,3.77s-.4,2.87-1.21,3.79c-.8.92-1.9,1.39-3.28,1.39s-2.52-.47-3.31-1.4c-.79-.93-1.19-2.19-1.19-3.78Zm1.86,0c0,2.49.88,3.74,2.64,3.74.82,0,1.47-.33,1.93-1,.47-.67.7-1.58.7-2.74,0-2.46-.88-3.69-2.63-3.69-.8,0-1.45.33-1.92.98-.48.66-.72,1.56-.72,2.71Z"/>
        <path class="cls-4" d="m651.69,318.48c-.36-.12-.69-.19-1-.19-.54,0-.98.2-1.33.61-.35.41-.52.92-.52,1.55,0,.17.02.34.05.52h2.02v1.48h-2.02v8.45h-1.76v-8.45h-1.45v-1.48h1.45c0-1.27.31-2.26.94-2.99.62-.72,1.45-1.08,2.48-1.08.51,0,1.06.09,1.65.28l-.49,1.3Z"/>
        <path class="cls-4" d="m658.71,318.48c-.36-.12-.69-.19-1-.19-.54,0-.98.2-1.33.61-.35.41-.52.92-.52,1.55,0,.17.02.34.05.52h2.02v1.48h-2.02v8.45h-1.76v-8.45h-1.45v-1.48h1.45c0-1.27.31-2.26.94-2.99.62-.72,1.45-1.08,2.48-1.08.51,0,1.06.09,1.65.28l-.49,1.3Z"/>
        <path class="cls-4" d="m668.73,326.11h-7.16c0,1.16.32,2.06.96,2.68.56.54,1.29.82,2.17.82,1.01,0,1.85-.29,2.52-.88l.74,1.27c-.27.27-.69.51-1.25.71-.71.26-1.49.39-2.36.39-1.25,0-2.31-.42-3.18-1.27-.97-.93-1.46-2.19-1.46-3.77s.5-2.95,1.49-3.94c.89-.88,1.94-1.33,3.16-1.33,1.42,0,2.53.4,3.33,1.2.78.77,1.17,1.78,1.17,3.05,0,.39-.05.75-.14,1.08Zm-4.28-3.84c-.79,0-1.44.25-1.98.76-.51.48-.79,1.08-.86,1.8h5.5c0-.71-.22-1.31-.67-1.78-.49-.52-1.15-.78-1.99-.78Z"/>
        <path class="cls-4" d="m679.09,326.11h-7.16c0,1.16.32,2.06.96,2.68.56.54,1.29.82,2.17.82,1.01,0,1.85-.29,2.52-.88l.74,1.27c-.27.27-.69.51-1.25.71-.71.26-1.49.39-2.36.39-1.25,0-2.31-.42-3.18-1.27-.97-.93-1.46-2.19-1.46-3.77s.5-2.95,1.49-3.94c.89-.88,1.94-1.33,3.16-1.33,1.42,0,2.53.4,3.33,1.2.78.77,1.17,1.78,1.17,3.05,0,.39-.05.75-.14,1.08Zm-4.28-3.84c-.79,0-1.44.25-1.98.76-.51.48-.79,1.08-.86,1.8h5.5c0-.71-.22-1.31-.67-1.78-.49-.52-1.15-.78-1.99-.78Z"/>
        <path class="cls-4" d="m696,331.1h-.46l-2.91-6.76-2.9,6.76h-.46l-3.55-10.15h1.88l2.12,6.52,2.64-6.52h.46l2.73,6.52,2.28-6.52h1.73l-3.56,10.15Z"/>
        <path class="cls-4" d="m701.8,330.91v-8.45h-1.36v-1.48h3.13v9.94h-1.76Zm.96-13.69c.3,0,.56.11.77.32s.32.47.32.77-.11.56-.32.77c-.21.21-.47.32-.77.32s-.55-.11-.77-.32-.32-.47-.32-.77.1-.56.32-.77c.21-.21.47-.32.77-.32Z"/>
        <path class="cls-4" d="m707,322.37h-1.15v-1.39h1.15v-2.08l1.76-.68v2.76h2.73v1.39h-2.73v4.94c0,.84.14,1.43.42,1.78.28.35.73.53,1.36.53.45,0,.92-.11,1.4-.34l.26,1.55c-.73.19-1.53.28-2.4.28-.79,0-1.45-.29-1.99-.88-.54-.58-.81-1.32-.81-2.21v-5.64Z"/>
        <path class="cls-4" d="m720.02,330.91v-6.24c0-.74-.18-1.33-.55-1.75-.37-.43-.88-.64-1.54-.64-.43,0-.85.12-1.29.38-.43.25-.76.54-.99.88v7.38h-1.76v-14.01h1.76v5.17c.23-.36.61-.67,1.14-.91.52-.24,1.06-.37,1.62-.37,1.05,0,1.88.35,2.47,1.04.6.69.9,1.64.9,2.84v6.24h-1.76Z"/>
        <path class="cls-4" d="m730.15,328.1v-11.2h1.76v10.9c0,.53.15.95.46,1.26.31.31.71.46,1.2.46v1.58c-2.28,0-3.42-1-3.42-3Z"/>
        <path class="cls-4" d="m743.98,326.11h-7.16c0,1.16.32,2.06.96,2.68.56.54,1.29.82,2.17.82,1.01,0,1.85-.29,2.52-.88l.74,1.27c-.27.27-.69.51-1.25.71-.71.26-1.49.39-2.36.39-1.25,0-2.31-.42-3.18-1.27-.97-.93-1.46-2.19-1.46-3.77s.5-2.95,1.49-3.94c.89-.88,1.94-1.33,3.16-1.33,1.42,0,2.53.4,3.33,1.2.78.77,1.17,1.78,1.17,3.05,0,.39-.05.75-.14,1.08Zm-4.28-3.84c-.79,0-1.44.25-1.98.76-.51.48-.79,1.08-.86,1.8h5.5c0-.71-.22-1.31-.67-1.78-.49-.52-1.15-.78-1.99-.78Z"/>
        <path class="cls-4" d="m745.32,330.32l.62-1.67c.98.64,1.77.96,2.38.96,1.09,0,1.63-.46,1.63-1.37,0-.66-.53-1.22-1.58-1.69-.81-.37-1.36-.65-1.64-.84-.28-.19-.53-.41-.73-.65-.21-.24-.36-.5-.46-.78-.1-.28-.15-.57-.15-.89,0-.82.3-1.45.89-1.91.59-.46,1.37-.69,2.33-.69.72,0,1.64.23,2.74.69l-.5,1.63c-.7-.56-1.4-.83-2.11-.83-.42,0-.77.1-1.06.3-.29.2-.43.45-.43.75,0,.64.36,1.12,1.09,1.45l1.26.58c.77.35,1.34.75,1.69,1.21s.53,1.02.53,1.7c0,.89-.31,1.59-.94,2.09-.62.5-1.49.76-2.6.76-1.05,0-2.03-.26-2.95-.78Z"/>
        <path class="cls-4" d="m753.02,330.32l.62-1.67c.98.64,1.77.96,2.38.96,1.09,0,1.63-.46,1.63-1.37,0-.66-.53-1.22-1.58-1.69-.81-.37-1.36-.65-1.64-.84-.28-.19-.53-.41-.73-.65-.21-.24-.36-.5-.46-.78-.1-.28-.15-.57-.15-.89,0-.82.3-1.45.89-1.91.59-.46,1.37-.69,2.33-.69.72,0,1.64.23,2.74.69l-.5,1.63c-.7-.56-1.4-.83-2.11-.83-.42,0-.77.1-1.06.3-.29.2-.43.45-.43.75,0,.64.36,1.12,1.09,1.45l1.26.58c.77.35,1.34.75,1.69,1.21s.53,1.02.53,1.7c0,.89-.31,1.59-.94,2.09-.62.5-1.49.76-2.6.76-1.05,0-2.03-.26-2.95-.78Z"/>
        <path class="cls-4" d="m766.43,330.32l.62-1.67c.98.64,1.77.96,2.38.96,1.09,0,1.63-.46,1.63-1.37,0-.66-.53-1.22-1.58-1.69-.81-.37-1.36-.65-1.64-.84-.28-.19-.53-.41-.73-.65-.21-.24-.36-.5-.46-.78-.1-.28-.15-.57-.15-.89,0-.82.3-1.45.89-1.91.59-.46,1.37-.69,2.33-.69.72,0,1.64.23,2.74.69l-.5,1.63c-.7-.56-1.4-.83-2.11-.83-.42,0-.77.1-1.06.3-.29.2-.43.45-.43.75,0,.64.36,1.12,1.09,1.45l1.26.58c.77.35,1.34.75,1.69,1.21s.53,1.02.53,1.7c0,.89-.31,1.59-.94,2.09-.62.5-1.49.76-2.6.76-1.05,0-2.03-.26-2.95-.78Z"/>
        <path class="cls-4" d="m776.44,320.97v6.34c0,1.53.66,2.3,1.99,2.3.58,0,1.11-.17,1.6-.5s.8-.72.96-1.16v-6.98h1.76v9.94h-1.76v-1.37c-.2.39-.6.75-1.19,1.07-.6.33-1.18.49-1.75.49-1.09,0-1.92-.31-2.5-.94-.58-.62-.87-1.51-.87-2.66v-6.52h1.76Z"/>
        <path class="cls-4" d="m784.79,333.63l.96-1.41c1.03.69,1.97,1.03,2.84,1.03.8,0,1.43-.14,1.89-.41.46-.28.69-.62.69-1.02,0-.8-.58-1.21-1.74-1.21-.2,0-.56.05-1.08.15-.52.1-.92.15-1.22.15-1.41,0-2.12-.53-2.12-1.6,0-.33.17-.62.5-.89.33-.27.74-.46,1.23-.57-1.4-.66-2.1-1.79-2.1-3.41,0-1.04.36-1.91,1.09-2.6.72-.69,1.62-1.04,2.68-1.04.98,0,1.74.2,2.29.6l.88-1.06,1.15,1.09-1.06.8c.45.59.68,1.36.68,2.3,0,1-.31,1.84-.94,2.52-.62.68-1.44,1.07-2.46,1.17l-1.46.15c-.17.02-.41.08-.7.2-.29.11-.44.26-.44.45,0,.25.3.38.91.38.27,0,.68-.05,1.24-.14.56-.1.98-.14,1.25-.14.98,0,1.74.23,2.29.7.55.47.82,1.11.82,1.94,0,.92-.41,1.65-1.23,2.22-.82.56-1.86.84-3.11.84-.64,0-1.32-.11-2.03-.34-.71-.23-1.28-.51-1.72-.83Zm3.74-11.42c-.61,0-1.11.22-1.5.65-.39.43-.58.96-.58,1.58,0,.69.19,1.27.56,1.72.37.46.88.68,1.52.68s1.11-.22,1.47-.66c.35-.44.53-1.02.53-1.74,0-.62-.19-1.14-.57-1.58-.38-.43-.86-.65-1.42-.65Z"/>
        <path class="cls-4" d="m800.3,329.77c-.71.88-1.78,1.33-3.24,1.33-.78,0-1.46-.28-2.03-.85-.57-.57-.86-1.27-.86-2.11,0-1.01.44-1.86,1.32-2.56.88-.7,2-1.04,3.37-1.04.37,0,.79.08,1.26.24,0-1.61-.72-2.41-2.15-2.41-1.1,0-1.95.3-2.54.89l-.74-1.47c.33-.27.8-.51,1.39-.7.59-.2,1.16-.29,1.69-.29,1.44,0,2.49.33,3.14.98.65.66.98,1.7.98,3.13v3.56c0,.87.26,1.45.78,1.74v.88c-.72,0-1.25-.1-1.61-.31-.36-.2-.61-.54-.77-1.01Zm-.17-3.74c-.56-.12-.95-.19-1.17-.19-.89,0-1.62.23-2.18.69-.56.46-.84,1-.84,1.62,0,1.03.61,1.55,1.83,1.55.89,0,1.68-.42,2.37-1.27v-2.4Z"/>
        <path class="cls-4" d="m810.07,322.67c-.38-.27-.77-.4-1.16-.4-.62,0-1.17.29-1.64.86-.47.58-.7,1.27-.7,2.08v5.7h-1.76v-9.94h1.76v1.59c.64-1.18,1.6-1.77,2.87-1.77.32,0,.77.05,1.36.17l-.73,1.72Z"/>
        <path class="cls-4" d="m812.59,334.88v-.97c1.22-1.41,1.84-4.13,1.84-8.16,0-3.39-.61-5.98-1.84-7.75v-.77c1.06.55,1.98,1.68,2.76,3.4.79,1.72,1.18,3.42,1.18,5.1,0,1.97-.34,3.77-1.03,5.4-.69,1.63-1.66,2.88-2.91,3.75Z"/>
        <path class="cls-4" d="m499.26,348.72c0-1.53.41-2.77,1.24-3.72.83-.94,1.91-1.41,3.26-1.41,1.42,0,2.53.45,3.31,1.36.79.91,1.18,2.16,1.18,3.77s-.4,2.87-1.21,3.79c-.8.92-1.9,1.39-3.28,1.39s-2.52-.47-3.31-1.4c-.79-.93-1.19-2.19-1.19-3.78Zm1.86,0c0,2.49.88,3.74,2.64,3.74.82,0,1.47-.33,1.93-1,.47-.67.7-1.58.7-2.74,0-2.46-.88-3.69-2.63-3.69-.8,0-1.45.33-1.92.98-.48.66-.72,1.56-.72,2.71Z"/>
        <path class="cls-4" d="m515.51,345.47c-.38-.27-.77-.4-1.16-.4-.62,0-1.17.29-1.64.86-.47.58-.7,1.27-.7,2.08v5.7h-1.76v-9.94h1.76v1.59c.64-1.18,1.6-1.77,2.87-1.77.32,0,.77.05,1.36.17l-.73,1.72Z"/>
        <path class="cls-4" d="m531.58,348.91h-7.16c0,1.16.32,2.06.96,2.68.56.54,1.29.82,2.17.82,1.01,0,1.85-.29,2.52-.88l.74,1.27c-.27.27-.69.51-1.25.71-.71.26-1.49.39-2.36.39-1.25,0-2.31-.42-3.18-1.27-.97-.93-1.46-2.19-1.46-3.77s.5-2.95,1.49-3.94c.89-.88,1.94-1.33,3.16-1.33,1.42,0,2.53.4,3.33,1.2.78.77,1.17,1.78,1.17,3.05,0,.39-.05.75-.14,1.08Zm-4.28-3.84c-.79,0-1.44.25-1.98.76-.51.48-.79,1.08-.86,1.8h5.5c0-.71-.22-1.31-.67-1.78-.49-.52-1.15-.78-1.99-.78Z"/>
        <path class="cls-4" d="m533.72,350.9v-11.2h1.76v10.9c0,.53.15.95.46,1.26.31.31.71.46,1.2.46v1.58c-2.28,0-3.42-1-3.42-3Z"/>
        <path class="cls-4" d="m538.53,353.12l.62-1.67c.98.64,1.77.96,2.38.96,1.09,0,1.63-.46,1.63-1.37,0-.66-.53-1.22-1.58-1.69-.81-.37-1.36-.65-1.64-.84-.28-.19-.53-.41-.73-.65-.21-.24-.36-.5-.46-.78-.1-.28-.15-.57-.15-.89,0-.82.3-1.45.89-1.91.59-.46,1.37-.69,2.33-.69.72,0,1.64.23,2.74.69l-.5,1.63c-.7-.56-1.4-.83-2.11-.83-.42,0-.77.1-1.06.3-.29.2-.43.45-.43.75,0,.64.36,1.12,1.09,1.45l1.26.58c.77.35,1.34.75,1.69,1.21s.53,1.02.53,1.7c0,.89-.31,1.59-.94,2.09-.62.5-1.49.76-2.6.76-1.05,0-2.03-.26-2.95-.78Z"/>
        <path class="cls-4" d="m555.24,348.91h-7.16c0,1.16.32,2.06.96,2.68.56.54,1.29.82,2.17.82,1.01,0,1.85-.29,2.52-.88l.74,1.27c-.27.27-.69.51-1.25.71-.71.26-1.49.39-2.36.39-1.25,0-2.31-.42-3.18-1.27-.97-.93-1.46-2.19-1.46-3.77s.5-2.95,1.49-3.94c.89-.88,1.94-1.33,3.16-1.33,1.42,0,2.53.4,3.33,1.2.78.77,1.17,1.78,1.17,3.05,0,.39-.05.75-.14,1.08Zm-4.28-3.84c-.79,0-1.44.25-1.98.76-.51.48-.79,1.08-.86,1.8h5.5c0-.71-.22-1.31-.67-1.78-.49-.52-1.15-.78-1.99-.78Z"/>
        <path class="cls-4" d="m558.06,357.08l-.47-.67c1.06-.87,1.6-1.61,1.6-2.23,0-.27-.09-.54-.28-.82-.53-.25-.8-.62-.8-1.09,0-.33.13-.6.38-.81.25-.21.57-.32.96-.32.34,0,.65.15.91.45.27.3.4.64.4,1.04,0,.82-.17,1.56-.52,2.22-.34.66-1.07,1.4-2.18,2.23Z"/>
        <path class="cls-4" d="m573.73,355.4c-.23.63-.71,1.16-1.44,1.58-.73.42-1.55.63-2.45.63v-1.58c.74,0,1.37-.17,1.89-.51.53-.34.79-.76.79-1.26,0-.54-.1-1.08-.29-1.61-.19-.53-.44-1.18-.74-1.96l-2.69-6.91h1.8l2.92,7.68,2.63-7.68h1.8l-4.21,11.62Z"/>
        <path class="cls-4" d="m578.66,348.72c0-1.53.41-2.77,1.24-3.72.83-.94,1.91-1.41,3.26-1.41,1.42,0,2.53.45,3.31,1.36.79.91,1.18,2.16,1.18,3.77s-.4,2.87-1.21,3.79c-.8.92-1.9,1.39-3.28,1.39s-2.52-.47-3.31-1.4c-.79-.93-1.19-2.19-1.19-3.78Zm1.86,0c0,2.49.88,3.74,2.64,3.74.82,0,1.47-.33,1.93-1,.47-.67.7-1.58.7-2.74,0-2.46-.88-3.69-2.63-3.69-.8,0-1.45.33-1.92.98-.48.66-.72,1.56-.72,2.71Z"/>
        <path class="cls-4" d="m591.17,343.77v6.34c0,1.53.66,2.3,1.99,2.3.58,0,1.11-.17,1.6-.5s.8-.72.96-1.16v-6.98h1.76v9.94h-1.76v-1.37c-.2.39-.6.75-1.19,1.07-.6.33-1.18.49-1.75.49-1.09,0-1.92-.31-2.5-.94-.58-.62-.87-1.51-.87-2.66v-6.52h1.76Z"/>
        <path class="cls-4" d="m605.28,345.47c-.38-.27-.77-.4-1.16-.4-.62,0-1.17.29-1.64.86-.47.58-.7,1.27-.7,2.08v5.7h-1.76v-9.94h1.76v1.59c.64-1.18,1.6-1.77,2.87-1.77.32,0,.77.05,1.36.17l-.73,1.72Z"/>
        <path class="cls-4" d="m614.5,352.99l-.62.9h-.88v-14.19h1.76v4.81c.17-.23.48-.44.94-.63.46-.19.91-.29,1.36-.29,1.36,0,2.46.47,3.31,1.41.84.94,1.27,2.13,1.27,3.56,0,1.66-.42,2.96-1.27,3.91-.85.95-1.99,1.42-3.44,1.42-.47,0-.93-.09-1.39-.26-.46-.18-.8-.39-1.03-.64Zm.26-7.14v5.73c0,.1.22.26.66.49.44.23.77.34,1,.34,1.2,0,2.06-.29,2.58-.86.52-.57.78-1.54.78-2.89,0-1.12-.3-2-.91-2.63-.61-.63-1.42-.95-2.45-.95-.22,0-.52.09-.9.28-.39.19-.64.35-.76.5Z"/>
        <path class="cls-4" d="m628.98,345.47c-.38-.27-.77-.4-1.16-.4-.62,0-1.17.29-1.64.86-.47.58-.7,1.27-.7,2.08v5.7h-1.76v-9.94h1.76v1.59c.64-1.18,1.6-1.77,2.87-1.77.32,0,.77.05,1.36.17l-.73,1.72Z"/>
        <path class="cls-4" d="m639.33,348.91h-7.16c0,1.16.32,2.06.96,2.68.56.54,1.29.82,2.17.82,1.01,0,1.85-.29,2.52-.88l.74,1.27c-.27.27-.69.51-1.25.71-.71.26-1.49.39-2.36.39-1.25,0-2.31-.42-3.18-1.27-.97-.93-1.46-2.19-1.46-3.77s.5-2.95,1.49-3.94c.89-.88,1.94-1.33,3.16-1.33,1.42,0,2.53.4,3.33,1.2.78.77,1.17,1.78,1.17,3.05,0,.39-.05.75-.14,1.08Zm-4.28-3.84c-.79,0-1.44.25-1.98.76-.51.48-.79,1.08-.86,1.8h5.5c0-.71-.22-1.31-.67-1.78-.49-.52-1.15-.78-1.99-.78Z"/>
        <path class="cls-4" d="m646.94,352.57c-.71.88-1.78,1.33-3.24,1.33-.78,0-1.46-.28-2.03-.85-.57-.57-.86-1.27-.86-2.11,0-1.01.44-1.86,1.32-2.56.88-.7,2-1.04,3.37-1.04.37,0,.79.08,1.26.24,0-1.61-.72-2.41-2.15-2.41-1.1,0-1.95.3-2.54.89l-.74-1.47c.33-.27.8-.51,1.39-.7.59-.2,1.16-.29,1.69-.29,1.44,0,2.49.33,3.14.98.65.66.98,1.7.98,3.13v3.56c0,.87.26,1.45.78,1.74v.88c-.72,0-1.25-.1-1.61-.31-.36-.2-.61-.54-.77-1.01Zm-.17-3.74c-.56-.12-.95-.19-1.17-.19-.89,0-1.62.23-2.18.69-.56.46-.84,1-.84,1.62,0,1.03.61,1.55,1.83,1.55.89,0,1.68-.42,2.37-1.27v-2.4Z"/>
        <path class="cls-4" d="m657.73,353.71l-3.12-4.97-1.54,1.59v3.39h-1.76v-14.01h1.76v8.69l3.8-4.62h2.06l-3.18,3.78,3.89,6.16h-1.91Z"/>
        <path class="cls-4" d="m666.26,341.28c-.36-.12-.69-.19-1-.19-.54,0-.98.2-1.33.61-.35.41-.52.92-.52,1.55,0,.17.02.34.05.52h2.02v1.48h-2.02v8.45h-1.76v-8.45h-1.45v-1.48h1.45c0-1.27.31-2.26.94-2.99.62-.72,1.45-1.08,2.48-1.08.51,0,1.06.09,1.65.28l-.49,1.3Z"/>
        <path class="cls-4" d="m673.53,352.57c-.71.88-1.78,1.33-3.24,1.33-.78,0-1.46-.28-2.03-.85-.57-.57-.86-1.27-.86-2.11,0-1.01.44-1.86,1.32-2.56.88-.7,2-1.04,3.37-1.04.37,0,.79.08,1.26.24,0-1.61-.72-2.41-2.15-2.41-1.1,0-1.95.3-2.54.89l-.74-1.47c.33-.27.8-.51,1.39-.7.59-.2,1.16-.29,1.69-.29,1.44,0,2.49.33,3.14.98.65.66.98,1.7.98,3.13v3.56c0,.87.26,1.45.78,1.74v.88c-.72,0-1.25-.1-1.61-.31-.36-.2-.61-.54-.77-1.01Zm-.17-3.74c-.56-.12-.95-.19-1.17-.19-.89,0-1.62.23-2.18.69-.56.46-.84,1-.84,1.62,0,1.03.61,1.55,1.83,1.55.89,0,1.68-.42,2.37-1.27v-2.4Z"/>
        <path class="cls-4" d="m677.25,353.12l.62-1.67c.98.64,1.77.96,2.38.96,1.09,0,1.63-.46,1.63-1.37,0-.66-.53-1.22-1.58-1.69-.81-.37-1.36-.65-1.64-.84-.28-.19-.53-.41-.73-.65-.21-.24-.36-.5-.46-.78-.1-.28-.15-.57-.15-.89,0-.82.3-1.45.89-1.91.59-.46,1.37-.69,2.33-.69.72,0,1.64.23,2.74.69l-.5,1.63c-.7-.56-1.4-.83-2.11-.83-.42,0-.77.1-1.06.3-.29.2-.43.45-.43.75,0,.64.36,1.12,1.09,1.45l1.26.58c.77.35,1.34.75,1.69,1.21s.53,1.02.53,1.7c0,.89-.31,1.59-.94,2.09-.62.5-1.49.76-2.6.76-1.05,0-2.03-.26-2.95-.78Z"/>
        <path class="cls-4" d="m686.22,345.16h-1.15v-1.39h1.15v-2.08l1.76-.68v2.76h2.73v1.39h-2.73v4.94c0,.84.14,1.43.42,1.78.28.35.73.53,1.36.53.45,0,.92-.11,1.4-.34l.26,1.55c-.73.19-1.53.28-2.4.28-.79,0-1.45-.29-1.99-.88-.54-.58-.81-1.32-.81-2.21v-5.64Z"/>
        <path class="cls-4" d="m710.35,353.71v-6.29c0-1.56-.68-2.35-2.03-2.35-.43,0-.83.13-1.2.39-.37.26-.62.56-.76.9v7.35h-1.76v-7.06c0-.49-.18-.87-.55-1.15-.37-.28-.85-.42-1.46-.42-.35,0-.73.14-1.13.41-.4.27-.68.57-.85.9v7.33h-1.76v-9.94h1.15l.58,1.15c.68-.89,1.53-1.34,2.55-1.34,1.42,0,2.42.44,2.99,1.33.2-.38.57-.69,1.1-.95s1.09-.38,1.66-.38c1.03,0,1.82.3,2.38.91.56.61.84,1.46.84,2.57v6.64h-1.76Z"/>
        <path class="cls-4" d="m720.23,352.57c-.71.88-1.78,1.33-3.24,1.33-.78,0-1.46-.28-2.03-.85-.57-.57-.86-1.27-.86-2.11,0-1.01.44-1.86,1.32-2.56.88-.7,2-1.04,3.37-1.04.37,0,.79.08,1.26.24,0-1.61-.72-2.41-2.15-2.41-1.1,0-1.95.3-2.54.89l-.74-1.47c.33-.27.8-.51,1.39-.7.59-.2,1.16-.29,1.69-.29,1.44,0,2.49.33,3.14.98.65.66.98,1.7.98,3.13v3.56c0,.87.26,1.45.78,1.74v.88c-.72,0-1.25-.1-1.61-.31-.36-.2-.61-.54-.77-1.01Zm-.17-3.74c-.56-.12-.95-.19-1.17-.19-.89,0-1.62.23-2.18.69-.56.46-.84,1-.84,1.62,0,1.03.61,1.55,1.83,1.55.89,0,1.68-.42,2.37-1.27v-2.4Z"/>
        <path class="cls-4" d="m728.39,355.4c-.23.63-.71,1.16-1.44,1.58-.73.42-1.55.63-2.45.63v-1.58c.74,0,1.37-.17,1.89-.51.53-.34.79-.76.79-1.26,0-.54-.1-1.08-.29-1.61-.19-.53-.44-1.18-.74-1.96l-2.69-6.91h1.8l2.92,7.68,2.63-7.68h1.8l-4.21,11.62Z"/>
        <path class="cls-4" d="m745.31,352.57c-.71.88-1.78,1.33-3.24,1.33-.78,0-1.46-.28-2.03-.85-.57-.57-.86-1.27-.86-2.11,0-1.01.44-1.86,1.32-2.56.88-.7,2-1.04,3.37-1.04.37,0,.79.08,1.26.24,0-1.61-.72-2.41-2.15-2.41-1.1,0-1.95.3-2.54.89l-.74-1.47c.33-.27.8-.51,1.39-.7.59-.2,1.16-.29,1.69-.29,1.44,0,2.49.33,3.14.98.65.66.98,1.7.98,3.13v3.56c0,.87.26,1.45.78,1.74v.88c-.72,0-1.25-.1-1.61-.31-.36-.2-.61-.54-.77-1.01Zm-.17-3.74c-.56-.12-.95-.19-1.17-.19-.89,0-1.62.23-2.18.69-.56.46-.84,1-.84,1.62,0,1.03.61,1.55,1.83,1.55.89,0,1.68-.42,2.37-1.27v-2.4Z"/>
        <path class="cls-4" d="m755.97,353.7v-.73c-.61.61-1.5.92-2.67.92-1.24,0-2.25-.45-3.02-1.34-.77-.89-1.16-2.08-1.16-3.56s.45-2.76,1.34-3.82c.89-1.05,1.95-1.58,3.18-1.58,1.03,0,1.81.24,2.34.72v-4.61h1.76v14h-1.76Zm0-7.62c-.45-.67-1.05-1-1.83-1-.95,0-1.71.35-2.3,1.06-.58.71-.88,1.6-.88,2.69,0,2.39,1.09,3.59,3.27,3.59.28,0,.61-.09,1-.26.39-.18.63-.36.73-.56v-5.51Z"/>
        <path class="cls-4" d="m766.56,353.7v-.73c-.61.61-1.5.92-2.67.92-1.24,0-2.25-.45-3.02-1.34-.77-.89-1.16-2.08-1.16-3.56s.45-2.76,1.34-3.82c.89-1.05,1.95-1.58,3.18-1.58,1.03,0,1.81.24,2.34.72v-4.61h1.76v14h-1.76Zm0-7.62c-.45-.67-1.05-1-1.83-1-.95,0-1.71.35-2.3,1.06-.58.71-.88,1.6-.88,2.69,0,2.39,1.09,3.59,3.27,3.59.28,0,.61-.09,1-.26.39-.18.63-.36.73-.56v-5.51Z"/>
        <path class="cls-4" d="m778.24,343.77v6.34c0,1.53.66,2.3,1.99,2.3.58,0,1.11-.17,1.6-.5s.8-.72.96-1.16v-6.98h1.76v9.94h-1.76v-1.37c-.2.39-.6.75-1.19,1.07-.6.33-1.18.49-1.75.49-1.09,0-1.92-.31-2.5-.94-.58-.62-.87-1.51-.87-2.66v-6.52h1.76Z"/>
        <path class="cls-4" d="m788.71,353.16v4.44h-1.76v-13.83h1.76v.82c.67-.67,1.48-1,2.42-1,1.41,0,2.51.44,3.29,1.32.79.88,1.18,2.17,1.18,3.86,0,1.51-.4,2.74-1.19,3.7-.79.96-1.94,1.43-3.43,1.43-.42,0-.87-.07-1.35-.22-.48-.15-.79-.32-.92-.51Zm0-7.25v5.79c.11.17.35.33.71.48.36.15.71.23,1.05.23,2.19,0,3.28-1.24,3.28-3.71,0-1.26-.26-2.17-.78-2.76-.52-.58-1.35-.87-2.5-.87-.25,0-.55.09-.91.26-.36.17-.64.37-.85.58Z"/>
        <path class="cls-4" d="m803.89,345.16h-1.15v-1.39h1.15v-2.08l1.76-.68v2.76h2.73v1.39h-2.73v4.94c0,.84.14,1.43.42,1.78.28.35.73.53,1.36.53.45,0,.92-.11,1.4-.34l.26,1.55c-.73.19-1.53.28-2.4.28-.79,0-1.45-.29-1.99-.88-.54-.58-.81-1.32-.81-2.21v-5.64Z"/>
        <path class="cls-4" d="m810.14,348.72c0-1.53.41-2.77,1.24-3.72.83-.94,1.91-1.41,3.26-1.41,1.42,0,2.53.45,3.31,1.36.79.91,1.18,2.16,1.18,3.77s-.4,2.87-1.21,3.79c-.8.92-1.9,1.39-3.28,1.39s-2.52-.47-3.31-1.4c-.79-.93-1.19-2.19-1.19-3.78Zm1.86,0c0,2.49.88,3.74,2.64,3.74.82,0,1.47-.33,1.93-1,.47-.67.7-1.58.7-2.74,0-2.46-.88-3.69-2.63-3.69-.8,0-1.45.33-1.92.98-.48.66-.72,1.56-.72,2.71Z"/>
        <path class="cls-4" d="m500.81,369.88l-.63-.44v-6.58h6.76v1.58h-5v3.3c.46-.34,1.04-.51,1.74-.51,1.26,0,2.23.38,2.89,1.13.67.75,1,1.83,1,3.22,0,3.41-1.52,5.11-4.56,5.11-1.27,0-2.32-.35-3.15-1.06l.71-1.55c.84.69,1.65,1.03,2.43,1.03,1.74,0,2.62-1.09,2.62-3.27,0-2.03-.86-3.04-2.58-3.04-.83,0-1.57.36-2.24,1.07Z"/>
        <path class="cls-4" d="m516.23,367.97h-1.15v-1.39h1.15v-2.08l1.76-.68v2.76h2.73v1.39h-2.73v4.94c0,.84.14,1.43.42,1.78.28.35.73.53,1.36.53.45,0,.92-.11,1.4-.34l.26,1.55c-.73.19-1.53.28-2.4.28-.79,0-1.45-.29-1.99-.88-.54-.58-.81-1.32-.81-2.21v-5.64Z"/>
        <path class="cls-4" d="m531.5,371.71h-7.16c0,1.16.32,2.06.96,2.68.56.54,1.29.82,2.17.82,1.01,0,1.85-.29,2.52-.88l.74,1.27c-.27.27-.69.51-1.25.71-.71.26-1.49.39-2.36.39-1.25,0-2.31-.42-3.18-1.27-.97-.93-1.46-2.19-1.46-3.77s.5-2.95,1.49-3.94c.89-.88,1.94-1.33,3.16-1.33,1.42,0,2.53.4,3.33,1.2.78.77,1.17,1.78,1.17,3.05,0,.39-.05.75-.14,1.08Zm-4.28-3.84c-.79,0-1.44.25-1.98.76-.51.48-.79,1.08-.86,1.8h5.5c0-.71-.22-1.31-.67-1.78-.49-.52-1.15-.78-1.99-.78Z"/>
        <path class="cls-4" d="m539.11,375.37c-.71.88-1.78,1.33-3.24,1.33-.78,0-1.46-.28-2.03-.85-.57-.57-.86-1.27-.86-2.11,0-1.01.44-1.86,1.32-2.56.88-.7,2-1.04,3.37-1.04.37,0,.79.08,1.26.24,0-1.61-.72-2.41-2.15-2.41-1.1,0-1.95.3-2.54.89l-.74-1.47c.33-.27.8-.51,1.39-.7.59-.2,1.16-.29,1.69-.29,1.44,0,2.49.33,3.14.98.65.66.98,1.7.98,3.13v3.56c0,.87.26,1.45.78,1.74v.88c-.72,0-1.25-.1-1.61-.31-.36-.2-.61-.54-.77-1.01Zm-.17-3.74c-.56-.12-.95-.19-1.17-.19-.89,0-1.62.23-2.18.69-.56.46-.84,1-.84,1.62,0,1.03.61,1.55,1.83,1.55.89,0,1.68-.42,2.37-1.27v-2.4Z"/>
        <path class="cls-4" d="m542.83,375.92l.62-1.67c.98.64,1.77.96,2.38.96,1.09,0,1.63-.46,1.63-1.37,0-.66-.53-1.22-1.58-1.69-.81-.37-1.36-.65-1.64-.84-.28-.19-.53-.41-.73-.65-.21-.24-.36-.5-.46-.78-.1-.28-.15-.57-.15-.89,0-.82.3-1.45.89-1.91.59-.46,1.37-.69,2.33-.69.72,0,1.64.23,2.74.69l-.5,1.63c-.7-.56-1.4-.83-2.11-.83-.42,0-.77.1-1.06.3-.29.2-.43.45-.43.75,0,.64.36,1.12,1.09,1.45l1.26.58c.77.35,1.34.75,1.69,1.21s.53,1.02.53,1.7c0,.89-.31,1.59-.94,2.09-.62.5-1.49.76-2.6.76-1.05,0-2.03-.26-2.95-.78Z"/>
        <path class="cls-4" d="m552.93,375.96v4.44h-1.76v-13.83h1.76v.82c.67-.67,1.48-1,2.42-1,1.41,0,2.51.44,3.29,1.32.79.88,1.18,2.17,1.18,3.86,0,1.51-.4,2.74-1.19,3.7-.79.96-1.94,1.43-3.43,1.43-.42,0-.87-.07-1.35-.22-.48-.15-.79-.32-.92-.51Zm0-7.25v5.79c.11.17.35.33.71.48.36.15.71.23,1.05.23,2.19,0,3.28-1.24,3.28-3.71,0-1.26-.26-2.17-.78-2.76-.52-.58-1.35-.87-2.5-.87-.25,0-.55.09-.91.26-.36.17-.64.37-.85.58Z"/>
        <path class="cls-4" d="m561.1,371.52c0-1.53.41-2.77,1.24-3.72.83-.94,1.91-1.41,3.26-1.41,1.42,0,2.53.45,3.31,1.36.79.91,1.18,2.16,1.18,3.77s-.4,2.87-1.21,3.79c-.8.92-1.9,1.39-3.28,1.39s-2.52-.47-3.31-1.4c-.79-.93-1.19-2.19-1.19-3.78Zm1.86,0c0,2.49.88,3.74,2.64,3.74.82,0,1.47-.33,1.93-1,.47-.67.7-1.58.7-2.74,0-2.46-.88-3.69-2.63-3.69-.8,0-1.45.33-1.92.98-.48.66-.72,1.56-.72,2.71Z"/>
        <path class="cls-4" d="m571.3,371.52c0-1.53.41-2.77,1.24-3.72.83-.94,1.91-1.41,3.26-1.41,1.42,0,2.53.45,3.31,1.36.79.91,1.18,2.16,1.18,3.77s-.4,2.87-1.21,3.79c-.8.92-1.9,1.39-3.28,1.39s-2.52-.47-3.31-1.4c-.79-.93-1.19-2.19-1.19-3.78Zm1.86,0c0,2.49.88,3.74,2.64,3.74.82,0,1.47-.33,1.93-1,.47-.67.7-1.58.7-2.74,0-2.46-.88-3.69-2.63-3.69-.8,0-1.45.33-1.92.98-.48.66-.72,1.56-.72,2.71Z"/>
        <path class="cls-4" d="m588.26,376.51v-5.78c0-1.06-.16-1.8-.48-2.22-.32-.42-.85-.63-1.6-.63-.4,0-.82.12-1.26.36-.44.24-.78.54-1.01.89v7.38h-1.76v-9.94h1.21l.56,1.28c.58-.98,1.53-1.46,2.85-1.46,2.18,0,3.27,1.32,3.27,3.97v6.15h-1.76Z"/>
        <path class="cls-4" d="m591.88,375.92l.62-1.67c.98.64,1.77.96,2.38.96,1.09,0,1.63-.46,1.63-1.37,0-.66-.53-1.22-1.58-1.69-.81-.37-1.36-.65-1.64-.84-.28-.19-.53-.41-.73-.65-.21-.24-.36-.5-.46-.78-.1-.28-.15-.57-.15-.89,0-.82.3-1.45.89-1.91.59-.46,1.37-.69,2.33-.69.72,0,1.64.23,2.74.69l-.5,1.63c-.7-.56-1.4-.83-2.11-.83-.42,0-.77.1-1.06.3-.29.2-.43.45-.43.75,0,.64.36,1.12,1.09,1.45l1.26.58c.77.35,1.34.75,1.69,1.21s.53,1.02.53,1.7c0,.89-.31,1.59-.94,2.09-.62.5-1.49.76-2.6.76-1.05,0-2.03-.26-2.95-.78Z"/>
        <path class="cls-4" d="m605.29,371.52c0-1.53.41-2.77,1.24-3.72.83-.94,1.91-1.41,3.26-1.41,1.42,0,2.53.45,3.31,1.36.79.91,1.18,2.16,1.18,3.77s-.4,2.87-1.21,3.79c-.8.92-1.9,1.39-3.28,1.39s-2.52-.47-3.31-1.4c-.79-.93-1.19-2.19-1.19-3.78Zm1.86,0c0,2.49.88,3.74,2.64,3.74.82,0,1.47-.33,1.93-1,.47-.67.7-1.58.7-2.74,0-2.46-.88-3.69-2.63-3.69-.8,0-1.45.33-1.92.98-.48.66-.72,1.56-.72,2.71Z"/>
        <path class="cls-4" d="m621.51,364.08c-.36-.12-.69-.19-1-.19-.54,0-.98.2-1.33.61-.35.41-.52.92-.52,1.55,0,.17.02.34.05.52h2.02v1.48h-2.02v8.45h-1.76v-8.45h-1.45v-1.48h1.45c0-1.27.31-2.26.94-2.99.62-.72,1.45-1.08,2.48-1.08.51,0,1.06.09,1.65.28l-.49,1.3Z"/>
        <path class="cls-4" d="m628.23,375.92l.62-1.67c.98.64,1.77.96,2.38.96,1.09,0,1.63-.46,1.63-1.37,0-.66-.53-1.22-1.58-1.69-.81-.37-1.36-.65-1.64-.84-.28-.19-.53-.41-.73-.65-.21-.24-.36-.5-.46-.78-.1-.28-.15-.57-.15-.89,0-.82.3-1.45.89-1.91.59-.46,1.37-.69,2.33-.69.72,0,1.64.23,2.74.69l-.5,1.63c-.7-.56-1.4-.83-2.11-.83-.42,0-.77.1-1.06.3-.29.2-.43.45-.43.75,0,.64.36,1.12,1.09,1.45l1.26.58c.77.35,1.34.75,1.69,1.21s.53,1.02.53,1.7c0,.89-.31,1.59-.94,2.09-.62.5-1.49.76-2.6.76-1.05,0-2.03-.26-2.95-.78Z"/>
        <path class="cls-4" d="m638.25,366.57v6.34c0,1.53.66,2.3,1.99,2.3.58,0,1.11-.17,1.6-.5s.8-.72.96-1.16v-6.98h1.76v9.94h-1.76v-1.37c-.2.39-.6.75-1.19,1.07-.6.33-1.18.49-1.75.49-1.09,0-1.92-.31-2.5-.94-.58-.62-.87-1.51-.87-2.66v-6.52h1.76Z"/>
        <path class="cls-4" d="m646.59,379.23l.96-1.41c1.03.69,1.97,1.03,2.84,1.03.8,0,1.43-.14,1.89-.41.46-.28.69-.62.69-1.02,0-.8-.58-1.21-1.74-1.21-.2,0-.56.05-1.08.15-.52.1-.92.15-1.22.15-1.41,0-2.12-.53-2.12-1.6,0-.33.17-.62.5-.89.33-.27.74-.46,1.23-.57-1.4-.66-2.1-1.79-2.1-3.41,0-1.04.36-1.91,1.09-2.6.72-.69,1.62-1.04,2.68-1.04.98,0,1.74.2,2.29.6l.88-1.06,1.15,1.09-1.06.8c.45.59.68,1.36.68,2.3,0,1-.31,1.84-.94,2.52-.62.68-1.44,1.07-2.46,1.17l-1.46.15c-.17.02-.41.08-.7.2-.29.11-.44.26-.44.45,0,.25.3.38.91.38.27,0,.68-.05,1.24-.14.56-.1.98-.14,1.25-.14.98,0,1.74.23,2.29.7.55.47.82,1.11.82,1.94,0,.92-.41,1.65-1.23,2.22-.82.56-1.86.84-3.11.84-.64,0-1.32-.11-2.03-.34-.71-.23-1.28-.51-1.72-.83Zm3.74-11.42c-.61,0-1.11.22-1.5.65-.39.43-.58.96-.58,1.58,0,.69.19,1.27.56,1.72.37.46.88.68,1.52.68s1.11-.22,1.47-.66c.35-.44.53-1.02.53-1.74,0-.62-.19-1.14-.57-1.58-.38-.43-.86-.65-1.42-.65Z"/>
        <path class="cls-4" d="m662.11,375.37c-.71.88-1.78,1.33-3.24,1.33-.78,0-1.46-.28-2.03-.85-.57-.57-.86-1.27-.86-2.11,0-1.01.44-1.86,1.32-2.56.88-.7,2-1.04,3.37-1.04.37,0,.79.08,1.26.24,0-1.61-.72-2.41-2.15-2.41-1.1,0-1.95.3-2.54.89l-.74-1.47c.33-.27.8-.51,1.39-.7.59-.2,1.16-.29,1.69-.29,1.44,0,2.49.33,3.14.98.65.66.98,1.7.98,3.13v3.56c0,.87.26,1.45.78,1.74v.88c-.72,0-1.25-.1-1.61-.31-.36-.2-.61-.54-.77-1.01Zm-.17-3.74c-.56-.12-.95-.19-1.17-.19-.89,0-1.62.23-2.18.69-.56.46-.84,1-.84,1.62,0,1.03.61,1.55,1.83,1.55.89,0,1.68-.42,2.37-1.27v-2.4Z"/>
        <path class="cls-4" d="m671.88,368.27c-.38-.27-.77-.4-1.16-.4-.62,0-1.17.29-1.64.86-.47.58-.7,1.27-.7,2.08v5.7h-1.76v-9.94h1.76v1.59c.64-1.18,1.6-1.77,2.87-1.77.32,0,.77.05,1.36.17l-.73,1.72Z"/>
        <path class="cls-4" d="m685.2,375.37c-.71.88-1.78,1.33-3.24,1.33-.78,0-1.46-.28-2.03-.85-.57-.57-.86-1.27-.86-2.11,0-1.01.44-1.86,1.32-2.56.88-.7,2-1.04,3.37-1.04.37,0,.79.08,1.26.24,0-1.61-.72-2.41-2.15-2.41-1.1,0-1.95.3-2.54.89l-.74-1.47c.33-.27.8-.51,1.39-.7.59-.2,1.16-.29,1.69-.29,1.44,0,2.49.33,3.14.98.65.66.98,1.7.98,3.13v3.56c0,.87.26,1.45.78,1.74v.88c-.72,0-1.25-.1-1.61-.31-.36-.2-.61-.54-.77-1.01Zm-.17-3.74c-.56-.12-.95-.19-1.17-.19-.89,0-1.62.23-2.18.69-.56.46-.84,1-.84,1.62,0,1.03.61,1.55,1.83,1.55.89,0,1.68-.42,2.37-1.27v-2.4Z"/>
        <path class="cls-4" d="m697.06,367.38l-.87,1.24c-.18-.18-.5-.35-.95-.51-.46-.16-.9-.24-1.34-.24-.96,0-1.72.33-2.28,1.01-.56.67-.84,1.59-.84,2.76s.29,2.05.86,2.66c.58.61,1.37.91,2.39.91.79,0,1.59-.31,2.39-.92l.7,1.48c-.95.61-2.12.92-3.52.92s-2.47-.46-3.36-1.36c-.88-.91-1.33-2.14-1.33-3.69s.46-2.85,1.38-3.81c.92-.96,2.18-1.44,3.77-1.44.51,0,1.07.11,1.67.32.6.22,1.04.44,1.33.67Z"/>
        <path class="cls-4" d="m706.47,367.38l-.87,1.24c-.18-.18-.5-.35-.95-.51-.46-.16-.9-.24-1.34-.24-.96,0-1.72.33-2.28,1.01-.56.67-.84,1.59-.84,2.76s.29,2.05.86,2.66c.58.61,1.37.91,2.39.91.79,0,1.59-.31,2.39-.92l.7,1.48c-.95.61-2.12.92-3.52.92s-2.47-.46-3.36-1.36c-.88-.91-1.33-2.14-1.33-3.69s.46-2.85,1.38-3.81c.92-.96,2.18-1.44,3.77-1.44.51,0,1.07.11,1.67.32.6.22,1.04.44,1.33.67Z"/>
        <path class="cls-4" d="m709.24,376.51v-8.45h-1.36v-1.48h3.13v9.94h-1.76Zm.96-13.69c.3,0,.56.11.77.32s.32.47.32.77-.11.56-.32.77c-.21.21-.47.32-.77.32s-.55-.11-.77-.32-.32-.47-.32-.77.1-.56.32-.77c.21-.21.47-.32.77-.32Z"/>
        <path class="cls-4" d="m720.1,376.5v-.73c-.61.61-1.5.92-2.67.92-1.24,0-2.25-.45-3.02-1.34-.77-.89-1.16-2.08-1.16-3.56s.45-2.76,1.34-3.82c.89-1.05,1.95-1.58,3.18-1.58,1.03,0,1.81.24,2.34.72v-4.61h1.76v14h-1.76Zm0-7.62c-.45-.67-1.05-1-1.83-1-.95,0-1.71.35-2.3,1.06-.58.71-.88,1.6-.88,2.69,0,2.39,1.09,3.59,3.27,3.59.28,0,.61-.09,1-.26.39-.18.63-.36.73-.56v-5.51Z"/>
        <path class="cls-4" d="m732.75,371.71h-7.16c0,1.16.32,2.06.96,2.68.56.54,1.29.82,2.17.82,1.01,0,1.85-.29,2.52-.88l.74,1.27c-.27.27-.69.51-1.25.71-.71.26-1.49.39-2.36.39-1.25,0-2.31-.42-3.18-1.27-.97-.93-1.46-2.19-1.46-3.77s.5-2.95,1.49-3.94c.89-.88,1.94-1.33,3.16-1.33,1.42,0,2.53.4,3.33,1.2.78.77,1.17,1.78,1.17,3.05,0,.39-.05.75-.14,1.08Zm-4.28-3.84c-.79,0-1.44.25-1.98.76-.51.48-.79,1.08-.86,1.8h5.5c0-.71-.22-1.31-.67-1.78-.49-.52-1.15-.78-1.99-.78Z"/>
        <path class="cls-4" d="m740.86,376.51v-5.78c0-1.06-.16-1.8-.48-2.22-.32-.42-.85-.63-1.6-.63-.4,0-.82.12-1.26.36-.44.24-.78.54-1.01.89v7.38h-1.76v-9.94h1.21l.56,1.28c.58-.98,1.53-1.46,2.85-1.46,2.18,0,3.27,1.32,3.27,3.97v6.15h-1.76Z"/>
        <path class="cls-4" d="m745.76,367.97h-1.15v-1.39h1.15v-2.08l1.76-.68v2.76h2.73v1.39h-2.73v4.94c0,.84.14,1.43.42,1.78.28.35.73.53,1.36.53.45,0,.92-.11,1.4-.34l.26,1.55c-.73.19-1.53.28-2.4.28-.79,0-1.45-.29-1.99-.88-.54-.58-.81-1.32-.81-2.21v-5.64Z"/>
        <path class="cls-4" d="m758.28,375.37c-.71.88-1.78,1.33-3.24,1.33-.78,0-1.46-.28-2.03-.85-.57-.57-.86-1.27-.86-2.11,0-1.01.44-1.86,1.32-2.56.88-.7,2-1.04,3.37-1.04.37,0,.79.08,1.26.24,0-1.61-.72-2.41-2.15-2.41-1.1,0-1.95.3-2.54.89l-.74-1.47c.33-.27.8-.51,1.39-.7.59-.2,1.16-.29,1.69-.29,1.44,0,2.49.33,3.14.98.65.66.98,1.7.98,3.13v3.56c0,.87.26,1.45.78,1.74v.88c-.72,0-1.25-.1-1.61-.31-.36-.2-.61-.54-.77-1.01Zm-.17-3.74c-.56-.12-.95-.19-1.17-.19-.89,0-1.62.23-2.18.69-.56.46-.84,1-.84,1.62,0,1.03.61,1.55,1.83,1.55.89,0,1.68-.42,2.37-1.27v-2.4Z"/>
        <path class="cls-4" d="m762.78,373.7v-11.2h1.76v10.9c0,.53.15.95.46,1.26.31.31.71.46,1.2.46v1.58c-2.28,0-3.42-1-3.42-3Z"/>
        <path class="cls-4" d="m768.39,373.7v-11.2h1.76v10.9c0,.53.15.95.46,1.26.31.31.71.46,1.2.46v1.58c-2.28,0-3.42-1-3.42-3Z"/>
        <path class="cls-4" d="m777.65,378.2c-.23.63-.71,1.16-1.44,1.58-.73.42-1.55.63-2.45.63v-1.58c.74,0,1.37-.17,1.89-.51.53-.34.79-.76.79-1.26,0-.54-.1-1.08-.29-1.61-.19-.53-.44-1.18-.74-1.96l-2.69-6.91h1.8l2.92,7.68,2.63-7.68h1.8l-4.21,11.62Z"/>
        <path class="cls-4" d="m785.53,373.9c.38,0,.71.14.98.41.27.27.41.6.41.98s-.14.71-.41.99c-.27.28-.6.41-.98.41s-.71-.14-.98-.41c-.27-.27-.41-.6-.41-.99s.14-.71.41-.98c.27-.27.6-.41.98-.41Zm.27-.94h-.66c-.48-3.11-.71-5.27-.71-6.49v-3.8h2.1v3.79c0,1.18-.24,3.35-.72,6.49Z"/>
      </g>
      <g>
        <g>
          <path class="cls-6" d="m315.4,263.26h-180.72c-3.38,0-6.53-1.75-8.3-4.63l-11.86-19.19,217.31-1.97-7.28,19.46c-1.43,3.81-5.07,6.34-9.14,6.34Z"/>
          <ellipse class="cls-7" cx="223.25" cy="232.16" rx="122.05" ry="15.99"/>
          <ellipse class="cls-5" cx="223.25" cy="231.95" rx="97.6" ry="10.67"/>
          <g>
            <path class="cls-10" d="m244.42,139c-29.21-14.39-57.82-14.76-85.78,0,0,0-11.88,5.46-11.88,12.19v4.76c0,5.61,3.69,10.33,8.72,11.75v64.26h92.1v-64.26c5.02-1.42,8.72-6.14,8.72-11.75v-4.76c0-6.73-11.88-12.19-11.88-12.19Z"/>
            <path class="cls-8" d="m237.24,176.91c.47,64.87-23.31.36-34.99,31.08-9.05,23.79-25.43,22.73-34.99-31.08-7.98-44.89,19.12-19.77,34.99-31.08,16.49-11.75,34.82,7.54,34.99,31.08Z"/>
          </g>
          <g>
            <path class="cls-10" d="m288.05,137.94c-30.13-12.93-58.79-11.93-85.86,4.12,0,0-11.55,6.01-11.13,12.71l.29,4.74c.35,5.59,4.33,10.11,9.45,11.28l3.97,64.01,92.19-4.42-3.97-64.01c4.94-1.66,8.34-6.53,8-12.12l-.29-4.74c-.42-6.7-12.64-11.57-12.64-11.57Z"/>
            <path class="cls-8" d="m283.19,176.05c4.48,64.59-23.31,1.48-33.11,32.64-7.59,24.13-24.05,23.86-36.94-29.28-10.75-44.33,17.92-20.61,33.11-32.64,15.78-12.5,35.32,5.84,36.94,29.28Z"/>
          </g>
        </g>
        <rect class="cls-3" x="246.02" y="167.8" width="31.23" height="31.23" rx="4.84" ry="4.84"/>
      </g>
    </g>
  </g>
</svg>