<?xml version="1.0" encoding="UTF-8"?>
<svg id="Layer_2" data-name="Layer 2" xmlns="http://www.w3.org/2000/svg" viewBox="0 0 860.4 431.75">
  <defs>
    <style>
      .cls-1 {
        letter-spacing: -.02em;
      }

      .cls-2 {
        letter-spacing: -.13em;
      }

      .cls-3 {
        fill: #f2ec63;
      }

      .cls-4 {
        fill: #f1f2f2;
      }

      .cls-5 {
        fill: #a24123;
      }

      .cls-6, .cls-7 {
        fill: #c64127;
      }

      .cls-8 {
        fill: #484021;
      }

      .cls-9 {
        fill: #3b57a7;
      }

      .cls-10 {
        fill: #bc8d2d;
        stroke: #9a5825;
        stroke-width: 10px;
      }

      .cls-10, .cls-7, .cls-11, .cls-12 {
        stroke-miterlimit: 10;
      }

      .cls-13 {
        letter-spacing: -.03em;
      }

      .cls-7 {
        stroke: #aa4227;
        stroke-width: 2px;
      }

      .cls-14 {
        fill: #d6cdd5;
        font-size: 28px;
      }

      .cls-14, .cls-15, .cls-16 {
        font-family: TrebuchetMS-Bold, 'Trebuchet MS';
        font-weight: 700;
      }

      .cls-11 {
        fill: #72cbcb;
      }

      .cls-11, .cls-12 {
        stroke: #72cbcb;
      }

      .cls-15 {
        font-size: 27px;
      }

      .cls-15, .cls-12, .cls-16 {
        fill: #fff;
      }

      .cls-12 {
        stroke-width: 3px;
      }

      .cls-16 {
        font-size: 39px;
      }
    </style>
  </defs>
  <g id="exploreSugar">
    <rect class="cls-9" x="0" y="0" width="860.4" height="431.75" rx="57.84" ry="57.84"/>
    <g>
      <g>
        <path class="cls-11" d="m499.92,155.78c-8.13,0-14.72,2.22-14.72,4.96,0,5.92,6.59,10.71,14.72,10.71s14.72-4.8,14.72-10.71c0-2.74-6.59-4.96-14.72-4.96Z"/>
        <path class="cls-11" d="m560.91,145.48c-.66-.77-1.73-1.03-2.74-1.13-5.63-.52-10.83,2.77-15.58,5.84-1.2.77-22.61,11.34-27.46,10.67l-.48,2.27c7.88.19,39.16-9.22,42.99-11.35,1.19-.66,2.41-1.38,3.19-2.5s.97-2.76.09-3.8Z"/>
      </g>
      <path class="cls-12" d="m488.88,161.75c-.32.37.41.54.37,1.03-.05.47,1.3,1.11,4.38,1.22,5.68.19,11.8,1.42,17.1-.64.41-.16.53-.67.25-1l-8.34-9.54c-1.62-1.64-4.26-1.65-5.9-.04l-7.85,8.97"/>
    </g>
    <text class="cls-16" transform="translate(478.71 77.2)"><tspan x="0" y="0">Attack stats </tspan></text>
    <text class="cls-14" transform="translate(478.71 120.92)"><tspan x="0" y="0">teaspoons of sugar</tspan></text>
    <text class="cls-14" transform="translate(482.66 234.35)"><tspan x="0" y="0">defense st</tspan><tspan class="cls-13" x="135.06" y="0">r</tspan><tspan x="146.15" y="0">ategy</tspan></text>
    <circle class="cls-4" cx="223.25" cy="195.66" r="114.71"/>
    <text class="cls-15" transform="translate(164.74 365.33)"><tspan x="0" y="0">Kaya</tspan><tspan class="cls-1" x="59.84" y="0"> </tspan><tspan class="cls-2" x="67.49" y="0">T</tspan><tspan x="80.53" y="0">oast</tspan></text>
    <g>
      <path class="cls-4" d="m480.32,257.19c.82,0,1.52.29,2.1.87s.87,1.28.87,2.1-.29,1.52-.87,2.1-1.28.87-2.1.87-1.52-.29-2.1-.87c-.58-.58-.87-1.28-.87-2.1s.29-1.52.87-2.1c.58-.58,1.28-.87,2.1-.87Z"/>
      <path class="cls-4" d="m503.89,251.57l-.69,1.75c-.66-.48-1.69-.72-3.1-.72-1.32,0-2.38.57-3.17,1.7-.8,1.13-1.19,2.6-1.19,4.39s.41,3.09,1.23,4.16c.82,1.06,1.87,1.59,3.16,1.59,1.41,0,2.49-.5,3.25-1.5l1.13,1.57c-1.19,1.18-2.72,1.77-4.59,1.77s-3.51-.71-4.63-2.12-1.69-3.28-1.69-5.6.6-4.1,1.8-5.59,2.76-2.23,4.67-2.23c1.63,0,2.91.27,3.83.81Z"/>
      <path class="cls-4" d="m505.99,260.53c0-1.7.46-3.06,1.37-4.11.91-1.04,2.11-1.56,3.6-1.56,1.57,0,2.79.5,3.66,1.5.87,1,1.3,2.39,1.3,4.17s-.44,3.17-1.33,4.19c-.89,1.02-2.1,1.53-3.63,1.53s-2.79-.52-3.66-1.55c-.88-1.03-1.31-2.42-1.31-4.17Zm2.05,0c0,2.75.97,4.13,2.92,4.13.91,0,1.62-.37,2.14-1.11.52-.74.77-1.75.77-3.02,0-2.72-.97-4.08-2.91-4.08-.89,0-1.6.36-2.13,1.09-.53.72-.79,1.72-.79,2.99Z"/>
      <path class="cls-4" d="m524.74,266.04v-6.39c0-1.17-.18-1.99-.53-2.46-.35-.47-.94-.7-1.77-.7-.44,0-.91.13-1.39.4s-.86.59-1.12.98v8.16h-1.95v-10.98h1.33l.62,1.42c.64-1.08,1.69-1.62,3.15-1.62,2.41,0,3.61,1.46,3.61,4.39v6.8h-1.95Z"/>
      <path class="cls-4" d="m528.74,265.39l.69-1.85c1.09.71,1.96,1.07,2.62,1.07,1.2,0,1.8-.51,1.8-1.52,0-.72-.58-1.35-1.74-1.87-.9-.41-1.5-.72-1.81-.93-.31-.21-.58-.45-.81-.72-.23-.27-.4-.56-.51-.86-.11-.3-.17-.63-.17-.98,0-.9.33-1.61.98-2.11s1.51-.76,2.57-.76c.8,0,1.81.25,3.02.76l-.55,1.8c-.77-.62-1.55-.92-2.33-.92-.46,0-.86.11-1.17.33-.32.22-.48.5-.48.83,0,.7.4,1.24,1.2,1.6l1.39.64c.85.39,1.48.83,1.87,1.33s.58,1.12.58,1.88c0,.98-.34,1.76-1.04,2.31-.69.56-1.65.84-2.87.84-1.16,0-2.24-.29-3.26-.86Z"/>
      <path class="cls-4" d="m539.8,255.06v7c0,1.7.74,2.54,2.21,2.54.64,0,1.23-.18,1.76-.55s.88-.8,1.06-1.28v-7.71h1.95v10.98h-1.95v-1.52c-.22.43-.66.83-1.32,1.18-.66.36-1.3.54-1.93.54-1.2,0-2.12-.34-2.76-1.04-.64-.69-.96-1.67-.96-2.94v-7.21h1.95Z"/>
      <path class="cls-4" d="m562.14,266.04v-6.95c0-1.73-.75-2.59-2.25-2.59-.47,0-.91.15-1.32.44-.41.29-.69.62-.84.99v8.12h-1.95v-7.8c0-.54-.2-.97-.61-1.28-.41-.31-.95-.47-1.62-.47-.39,0-.8.15-1.25.45-.44.3-.75.63-.94,1v8.1h-1.95v-10.98h1.27l.65,1.27c.75-.98,1.69-1.48,2.82-1.48,1.57,0,2.67.49,3.3,1.47.22-.42.62-.77,1.22-1.05s1.21-.42,1.84-.42c1.13,0,2.01.34,2.63,1.01.62.67.93,1.62.93,2.83v7.34h-1.95Z"/>
      <path class="cls-4" d="m576.11,260.74h-7.92c0,1.29.35,2.27,1.06,2.96.62.6,1.42.9,2.4.9,1.11,0,2.04-.32,2.79-.97l.82,1.41c-.3.3-.76.56-1.38.78-.78.29-1.65.43-2.6.43-1.38,0-2.55-.47-3.52-1.4-1.07-1.03-1.61-2.42-1.61-4.16s.55-3.26,1.65-4.36c.98-.98,2.15-1.47,3.5-1.47,1.57,0,2.79.44,3.68,1.32.86.85,1.29,1.97,1.29,3.37,0,.43-.05.83-.15,1.19Zm-4.73-4.25c-.87,0-1.6.28-2.18.84-.56.53-.88,1.2-.95,1.99h6.08c0-.79-.25-1.44-.74-1.97-.54-.57-1.28-.86-2.21-.86Z"/>
      <path class="cls-4" d="m594.79,266.25h-.51l-3.22-7.47-3.21,7.47h-.51l-3.93-11.22h2.08l2.35,7.21,2.92-7.21h.51l3.01,7.21,2.52-7.21h1.92l-3.94,11.22Z"/>
      <path class="cls-4" d="m601.21,266.04v-9.34h-1.51v-1.64h3.46v10.98h-1.95Zm1.07-15.13c.33,0,.62.12.86.35s.35.52.35.85-.12.62-.35.86c-.24.24-.52.35-.86.35s-.61-.12-.85-.35-.35-.52-.35-.86.12-.62.35-.85.52-.35.85-.35Z"/>
      <path class="cls-4" d="m606.95,256.6h-1.27v-1.54h1.27v-2.3l1.95-.75v3.04h3.01v1.54h-3.01v5.46c0,.92.16,1.58.47,1.97.31.39.81.58,1.5.58.5,0,1.01-.13,1.55-.38l.29,1.71c-.81.21-1.69.31-2.66.31-.87,0-1.6-.32-2.2-.97-.6-.65-.9-1.46-.9-2.45v-6.23Z"/>
      <path class="cls-4" d="m621.35,266.04v-6.9c0-.82-.2-1.47-.61-1.94s-.97-.71-1.7-.71c-.47,0-.95.14-1.42.42-.48.28-.84.6-1.09.97v8.16h-1.95v-15.48h1.95v5.71c.26-.4.68-.74,1.26-1.01.58-.27,1.17-.41,1.79-.41,1.16,0,2.07.38,2.73,1.15.66.77.99,1.81.99,3.14v6.9h-1.95Z"/>
      <path class="cls-4" d="m632.54,262.94v-12.38h1.95v12.05c0,.59.17,1.05.51,1.39.34.34.78.51,1.33.51v1.74c-2.52,0-3.78-1.1-3.78-3.31Z"/>
      <path class="cls-4" d="m637.86,260.53c0-1.7.46-3.06,1.37-4.11.91-1.04,2.11-1.56,3.6-1.56,1.57,0,2.79.5,3.66,1.5.87,1,1.3,2.39,1.3,4.17s-.44,3.17-1.33,4.19c-.89,1.02-2.1,1.53-3.63,1.53s-2.79-.52-3.66-1.55c-.88-1.03-1.31-2.42-1.31-4.17Zm2.05,0c0,2.75.97,4.13,2.92,4.13.91,0,1.62-.37,2.14-1.11.52-.74.77-1.75.77-3.02,0-2.72-.97-4.08-2.91-4.08-.89,0-1.6.36-2.13,1.09-.53.72-.79,1.72-.79,2.99Z"/>
      <path class="cls-4" d="m660,266.25h-.51l-3.22-7.47-3.21,7.47h-.51l-3.93-11.22h2.08l2.35,7.21,2.92-7.21h.51l3.01,7.21,2.52-7.21h1.92l-3.94,11.22Z"/>
      <path class="cls-4" d="m671.08,265.39l.69-1.85c1.09.71,1.96,1.07,2.62,1.07,1.2,0,1.8-.51,1.8-1.52,0-.72-.58-1.35-1.74-1.87-.9-.41-1.5-.72-1.81-.93-.31-.21-.58-.45-.81-.72-.23-.27-.4-.56-.51-.86-.11-.3-.17-.63-.17-.98,0-.9.33-1.61.98-2.11s1.51-.76,2.57-.76c.8,0,1.81.25,3.02.76l-.55,1.8c-.77-.62-1.55-.92-2.33-.92-.46,0-.86.11-1.17.33-.32.22-.48.5-.48.83,0,.7.4,1.24,1.2,1.6l1.39.64c.85.39,1.48.83,1.87,1.33s.58,1.12.58,1.88c0,.98-.34,1.76-1.04,2.31-.69.56-1.65.84-2.87.84-1.16,0-2.24-.29-3.26-.86Z"/>
      <path class="cls-4" d="m682.14,255.06v7c0,1.7.74,2.54,2.21,2.54.64,0,1.23-.18,1.76-.55s.88-.8,1.06-1.28v-7.71h1.95v10.98h-1.95v-1.52c-.22.43-.66.83-1.32,1.18-.66.36-1.3.54-1.93.54-1.2,0-2.12-.34-2.76-1.04-.64-.69-.96-1.67-.96-2.94v-7.21h1.95Z"/>
      <path class="cls-4" d="m691.37,269.05l1.06-1.56c1.13.76,2.18,1.14,3.14,1.14.88,0,1.58-.15,2.09-.46.51-.3.76-.68.76-1.13,0-.89-.64-1.33-1.93-1.33-.22,0-.62.05-1.19.16s-1.02.16-1.34.16c-1.56,0-2.34-.59-2.34-1.76,0-.36.18-.69.55-.98.37-.29.82-.51,1.36-.64-1.54-.72-2.32-1.98-2.32-3.77,0-1.15.4-2.1,1.2-2.87.8-.76,1.79-1.15,2.96-1.15,1.08,0,1.92.22,2.53.67l.97-1.17,1.27,1.2-1.17.88c.5.65.75,1.5.75,2.54,0,1.11-.35,2.04-1.04,2.79s-1.6,1.18-2.72,1.29l-1.61.16c-.19.02-.45.09-.77.22-.32.13-.48.29-.48.5,0,.28.33.42,1,.42.29,0,.75-.05,1.37-.16.62-.11,1.08-.16,1.38-.16,1.08,0,1.92.26,2.53.77.6.52.91,1.23.91,2.15,0,1.01-.45,1.83-1.36,2.45-.91.62-2.05.93-3.44.93-.71,0-1.46-.13-2.25-.38-.79-.25-1.42-.56-1.9-.92Zm4.13-12.62c-.68,0-1.23.24-1.66.72-.43.48-.64,1.06-.64,1.74,0,.77.21,1.4.62,1.9.41.5.97.75,1.68.75s1.23-.24,1.62-.73c.39-.49.58-1.13.58-1.92,0-.68-.21-1.26-.63-1.74-.42-.48-.94-.72-1.57-.72Z"/>
      <path class="cls-4" d="m708.52,264.78c-.78.98-1.97,1.47-3.58,1.47-.86,0-1.61-.31-2.24-.94-.63-.62-.95-1.4-.95-2.33,0-1.11.49-2.06,1.46-2.82.97-.77,2.22-1.15,3.73-1.15.41,0,.88.09,1.39.27,0-1.78-.79-2.67-2.38-2.67-1.22,0-2.15.33-2.81.98l-.82-1.63c.37-.3.88-.56,1.53-.77.65-.21,1.28-.32,1.87-.32,1.59,0,2.75.36,3.47,1.09.72.72,1.08,1.88,1.08,3.46v3.94c0,.96.29,1.61.86,1.93v.97c-.79,0-1.39-.11-1.78-.34-.39-.23-.67-.6-.85-1.12Zm-.18-4.13c-.62-.14-1.05-.21-1.29-.21-.98,0-1.79.25-2.41.76s-.93,1.1-.93,1.79c0,1.14.67,1.71,2.02,1.71.98,0,1.86-.47,2.61-1.41v-2.66Z"/>
      <path class="cls-4" d="m719.31,256.94c-.42-.29-.85-.44-1.28-.44-.69,0-1.29.32-1.81.95-.52.64-.77,1.4-.77,2.3v6.3h-1.95v-10.98h1.95v1.75c.71-1.31,1.77-1.96,3.17-1.96.35,0,.85.06,1.51.19l-.81,1.9Z"/>
      <path class="cls-4" d="m734.8,266.03v-.81c-.68.68-1.66,1.02-2.95,1.02-1.37,0-2.49-.49-3.34-1.48s-1.28-2.3-1.28-3.94.49-3.05,1.48-4.22c.98-1.17,2.16-1.75,3.52-1.75,1.13,0,2,.27,2.58.8v-5.1h1.95v15.47h-1.95Zm0-8.43c-.49-.74-1.17-1.11-2.02-1.11-1.05,0-1.89.39-2.54,1.17-.65.78-.97,1.77-.97,2.97,0,2.65,1.2,3.97,3.61,3.97.31,0,.68-.1,1.11-.29.43-.2.7-.4.81-.62v-6.09Z"/>
      <path class="cls-4" d="m745.5,256.94c-.42-.29-.85-.44-1.28-.44-.69,0-1.29.32-1.81.95-.52.64-.77,1.4-.77,2.3v6.3h-1.95v-10.98h1.95v1.75c.71-1.31,1.77-1.96,3.17-1.96.35,0,.85.06,1.51.19l-.81,1.9Z"/>
      <path class="cls-4" d="m748.64,266.04v-9.34h-1.51v-1.64h3.46v10.98h-1.95Zm1.07-15.13c.33,0,.62.12.86.35s.35.52.35.85-.12.62-.35.86c-.24.24-.52.35-.86.35s-.61-.12-.85-.35-.35-.52-.35-.86.12-.62.35-.85.52-.35.85-.35Z"/>
      <path class="cls-4" d="m760.44,266.04v-6.39c0-1.17-.18-1.99-.53-2.46-.35-.47-.94-.7-1.77-.7-.44,0-.91.13-1.39.4s-.86.59-1.12.98v8.16h-1.95v-10.98h1.33l.62,1.42c.64-1.08,1.69-1.62,3.15-1.62,2.41,0,3.61,1.46,3.61,4.39v6.8h-1.95Z"/>
      <path class="cls-4" d="m772.26,266.04l-3.45-5.5-1.7,1.75v3.74h-1.95v-15.48h1.95v9.61l4.2-5.11h2.28l-3.52,4.17,4.3,6.81h-2.11Z"/>
      <path class="cls-4" d="m775.03,265.39l.69-1.85c1.09.71,1.96,1.07,2.62,1.07,1.2,0,1.8-.51,1.8-1.52,0-.72-.58-1.35-1.74-1.87-.9-.41-1.5-.72-1.81-.93-.31-.21-.58-.45-.81-.72-.23-.27-.4-.56-.51-.86-.11-.3-.17-.63-.17-.98,0-.9.33-1.61.98-2.11s1.51-.76,2.57-.76c.8,0,1.81.25,3.02.76l-.55,1.8c-.77-.62-1.55-.92-2.33-.92-.46,0-.86.11-1.17.33-.32.22-.48.5-.48.83,0,.7.4,1.24,1.2,1.6l1.39.64c.85.39,1.48.83,1.87,1.33s.58,1.12.58,1.88c0,.98-.34,1.76-1.04,2.31-.69.56-1.65.84-2.87.84-1.16,0-2.24-.29-3.26-.86Z"/>
      <path class="cls-4" d="m499.1,276.12v.85c-1.35,1.96-2.03,4.81-2.03,8.56,0,4.46.68,7.46,2.03,9.02v1.08c-1.38-.96-2.45-2.35-3.21-4.15-.76-1.8-1.14-3.79-1.14-5.97,0-1.86.43-3.74,1.3-5.63.87-1.9,1.89-3.15,3.06-3.76Z"/>
      <path class="cls-4" d="m511.11,285.94h-7.92c0,1.29.35,2.27,1.06,2.96.62.6,1.42.9,2.4.9,1.11,0,2.04-.32,2.79-.97l.82,1.41c-.3.3-.76.56-1.38.78-.78.29-1.65.43-2.6.43-1.38,0-2.55-.47-3.52-1.4-1.07-1.03-1.61-2.42-1.61-4.16s.55-3.26,1.65-4.36c.98-.98,2.15-1.47,3.5-1.47,1.57,0,2.79.44,3.68,1.32.86.85,1.29,1.97,1.29,3.37,0,.43-.05.83-.15,1.19Zm-4.73-4.25c-.87,0-1.6.28-2.18.84-.56.53-.88,1.2-.95,1.99h6.08c0-.79-.25-1.44-.74-1.97-.54-.57-1.27-.86-2.2-.86Z"/>
      <path class="cls-4" d="m515.56,288.36c.42,0,.79.15,1.09.45s.45.66.45,1.09-.15.79-.45,1.09c-.3.3-.66.46-1.09.46s-.79-.15-1.09-.46c-.3-.3-.45-.67-.45-1.09s.15-.79.45-1.09.66-.45,1.09-.45Z"/>
      <path class="cls-4" d="m520.62,294.25l1.06-1.56c1.13.76,2.18,1.14,3.14,1.14.88,0,1.58-.15,2.09-.46.51-.3.76-.68.76-1.13,0-.89-.64-1.33-1.93-1.33-.22,0-.62.05-1.19.16s-1.02.16-1.34.16c-1.56,0-2.34-.59-2.34-1.76,0-.36.18-.69.55-.98.37-.29.82-.51,1.36-.64-1.54-.72-2.32-1.98-2.32-3.77,0-1.15.4-2.1,1.2-2.87.8-.76,1.79-1.15,2.96-1.15,1.08,0,1.92.22,2.53.67l.97-1.17,1.27,1.2-1.17.88c.5.65.75,1.5.75,2.54,0,1.11-.35,2.04-1.04,2.79s-1.6,1.18-2.72,1.29l-1.61.16c-.19.02-.45.09-.77.22-.32.13-.48.29-.48.5,0,.28.33.42,1,.42.29,0,.75-.05,1.37-.16.62-.11,1.08-.16,1.38-.16,1.08,0,1.92.26,2.53.77.6.52.91,1.23.91,2.15,0,1.01-.45,1.83-1.36,2.45-.91.62-2.05.93-3.44.93-.71,0-1.46-.13-2.25-.38-.79-.25-1.42-.56-1.9-.92Zm4.13-12.62c-.68,0-1.23.24-1.66.72-.43.48-.64,1.06-.64,1.74,0,.77.21,1.4.62,1.9.41.5.97.75,1.68.75s1.23-.24,1.62-.73c.39-.49.58-1.13.58-1.92,0-.68-.21-1.26-.63-1.74-.42-.48-.94-.72-1.57-.72Z"/>
      <path class="cls-4" d="m533.81,288.36c.42,0,.79.15,1.09.45s.45.66.45,1.09-.15.79-.45,1.09c-.3.3-.66.46-1.09.46s-.79-.15-1.09-.46c-.3-.3-.45-.67-.45-1.09s.15-.79.45-1.09.66-.45,1.09-.45Z"/>
      <path class="cls-4" d="m554.04,291.24l-4.24-6.91-2,2.84v4.07h-2.05v-15.02h2.05v8.17l5.58-8.17h2.29l-4.49,6.51,5.13,8.51h-2.27Z"/>
      <path class="cls-4" d="m556.32,285.73c0-1.7.46-3.06,1.37-4.11.91-1.04,2.11-1.56,3.6-1.56,1.57,0,2.79.5,3.66,1.5.87,1,1.3,2.39,1.3,4.17s-.44,3.17-1.33,4.19c-.89,1.02-2.1,1.53-3.63,1.53s-2.79-.52-3.66-1.55c-.88-1.03-1.31-2.42-1.31-4.17Zm2.05,0c0,2.75.97,4.13,2.92,4.13.91,0,1.62-.37,2.14-1.11.52-.74.77-1.75.77-3.02,0-2.72-.97-4.08-2.91-4.08-.89,0-1.6.36-2.13,1.09-.53.72-.79,1.72-.79,2.99Z"/>
      <path class="cls-4" d="m570.25,290.64v4.91h-1.95v-15.29h1.95v.9c.74-.74,1.63-1.11,2.68-1.11,1.56,0,2.77.49,3.64,1.46s1.3,2.39,1.3,4.27c0,1.67-.44,3.03-1.31,4.09-.88,1.06-2.14,1.58-3.79,1.58-.46,0-.96-.08-1.49-.25-.53-.16-.87-.35-1.02-.56Zm0-8.01v6.4c.12.18.38.36.78.53.4.17.78.25,1.16.25,2.42,0,3.63-1.37,3.63-4.1,0-1.39-.29-2.4-.86-3.04s-1.49-.96-2.76-.96c-.27,0-.61.1-1,.29-.4.19-.71.41-.94.65Z"/>
      <path class="cls-4" d="m580.95,291.24v-9.34h-1.51v-1.64h3.46v10.98h-1.95Zm1.07-15.13c.33,0,.62.12.86.35s.35.52.35.85-.12.62-.35.86c-.24.24-.52.35-.86.35s-.61-.12-.85-.35-.35-.52-.35-.86.12-.62.35-.85.52-.35.85-.35Z"/>
      <path class="cls-4" d="m591.8,290.56l.75-1.89c.38.28.86.51,1.43.7.57.19,1.08.28,1.53.28.8,0,1.44-.22,1.93-.66.49-.44.73-.99.73-1.67,0-.51-.13-.98-.4-1.41-.27-.43-.95-.91-2.04-1.42l-1.21-.56c-1.03-.48-1.74-1.05-2.15-1.7-.41-.66-.61-1.45-.61-2.37,0-1.12.4-2.05,1.19-2.79s1.81-1.11,3.06-1.11c1.66,0,2.82.27,3.47.81l-.61,1.79c-.27-.2-.69-.39-1.25-.57-.56-.19-1.08-.28-1.56-.28-.7,0-1.25.2-1.65.59-.4.4-.6.91-.6,1.53,0,.38.07.73.21,1.04.14.32.34.58.6.79.26.21.78.51,1.57.89l1.23.58c1.03.49,1.75,1.06,2.16,1.74.41.67.62,1.53.62,2.57,0,1.13-.45,2.08-1.36,2.87-.91.79-2.12,1.18-3.64,1.18-1.33,0-2.47-.31-3.41-.94Z"/>
      <path class="cls-4" d="m603.36,291.24v-9.34h-1.51v-1.64h3.46v10.98h-1.95Zm1.07-15.13c.33,0,.62.12.86.35s.35.52.35.85-.12.62-.35.86c-.24.24-.52.35-.86.35s-.61-.12-.85-.35-.35-.52-.35-.86.12-.62.35-.85.52-.35.85-.35Z"/>
      <path class="cls-4" d="m617.66,285.94h-7.92c0,1.29.35,2.27,1.06,2.96.62.6,1.42.9,2.4.9,1.11,0,2.04-.32,2.79-.97l.82,1.41c-.3.3-.76.56-1.38.78-.78.29-1.65.43-2.6.43-1.38,0-2.55-.47-3.52-1.4-1.07-1.03-1.61-2.42-1.61-4.16s.55-3.26,1.65-4.36c.98-.98,2.15-1.47,3.5-1.47,1.57,0,2.79.44,3.68,1.32.86.85,1.29,1.97,1.29,3.37,0,.43-.05.83-.15,1.19Zm-4.73-4.25c-.87,0-1.6.28-2.18.84-.56.53-.88,1.2-.95,1.99h6.08c0-.79-.25-1.44-.74-1.97-.54-.57-1.28-.86-2.21-.86Z"/>
      <path class="cls-4" d="m630.01,291.45h-.51l-3.22-7.47-3.21,7.47h-.51l-3.93-11.22h2.08l2.35,7.21,2.92-7.21h.51l3.01,7.21,2.52-7.21h1.92l-3.94,11.22Z"/>
      <path class="cls-4" d="m644.99,291.24h-3.03v-15.02c1.93-.07,3.16-.1,3.7-.1,2.1,0,3.76.64,4.98,1.91,1.22,1.27,1.83,2.97,1.83,5.09,0,5.41-2.5,8.12-7.5,8.12Zm-.97-13.18v11.23c.46.07,1.03.1,1.7.1,1.44,0,2.56-.54,3.38-1.62.82-1.08,1.23-2.57,1.23-4.49,0-3.55-1.6-5.33-4.79-5.33-.19,0-.7.04-1.53.1Z"/>
      <path class="cls-4" d="m660.9,289.98c-.78.98-1.97,1.47-3.58,1.47-.86,0-1.61-.31-2.24-.94-.63-.62-.95-1.4-.95-2.33,0-1.11.49-2.06,1.46-2.82.97-.77,2.22-1.15,3.73-1.15.41,0,.88.09,1.39.27,0-1.78-.79-2.67-2.38-2.67-1.22,0-2.15.33-2.81.98l-.82-1.63c.37-.3.88-.56,1.53-.77.65-.21,1.28-.32,1.87-.32,1.59,0,2.75.36,3.47,1.09.72.72,1.08,1.88,1.08,3.46v3.94c0,.96.29,1.61.86,1.93v.97c-.79,0-1.39-.11-1.78-.34-.39-.23-.67-.6-.85-1.12Zm-.18-4.13c-.62-.14-1.05-.21-1.29-.21-.98,0-1.79.25-2.41.76s-.93,1.1-.93,1.79c0,1.14.67,1.71,2.02,1.71.98,0,1.86-.47,2.61-1.41v-2.66Z"/>
      <path class="cls-4" d="m666.67,291.24v-9.34h-1.51v-1.64h3.46v10.98h-1.95Zm1.07-15.13c.33,0,.62.12.86.35s.35.52.35.85-.12.62-.35.86c-.24.24-.52.35-.86.35s-.61-.12-.85-.35-.35-.52-.35-.86.12-.62.35-.85.52-.35.85-.35Z"/>
      <path class="cls-4" d="m678.29,286.05v-1.79h4.39v1.79h-4.39Z"/>
      <path class="cls-4" d="m694.04,281.15l-.96,1.37c-.2-.2-.55-.39-1.05-.56-.5-.18-1-.27-1.48-.27-1.06,0-1.9.37-2.52,1.11-.62.74-.93,1.76-.93,3.05s.32,2.26.95,2.94c.64.67,1.52,1.01,2.65,1.01.88,0,1.76-.34,2.65-1.02l.77,1.64c-1.05.68-2.34,1.02-3.89,1.02s-2.73-.5-3.71-1.51c-.98-1-1.47-2.36-1.47-4.08s.51-3.16,1.52-4.21c1.01-1.06,2.4-1.59,4.17-1.59.57,0,1.18.12,1.85.36s1.15.49,1.47.74Z"/>
      <path class="cls-4" d="m695.43,285.73c0-1.7.46-3.06,1.37-4.11.91-1.04,2.11-1.56,3.6-1.56,1.57,0,2.79.5,3.66,1.5.87,1,1.3,2.39,1.3,4.17s-.44,3.17-1.33,4.19c-.89,1.02-2.1,1.53-3.63,1.53s-2.79-.52-3.66-1.55c-.88-1.03-1.31-2.42-1.31-4.17Zm2.05,0c0,2.75.97,4.13,2.92,4.13.91,0,1.62-.37,2.14-1.11.52-.74.77-1.75.77-3.02,0-2.72-.97-4.08-2.91-4.08-.89,0-1.6.36-2.13,1.09-.53.72-.79,1.72-.79,2.99Z"/>
      <path class="cls-4" d="m713.36,277.5c-.4-.14-.77-.21-1.11-.21-.59,0-1.08.23-1.47.68-.39.45-.58,1.02-.58,1.71,0,.19.02.38.05.57h2.24v1.64h-2.24v9.34h-1.95v-9.34h-1.6v-1.64h1.6c0-1.4.34-2.5,1.04-3.3.69-.8,1.6-1.2,2.74-1.2.57,0,1.18.1,1.83.31l-.54,1.44Z"/>
      <path class="cls-4" d="m721.12,277.5c-.4-.14-.77-.21-1.11-.21-.59,0-1.09.23-1.47.68-.39.45-.58,1.02-.58,1.71,0,.19.02.38.05.57h2.24v1.64h-2.24v9.34h-1.95v-9.34h-1.6v-1.64h1.6c0-1.4.35-2.5,1.04-3.3.69-.8,1.6-1.2,2.74-1.2.57,0,1.18.1,1.83.31l-.54,1.44Z"/>
      <path class="cls-4" d="m732.19,285.94h-7.92c0,1.29.35,2.27,1.06,2.96.62.6,1.42.9,2.4.9,1.11,0,2.04-.32,2.79-.97l.82,1.41c-.3.3-.76.56-1.38.78-.78.29-1.65.43-2.6.43-1.38,0-2.55-.47-3.52-1.4-1.07-1.03-1.61-2.42-1.61-4.16s.55-3.26,1.65-4.36c.98-.98,2.15-1.47,3.5-1.47,1.57,0,2.79.44,3.68,1.32.86.85,1.29,1.97,1.29,3.37,0,.43-.05.83-.15,1.19Zm-4.73-4.25c-.87,0-1.6.28-2.18.84-.56.53-.88,1.2-.95,1.99h6.08c0-.79-.25-1.44-.74-1.97-.54-.57-1.28-.86-2.21-.86Z"/>
      <path class="cls-4" d="m743.65,285.94h-7.92c0,1.29.35,2.27,1.06,2.96.62.6,1.42.9,2.4.9,1.11,0,2.04-.32,2.79-.97l.82,1.41c-.3.3-.76.56-1.38.78-.78.29-1.65.43-2.6.43-1.38,0-2.55-.47-3.52-1.4-1.07-1.03-1.61-2.42-1.61-4.16s.55-3.26,1.65-4.36c.98-.98,2.15-1.47,3.5-1.47,1.57,0,2.79.44,3.68,1.32.86.85,1.29,1.97,1.29,3.37,0,.43-.05.83-.15,1.19Zm-4.73-4.25c-.87,0-1.6.28-2.18.84-.56.53-.88,1.2-.95,1.99h6.08c0-.79-.25-1.44-.74-1.97-.54-.57-1.27-.86-2.2-.86Z"/>
      <path class="cls-4" d="m762.33,291.45h-.51l-3.22-7.47-3.21,7.47h-.51l-3.93-11.22h2.08l2.35,7.21,2.92-7.21h.51l3.01,7.21,2.52-7.21h1.92l-3.94,11.22Z"/>
      <path class="cls-4" d="m768.75,291.24v-9.34h-1.51v-1.64h3.46v10.98h-1.95Zm1.07-15.13c.33,0,.62.12.86.35s.35.52.35.85-.12.62-.35.86c-.24.24-.52.35-.86.35s-.61-.12-.85-.35-.35-.52-.35-.86.12-.62.35-.85.52-.35.85-.35Z"/>
      <path class="cls-4" d="m774.49,281.8h-1.27v-1.54h1.27v-2.3l1.95-.75v3.04h3.01v1.54h-3.01v5.46c0,.92.16,1.58.47,1.97.31.39.81.58,1.5.58.5,0,1.02-.13,1.55-.38l.29,1.71c-.81.21-1.69.31-2.66.31-.87,0-1.6-.32-2.2-.97-.6-.65-.9-1.46-.9-2.45v-6.23Z"/>
      <path class="cls-4" d="m788.89,291.24v-6.9c0-.82-.2-1.47-.6-1.94s-.97-.71-1.7-.71c-.47,0-.95.14-1.42.42-.48.28-.84.6-1.09.97v8.16h-1.95v-15.48h1.95v5.71c.26-.4.68-.74,1.26-1.01.58-.27,1.17-.41,1.79-.41,1.16,0,2.07.38,2.73,1.15.66.77.99,1.81.99,3.14v6.9h-1.95Z"/>
      <path class="cls-4" d="m494.3,313.34v-12.38h1.95v12.05c0,.59.17,1.05.51,1.39.34.34.78.51,1.33.51v1.74c-2.52,0-3.78-1.1-3.78-3.31Z"/>
      <path class="cls-4" d="m509.59,311.14h-7.92c0,1.29.35,2.27,1.06,2.96.62.6,1.42.9,2.4.9,1.11,0,2.04-.32,2.79-.97l.82,1.41c-.3.3-.76.56-1.38.78-.78.29-1.65.43-2.6.43-1.38,0-2.55-.47-3.52-1.4-1.07-1.03-1.61-2.42-1.61-4.16s.55-3.26,1.65-4.36c.98-.98,2.15-1.47,3.5-1.47,1.57,0,2.79.44,3.68,1.32.86.85,1.29,1.97,1.29,3.37,0,.43-.05.83-.15,1.19Zm-4.73-4.25c-.87,0-1.6.28-2.18.84-.56.53-.88,1.2-.95,1.99h6.08c0-.79-.25-1.44-.74-1.97-.54-.57-1.27-.86-2.2-.86Z"/>
      <path class="cls-4" d="m511.08,315.79l.69-1.85c1.09.71,1.96,1.07,2.62,1.07,1.2,0,1.8-.51,1.8-1.52,0-.72-.58-1.35-1.74-1.87-.9-.41-1.5-.72-1.81-.93-.31-.21-.58-.45-.81-.72-.23-.27-.4-.56-.51-.86-.11-.3-.17-.63-.17-.98,0-.9.33-1.61.98-2.11s1.51-.76,2.57-.76c.8,0,1.81.25,3.02.76l-.55,1.8c-.77-.62-1.55-.92-2.33-.92-.46,0-.86.11-1.17.33-.32.22-.48.5-.48.83,0,.7.4,1.24,1.2,1.6l1.39.64c.85.39,1.48.83,1.87,1.33s.58,1.12.58,1.88c0,.98-.34,1.76-1.04,2.31-.69.56-1.65.84-2.87.84-1.16,0-2.24-.29-3.26-.86Z"/>
      <path class="cls-4" d="m519.58,315.79l.69-1.85c1.09.71,1.96,1.07,2.62,1.07,1.2,0,1.8-.51,1.8-1.52,0-.72-.58-1.35-1.74-1.87-.9-.41-1.5-.72-1.81-.93-.31-.21-.58-.45-.81-.72-.23-.27-.4-.56-.51-.86-.11-.3-.17-.63-.17-.98,0-.9.33-1.61.98-2.11s1.51-.76,2.57-.76c.8,0,1.81.25,3.03.76l-.55,1.8c-.77-.62-1.55-.92-2.33-.92-.46,0-.86.11-1.17.33-.32.22-.48.5-.48.83,0,.7.4,1.24,1.2,1.6l1.39.64c.85.39,1.48.83,1.87,1.33s.58,1.12.58,1.88c0,.98-.35,1.76-1.04,2.31-.69.56-1.65.84-2.87.84-1.16,0-2.24-.29-3.26-.86Z"/>
      <path class="cls-4" d="m534.41,315.79l.69-1.85c1.09.71,1.96,1.07,2.62,1.07,1.2,0,1.8-.51,1.8-1.52,0-.72-.58-1.35-1.74-1.87-.9-.41-1.5-.72-1.81-.93-.31-.21-.58-.45-.81-.72-.23-.27-.4-.56-.51-.86-.11-.3-.17-.63-.17-.98,0-.9.33-1.61.98-2.11s1.51-.76,2.57-.76c.8,0,1.81.25,3.03.76l-.55,1.8c-.77-.62-1.55-.92-2.33-.92-.46,0-.86.11-1.17.33-.32.22-.48.5-.48.83,0,.7.4,1.24,1.2,1.6l1.39.64c.85.39,1.48.83,1.87,1.33s.58,1.12.58,1.88c0,.98-.35,1.76-1.04,2.31-.69.56-1.65.84-2.87.84-1.16,0-2.24-.29-3.26-.86Z"/>
      <path class="cls-4" d="m545.47,305.46v7c0,1.7.73,2.54,2.2,2.54.64,0,1.23-.18,1.76-.55s.89-.8,1.06-1.28v-7.71h1.95v10.98h-1.95v-1.52c-.22.43-.66.83-1.32,1.18-.66.36-1.3.54-1.93.54-1.2,0-2.12-.34-2.76-1.04-.64-.69-.96-1.67-.96-2.94v-7.21h1.95Z"/>
      <path class="cls-4" d="m554.7,319.45l1.06-1.56c1.13.76,2.18,1.14,3.14,1.14.88,0,1.58-.15,2.09-.46.51-.3.76-.68.76-1.13,0-.89-.64-1.33-1.93-1.33-.22,0-.62.05-1.19.16s-1.02.16-1.34.16c-1.56,0-2.34-.59-2.34-1.76,0-.36.18-.69.55-.98.37-.29.82-.51,1.36-.64-1.54-.72-2.32-1.98-2.32-3.77,0-1.15.4-2.1,1.2-2.87.8-.76,1.79-1.15,2.96-1.15,1.08,0,1.92.22,2.53.67l.97-1.17,1.27,1.2-1.17.88c.5.65.75,1.5.75,2.54,0,1.11-.34,2.04-1.04,2.79s-1.6,1.18-2.72,1.29l-1.61.16c-.19.02-.45.09-.77.22-.32.13-.48.29-.48.5,0,.28.33.42,1,.42.29,0,.75-.05,1.37-.16.62-.11,1.08-.16,1.38-.16,1.08,0,1.92.26,2.53.77.6.52.91,1.23.91,2.15,0,1.01-.45,1.83-1.36,2.45-.91.62-2.05.93-3.44.93-.71,0-1.46-.13-2.25-.38-.79-.25-1.42-.56-1.9-.92Zm4.13-12.62c-.68,0-1.23.24-1.66.72-.43.48-.64,1.06-.64,1.74,0,.77.21,1.4.62,1.9.41.5.97.75,1.68.75s1.23-.24,1.62-.73c.39-.49.58-1.13.58-1.92,0-.68-.21-1.26-.63-1.74-.42-.48-.95-.72-1.57-.72Z"/>
      <path class="cls-4" d="m571.84,315.18c-.78.98-1.97,1.47-3.58,1.47-.86,0-1.61-.31-2.24-.94-.63-.62-.95-1.4-.95-2.33,0-1.11.49-2.06,1.46-2.82.97-.77,2.22-1.15,3.73-1.15.41,0,.88.09,1.39.27,0-1.78-.79-2.67-2.38-2.67-1.22,0-2.15.33-2.81.98l-.82-1.63c.37-.3.88-.56,1.53-.77.65-.21,1.28-.32,1.87-.32,1.59,0,2.75.36,3.47,1.09.72.72,1.08,1.88,1.08,3.46v3.94c0,.96.29,1.61.86,1.93v.97c-.79,0-1.39-.11-1.78-.34-.39-.23-.67-.6-.85-1.12Zm-.18-4.13c-.62-.14-1.05-.21-1.29-.21-.98,0-1.79.25-2.41.76s-.93,1.1-.93,1.79c0,1.14.67,1.71,2.02,1.71.98,0,1.86-.47,2.62-1.41v-2.66Z"/>
      <path class="cls-4" d="m582.64,307.34c-.42-.29-.85-.44-1.28-.44-.69,0-1.29.32-1.81.95-.52.64-.77,1.4-.77,2.3v6.3h-1.95v-10.98h1.95v1.75c.71-1.31,1.77-1.96,3.17-1.96.35,0,.85.06,1.51.19l-.81,1.9Z"/>
      <path class="cls-4" d="m585.43,320.83v-1.08c1.35-1.56,2.03-4.57,2.03-9.02,0-3.75-.68-6.61-2.03-8.56v-.85c1.17.61,2.19,1.86,3.06,3.76.87,1.9,1.3,3.78,1.3,5.63,0,2.18-.38,4.17-1.14,5.97-.76,1.8-1.83,3.18-3.21,4.15Z"/>
      <path class="cls-4" d="m598.15,310.93c0-1.7.46-3.06,1.37-4.11.91-1.04,2.11-1.56,3.6-1.56,1.57,0,2.79.5,3.66,1.5.87,1,1.3,2.39,1.3,4.17s-.44,3.17-1.33,4.19c-.89,1.02-2.1,1.53-3.63,1.53s-2.79-.52-3.66-1.55c-.88-1.03-1.31-2.42-1.31-4.17Zm2.05,0c0,2.75.97,4.13,2.92,4.13.91,0,1.62-.37,2.14-1.11.52-.74.77-1.75.77-3.02,0-2.72-.97-4.08-2.91-4.08-.89,0-1.6.36-2.13,1.09-.53.72-.79,1.72-.79,2.99Z"/>
      <path class="cls-4" d="m616.11,307.34c-.42-.29-.85-.44-1.28-.44-.69,0-1.29.32-1.81.95-.52.64-.77,1.4-.77,2.3v6.3h-1.95v-10.98h1.95v1.75c.71-1.31,1.77-1.96,3.17-1.96.35,0,.85.06,1.51.19l-.81,1.9Z"/>
      <path class="cls-4" d="m633.88,311.14h-7.92c0,1.29.35,2.27,1.06,2.96.62.6,1.42.9,2.4.9,1.11,0,2.04-.32,2.79-.97l.82,1.41c-.3.3-.76.56-1.38.78-.78.29-1.65.43-2.6.43-1.38,0-2.55-.47-3.52-1.4-1.07-1.03-1.61-2.42-1.61-4.16s.55-3.26,1.65-4.36c.98-.98,2.15-1.47,3.5-1.47,1.57,0,2.79.44,3.68,1.32.86.85,1.29,1.97,1.29,3.37,0,.43-.05.83-.15,1.19Zm-4.73-4.25c-.87,0-1.6.28-2.18.84-.56.53-.88,1.2-.95,1.99h6.08c0-.79-.25-1.44-.74-1.97-.54-.57-1.28-.86-2.21-.86Z"/>
      <path class="cls-4" d="m636.24,313.34v-12.38h1.95v12.05c0,.59.17,1.05.51,1.39.34.34.78.51,1.33.51v1.74c-2.52,0-3.78-1.1-3.78-3.31Z"/>
      <path class="cls-4" d="m641.56,315.79l.69-1.85c1.09.71,1.96,1.07,2.62,1.07,1.2,0,1.8-.51,1.8-1.52,0-.72-.58-1.35-1.74-1.87-.9-.41-1.5-.72-1.81-.93-.31-.21-.58-.45-.81-.72-.23-.27-.4-.56-.51-.86-.11-.3-.17-.63-.17-.98,0-.9.33-1.61.98-2.11s1.51-.76,2.57-.76c.8,0,1.81.25,3.03.76l-.55,1.8c-.77-.62-1.55-.92-2.33-.92-.46,0-.86.11-1.17.33-.32.22-.48.5-.48.83,0,.7.4,1.24,1.2,1.6l1.39.64c.85.39,1.48.83,1.87,1.33s.58,1.12.58,1.88c0,.98-.35,1.76-1.04,2.31-.69.56-1.65.84-2.87.84-1.16,0-2.24-.29-3.26-.86Z"/>
      <path class="cls-4" d="m660.03,311.14h-7.92c0,1.29.35,2.27,1.06,2.96.62.6,1.42.9,2.4.9,1.11,0,2.04-.32,2.79-.97l.82,1.41c-.3.3-.76.56-1.38.78-.78.29-1.65.43-2.6.43-1.38,0-2.55-.47-3.52-1.4-1.07-1.03-1.61-2.42-1.61-4.16s.55-3.26,1.65-4.36c.98-.98,2.15-1.47,3.5-1.47,1.57,0,2.79.44,3.68,1.32.86.85,1.29,1.97,1.29,3.37,0,.43-.05.83-.15,1.19Zm-4.73-4.25c-.87,0-1.6.28-2.18.84-.56.53-.88,1.2-.95,1.99h6.08c0-.79-.25-1.44-.74-1.97-.54-.57-1.28-.86-2.21-.86Z"/>
      <path class="cls-4" d="m663.14,320.17l-.52-.74c1.18-.96,1.76-1.79,1.76-2.46,0-.3-.1-.6-.31-.9-.59-.28-.88-.68-.88-1.21,0-.36.14-.66.42-.9.28-.24.63-.35,1.06-.35.38,0,.71.16,1.01.49.3.33.45.71.45,1.15,0,.91-.19,1.73-.57,2.46-.38.73-1.18,1.55-2.42,2.47Z"/>
      <path class="cls-4" d="m680.46,318.31c-.25.7-.78,1.28-1.59,1.74-.81.46-1.71.7-2.71.7v-1.74c.81,0,1.51-.19,2.09-.57.58-.38.87-.84.87-1.39,0-.6-.11-1.2-.32-1.78-.21-.58-.49-1.31-.82-2.17l-2.97-7.64h1.99l3.23,8.49,2.9-8.49h1.99l-4.66,12.85Z"/>
      <path class="cls-4" d="m685.91,310.93c0-1.7.46-3.06,1.37-4.11.91-1.04,2.11-1.56,3.6-1.56,1.57,0,2.79.5,3.66,1.5.87,1,1.3,2.39,1.3,4.17s-.44,3.17-1.33,4.19c-.89,1.02-2.1,1.53-3.63,1.53s-2.79-.52-3.66-1.55c-.88-1.03-1.31-2.42-1.31-4.17Zm2.05,0c0,2.75.97,4.13,2.92,4.13.91,0,1.62-.37,2.14-1.11.52-.74.77-1.75.77-3.02,0-2.72-.97-4.08-2.91-4.08-.89,0-1.6.36-2.13,1.09-.53.72-.79,1.72-.79,2.99Z"/>
      <path class="cls-4" d="m699.74,305.46v7c0,1.7.74,2.54,2.21,2.54.64,0,1.23-.18,1.76-.55s.88-.8,1.06-1.28v-7.71h1.95v10.98h-1.95v-1.52c-.22.43-.66.83-1.32,1.18-.66.36-1.3.54-1.93.54-1.2,0-2.12-.34-2.76-1.04-.64-.69-.96-1.67-.96-2.94v-7.21h1.95Z"/>
      <path class="cls-4" d="m715.34,307.34c-.42-.29-.85-.44-1.28-.44-.69,0-1.29.32-1.81.95-.52.64-.77,1.4-.77,2.3v6.3h-1.95v-10.98h1.95v1.75c.71-1.31,1.77-1.96,3.17-1.96.35,0,.85.06,1.51.19l-.81,1.9Z"/>
      <path class="cls-4" d="m725.52,315.65l-.69.99h-.97v-15.69h1.95v5.31c.18-.25.53-.49,1.04-.7.51-.21,1.01-.32,1.5-.32,1.5,0,2.72.52,3.66,1.56.93,1.04,1.4,2.35,1.4,3.94,0,1.83-.47,3.27-1.41,4.32-.94,1.05-2.2,1.57-3.8,1.57-.52,0-1.03-.1-1.53-.29-.5-.2-.88-.43-1.14-.7Zm.29-7.9v6.34c0,.11.24.29.73.54.49.25.85.37,1.11.37,1.33,0,2.28-.32,2.85-.95.57-.64.86-1.7.86-3.2,0-1.24-.33-2.21-1-2.91s-1.57-1.05-2.71-1.05c-.24,0-.57.1-1,.31-.43.21-.71.39-.84.55Z"/>
      <path class="cls-4" d="m741.52,307.34c-.42-.29-.85-.44-1.28-.44-.69,0-1.29.32-1.81.95-.52.64-.77,1.4-.77,2.3v6.3h-1.95v-10.98h1.95v1.75c.71-1.31,1.77-1.96,3.17-1.96.35,0,.85.06,1.51.19l-.81,1.9Z"/>
      <path class="cls-4" d="m752.97,311.14h-7.92c0,1.29.35,2.27,1.06,2.96.62.6,1.42.9,2.4.9,1.11,0,2.04-.32,2.79-.97l.82,1.41c-.3.3-.76.56-1.38.78-.78.29-1.65.43-2.6.43-1.38,0-2.55-.47-3.52-1.4-1.07-1.03-1.61-2.42-1.61-4.16s.55-3.26,1.65-4.36c.98-.98,2.15-1.47,3.5-1.47,1.57,0,2.79.44,3.68,1.32.86.85,1.29,1.97,1.29,3.37,0,.43-.05.83-.15,1.19Zm-4.73-4.25c-.87,0-1.6.28-2.18.84-.56.53-.88,1.2-.95,1.99h6.08c0-.79-.25-1.44-.74-1.97-.54-.57-1.28-.86-2.21-.86Z"/>
      <path class="cls-4" d="m761.38,315.18c-.78.98-1.97,1.47-3.58,1.47-.86,0-1.61-.31-2.24-.94-.63-.62-.95-1.4-.95-2.33,0-1.11.49-2.06,1.46-2.82.97-.77,2.22-1.15,3.73-1.15.41,0,.88.09,1.39.27,0-1.78-.79-2.67-2.38-2.67-1.22,0-2.15.33-2.81.98l-.82-1.63c.37-.3.88-.56,1.53-.77.65-.21,1.28-.32,1.87-.32,1.59,0,2.75.36,3.47,1.09.72.72,1.08,1.88,1.08,3.46v3.94c0,.96.29,1.61.86,1.93v.97c-.79,0-1.39-.11-1.78-.34-.39-.23-.67-.6-.85-1.12Zm-.18-4.13c-.62-.14-1.05-.21-1.29-.21-.98,0-1.79.25-2.41.76s-.93,1.1-.93,1.79c0,1.14.67,1.71,2.02,1.71.98,0,1.86-.47,2.62-1.41v-2.66Z"/>
      <path class="cls-4" d="m773.3,316.44l-3.45-5.5-1.7,1.75v3.74h-1.95v-15.48h1.95v9.61l4.2-5.11h2.28l-3.52,4.17,4.3,6.81h-2.11Z"/>
      <path class="cls-4" d="m782.73,302.7c-.4-.14-.77-.21-1.11-.21-.59,0-1.08.23-1.47.68-.39.45-.58,1.02-.58,1.71,0,.19.02.38.05.57h2.24v1.64h-2.24v9.34h-1.95v-9.34h-1.6v-1.64h1.6c0-1.4.34-2.5,1.04-3.3.69-.8,1.6-1.2,2.74-1.2.57,0,1.18.1,1.83.31l-.54,1.44Z"/>
      <path class="cls-4" d="m790.76,315.18c-.78.98-1.97,1.47-3.58,1.47-.86,0-1.61-.31-2.24-.94-.63-.62-.95-1.4-.95-2.33,0-1.11.49-2.06,1.46-2.82.97-.77,2.22-1.15,3.73-1.15.41,0,.88.09,1.39.27,0-1.78-.79-2.67-2.38-2.67-1.22,0-2.15.33-2.81.98l-.82-1.63c.37-.3.88-.56,1.53-.77.65-.21,1.28-.32,1.87-.32,1.59,0,2.75.36,3.47,1.09.72.72,1.08,1.88,1.08,3.46v3.94c0,.96.29,1.61.86,1.93v.97c-.79,0-1.39-.11-1.78-.34-.39-.23-.67-.6-.85-1.12Zm-.18-4.13c-.62-.14-1.05-.21-1.29-.21-.98,0-1.79.25-2.41.76s-.93,1.1-.93,1.79c0,1.14.67,1.71,2.02,1.71.98,0,1.86-.47,2.62-1.41v-2.66Z"/>
      <path class="cls-4" d="m794.88,315.79l.69-1.85c1.09.71,1.96,1.07,2.62,1.07,1.2,0,1.8-.51,1.8-1.52,0-.72-.58-1.35-1.74-1.87-.9-.41-1.5-.72-1.81-.93-.31-.21-.58-.45-.81-.72-.23-.27-.4-.56-.51-.86-.11-.3-.17-.63-.17-.98,0-.9.33-1.61.98-2.11s1.51-.76,2.57-.76c.8,0,1.81.25,3.03.76l-.55,1.8c-.77-.62-1.55-.92-2.33-.92-.46,0-.86.11-1.17.33-.32.22-.48.5-.48.83,0,.7.4,1.24,1.2,1.6l1.39.64c.85.39,1.48.83,1.87,1.33s.58,1.12.58,1.88c0,.98-.35,1.76-1.04,2.31-.69.56-1.65.84-2.87.84-1.16,0-2.24-.29-3.26-.86Z"/>
      <path class="cls-4" d="m804.79,307h-1.27v-1.54h1.27v-2.3l1.95-.75v3.04h3.01v1.54h-3.01v5.46c0,.92.16,1.58.47,1.97.31.39.81.58,1.5.58.5,0,1.01-.13,1.55-.38l.29,1.71c-.81.21-1.69.31-2.66.31-.87,0-1.6-.32-2.2-.97-.6-.65-.9-1.46-.9-2.45v-6.23Z"/>
      <path class="cls-4" d="m506.86,341.64v-6.95c0-1.73-.75-2.59-2.25-2.59-.47,0-.91.15-1.32.44-.41.29-.69.62-.84.99v8.12h-1.95v-7.8c0-.54-.2-.97-.61-1.28-.41-.31-.95-.47-1.62-.47-.39,0-.8.15-1.25.45-.44.3-.75.63-.94,1v8.1h-1.95v-10.98h1.27l.65,1.27c.75-.98,1.69-1.48,2.82-1.48,1.57,0,2.67.49,3.3,1.47.22-.42.63-.77,1.22-1.05s1.21-.42,1.83-.42c1.13,0,2.01.34,2.64,1.01.62.67.93,1.62.93,2.83v7.34h-1.95Z"/>
      <path class="cls-4" d="m517.78,340.38c-.78.98-1.97,1.47-3.58,1.47-.86,0-1.61-.31-2.24-.94-.63-.62-.95-1.4-.95-2.33,0-1.11.49-2.06,1.46-2.82.97-.77,2.22-1.15,3.73-1.15.41,0,.88.09,1.39.27,0-1.78-.79-2.67-2.38-2.67-1.22,0-2.15.33-2.81.98l-.82-1.63c.37-.3.88-.56,1.53-.77.65-.21,1.28-.32,1.87-.32,1.59,0,2.75.36,3.47,1.09.72.72,1.08,1.88,1.08,3.46v3.94c0,.96.29,1.61.86,1.93v.97c-.79,0-1.39-.11-1.78-.34-.39-.23-.67-.6-.85-1.12Zm-.18-4.13c-.62-.14-1.05-.21-1.29-.21-.98,0-1.79.25-2.41.76s-.93,1.1-.93,1.79c0,1.14.67,1.71,2.02,1.71.98,0,1.86-.47,2.62-1.41v-2.66Z"/>
      <path class="cls-4" d="m526.81,343.51c-.25.7-.78,1.28-1.59,1.74-.81.46-1.71.7-2.71.7v-1.74c.81,0,1.51-.19,2.09-.57.58-.38.87-.84.87-1.39,0-.6-.11-1.2-.32-1.78-.21-.58-.49-1.31-.82-2.17l-2.97-7.64h1.99l3.23,8.49,2.9-8.49h1.99l-4.66,12.85Z"/>
      <path class="cls-4" d="m545.5,340.38c-.78.98-1.97,1.47-3.58,1.47-.86,0-1.61-.31-2.24-.94-.63-.62-.95-1.4-.95-2.33,0-1.11.49-2.06,1.46-2.82.97-.77,2.22-1.15,3.73-1.15.41,0,.88.09,1.39.27,0-1.78-.79-2.67-2.38-2.67-1.22,0-2.15.33-2.81.98l-.82-1.63c.37-.3.88-.56,1.53-.77.65-.21,1.28-.32,1.87-.32,1.59,0,2.75.36,3.47,1.09.72.72,1.08,1.88,1.08,3.46v3.94c0,.96.29,1.61.86,1.93v.97c-.79,0-1.39-.11-1.78-.34-.39-.23-.67-.6-.85-1.12Zm-.18-4.13c-.62-.14-1.05-.21-1.29-.21-.98,0-1.79.25-2.41.76s-.93,1.1-.93,1.79c0,1.14.67,1.71,2.02,1.71.98,0,1.86-.47,2.61-1.41v-2.66Z"/>
      <path class="cls-4" d="m557.29,341.63v-.81c-.68.68-1.66,1.02-2.95,1.02-1.37,0-2.49-.49-3.34-1.48s-1.28-2.3-1.28-3.94.49-3.05,1.48-4.22c.98-1.17,2.16-1.75,3.52-1.75,1.13,0,2,.27,2.58.8v-5.1h1.95v15.47h-1.95Zm0-8.43c-.49-.74-1.17-1.11-2.02-1.11-1.05,0-1.89.39-2.54,1.17-.65.78-.97,1.77-.97,2.97,0,2.65,1.2,3.97,3.61,3.97.31,0,.68-.1,1.11-.29.43-.2.7-.4.81-.62v-6.09Z"/>
      <path class="cls-4" d="m568.99,341.63v-.81c-.68.68-1.66,1.02-2.95,1.02-1.37,0-2.49-.49-3.34-1.48s-1.28-2.3-1.28-3.94.49-3.05,1.48-4.22c.98-1.17,2.16-1.75,3.52-1.75,1.13,0,2,.27,2.58.8v-5.1h1.95v15.47h-1.95Zm0-8.43c-.49-.74-1.17-1.11-2.02-1.11-1.05,0-1.89.39-2.54,1.17-.65.78-.97,1.77-.97,2.97,0,2.65,1.2,3.97,3.61,3.97.31,0,.68-.1,1.11-.29.43-.2.7-.4.81-.62v-6.09Z"/>
      <path class="cls-4" d="m581.9,330.66v7c0,1.7.74,2.54,2.21,2.54.64,0,1.23-.18,1.76-.55s.88-.8,1.06-1.28v-7.71h1.95v10.98h-1.95v-1.52c-.22.43-.66.83-1.32,1.18-.66.36-1.3.54-1.93.54-1.2,0-2.12-.34-2.76-1.04-.64-.69-.96-1.67-.96-2.94v-7.21h1.95Z"/>
      <path class="cls-4" d="m593.48,341.04v4.91h-1.95v-15.29h1.95v.9c.74-.74,1.63-1.11,2.68-1.11,1.56,0,2.77.49,3.64,1.46s1.3,2.39,1.3,4.27c0,1.67-.44,3.03-1.31,4.09-.88,1.06-2.14,1.58-3.79,1.58-.46,0-.96-.08-1.49-.25-.53-.16-.87-.35-1.02-.56Zm0-8.01v6.4c.12.18.38.36.78.53.4.17.78.25,1.16.25,2.42,0,3.63-1.37,3.63-4.1,0-1.39-.29-2.4-.86-3.04s-1.49-.96-2.76-.96c-.27,0-.61.1-1,.29-.4.19-.71.41-.94.65Z"/>
      <path class="cls-4" d="m610.25,332.2h-1.27v-1.54h1.27v-2.3l1.95-.75v3.04h3.01v1.54h-3.01v5.46c0,.92.16,1.58.47,1.97.31.39.81.58,1.5.58.5,0,1.01-.13,1.55-.38l.29,1.71c-.81.21-1.69.31-2.66.31-.87,0-1.6-.32-2.2-.97-.6-.65-.9-1.46-.9-2.45v-6.23Z"/>
      <path class="cls-4" d="m617.17,336.13c0-1.7.46-3.06,1.37-4.11.91-1.04,2.11-1.56,3.6-1.56,1.57,0,2.79.5,3.66,1.5.87,1,1.3,2.39,1.3,4.17s-.44,3.17-1.33,4.19c-.89,1.02-2.1,1.53-3.63,1.53s-2.79-.52-3.66-1.55c-.88-1.03-1.31-2.42-1.31-4.17Zm2.05,0c0,2.75.97,4.13,2.92,4.13.91,0,1.62-.37,2.14-1.11.52-.74.77-1.75.77-3.02,0-2.72-.97-4.08-2.91-4.08-.89,0-1.6.36-2.13,1.09-.53.72-.79,1.72-.79,2.99Z"/>
      <path class="cls-4" d="m636.47,334.31l-.7-.48v-7.27h7.48v1.74h-5.53v3.65c.51-.38,1.15-.56,1.93-.56,1.39,0,2.46.42,3.19,1.25.73.83,1.1,2.02,1.1,3.56,0,3.77-1.68,5.65-5.04,5.65-1.4,0-2.56-.39-3.49-1.17l.79-1.71c.93.76,1.83,1.14,2.69,1.14,1.93,0,2.89-1.2,2.89-3.61,0-2.24-.95-3.36-2.85-3.36-.92,0-1.74.39-2.47,1.18Z"/>
      <path class="cls-4" d="m653.52,332.2h-1.27v-1.54h1.27v-2.3l1.95-.75v3.04h3.01v1.54h-3.01v5.46c0,.92.16,1.58.47,1.97.31.39.81.58,1.5.58.5,0,1.02-.13,1.55-.38l.29,1.71c-.81.21-1.69.31-2.66.31-.87,0-1.6-.32-2.2-.97-.6-.65-.9-1.46-.9-2.45v-6.23Z"/>
      <path class="cls-4" d="m670.39,336.34h-7.92c0,1.29.35,2.27,1.06,2.96.62.6,1.42.9,2.4.9,1.11,0,2.04-.32,2.79-.97l.82,1.41c-.3.3-.76.56-1.38.78-.78.29-1.65.43-2.6.43-1.38,0-2.55-.47-3.52-1.4-1.07-1.03-1.61-2.42-1.61-4.16s.55-3.26,1.65-4.36c.98-.98,2.15-1.47,3.5-1.47,1.57,0,2.79.44,3.68,1.32.86.85,1.29,1.97,1.29,3.37,0,.43-.05.83-.15,1.19Zm-4.73-4.25c-.87,0-1.6.28-2.18.84-.56.53-.88,1.2-.95,1.99h6.08c0-.79-.25-1.44-.74-1.97-.54-.57-1.27-.86-2.2-.86Z"/>
      <path class="cls-4" d="m678.8,340.38c-.78.98-1.97,1.47-3.58,1.47-.86,0-1.61-.31-2.24-.94-.63-.62-.95-1.4-.95-2.33,0-1.11.49-2.06,1.46-2.82.97-.77,2.22-1.15,3.73-1.15.41,0,.88.09,1.39.27,0-1.78-.79-2.67-2.38-2.67-1.22,0-2.15.33-2.81.98l-.82-1.63c.37-.3.88-.56,1.53-.77.65-.21,1.28-.32,1.87-.32,1.59,0,2.75.36,3.47,1.09.72.72,1.08,1.88,1.08,3.46v3.94c0,.96.29,1.61.86,1.93v.97c-.79,0-1.39-.11-1.78-.34-.39-.23-.67-.6-.85-1.12Zm-.18-4.13c-.62-.14-1.05-.21-1.29-.21-.98,0-1.79.25-2.41.76s-.93,1.1-.93,1.79c0,1.14.67,1.71,2.02,1.71.98,0,1.86-.47,2.61-1.41v-2.66Z"/>
      <path class="cls-4" d="m682.91,340.99l.69-1.85c1.09.71,1.96,1.07,2.62,1.07,1.2,0,1.8-.51,1.8-1.52,0-.72-.58-1.35-1.74-1.87-.9-.41-1.5-.72-1.81-.93-.31-.21-.58-.45-.81-.72-.23-.27-.4-.56-.51-.86-.11-.3-.17-.63-.17-.98,0-.9.33-1.61.98-2.11s1.51-.76,2.57-.76c.8,0,1.81.25,3.02.76l-.55,1.8c-.77-.62-1.55-.92-2.33-.92-.46,0-.86.11-1.17.33-.32.22-.48.5-.48.83,0,.7.4,1.24,1.2,1.6l1.39.64c.85.39,1.48.83,1.87,1.33s.58,1.12.58,1.88c0,.98-.34,1.76-1.04,2.31-.69.56-1.65.84-2.87.84-1.16,0-2.24-.29-3.26-.86Z"/>
      <path class="cls-4" d="m694.08,341.04v4.91h-1.95v-15.29h1.95v.9c.74-.74,1.63-1.11,2.68-1.11,1.56,0,2.77.49,3.64,1.46s1.3,2.39,1.3,4.27c0,1.67-.44,3.03-1.31,4.09-.88,1.06-2.14,1.58-3.79,1.58-.46,0-.96-.08-1.49-.25-.53-.16-.87-.35-1.02-.56Zm0-8.01v6.4c.12.18.38.36.78.53.4.17.78.25,1.16.25,2.42,0,3.63-1.37,3.63-4.1,0-1.39-.29-2.4-.86-3.04s-1.49-.96-2.76-.96c-.27,0-.61.1-1,.29-.4.19-.71.41-.94.65Z"/>
      <path class="cls-4" d="m703.11,336.13c0-1.7.46-3.06,1.37-4.11.91-1.04,2.11-1.56,3.6-1.56,1.57,0,2.79.5,3.66,1.5.87,1,1.3,2.39,1.3,4.17s-.44,3.17-1.33,4.19c-.89,1.02-2.1,1.53-3.63,1.53s-2.79-.52-3.66-1.55c-.88-1.03-1.31-2.42-1.31-4.17Zm2.05,0c0,2.75.97,4.13,2.92,4.13.91,0,1.62-.37,2.14-1.11.52-.74.77-1.75.77-3.02,0-2.72-.97-4.08-2.91-4.08-.89,0-1.6.36-2.13,1.09-.53.72-.79,1.72-.79,2.99Z"/>
      <path class="cls-4" d="m714.38,336.13c0-1.7.46-3.06,1.37-4.11.91-1.04,2.11-1.56,3.6-1.56,1.57,0,2.79.5,3.66,1.5.87,1,1.3,2.39,1.3,4.17s-.44,3.17-1.33,4.19c-.89,1.02-2.1,1.53-3.63,1.53s-2.79-.52-3.66-1.55c-.88-1.03-1.31-2.42-1.31-4.17Zm2.05,0c0,2.75.97,4.13,2.92,4.13.91,0,1.62-.37,2.14-1.11.52-.74.77-1.75.77-3.02,0-2.72-.97-4.08-2.91-4.08-.89,0-1.6.36-2.13,1.09-.53.72-.79,1.72-.79,2.99Z"/>
      <path class="cls-4" d="m733.13,341.64v-6.39c0-1.17-.18-1.99-.53-2.46-.35-.47-.94-.7-1.77-.7-.44,0-.91.13-1.39.4s-.86.59-1.12.98v8.16h-1.95v-10.98h1.33l.62,1.42c.64-1.08,1.69-1.62,3.15-1.62,2.41,0,3.61,1.46,3.61,4.39v6.8h-1.95Z"/>
      <path class="cls-4" d="m737.13,340.99l.69-1.85c1.09.71,1.96,1.07,2.62,1.07,1.2,0,1.8-.51,1.8-1.52,0-.72-.58-1.35-1.74-1.87-.9-.41-1.5-.72-1.81-.93-.31-.21-.58-.45-.81-.72-.23-.27-.4-.56-.51-.86-.11-.3-.17-.63-.17-.98,0-.9.33-1.61.98-2.11s1.51-.76,2.57-.76c.8,0,1.81.25,3.03.76l-.55,1.8c-.77-.62-1.55-.92-2.33-.92-.46,0-.86.11-1.17.33-.32.22-.48.5-.48.83,0,.7.4,1.24,1.2,1.6l1.39.64c.85.39,1.48.83,1.87,1.33s.58,1.12.58,1.88c0,.98-.35,1.76-1.04,2.31-.69.56-1.65.84-2.87.84-1.16,0-2.24-.29-3.26-.86Z"/>
      <path class="cls-4" d="m751.95,336.13c0-1.7.46-3.06,1.37-4.11.91-1.04,2.11-1.56,3.6-1.56,1.57,0,2.79.5,3.66,1.5.87,1,1.3,2.39,1.3,4.17s-.44,3.17-1.33,4.19c-.89,1.02-2.1,1.53-3.63,1.53s-2.79-.52-3.66-1.55c-.88-1.03-1.31-2.42-1.31-4.17Zm2.05,0c0,2.75.97,4.13,2.92,4.13.91,0,1.62-.37,2.14-1.11.52-.74.77-1.75.77-3.02,0-2.72-.97-4.08-2.91-4.08-.89,0-1.6.36-2.13,1.09-.53.72-.79,1.72-.79,2.99Z"/>
      <path class="cls-4" d="m769.88,327.9c-.4-.14-.77-.21-1.11-.21-.59,0-1.08.23-1.47.68-.39.45-.58,1.02-.58,1.71,0,.19.02.38.05.57h2.24v1.64h-2.24v9.34h-1.95v-9.34h-1.6v-1.64h1.6c0-1.4.34-2.5,1.04-3.3.69-.8,1.6-1.2,2.74-1.2.57,0,1.18.1,1.83.31l-.54,1.44Z"/>
      <path class="cls-4" d="m493.43,366.19l.69-1.85c1.09.71,1.96,1.07,2.62,1.07,1.2,0,1.8-.51,1.8-1.52,0-.72-.58-1.35-1.74-1.87-.9-.41-1.5-.72-1.81-.93-.31-.21-.58-.45-.81-.72-.23-.27-.4-.56-.51-.86-.11-.3-.17-.63-.17-.98,0-.9.33-1.61.98-2.11s1.51-.76,2.57-.76c.8,0,1.81.25,3.03.76l-.55,1.8c-.77-.62-1.55-.92-2.33-.92-.46,0-.86.11-1.17.33-.32.22-.48.5-.48.83,0,.7.4,1.24,1.2,1.6l1.39.64c.85.39,1.48.83,1.87,1.33s.58,1.12.58,1.88c0,.98-.35,1.76-1.04,2.31-.69.56-1.65.84-2.87.84-1.16,0-2.24-.29-3.26-.86Z"/>
      <path class="cls-4" d="m504.5,355.86v7c0,1.7.73,2.54,2.2,2.54.64,0,1.23-.18,1.76-.55s.89-.8,1.06-1.28v-7.71h1.95v10.98h-1.95v-1.52c-.22.43-.66.83-1.32,1.18-.66.36-1.3.54-1.93.54-1.2,0-2.12-.34-2.76-1.04-.64-.69-.96-1.67-.96-2.94v-7.21h1.95Z"/>
      <path class="cls-4" d="m513.72,369.85l1.06-1.56c1.13.76,2.18,1.14,3.14,1.14.88,0,1.58-.15,2.09-.46.51-.3.76-.68.76-1.13,0-.89-.64-1.33-1.93-1.33-.22,0-.62.05-1.19.16s-1.02.16-1.34.16c-1.56,0-2.34-.59-2.34-1.76,0-.36.18-.69.55-.98.37-.29.82-.51,1.36-.64-1.54-.72-2.32-1.98-2.32-3.77,0-1.15.4-2.1,1.2-2.87.8-.76,1.79-1.15,2.96-1.15,1.08,0,1.92.22,2.53.67l.97-1.17,1.27,1.2-1.17.88c.5.65.75,1.5.75,2.54,0,1.11-.34,2.04-1.04,2.79s-1.6,1.18-2.72,1.29l-1.61.16c-.19.02-.45.09-.77.22-.32.13-.48.29-.48.5,0,.28.33.42,1,.42.29,0,.75-.05,1.37-.16.62-.11,1.08-.16,1.38-.16,1.08,0,1.92.26,2.53.77.6.52.91,1.23.91,2.15,0,1.01-.45,1.83-1.36,2.45-.91.62-2.05.93-3.44.93-.71,0-1.46-.13-2.25-.38-.79-.25-1.42-.56-1.9-.92Zm4.13-12.62c-.68,0-1.23.24-1.66.72-.43.48-.64,1.06-.64,1.74,0,.77.21,1.4.62,1.9.41.5.97.75,1.68.75s1.23-.24,1.62-.73c.39-.49.58-1.13.58-1.92,0-.68-.21-1.26-.63-1.74-.42-.48-.95-.72-1.57-.72Z"/>
      <path class="cls-4" d="m530.87,365.58c-.78.98-1.97,1.47-3.58,1.47-.86,0-1.61-.31-2.24-.94-.63-.62-.95-1.4-.95-2.33,0-1.11.49-2.06,1.46-2.82.97-.77,2.22-1.15,3.73-1.15.41,0,.88.09,1.39.27,0-1.78-.79-2.67-2.38-2.67-1.22,0-2.15.33-2.81.98l-.82-1.63c.37-.3.88-.56,1.53-.77.65-.21,1.28-.32,1.87-.32,1.59,0,2.75.36,3.47,1.09.72.72,1.08,1.88,1.08,3.46v3.94c0,.96.29,1.61.86,1.93v.97c-.79,0-1.39-.11-1.78-.34-.39-.23-.67-.6-.85-1.12Zm-.18-4.13c-.62-.14-1.05-.21-1.29-.21-.98,0-1.79.25-2.41.76s-.93,1.1-.93,1.79c0,1.14.67,1.71,2.02,1.71.98,0,1.86-.47,2.62-1.41v-2.66Z"/>
      <path class="cls-4" d="m541.67,357.74c-.42-.29-.85-.44-1.28-.44-.69,0-1.29.32-1.81.95-.52.64-.77,1.4-.77,2.3v6.3h-1.95v-10.98h1.95v1.75c.71-1.31,1.77-1.96,3.17-1.96.35,0,.85.06,1.51.19l-.81,1.9Z"/>
      <path class="cls-4" d="m556.39,365.58c-.78.98-1.97,1.47-3.58,1.47-.86,0-1.61-.31-2.24-.94-.63-.62-.95-1.4-.95-2.33,0-1.11.49-2.06,1.46-2.82.97-.77,2.22-1.15,3.73-1.15.41,0,.88.09,1.39.27,0-1.78-.79-2.67-2.38-2.67-1.22,0-2.15.33-2.81.98l-.82-1.63c.37-.3.88-.56,1.53-.77.65-.21,1.28-.32,1.87-.32,1.59,0,2.75.36,3.47,1.09.72.72,1.08,1.88,1.08,3.46v3.94c0,.96.29,1.61.86,1.93v.97c-.79,0-1.39-.11-1.78-.34-.39-.23-.67-.6-.85-1.12Zm-.18-4.13c-.62-.14-1.05-.21-1.29-.21-.98,0-1.79.25-2.41.76s-.93,1.1-.93,1.79c0,1.14.67,1.71,2.02,1.71.98,0,1.86-.47,2.61-1.41v-2.66Z"/>
      <path class="cls-4" d="m569.51,356.75l-.96,1.37c-.2-.2-.55-.39-1.05-.56-.5-.18-1-.27-1.48-.27-1.06,0-1.9.37-2.52,1.11-.62.74-.93,1.76-.93,3.05s.32,2.26.95,2.94c.64.67,1.52,1.01,2.65,1.01.88,0,1.76-.34,2.65-1.02l.77,1.64c-1.05.68-2.34,1.02-3.89,1.02s-2.73-.5-3.71-1.51c-.98-1-1.47-2.36-1.47-4.08s.51-3.16,1.52-4.21c1.01-1.06,2.4-1.59,4.17-1.59.57,0,1.18.12,1.85.36s1.15.49,1.47.74Z"/>
      <path class="cls-4" d="m579.9,356.75l-.96,1.37c-.2-.2-.55-.39-1.05-.56-.5-.18-1-.27-1.48-.27-1.06,0-1.9.37-2.52,1.11-.62.74-.93,1.76-.93,3.05s.32,2.26.95,2.94c.64.67,1.52,1.01,2.65,1.01.88,0,1.76-.34,2.65-1.02l.77,1.64c-1.05.68-2.34,1.02-3.89,1.02s-2.73-.5-3.71-1.51c-.98-1-1.47-2.36-1.47-4.08s.51-3.16,1.52-4.21c1.01-1.06,2.4-1.59,4.17-1.59.57,0,1.18.12,1.85.36s1.15.49,1.47.74Z"/>
      <path class="cls-4" d="m582.96,366.84v-9.34h-1.51v-1.64h3.46v10.98h-1.95Zm1.07-15.13c.33,0,.62.12.86.35s.35.52.35.85-.12.62-.35.86c-.24.24-.52.35-.86.35s-.61-.12-.85-.35-.35-.52-.35-.86.12-.62.35-.85.52-.35.85-.35Z"/>
      <path class="cls-4" d="m594.97,366.83v-.81c-.68.68-1.66,1.02-2.95,1.02-1.37,0-2.49-.49-3.34-1.48s-1.28-2.3-1.28-3.94.49-3.05,1.48-4.22c.98-1.17,2.16-1.75,3.52-1.75,1.13,0,2,.27,2.58.8v-5.1h1.95v15.47h-1.95Zm0-8.43c-.49-.74-1.17-1.11-2.02-1.11-1.05,0-1.89.39-2.54,1.17-.65.78-.97,1.77-.97,2.97,0,2.65,1.2,3.97,3.61,3.97.31,0,.68-.1,1.11-.29.43-.2.7-.4.81-.62v-6.09Z"/>
      <path class="cls-4" d="m608.95,361.54h-7.92c0,1.29.35,2.27,1.06,2.96.62.6,1.42.9,2.4.9,1.11,0,2.04-.32,2.79-.97l.82,1.41c-.3.3-.76.56-1.38.78-.78.29-1.65.43-2.6.43-1.38,0-2.55-.47-3.52-1.4-1.07-1.03-1.61-2.42-1.61-4.16s.55-3.26,1.65-4.36c.98-.98,2.15-1.47,3.5-1.47,1.57,0,2.79.44,3.68,1.32.86.85,1.29,1.97,1.29,3.37,0,.43-.05.83-.15,1.19Zm-4.73-4.25c-.87,0-1.6.28-2.18.84-.56.53-.88,1.2-.95,1.99h6.08c0-.79-.25-1.44-.74-1.97-.54-.57-1.27-.86-2.2-.86Z"/>
      <path class="cls-4" d="m617.91,366.84v-6.39c0-1.17-.18-1.99-.53-2.46-.35-.47-.94-.7-1.77-.7-.44,0-.91.13-1.39.4s-.86.59-1.12.98v8.16h-1.95v-10.98h1.33l.62,1.42c.64-1.08,1.69-1.62,3.15-1.62,2.41,0,3.61,1.46,3.61,4.39v6.8h-1.95Z"/>
      <path class="cls-4" d="m623.33,357.4h-1.27v-1.54h1.27v-2.3l1.95-.75v3.04h3.01v1.54h-3.01v5.46c0,.92.16,1.58.47,1.97.31.39.81.58,1.5.58.5,0,1.02-.13,1.55-.38l.29,1.71c-.81.21-1.69.31-2.66.31-.87,0-1.6-.32-2.2-.97-.6-.65-.9-1.46-.9-2.45v-6.23Z"/>
      <path class="cls-4" d="m637.16,365.58c-.78.98-1.97,1.47-3.58,1.47-.86,0-1.61-.31-2.24-.94-.63-.62-.95-1.4-.95-2.33,0-1.11.49-2.06,1.46-2.82.97-.77,2.22-1.15,3.73-1.15.41,0,.88.09,1.39.27,0-1.78-.79-2.67-2.38-2.67-1.22,0-2.15.33-2.81.98l-.82-1.63c.37-.3.88-.56,1.53-.77.65-.21,1.28-.32,1.87-.32,1.59,0,2.75.36,3.47,1.09.72.72,1.08,1.88,1.08,3.46v3.94c0,.96.29,1.61.86,1.93v.97c-.79,0-1.39-.11-1.78-.34-.39-.23-.67-.6-.85-1.12Zm-.18-4.13c-.62-.14-1.05-.21-1.29-.21-.98,0-1.79.25-2.41.76s-.93,1.1-.93,1.79c0,1.14.67,1.71,2.02,1.71.98,0,1.86-.47,2.62-1.41v-2.66Z"/>
      <path class="cls-4" d="m642.14,363.74v-12.38h1.95v12.05c0,.59.17,1.05.51,1.39.34.34.78.51,1.33.51v1.74c-2.52,0-3.78-1.1-3.78-3.31Z"/>
      <path class="cls-4" d="m648.34,363.74v-12.38h1.95v12.05c0,.59.17,1.05.51,1.39.34.34.78.51,1.33.51v1.74c-2.52,0-3.78-1.1-3.78-3.31Z"/>
      <path class="cls-4" d="m658.57,368.71c-.25.7-.78,1.28-1.59,1.74-.81.46-1.71.7-2.71.7v-1.74c.81,0,1.51-.19,2.09-.57.58-.38.87-.84.87-1.39,0-.6-.11-1.2-.32-1.78-.21-.58-.49-1.31-.82-2.17l-2.97-7.64h1.99l3.23,8.49,2.9-8.49h1.99l-4.66,12.85Z"/>
      <path class="cls-4" d="m667.29,363.96c.42,0,.79.15,1.09.45s.45.66.45,1.09-.15.79-.45,1.09c-.3.3-.66.46-1.09.46s-.79-.15-1.09-.46c-.3-.3-.45-.67-.45-1.09s.15-.79.45-1.09.66-.45,1.09-.45Zm.3-1.04h-.73c-.53-3.44-.79-5.83-.79-7.17v-4.21h2.32v4.19c0,1.31-.27,3.7-.8,7.18Z"/>
    </g>
    <g>
      <g>
        <path class="cls-6" d="m315.4,263.26h-180.72c-3.38,0-6.53-1.75-8.3-4.63l-11.86-19.19,217.31-1.97-7.28,19.46c-1.43,3.81-5.07,6.34-9.14,6.34Z"/>
        <ellipse class="cls-7" cx="223.25" cy="232.16" rx="122.05" ry="15.99"/>
        <ellipse class="cls-5" cx="223.25" cy="231.95" rx="97.6" ry="10.67"/>
        <g>
          <path class="cls-10" d="m244.42,139c-29.21-14.39-57.82-14.76-85.78,0,0,0-11.88,5.46-11.88,12.19v4.76c0,5.61,3.69,10.33,8.72,11.75v64.26h92.1v-64.26c5.02-1.42,8.72-6.14,8.72-11.75v-4.76c0-6.73-11.88-12.19-11.88-12.19Z"/>
          <path class="cls-8" d="m237.24,176.91c.47,64.87-23.31.36-34.99,31.08-9.05,23.79-25.43,22.73-34.99-31.08-7.98-44.89,19.12-19.77,34.99-31.08,16.49-11.75,34.82,7.54,34.99,31.08Z"/>
        </g>
        <g>
          <path class="cls-10" d="m288.05,137.94c-30.13-12.93-58.79-11.93-85.86,4.12,0,0-11.55,6.01-11.13,12.71l.29,4.74c.35,5.59,4.33,10.11,9.45,11.28l3.97,64.01,92.19-4.42-3.97-64.01c4.94-1.66,8.34-6.53,8-12.12l-.29-4.74c-.42-6.7-12.64-11.57-12.64-11.57Z"/>
          <path class="cls-8" d="m283.19,176.05c4.48,64.59-23.31,1.48-33.11,32.64-7.59,24.13-24.05,23.86-36.94-29.28-10.75-44.33,17.92-20.61,33.11-32.64,15.78-12.5,35.32,5.84,36.94,29.28Z"/>
        </g>
      </g>
      <rect class="cls-3" x="246.02" y="167.8" width="31.23" height="31.23" rx="4.84" ry="4.84"/>
    </g>
  </g>
</svg>