<?xml version="1.0" encoding="UTF-8"?>
<svg id="Layer_2" data-name="Layer 2" xmlns="http://www.w3.org/2000/svg" viewBox="0 0 93.85 71.15">
  <defs>
    <style>
      .cls-1 {
        fill: #f2ec63;
      }

      .cls-2 {
        fill: #fff;
      }

      .cls-3 {
        fill: #a24123;
      }

      .cls-4, .cls-5 {
        fill: #c64127;
      }

      .cls-6 {
        fill: #484021;
      }

      .cls-5 {
        stroke: #aa4227;
        stroke-width: 2px;
      }

      .cls-5, .cls-7 {
        stroke-miterlimit: 10;
      }

      .cls-7 {
        fill: #bc8d2d;
        stroke: #9a5825;
        stroke-width: 3px;
      }
    </style>
  </defs>
  <g id="exploreSugar">
    <g>
      <rect class="cls-2" x="0" y="0" width="93.85" height="71.15" rx="35.57" ry="35.57"/>
      <g>
        <g>
          <path class="cls-4" d="m73.55,57.05H21.64c-.97,0-1.87-.5-2.39-1.33l-3.41-5.51,62.42-.57-2.09,5.59c-.41,1.1-1.46,1.82-2.63,1.82Z"/>
          <ellipse class="cls-5" cx="47.08" cy="48.12" rx="35.06" ry="4.59"/>
          <ellipse class="cls-3" cx="47.08" cy="48.05" rx="28.04" ry="3.07"/>
          <g>
            <path class="cls-7" d="m53.16,21.36c-8.39-4.13-16.61-4.24-24.64,0,0,0-3.41,1.57-3.41,3.5v1.37c0,1.61,1.06,2.97,2.5,3.37v18.46h26.46v-18.46c1.44-.41,2.5-1.76,2.5-3.37v-1.37c0-1.93-3.41-3.5-3.41-3.5Z"/>
            <path class="cls-6" d="m51.1,32.25c.14,18.63-6.7.1-10.05,8.93-2.6,6.83-7.3,6.53-10.05-8.93-2.29-12.89,5.49-5.68,10.05-8.93,4.74-3.38,10,2.17,10.05,8.93Z"/>
          </g>
          <g>
            <path class="cls-7" d="m65.69,21.05c-8.65-3.72-16.89-3.43-24.66,1.18,0,0-3.32,1.72-3.2,3.65l.08,1.36c.1,1.6,1.24,2.9,2.71,3.24l1.14,18.39,26.48-1.27-1.14-18.39c1.42-.48,2.4-1.88,2.3-3.48l-.08-1.36c-.12-1.93-3.63-3.32-3.63-3.32Z"/>
            <path class="cls-6" d="m64.3,32c1.29,18.55-6.7.43-9.51,9.38-2.18,6.93-6.91,6.85-10.61-8.41-3.09-12.73,5.15-5.92,9.51-9.38,4.53-3.59,10.14,1.68,10.61,8.41Z"/>
          </g>
        </g>
        <rect class="cls-1" x="53.62" y="27.47" width="8.97" height="8.97" rx="2.01" ry="2.01"/>
      </g>
    </g>
  </g>
</svg>