<?xml version="1.0" encoding="UTF-8"?>
<svg id="Layer_2" data-name="Layer 2" xmlns="http://www.w3.org/2000/svg" viewBox="0 0 860.4 443.37">
  <defs>
    <style>
      .cls-1 {
        letter-spacing: -.02em;
      }

      .cls-2 {
        letter-spacing: -.13em;
      }

      .cls-3 {
        fill: #f2ec63;
      }

      .cls-4 {
        fill: #f1f2f2;
      }

      .cls-5 {
        fill: #a24123;
      }

      .cls-6, .cls-7 {
        fill: #c64127;
      }

      .cls-8 {
        fill: #484021;
      }

      .cls-9 {
        fill: #3b57a7;
      }

      .cls-10 {
        fill: #bc8d2d;
        stroke: #9a5825;
        stroke-width: 10px;
      }

      .cls-10, .cls-7, .cls-11, .cls-12 {
        stroke-miterlimit: 10;
      }

      .cls-13 {
        letter-spacing: -.03em;
      }

      .cls-7 {
        stroke: #aa4227;
        stroke-width: 2px;
      }

      .cls-14 {
        fill: #d6cdd5;
        font-size: 28px;
      }

      .cls-14, .cls-15, .cls-16 {
        font-family: TrebuchetMS-Bold, 'Trebuchet MS';
        font-weight: 700;
      }

      .cls-11 {
        fill: #72cbcb;
      }

      .cls-11, .cls-12 {
        stroke: #72cbcb;
      }

      .cls-15 {
        font-size: 27px;
      }

      .cls-15, .cls-12, .cls-16 {
        fill: #fff;
      }

      .cls-12 {
        stroke-width: 3px;
      }

      .cls-16 {
        font-size: 39px;
      }
    </style>
  </defs>
  <g id="exploreSugar">
    <rect class="cls-9" x="0" y="0" width="860.4" height="431.75" rx="57.84" ry="57.84"/>
    <g>
      <g>
        <path class="cls-11" d="m495.98,157.35c-8.13,0-14.72,2.22-14.72,4.96,0,5.92,6.59,10.71,14.72,10.71s14.72-4.8,14.72-10.71c0-2.74-6.59-4.96-14.72-4.96Z"/>
        <path class="cls-11" d="m556.97,147.05c-.66-.77-1.73-1.03-2.74-1.13-5.63-.52-10.83,2.77-15.58,5.84-1.2.77-22.61,11.34-27.46,10.67l-.48,2.27c7.88.19,39.16-9.22,42.99-11.35,1.19-.66,2.41-1.38,3.19-2.5s.97-2.76.09-3.8Z"/>
      </g>
      <path class="cls-12" d="m484.93,163.32c-.32.37.41.54.37,1.03-.05.47,1.3,1.11,4.38,1.22,5.68.19,11.8,1.42,17.1-.64.41-.16.53-.67.25-1l-8.34-9.54c-1.62-1.64-4.26-1.65-5.9-.04l-7.85,8.97"/>
    </g>
    <text class="cls-16" transform="translate(474.76 78.77)"><tspan x="0" y="0">Attack stats </tspan></text>
    <text class="cls-14" transform="translate(474.76 122.49)"><tspan x="0" y="0">teaspoons of sugar</tspan></text>
    <text class="cls-14" transform="translate(478.71 247.07)"><tspan x="0" y="0">defense st</tspan><tspan class="cls-13" x="135.06" y="0">r</tspan><tspan x="146.15" y="0">ategy</tspan></text>
    <circle class="cls-4" cx="223.25" cy="195.66" r="114.71"/>
    <text class="cls-15" transform="translate(164.74 365.33)"><tspan x="0" y="0">Kaya</tspan><tspan class="cls-1" x="59.84" y="0"> </tspan><tspan class="cls-2" x="67.49" y="0">T</tspan><tspan x="80.53" y="0">oast</tspan></text>
    <g>
      <path class="cls-4" d="m481.91,270.71c1.05,0,1.95.37,2.7,1.11.74.74,1.11,1.64,1.11,2.7s-.37,1.95-1.11,2.7c-.74.74-1.64,1.11-2.7,1.11s-1.95-.37-2.7-1.11c-.74-.74-1.11-1.64-1.11-2.7s.37-1.95,1.11-2.7c.74-.74,1.64-1.11,2.7-1.11Z"/>
      <path class="cls-4" d="m507.07,263.49l-.88,2.25c-.84-.62-2.17-.92-3.98-.92-1.7,0-3.06.73-4.08,2.19-1.02,1.46-1.54,3.34-1.54,5.64s.52,3.98,1.58,5.35c1.05,1.37,2.41,2.05,4.07,2.05,1.81,0,3.2-.64,4.18-1.93l1.45,2.02c-1.53,1.52-3.5,2.28-5.91,2.28s-4.51-.91-5.96-2.73-2.18-4.22-2.18-7.2.77-5.28,2.32-7.19c1.55-1.91,3.55-2.86,6-2.86,2.1,0,3.74.35,4.93,1.04Z"/>
      <path class="cls-4" d="m509.77,274.99c0-2.18.59-3.94,1.76-5.28,1.17-1.34,2.72-2.01,4.63-2.01,2.02,0,3.59.64,4.71,1.93,1.12,1.29,1.67,3.07,1.67,5.36s-.57,4.07-1.71,5.39c-1.14,1.31-2.7,1.97-4.67,1.97s-3.58-.66-4.71-1.99-1.69-3.12-1.69-5.37Zm2.64,0c0,3.54,1.25,5.31,3.76,5.31,1.17,0,2.08-.47,2.75-1.42.66-.95,1-2.25,1-3.89,0-3.5-1.25-5.25-3.74-5.25-1.14,0-2.05.47-2.74,1.4-.68.93-1.02,2.21-1.02,3.85Z"/>
      <path class="cls-4" d="m533.87,282.09v-8.21c0-1.5-.23-2.56-.68-3.16-.45-.6-1.21-.9-2.27-.9-.57,0-1.17.17-1.79.51s-1.1.76-1.44,1.27v10.49h-2.5v-14.12h1.71l.79,1.82c.83-1.39,2.18-2.08,4.05-2.08,3.09,0,4.64,1.88,4.64,5.64v8.74h-2.5Z"/>
      <path class="cls-4" d="m539.01,281.24l.88-2.37c1.4.91,2.52,1.37,3.38,1.37,1.55,0,2.32-.65,2.32-1.95,0-.93-.75-1.73-2.24-2.4-1.15-.53-1.93-.93-2.33-1.2-.4-.27-.75-.58-1.04-.93-.29-.35-.51-.72-.66-1.11-.15-.39-.22-.81-.22-1.26,0-1.16.42-2.07,1.27-2.72.84-.65,1.95-.97,3.31-.97,1.03,0,2.32.33,3.89.97l-.71,2.32c-.99-.79-1.99-1.19-2.99-1.19-.6,0-1.1.14-1.51.42-.41.28-.61.64-.61,1.07,0,.91.51,1.59,1.54,2.06l1.79.82c1.1.5,1.9,1.07,2.4,1.71s.75,1.45.75,2.41c0,1.27-.44,2.26-1.33,2.97-.89.72-2.12,1.07-3.69,1.07-1.49,0-2.88-.37-4.19-1.11Z"/>
      <path class="cls-4" d="m553.24,267.97v9c0,2.18.94,3.27,2.83,3.27.83,0,1.58-.24,2.27-.71s1.14-1.02,1.36-1.65v-9.91h2.5v14.12h-2.5v-1.95c-.28.55-.85,1.06-1.69,1.52-.85.46-1.68.69-2.49.69-1.55,0-2.73-.44-3.55-1.33-.82-.89-1.23-2.15-1.23-3.78v-9.27h2.5Z"/>
      <path class="cls-4" d="m581.97,282.09v-8.94c0-2.22-.96-3.33-2.89-3.33-.61,0-1.17.19-1.7.56-.53.37-.89.8-1.08,1.27v10.44h-2.5v-10.03c0-.69-.26-1.24-.78-1.64-.52-.4-1.21-.6-2.08-.6-.5,0-1.04.19-1.6.58-.57.39-.97.81-1.21,1.28v10.42h-2.5v-14.12h1.63l.83,1.63c.97-1.27,2.18-1.9,3.63-1.9,2.02,0,3.44.63,4.25,1.88.28-.54.8-.98,1.57-1.34s1.55-.54,2.36-.54c1.46,0,2.59.43,3.39,1.3.8.87,1.2,2.08,1.2,3.65v9.44h-2.5Z"/>
      <path class="cls-4" d="m599.92,275.27h-10.18c0,1.65.45,2.92,1.36,3.81.8.77,1.83,1.16,3.08,1.16,1.43,0,2.63-.42,3.59-1.25l1.05,1.81c-.39.39-.98.72-1.78,1-1,.37-2.12.55-3.35.55-1.78,0-3.28-.6-4.52-1.81-1.38-1.33-2.07-3.11-2.07-5.35s.71-4.2,2.12-5.6c1.27-1.26,2.76-1.88,4.5-1.88,2.01,0,3.59.57,4.73,1.7,1.11,1.09,1.66,2.54,1.66,4.34,0,.55-.07,1.06-.2,1.53Zm-6.08-5.46c-1.12,0-2.05.36-2.81,1.08-.72.69-1.13,1.54-1.23,2.56h7.82c0-1.01-.32-1.85-.95-2.53-.69-.74-1.64-1.11-2.83-1.11Z"/>
      <path class="cls-4" d="m623.94,282.35h-.66l-4.14-9.61-4.13,9.61h-.66l-5.05-14.42h2.68l3.02,9.27,3.76-9.27h.66l3.88,9.27,3.24-9.27h2.47l-5.06,14.42Z"/>
      <path class="cls-4" d="m632.19,282.09v-12.01h-1.94v-2.11h4.44v14.12h-2.5Zm1.37-19.46c.43,0,.8.15,1.1.46s.45.67.45,1.09-.15.8-.45,1.1c-.3.3-.67.45-1.1.45s-.78-.15-1.09-.45-.46-.67-.46-1.1.15-.8.45-1.09.66-.45,1.09-.45Z"/>
      <path class="cls-4" d="m639.58,269.94h-1.63v-1.98h1.63v-2.95l2.5-.96v3.92h3.88v1.98h-3.88v7.01c0,1.19.2,2.03.6,2.53.4.5,1.04.75,1.93.75.64,0,1.31-.16,1.99-.49l.37,2.2c-1.04.26-2.18.4-3.41.4-1.12,0-2.06-.42-2.83-1.25-.77-.83-1.15-1.88-1.15-3.14v-8.02Z"/>
      <path class="cls-4" d="m658.09,282.09v-8.87c0-1.05-.26-1.88-.78-2.49s-1.25-.91-2.19-.91c-.61,0-1.22.18-1.83.53-.61.36-1.08.77-1.4,1.25v10.49h-2.5v-19.91h2.5v7.34c.33-.52.87-.95,1.61-1.3.74-.35,1.51-.52,2.3-.52,1.49,0,2.67.49,3.51,1.48.85.98,1.27,2.33,1.27,4.03v8.87h-2.5Z"/>
      <path class="cls-4" d="m672.47,278.09v-15.91h2.5v15.49c0,.76.22,1.35.65,1.79.44.43,1,.65,1.71.65v2.24c-3.24,0-4.86-1.42-4.86-4.26Z"/>
      <path class="cls-4" d="m679.31,274.99c0-2.18.59-3.94,1.76-5.28,1.17-1.34,2.72-2.01,4.63-2.01,2.02,0,3.59.64,4.71,1.93,1.12,1.29,1.67,3.07,1.67,5.36s-.57,4.07-1.71,5.39c-1.14,1.31-2.7,1.97-4.67,1.97s-3.58-.66-4.71-1.99-1.69-3.12-1.69-5.37Zm2.64,0c0,3.54,1.25,5.31,3.76,5.31,1.17,0,2.08-.47,2.75-1.42.66-.95,1-2.25,1-3.89,0-3.5-1.25-5.25-3.74-5.25-1.14,0-2.05.47-2.74,1.4-.68.93-1.02,2.21-1.02,3.85Z"/>
      <path class="cls-4" d="m707.78,282.35h-.66l-4.14-9.61-4.13,9.61h-.66l-5.05-14.42h2.68l3.02,9.27,3.76-9.27h.66l3.88,9.27,3.24-9.27h2.47l-5.06,14.42Z"/>
      <path class="cls-4" d="m722.03,281.24l.88-2.37c1.4.91,2.52,1.37,3.38,1.37,1.55,0,2.32-.65,2.32-1.95,0-.93-.75-1.73-2.24-2.4-1.15-.53-1.93-.93-2.33-1.2-.4-.27-.75-.58-1.04-.93-.29-.35-.51-.72-.66-1.11-.15-.39-.22-.81-.22-1.26,0-1.16.42-2.07,1.27-2.72.84-.65,1.95-.97,3.31-.97,1.03,0,2.32.33,3.89.97l-.71,2.32c-.99-.79-1.99-1.19-2.99-1.19-.6,0-1.1.14-1.51.42-.41.28-.61.64-.61,1.07,0,.91.51,1.59,1.54,2.06l1.79.82c1.1.5,1.9,1.07,2.4,1.71s.75,1.45.75,2.41c0,1.27-.44,2.26-1.33,2.97-.89.72-2.12,1.07-3.69,1.07-1.49,0-2.88-.37-4.19-1.11Z"/>
      <path class="cls-4" d="m736.25,267.97v9c0,2.18.94,3.27,2.83,3.27.83,0,1.58-.24,2.27-.71s1.14-1.02,1.36-1.65v-9.91h2.5v14.12h-2.5v-1.95c-.28.55-.85,1.06-1.69,1.52-.85.46-1.68.69-2.49.69-1.55,0-2.73-.44-3.55-1.33-.82-.89-1.23-2.15-1.23-3.78v-9.27h2.5Z"/>
      <path class="cls-4" d="m748.12,285.95l1.36-2c1.46.97,2.8,1.46,4.03,1.46,1.13,0,2.03-.2,2.68-.59.65-.39.98-.88.98-1.46,0-1.14-.83-1.71-2.48-1.71-.28,0-.79.07-1.53.21-.74.14-1.31.21-1.73.21-2,0-3.01-.75-3.01-2.27,0-.46.23-.89.71-1.27.47-.38,1.05-.65,1.75-.82-1.99-.93-2.98-2.55-2.98-4.85,0-1.48.51-2.71,1.54-3.69s2.3-1.48,3.81-1.48c1.39,0,2.47.29,3.26.86l1.25-1.5,1.63,1.54-1.5,1.13c.64.84.96,1.93.96,3.27,0,1.42-.44,2.62-1.33,3.59-.89.97-2.05,1.52-3.49,1.66l-2.07.21c-.25.03-.58.12-.99.28-.41.16-.62.38-.62.64,0,.36.43.54,1.29.54.38,0,.97-.07,1.77-.2.8-.14,1.39-.2,1.78-.2,1.39,0,2.47.33,3.25,1,.78.66,1.17,1.58,1.17,2.76,0,1.3-.58,2.35-1.75,3.15-1.16.8-2.64,1.2-4.42,1.2-.91,0-1.88-.16-2.89-.49s-1.82-.72-2.44-1.19Zm5.31-16.23c-.87,0-1.58.31-2.13.92s-.82,1.36-.82,2.24c0,.98.27,1.8.8,2.45.53.65,1.25.97,2.16.97s1.58-.31,2.08-.94c.5-.63.75-1.45.75-2.47,0-.88-.27-1.63-.81-2.24-.54-.62-1.22-.92-2.02-.92Z"/>
      <path class="cls-4" d="m770.16,280.47c-1,1.26-2.54,1.88-4.6,1.88-1.11,0-2.07-.4-2.88-1.21-.81-.8-1.22-1.8-1.22-3,0-1.43.63-2.64,1.88-3.63,1.25-.99,2.85-1.48,4.79-1.48.53,0,1.12.11,1.79.34,0-2.28-1.02-3.43-3.06-3.43-1.56,0-2.77.42-3.61,1.27l-1.05-2.1c.47-.39,1.13-.72,1.97-1,.84-.28,1.64-.42,2.41-.42,2.05,0,3.54.47,4.46,1.4.93.93,1.39,2.41,1.39,4.44v5.06c0,1.24.37,2.07,1.11,2.48v1.25c-1.02,0-1.78-.14-2.29-.43-.51-.29-.87-.77-1.09-1.44Zm-.24-5.31c-.79-.18-1.34-.26-1.66-.26-1.27,0-2.3.33-3.1.98s-1.2,1.42-1.2,2.31c0,1.47.87,2.2,2.6,2.2,1.27,0,2.39-.6,3.36-1.81v-3.42Z"/>
      <path class="cls-4" d="m784.04,270.38c-.54-.38-1.09-.57-1.65-.57-.89,0-1.66.41-2.33,1.23s-1,1.8-1,2.95v8.09h-2.5v-14.12h2.5v2.25c.91-1.68,2.27-2.52,4.07-2.52.45,0,1.09.08,1.94.24l-1.04,2.44Z"/>
      <path class="cls-4" d="m503.5,314.47v-1.04c-.87.87-2.14,1.3-3.8,1.3-1.77,0-3.2-.63-4.3-1.9s-1.65-2.95-1.65-5.06.63-3.93,1.9-5.42c1.27-1.5,2.77-2.25,4.52-2.25,1.46,0,2.57.34,3.32,1.03v-6.55h2.5v19.89h-2.5Zm0-10.84c-.63-.95-1.5-1.42-2.6-1.42-1.34,0-2.43.5-3.26,1.5-.83,1-1.25,2.28-1.25,3.82,0,3.4,1.55,5.1,4.64,5.1.4,0,.87-.12,1.42-.38.55-.25.9-.52,1.04-.8v-7.83Z"/>
      <path class="cls-4" d="m517.26,302.78c-.54-.38-1.09-.57-1.65-.57-.89,0-1.66.41-2.33,1.23s-1,1.8-1,2.95v8.09h-2.5v-14.12h2.5v2.25c.91-1.68,2.27-2.52,4.07-2.52.45,0,1.09.08,1.94.24l-1.04,2.44Z"/>
      <path class="cls-4" d="m521.29,314.49v-12.01h-1.94v-2.11h4.44v14.12h-2.5Zm1.37-19.46c.43,0,.8.15,1.1.46s.45.67.45,1.09-.15.8-.45,1.1c-.3.3-.67.45-1.1.45s-.78-.15-1.09-.45-.46-.67-.46-1.1.15-.8.45-1.09.66-.45,1.09-.45Z"/>
      <path class="cls-4" d="m536.47,314.49v-8.21c0-1.5-.23-2.56-.68-3.16-.45-.6-1.21-.9-2.27-.9-.57,0-1.17.17-1.79.51s-1.1.76-1.44,1.27v10.49h-2.5v-14.12h1.71l.79,1.82c.83-1.39,2.18-2.08,4.05-2.08,3.09,0,4.64,1.88,4.64,5.64v8.74h-2.5Z"/>
      <path class="cls-4" d="m551.66,314.49l-4.43-7.07-2.19,2.25v4.81h-2.5v-19.91h2.5v12.35l5.41-6.56h2.93l-4.52,5.37,5.52,8.75h-2.72Z"/>
      <path class="cls-4" d="m555.23,313.64l.88-2.37c1.4.91,2.52,1.37,3.38,1.37,1.55,0,2.32-.65,2.32-1.95,0-.93-.75-1.73-2.24-2.4-1.15-.53-1.93-.93-2.33-1.2-.4-.27-.75-.58-1.04-.93-.29-.35-.51-.72-.66-1.11-.15-.39-.22-.81-.22-1.26,0-1.16.42-2.07,1.27-2.72.84-.65,1.95-.97,3.31-.97,1.03,0,2.32.33,3.89.97l-.71,2.32c-.99-.79-1.99-1.19-2.99-1.19-.6,0-1.1.14-1.51.42-.41.28-.61.64-.61,1.07,0,.91.51,1.59,1.54,2.06l1.79.82c1.1.5,1.9,1.07,2.4,1.71s.75,1.45.75,2.41c0,1.27-.44,2.26-1.33,2.97-.89.72-2.12,1.07-3.69,1.07-1.49,0-2.88-.37-4.19-1.11Z"/>
      <path class="cls-4" d="m574.29,307.39c0-2.18.59-3.94,1.76-5.28,1.17-1.34,2.72-2.01,4.63-2.01,2.02,0,3.59.64,4.71,1.93,1.12,1.29,1.67,3.07,1.67,5.36s-.57,4.07-1.71,5.39c-1.14,1.31-2.7,1.97-4.67,1.97s-3.58-.66-4.71-1.99-1.69-3.12-1.69-5.37Zm2.64,0c0,3.54,1.25,5.31,3.76,5.31,1.17,0,2.08-.47,2.75-1.42.66-.95,1-2.25,1-3.89,0-3.5-1.25-5.25-3.74-5.25-1.14,0-2.05.47-2.74,1.4-.68.93-1.02,2.21-1.02,3.85Z"/>
      <path class="cls-4" d="m597.38,302.78c-.54-.38-1.09-.57-1.65-.57-.89,0-1.66.41-2.33,1.23s-1,1.8-1,2.95v8.09h-2.5v-14.12h2.5v2.25c.91-1.68,2.27-2.52,4.07-2.52.45,0,1.09.08,1.94.24l-1.04,2.44Z"/>
      <path class="cls-4" d="m620.22,307.67h-10.18c0,1.65.45,2.92,1.36,3.81.8.77,1.83,1.16,3.08,1.16,1.43,0,2.63-.42,3.59-1.25l1.05,1.81c-.39.39-.98.72-1.78,1-1,.37-2.12.55-3.35.55-1.78,0-3.28-.6-4.52-1.81-1.38-1.33-2.07-3.11-2.07-5.35s.71-4.2,2.12-5.6c1.27-1.26,2.76-1.88,4.5-1.88,2.01,0,3.59.57,4.73,1.7,1.11,1.09,1.66,2.54,1.66,4.34,0,.55-.07,1.06-.2,1.53Zm-6.08-5.46c-1.12,0-2.05.36-2.81,1.08-.72.69-1.13,1.54-1.23,2.56h7.82c0-1.01-.32-1.85-.95-2.53-.69-.74-1.64-1.11-2.83-1.11Z"/>
      <path class="cls-4" d="m623.26,310.49v-15.91h2.5v15.49c0,.76.22,1.35.65,1.79.44.43,1,.65,1.71.65v2.24c-3.24,0-4.86-1.42-4.86-4.26Z"/>
      <path class="cls-4" d="m630.1,313.64l.88-2.37c1.4.91,2.52,1.37,3.38,1.37,1.55,0,2.32-.65,2.32-1.95,0-.93-.75-1.73-2.24-2.4-1.15-.53-1.93-.93-2.33-1.2-.4-.27-.75-.58-1.04-.93-.29-.35-.51-.72-.66-1.11-.15-.39-.22-.81-.22-1.26,0-1.16.42-2.07,1.27-2.72.84-.65,1.95-.97,3.31-.97,1.03,0,2.32.33,3.89.97l-.71,2.32c-.99-.79-1.99-1.19-2.99-1.19-.6,0-1.1.14-1.51.42-.41.28-.61.64-.61,1.07,0,.91.51,1.59,1.54,2.06l1.79.82c1.1.5,1.9,1.07,2.4,1.71s.75,1.45.75,2.41c0,1.27-.44,2.26-1.33,2.97-.89.72-2.12,1.07-3.69,1.07-1.49,0-2.88-.37-4.19-1.11Z"/>
      <path class="cls-4" d="m653.84,307.67h-10.18c0,1.65.45,2.92,1.36,3.81.8.77,1.83,1.16,3.08,1.16,1.43,0,2.63-.42,3.59-1.25l1.05,1.81c-.39.39-.98.72-1.78,1-1,.37-2.12.55-3.35.55-1.78,0-3.28-.6-4.52-1.81-1.38-1.33-2.07-3.11-2.07-5.35s.71-4.2,2.12-5.6c1.27-1.26,2.76-1.88,4.5-1.88,2.01,0,3.59.57,4.73,1.7,1.11,1.09,1.66,2.54,1.66,4.34,0,.55-.07,1.06-.2,1.53Zm-6.08-5.46c-1.12,0-2.05.36-2.81,1.08-.72.69-1.13,1.54-1.23,2.56h7.82c0-1.01-.32-1.85-.95-2.53-.69-.74-1.64-1.11-2.83-1.11Z"/>
      <path class="cls-4" d="m657.85,319.27l-.67-.95c1.51-1.24,2.27-2.29,2.27-3.16,0-.39-.13-.77-.4-1.16-.76-.36-1.13-.88-1.13-1.55,0-.47.18-.85.54-1.15.36-.3.81-.46,1.36-.46.48,0,.92.21,1.3.63.38.42.57.92.57,1.48,0,1.17-.24,2.22-.73,3.16-.49.94-1.52,1.99-3.1,3.17Z"/>
      <path class="cls-4" d="m680.12,316.89c-.33.9-1.01,1.64-2.05,2.24-1.04.6-2.2.9-3.49.9v-2.24c1.05,0,1.94-.24,2.69-.73.75-.49,1.12-1.08,1.12-1.79,0-.77-.14-1.54-.41-2.29-.27-.75-.62-1.68-1.05-2.79l-3.82-9.82h2.56l4.15,10.92,3.73-10.92h2.56l-5.99,16.52Z"/>
      <path class="cls-4" d="m687.12,307.39c0-2.18.59-3.94,1.76-5.28,1.17-1.34,2.72-2.01,4.63-2.01,2.02,0,3.59.64,4.71,1.93,1.12,1.29,1.67,3.07,1.67,5.36s-.57,4.07-1.71,5.39c-1.14,1.31-2.7,1.97-4.67,1.97s-3.58-.66-4.71-1.99-1.69-3.12-1.69-5.37Zm2.64,0c0,3.54,1.25,5.31,3.76,5.31,1.17,0,2.08-.47,2.75-1.42.66-.95,1-2.25,1-3.89,0-3.5-1.25-5.25-3.74-5.25-1.14,0-2.05.47-2.74,1.4-.68.93-1.02,2.21-1.02,3.85Z"/>
      <path class="cls-4" d="m704.9,300.37v9c0,2.18.94,3.27,2.83,3.27.83,0,1.58-.24,2.27-.71s1.14-1.02,1.36-1.65v-9.91h2.5v14.12h-2.5v-1.95c-.28.55-.85,1.06-1.69,1.52-.85.46-1.68.69-2.49.69-1.55,0-2.73-.44-3.55-1.33-.82-.89-1.23-2.15-1.23-3.78v-9.27h2.5Z"/>
      <path class="cls-4" d="m724.95,302.78c-.54-.38-1.09-.57-1.65-.57-.89,0-1.66.41-2.33,1.23s-1,1.8-1,2.95v8.09h-2.5v-14.12h2.5v2.25c.91-1.68,2.27-2.52,4.07-2.52.45,0,1.09.08,1.94.24l-1.04,2.44Z"/>
      <path class="cls-4" d="m738.05,313.47l-.88,1.28h-1.25v-20.17h2.5v6.83c.24-.33.68-.62,1.34-.9.65-.27,1.3-.41,1.93-.41,1.93,0,3.5.67,4.7,2,1.2,1.34,1.8,3.02,1.8,5.06,0,2.36-.6,4.21-1.81,5.56-1.2,1.35-2.83,2.02-4.89,2.02-.67,0-1.33-.12-1.97-.38-.65-.25-1.14-.55-1.47-.9Zm.37-10.15v8.15c0,.14.31.37.94.69.62.32,1.1.48,1.42.48,1.71,0,2.93-.41,3.67-1.23.74-.82,1.11-2.19,1.11-4.11,0-1.6-.43-2.85-1.29-3.74s-2.02-1.34-3.48-1.34c-.31,0-.74.13-1.29.39-.55.26-.91.5-1.07.71Z"/>
      <path class="cls-4" d="m758.63,302.78c-.54-.38-1.09-.57-1.65-.57-.89,0-1.66.41-2.33,1.23s-1,1.8-1,2.95v8.09h-2.5v-14.12h2.5v2.25c.91-1.68,2.27-2.52,4.07-2.52.45,0,1.09.08,1.94.24l-1.04,2.44Z"/>
      <path class="cls-4" d="m773.34,307.67h-10.18c0,1.65.45,2.92,1.36,3.81.8.77,1.83,1.16,3.08,1.16,1.43,0,2.63-.42,3.59-1.25l1.05,1.81c-.39.39-.98.72-1.78,1-1,.37-2.12.55-3.35.55-1.78,0-3.28-.6-4.52-1.81-1.38-1.33-2.07-3.11-2.07-5.35s.71-4.2,2.12-5.6c1.27-1.26,2.76-1.88,4.5-1.88,2.01,0,3.59.57,4.73,1.7,1.11,1.09,1.66,2.54,1.66,4.34,0,.55-.07,1.06-.2,1.53Zm-6.08-5.46c-1.12,0-2.05.36-2.81,1.08-.72.69-1.13,1.54-1.23,2.56h7.82c0-1.01-.32-1.85-.95-2.53-.69-.74-1.64-1.11-2.83-1.11Z"/>
      <path class="cls-4" d="m784.15,312.87c-1,1.26-2.54,1.88-4.6,1.88-1.11,0-2.07-.4-2.88-1.21-.81-.8-1.22-1.8-1.22-3,0-1.43.63-2.64,1.88-3.63,1.25-.99,2.85-1.48,4.79-1.48.53,0,1.12.11,1.79.34,0-2.28-1.02-3.43-3.06-3.43-1.56,0-2.77.42-3.61,1.27l-1.05-2.1c.47-.39,1.13-.72,1.97-1,.84-.28,1.64-.42,2.41-.42,2.05,0,3.54.47,4.46,1.4.93.93,1.39,2.41,1.39,4.44v5.06c0,1.24.37,2.07,1.11,2.48v1.25c-1.02,0-1.78-.14-2.29-.43-.51-.29-.87-.77-1.09-1.44Zm-.24-5.31c-.79-.18-1.34-.26-1.66-.26-1.27,0-2.3.33-3.1.98s-1.2,1.42-1.2,2.31c0,1.47.87,2.2,2.6,2.2,1.27,0,2.39-.6,3.36-1.81v-3.42Z"/>
      <path class="cls-4" d="m799.48,314.49l-4.43-7.07-2.19,2.25v4.81h-2.5v-19.91h2.5v12.35l5.41-6.56h2.93l-4.52,5.37,5.52,8.75h-2.72Z"/>
      <path class="cls-4" d="m804.29,307.82v-2.31h5.64v2.31h-5.64Z"/>
      <path class="cls-4" d="m502.18,329.22c-.51-.18-.98-.26-1.42-.26-.76,0-1.4.29-1.89.87-.5.58-.75,1.31-.75,2.2,0,.24.02.48.07.74h2.87v2.11h-2.87v12.01h-2.5v-12.01h-2.06v-2.11h2.06c0-1.8.44-3.22,1.33-4.25.89-1.03,2.06-1.54,3.52-1.54.73,0,1.51.13,2.35.4l-.7,1.85Z"/>
      <path class="cls-4" d="m512.5,345.27c-1,1.26-2.54,1.88-4.6,1.88-1.11,0-2.07-.4-2.88-1.21-.81-.8-1.22-1.8-1.22-3,0-1.43.63-2.64,1.88-3.63,1.25-.99,2.85-1.48,4.79-1.48.53,0,1.12.11,1.79.34,0-2.28-1.02-3.43-3.06-3.43-1.56,0-2.77.42-3.61,1.27l-1.05-2.1c.47-.39,1.13-.72,1.97-1,.84-.28,1.64-.42,2.41-.42,2.05,0,3.54.47,4.46,1.4.93.93,1.39,2.41,1.39,4.44v5.06c0,1.24.37,2.07,1.11,2.48v1.25c-1.02,0-1.78-.14-2.29-.43-.51-.29-.87-.77-1.09-1.44Zm-.24-5.31c-.79-.18-1.34-.26-1.66-.26-1.27,0-2.3.33-3.1.98s-1.2,1.42-1.2,2.31c0,1.47.87,2.2,2.6,2.2,1.27,0,2.39-.6,3.36-1.81v-3.42Z"/>
      <path class="cls-4" d="m517.79,346.04l.88-2.37c1.4.91,2.52,1.37,3.38,1.37,1.55,0,2.32-.65,2.32-1.95,0-.93-.75-1.73-2.24-2.4-1.15-.53-1.93-.93-2.33-1.2-.4-.27-.75-.58-1.04-.93-.29-.35-.51-.72-.66-1.11-.15-.39-.22-.81-.22-1.26,0-1.16.42-2.07,1.27-2.72.84-.65,1.95-.97,3.31-.97,1.03,0,2.32.33,3.89.97l-.71,2.32c-.99-.79-1.99-1.19-2.99-1.19-.6,0-1.1.14-1.51.42-.41.28-.61.64-.61,1.07,0,.91.51,1.59,1.54,2.06l1.79.82c1.1.5,1.9,1.07,2.4,1.71s.75,1.45.75,2.41c0,1.27-.44,2.26-1.33,2.97-.89.72-2.12,1.07-3.69,1.07-1.49,0-2.88-.37-4.19-1.11Z"/>
      <path class="cls-4" d="m530.54,334.74h-1.63v-1.98h1.63v-2.95l2.5-.96v3.92h3.88v1.98h-3.88v7.01c0,1.19.2,2.03.6,2.53.4.5,1.04.75,1.93.75.64,0,1.31-.16,1.99-.49l.37,2.2c-1.04.26-2.18.4-3.41.4-1.12,0-2.06-.42-2.83-1.25-.77-.83-1.15-1.88-1.15-3.14v-8.02Z"/>
      <path class="cls-4" d="m564.83,346.89v-8.94c0-2.22-.96-3.33-2.89-3.33-.61,0-1.17.19-1.7.56-.53.37-.89.8-1.08,1.27v10.44h-2.5v-10.03c0-.69-.26-1.24-.78-1.64-.52-.4-1.21-.6-2.08-.6-.5,0-1.04.19-1.6.58-.57.39-.97.81-1.21,1.28v10.42h-2.5v-14.12h1.63l.83,1.63c.97-1.27,2.18-1.9,3.63-1.9,2.02,0,3.44.63,4.25,1.88.28-.54.8-.98,1.57-1.34s1.55-.54,2.36-.54c1.46,0,2.59.43,3.39,1.3.8.87,1.2,2.08,1.2,3.65v9.44h-2.5Z"/>
      <path class="cls-4" d="m578.87,345.27c-1,1.26-2.54,1.88-4.6,1.88-1.11,0-2.07-.4-2.88-1.21-.81-.8-1.22-1.8-1.22-3,0-1.43.63-2.64,1.88-3.63,1.25-.99,2.85-1.48,4.79-1.48.53,0,1.12.11,1.79.34,0-2.28-1.02-3.43-3.06-3.43-1.56,0-2.77.42-3.61,1.27l-1.05-2.1c.47-.39,1.13-.72,1.97-1,.84-.28,1.64-.42,2.41-.42,2.05,0,3.54.47,4.46,1.4.93.93,1.39,2.41,1.39,4.44v5.06c0,1.24.37,2.07,1.11,2.48v1.25c-1.02,0-1.78-.14-2.29-.43-.51-.29-.87-.77-1.09-1.44Zm-.24-5.31c-.79-.18-1.34-.26-1.66-.26-1.27,0-2.3.33-3.1.98s-1.2,1.42-1.2,2.31c0,1.47.87,2.2,2.6,2.2,1.27,0,2.39-.6,3.36-1.81v-3.42Z"/>
      <path class="cls-4" d="m590.47,349.29c-.33.9-1.01,1.64-2.05,2.24-1.04.6-2.2.9-3.49.9v-2.24c1.05,0,1.94-.24,2.69-.73.75-.49,1.12-1.08,1.12-1.79,0-.77-.14-1.54-.41-2.29-.27-.75-.62-1.68-1.05-2.79l-3.82-9.82h2.56l4.15,10.92,3.73-10.92h2.56l-5.99,16.52Z"/>
      <path class="cls-4" d="m614.5,345.27c-1,1.26-2.54,1.88-4.6,1.88-1.11,0-2.07-.4-2.88-1.21-.81-.8-1.22-1.8-1.22-3,0-1.43.63-2.64,1.88-3.63,1.25-.99,2.85-1.48,4.79-1.48.53,0,1.12.11,1.79.34,0-2.28-1.02-3.43-3.06-3.43-1.56,0-2.77.42-3.61,1.27l-1.05-2.1c.47-.39,1.13-.72,1.97-1,.84-.28,1.64-.42,2.41-.42,2.05,0,3.54.47,4.46,1.4.93.93,1.39,2.41,1.39,4.44v5.06c0,1.24.37,2.07,1.11,2.48v1.25c-1.02,0-1.78-.14-2.29-.43-.51-.29-.87-.77-1.09-1.44Zm-.24-5.31c-.79-.18-1.34-.26-1.66-.26-1.27,0-2.3.33-3.1.98s-1.2,1.42-1.2,2.31c0,1.47.87,2.2,2.6,2.2,1.27,0,2.39-.6,3.36-1.81v-3.42Z"/>
      <path class="cls-4" d="m629.66,346.87v-1.04c-.87.87-2.14,1.3-3.8,1.3-1.77,0-3.2-.63-4.3-1.9s-1.65-2.95-1.65-5.06.63-3.93,1.9-5.42c1.27-1.5,2.77-2.25,4.52-2.25,1.46,0,2.57.34,3.32,1.03v-6.55h2.5v19.89h-2.5Zm0-10.84c-.63-.95-1.5-1.42-2.6-1.42-1.34,0-2.43.5-3.26,1.5-.83,1-1.25,2.28-1.25,3.82,0,3.4,1.55,5.1,4.64,5.1.4,0,.87-.12,1.42-.38.55-.25.9-.52,1.04-.8v-7.83Z"/>
      <path class="cls-4" d="m644.71,346.87v-1.04c-.87.87-2.14,1.3-3.8,1.3-1.77,0-3.2-.63-4.3-1.9s-1.65-2.95-1.65-5.06.63-3.93,1.9-5.42c1.27-1.5,2.77-2.25,4.52-2.25,1.46,0,2.57.34,3.32,1.03v-6.55h2.5v19.89h-2.5Zm0-10.84c-.63-.95-1.5-1.42-2.6-1.42-1.34,0-2.43.5-3.26,1.5-.83,1-1.25,2.28-1.25,3.82,0,3.4,1.55,5.1,4.64,5.1.4,0,.87-.12,1.42-.38.55-.25.9-.52,1.04-.8v-7.83Z"/>
      <path class="cls-4" d="m661.3,332.77v9c0,2.18.94,3.27,2.83,3.27.83,0,1.58-.24,2.27-.71s1.14-1.02,1.36-1.65v-9.91h2.5v14.12h-2.5v-1.95c-.28.55-.85,1.06-1.69,1.52-.85.46-1.68.69-2.49.69-1.55,0-2.73-.44-3.55-1.33-.82-.89-1.23-2.15-1.23-3.78v-9.27h2.5Z"/>
      <path class="cls-4" d="m676.19,346.11v6.31h-2.5v-19.66h2.5v1.16c.95-.95,2.1-1.42,3.44-1.42,2,0,3.56.62,4.68,1.87,1.12,1.25,1.67,3.08,1.67,5.48,0,2.15-.56,3.9-1.69,5.25-1.12,1.36-2.75,2.04-4.88,2.04-.6,0-1.24-.11-1.92-.32-.68-.21-1.12-.45-1.31-.72Zm0-10.3v8.23c.16.24.49.46,1,.68.51.22,1.01.32,1.49.32,3.11,0,4.67-1.76,4.67-5.27,0-1.78-.37-3.09-1.11-3.92-.74-.83-1.92-1.24-3.55-1.24-.35,0-.78.12-1.29.37s-.91.52-1.21.83Z"/>
      <path class="cls-4" d="m697.76,334.74h-1.63v-1.98h1.63v-2.95l2.5-.96v3.92h3.88v1.98h-3.88v7.01c0,1.19.2,2.03.6,2.53.4.5,1.04.75,1.93.75.64,0,1.31-.16,1.99-.49l.37,2.2c-1.04.26-2.18.4-3.41.4-1.12,0-2.06-.42-2.83-1.25-.77-.83-1.15-1.88-1.15-3.14v-8.02Z"/>
      <path class="cls-4" d="m706.64,339.79c0-2.18.59-3.94,1.76-5.28,1.17-1.34,2.72-2.01,4.63-2.01,2.02,0,3.59.64,4.71,1.93,1.12,1.29,1.67,3.07,1.67,5.36s-.57,4.07-1.71,5.39c-1.14,1.31-2.7,1.97-4.67,1.97s-3.58-.66-4.71-1.99-1.69-3.12-1.69-5.37Zm2.64,0c0,3.54,1.25,5.31,3.76,5.31,1.17,0,2.08-.47,2.75-1.42.66-.95,1-2.25,1-3.89,0-3.5-1.25-5.25-3.74-5.25-1.14,0-2.05.47-2.74,1.4-.68.93-1.02,2.21-1.02,3.85Z"/>
      <path class="cls-4" d="m731.47,337.46l-.9-.62v-9.35h9.61v2.24h-7.11v4.69c.65-.48,1.48-.72,2.48-.72,1.79,0,3.16.54,4.11,1.61s1.42,2.6,1.42,4.58c0,4.84-2.16,7.26-6.47,7.26-1.8,0-3.3-.5-4.48-1.5l1.02-2.2c1.2.98,2.35,1.46,3.45,1.46,2.48,0,3.72-1.55,3.72-4.64,0-2.88-1.22-4.32-3.67-4.32-1.18,0-2.24.51-3.18,1.52Z"/>
      <path class="cls-4" d="m753.38,334.74h-1.63v-1.98h1.63v-2.95l2.5-.96v3.92h3.88v1.98h-3.88v7.01c0,1.19.2,2.03.6,2.53.4.5,1.04.75,1.93.75.64,0,1.31-.16,1.99-.49l.37,2.2c-1.04.26-2.18.4-3.41.4-1.12,0-2.06-.42-2.83-1.25-.77-.83-1.15-1.88-1.15-3.14v-8.02Z"/>
      <path class="cls-4" d="m775.08,340.07h-10.18c0,1.65.45,2.92,1.36,3.81.8.77,1.83,1.16,3.08,1.16,1.43,0,2.63-.42,3.59-1.25l1.05,1.81c-.39.39-.98.72-1.78,1-1,.37-2.12.55-3.35.55-1.78,0-3.28-.6-4.52-1.81-1.38-1.33-2.07-3.11-2.07-5.35s.71-4.2,2.12-5.6c1.27-1.26,2.76-1.88,4.5-1.88,2.01,0,3.59.57,4.73,1.7,1.11,1.09,1.66,2.54,1.66,4.34,0,.55-.07,1.06-.2,1.53Zm-6.08-5.46c-1.12,0-2.05.36-2.81,1.08-.72.69-1.13,1.54-1.23,2.56h7.82c0-1.01-.32-1.85-.95-2.53-.69-.74-1.64-1.11-2.83-1.11Z"/>
      <path class="cls-4" d="m785.89,345.27c-1,1.26-2.54,1.88-4.6,1.88-1.11,0-2.07-.4-2.88-1.21-.81-.8-1.22-1.8-1.22-3,0-1.43.63-2.64,1.88-3.63,1.25-.99,2.85-1.48,4.79-1.48.53,0,1.12.11,1.79.34,0-2.28-1.02-3.43-3.06-3.43-1.56,0-2.77.42-3.61,1.27l-1.05-2.1c.47-.39,1.13-.72,1.97-1,.84-.28,1.64-.42,2.41-.42,2.05,0,3.54.47,4.46,1.4.93.93,1.39,2.41,1.39,4.44v5.06c0,1.24.37,2.07,1.11,2.48v1.25c-1.02,0-1.78-.14-2.29-.43-.51-.29-.87-.77-1.09-1.44Zm-.24-5.31c-.79-.18-1.34-.26-1.66-.26-1.27,0-2.3.33-3.1.98s-1.2,1.42-1.2,2.31c0,1.47.87,2.2,2.6,2.2,1.27,0,2.39-.6,3.36-1.81v-3.42Z"/>
      <path class="cls-4" d="m792.41,340.22v-2.31h5.64v2.31h-5.64Z"/>
      <path class="cls-4" d="m493.62,378.44l.88-2.37c1.4.91,2.52,1.37,3.38,1.37,1.55,0,2.32-.65,2.32-1.95,0-.93-.75-1.73-2.24-2.4-1.15-.53-1.93-.93-2.33-1.2-.4-.27-.75-.58-1.04-.93-.29-.35-.51-.72-.66-1.11-.15-.39-.22-.81-.22-1.26,0-1.16.42-2.07,1.27-2.72.84-.65,1.95-.97,3.31-.97,1.03,0,2.32.33,3.89.97l-.71,2.32c-.99-.79-1.99-1.19-2.99-1.19-.6,0-1.1.14-1.51.42-.41.28-.61.64-.61,1.07,0,.91.51,1.59,1.54,2.06l1.79.82c1.1.5,1.9,1.07,2.4,1.71s.75,1.45.75,2.41c0,1.27-.44,2.26-1.33,2.97-.89.72-2.12,1.07-3.69,1.07-1.49,0-2.88-.37-4.19-1.11Z"/>
      <path class="cls-4" d="m507.98,378.51v6.31h-2.5v-19.66h2.5v1.16c.95-.95,2.1-1.42,3.44-1.42,2,0,3.56.62,4.68,1.87,1.12,1.25,1.67,3.08,1.67,5.48,0,2.15-.56,3.9-1.69,5.25-1.12,1.36-2.75,2.04-4.88,2.04-.6,0-1.24-.11-1.92-.32-.68-.21-1.12-.45-1.31-.72Zm0-10.3v8.23c.16.24.49.46,1,.68.51.22,1.01.32,1.49.32,3.11,0,4.67-1.76,4.67-5.27,0-1.78-.37-3.09-1.11-3.92-.74-.83-1.92-1.24-3.55-1.24-.35,0-.78.12-1.29.37s-.91.52-1.21.83Z"/>
      <path class="cls-4" d="m519.59,372.19c0-2.18.59-3.94,1.76-5.28,1.17-1.34,2.72-2.01,4.63-2.01,2.02,0,3.59.64,4.71,1.93,1.12,1.29,1.67,3.07,1.67,5.36s-.57,4.07-1.71,5.39c-1.14,1.31-2.7,1.97-4.67,1.97s-3.58-.66-4.71-1.99-1.69-3.12-1.69-5.37Zm2.64,0c0,3.54,1.25,5.31,3.76,5.31,1.17,0,2.08-.47,2.75-1.42.66-.95,1-2.25,1-3.89,0-3.5-1.25-5.25-3.74-5.25-1.14,0-2.05.47-2.74,1.4-.68.93-1.02,2.21-1.02,3.85Z"/>
      <path class="cls-4" d="m534.08,372.19c0-2.18.59-3.94,1.76-5.28,1.17-1.34,2.72-2.01,4.63-2.01,2.02,0,3.59.64,4.71,1.93,1.12,1.29,1.67,3.07,1.67,5.36s-.57,4.07-1.71,5.39c-1.14,1.31-2.7,1.97-4.67,1.97s-3.58-.66-4.71-1.99-1.69-3.12-1.69-5.37Zm2.64,0c0,3.54,1.25,5.31,3.76,5.31,1.17,0,2.08-.47,2.75-1.42.66-.95,1-2.25,1-3.89,0-3.5-1.25-5.25-3.74-5.25-1.14,0-2.05.47-2.74,1.4-.68.93-1.02,2.21-1.02,3.85Z"/>
      <path class="cls-4" d="m558.18,379.29v-8.21c0-1.5-.23-2.56-.68-3.16-.45-.6-1.21-.9-2.27-.9-.57,0-1.17.17-1.79.51s-1.1.76-1.44,1.27v10.49h-2.5v-14.12h1.71l.79,1.82c.83-1.39,2.18-2.08,4.05-2.08,3.09,0,4.64,1.88,4.64,5.64v8.74h-2.5Z"/>
      <path class="cls-4" d="m563.32,378.44l.88-2.37c1.4.91,2.52,1.37,3.38,1.37,1.55,0,2.32-.65,2.32-1.95,0-.93-.75-1.73-2.24-2.4-1.15-.53-1.93-.93-2.33-1.2-.4-.27-.75-.58-1.04-.93-.29-.35-.51-.72-.66-1.11-.15-.39-.22-.81-.22-1.26,0-1.16.42-2.07,1.27-2.72.84-.65,1.95-.97,3.31-.97,1.03,0,2.32.33,3.89.97l-.71,2.32c-.99-.79-1.99-1.19-2.99-1.19-.6,0-1.1.14-1.51.42-.41.28-.61.64-.61,1.07,0,.91.51,1.59,1.54,2.06l1.79.82c1.1.5,1.9,1.07,2.4,1.71s.75,1.45.75,2.41c0,1.27-.44,2.26-1.33,2.97-.89.72-2.12,1.07-3.69,1.07-1.49,0-2.88-.37-4.19-1.11Z"/>
      <path class="cls-4" d="m582.39,372.19c0-2.18.59-3.94,1.76-5.28,1.17-1.34,2.72-2.01,4.63-2.01,2.02,0,3.59.64,4.71,1.93,1.12,1.29,1.67,3.07,1.67,5.36s-.57,4.07-1.71,5.39c-1.14,1.31-2.7,1.97-4.67,1.97s-3.58-.66-4.71-1.99-1.69-3.12-1.69-5.37Zm2.64,0c0,3.54,1.25,5.31,3.76,5.31,1.17,0,2.08-.47,2.75-1.42.66-.95,1-2.25,1-3.89,0-3.5-1.25-5.25-3.74-5.25-1.14,0-2.05.47-2.74,1.4-.68.93-1.02,2.21-1.02,3.85Z"/>
      <path class="cls-4" d="m605.43,361.62c-.51-.18-.98-.26-1.42-.26-.76,0-1.4.29-1.89.87-.5.58-.75,1.31-.75,2.2,0,.24.02.48.07.74h2.87v2.11h-2.87v12.01h-2.5v-12.01h-2.06v-2.11h2.06c0-1.8.44-3.22,1.33-4.25.89-1.03,2.06-1.54,3.52-1.54.73,0,1.51.13,2.35.4l-.7,1.85Z"/>
      <path class="cls-4" d="m614.99,378.44l.88-2.37c1.4.91,2.52,1.37,3.38,1.37,1.55,0,2.32-.65,2.32-1.95,0-.93-.75-1.73-2.24-2.4-1.15-.53-1.93-.93-2.33-1.2-.4-.27-.75-.58-1.04-.93-.29-.35-.51-.72-.66-1.11-.15-.39-.22-.81-.22-1.26,0-1.16.42-2.07,1.27-2.72.84-.65,1.95-.97,3.31-.97,1.03,0,2.32.33,3.89.97l-.71,2.32c-.99-.79-1.99-1.19-2.99-1.19-.6,0-1.1.14-1.51.42-.41.28-.61.64-.61,1.07,0,.91.51,1.59,1.54,2.06l1.79.82c1.1.5,1.9,1.07,2.4,1.71s.75,1.45.75,2.41c0,1.27-.44,2.26-1.33,2.97-.89.72-2.12,1.07-3.69,1.07-1.49,0-2.88-.37-4.19-1.11Z"/>
      <path class="cls-4" d="m629.22,365.17v9c0,2.18.94,3.27,2.83,3.27.83,0,1.58-.24,2.27-.71s1.14-1.02,1.36-1.65v-9.91h2.5v14.12h-2.5v-1.95c-.28.55-.85,1.06-1.69,1.52-.85.46-1.68.69-2.49.69-1.55,0-2.73-.44-3.55-1.33-.82-.89-1.23-2.15-1.23-3.78v-9.27h2.5Z"/>
      <path class="cls-4" d="m641.08,383.15l1.36-2c1.46.97,2.8,1.46,4.03,1.46,1.13,0,2.03-.2,2.68-.59.65-.39.98-.88.98-1.46,0-1.14-.83-1.71-2.48-1.71-.28,0-.79.07-1.53.21-.74.14-1.31.21-1.73.21-2,0-3.01-.75-3.01-2.27,0-.46.23-.89.71-1.27.47-.38,1.05-.65,1.75-.82-1.99-.93-2.98-2.55-2.98-4.85,0-1.48.51-2.71,1.54-3.69s2.3-1.48,3.81-1.48c1.39,0,2.47.29,3.26.86l1.25-1.5,1.63,1.54-1.5,1.13c.64.84.96,1.93.96,3.27,0,1.42-.44,2.62-1.33,3.59-.89.97-2.05,1.52-3.49,1.66l-2.07.21c-.25.03-.58.12-.99.28-.41.16-.62.38-.62.64,0,.36.43.54,1.29.54.38,0,.97-.07,1.77-.2.8-.14,1.39-.2,1.78-.2,1.39,0,2.47.33,3.25,1,.78.66,1.17,1.58,1.17,2.76,0,1.3-.58,2.35-1.75,3.15-1.16.8-2.64,1.2-4.42,1.2-.91,0-1.88-.16-2.89-.49s-1.82-.72-2.44-1.19Zm5.31-16.23c-.87,0-1.58.31-2.13.92s-.82,1.36-.82,2.24c0,.98.27,1.8.8,2.45.53.65,1.25.97,2.16.97s1.58-.31,2.08-.94c.5-.63.75-1.45.75-2.47,0-.88-.27-1.63-.81-2.24-.54-.62-1.22-.92-2.02-.92Z"/>
      <path class="cls-4" d="m663.12,377.66c-1,1.26-2.54,1.88-4.6,1.88-1.11,0-2.07-.4-2.88-1.21-.81-.8-1.22-1.8-1.22-3,0-1.43.63-2.64,1.88-3.63,1.25-.99,2.85-1.48,4.79-1.48.53,0,1.12.11,1.79.34,0-2.28-1.02-3.43-3.06-3.43-1.56,0-2.77.42-3.61,1.27l-1.05-2.1c.47-.39,1.13-.72,1.97-1,.84-.28,1.64-.42,2.41-.42,2.05,0,3.54.47,4.46,1.4.93.93,1.39,2.41,1.39,4.44v5.06c0,1.24.37,2.07,1.11,2.48v1.25c-1.02,0-1.78-.14-2.29-.43-.51-.29-.87-.77-1.09-1.44Zm-.24-5.31c-.79-.18-1.34-.26-1.66-.26-1.27,0-2.3.33-3.1.98s-1.2,1.42-1.2,2.31c0,1.47.87,2.2,2.6,2.2,1.27,0,2.39-.6,3.36-1.81v-3.42Z"/>
      <path class="cls-4" d="m677.01,367.58c-.54-.38-1.09-.57-1.65-.57-.89,0-1.66.41-2.33,1.23s-1,1.8-1,2.95v8.09h-2.5v-14.12h2.5v2.25c.91-1.68,2.27-2.52,4.07-2.52.45,0,1.09.08,1.94.24l-1.04,2.44Z"/>
      <path class="cls-4" d="m683.11,375.58c.54,0,1.01.19,1.4.58.39.39.58.85.58,1.4s-.19,1.01-.58,1.4c-.39.39-.85.59-1.4.59s-1.01-.2-1.4-.59c-.39-.39-.58-.86-.58-1.4s.19-1.01.58-1.4c.39-.39.85-.58,1.4-.58Zm.38-1.33h-.94c-.68-4.42-1.02-7.49-1.02-9.22v-5.4h2.98v5.39c0,1.68-.34,4.75-1.03,9.23Z"/>
    </g>
    <g>
      <g>
        <path class="cls-6" d="m315.4,263.26h-180.72c-3.38,0-6.53-1.75-8.3-4.63l-11.86-19.19,217.31-1.97-7.28,19.46c-1.43,3.81-5.07,6.34-9.14,6.34Z"/>
        <ellipse class="cls-7" cx="223.25" cy="232.16" rx="122.05" ry="15.99"/>
        <ellipse class="cls-5" cx="223.25" cy="231.95" rx="97.6" ry="10.67"/>
        <g>
          <path class="cls-10" d="m244.42,139c-29.21-14.39-57.82-14.76-85.78,0,0,0-11.88,5.46-11.88,12.19v4.76c0,5.61,3.69,10.33,8.72,11.75v64.26h92.1v-64.26c5.02-1.42,8.72-6.14,8.72-11.75v-4.76c0-6.73-11.88-12.19-11.88-12.19Z"/>
          <path class="cls-8" d="m237.24,176.91c.47,64.87-23.31.36-34.99,31.08-9.05,23.79-25.43,22.73-34.99-31.08-7.98-44.89,19.12-19.77,34.99-31.08,16.49-11.75,34.82,7.54,34.99,31.08Z"/>
        </g>
        <g>
          <path class="cls-10" d="m288.05,137.94c-30.13-12.93-58.79-11.93-85.86,4.12,0,0-11.55,6.01-11.13,12.71l.29,4.74c.35,5.59,4.33,10.11,9.45,11.28l3.97,64.01,92.19-4.42-3.97-64.01c4.94-1.66,8.34-6.53,8-12.12l-.29-4.74c-.42-6.7-12.64-11.57-12.64-11.57Z"/>
          <path class="cls-8" d="m283.19,176.05c4.48,64.59-23.31,1.48-33.11,32.64-7.59,24.13-24.05,23.86-36.94-29.28-10.75-44.33,17.92-20.61,33.11-32.64,15.78-12.5,35.32,5.84,36.94,29.28Z"/>
        </g>
      </g>
      <rect class="cls-3" x="246.02" y="167.8" width="31.23" height="31.23" rx="4.84" ry="4.84"/>
    </g>
  </g>
</svg>