<?xml version="1.0" encoding="UTF-8"?>
<svg id="Layer_2" data-name="Layer 2" xmlns="http://www.w3.org/2000/svg" viewBox="0 0 302.12 171.22">
  <defs>
    <style>
      .cls-1 {
        fill: #f2ec63;
      }

      .cls-2 {
        fill: #a24123;
      }

      .cls-3, .cls-4 {
        fill: #c64127;
      }

      .cls-5 {
        fill: #484021;
      }

      .cls-6 {
        fill: #bc8d2d;
        stroke: #9a5825;
        stroke-width: 10px;
      }

      .cls-6, .cls-4 {
        stroke-miterlimit: 10;
      }

      .cls-4 {
        stroke: #aa4227;
        stroke-width: 2px;
      }
    </style>
  </defs>
  <g id="exploreSugar">
    <g>
      <g>
        <path class="cls-3" d="m264.36,171.22H42.16c-4.16,0-8.02-2.15-10.21-5.69l-14.58-23.6,267.19-2.42-8.95,23.92c-1.75,4.69-6.23,7.8-11.24,7.8Z"/>
        <ellipse class="cls-4" cx="151.06" cy="132.99" rx="150.06" ry="19.65"/>
        <ellipse class="cls-2" cx="151.06" cy="132.73" rx="120.01" ry="13.13"/>
        <g>
          <path class="cls-6" d="m177.1,18.44C141.18.75,106,.29,71.63,18.44c0,0-14.6,6.71-14.6,14.98v5.85c0,6.89,4.54,12.7,10.72,14.44v79.01h113.24V53.72c6.18-1.75,10.72-7.55,10.72-14.44v-5.85c0-8.28-14.6-14.98-14.6-14.98Z"/>
          <path class="cls-5" d="m168.26,65.06c.58,79.75-28.66.45-43.02,38.22-11.12,29.25-31.27,27.94-43.02-38.22-9.81-55.19,23.51-24.3,43.02-38.22,20.27-14.45,42.81,9.27,43.02,38.22Z"/>
        </g>
        <g>
          <path class="cls-6" d="m230.73,17.14c-37.05-15.9-72.28-14.67-105.57,5.06,0,0-14.2,7.38-13.69,15.63l.36,5.83c.43,6.87,5.33,12.43,11.62,13.87l4.88,78.7,113.35-5.44-4.88-78.7c6.08-2.04,10.26-8.03,9.83-14.9l-.36-5.83c-.51-8.24-15.54-14.22-15.54-14.22Z"/>
          <path class="cls-5" d="m224.77,64c5.5,79.42-28.66,1.82-40.7,40.13-9.33,29.67-29.57,29.34-45.42-36-13.22-54.5,22.03-25.34,40.7-40.13,19.4-15.37,43.42,7.18,45.42,36Z"/>
        </g>
      </g>
      <rect class="cls-1" x="179.06" y="53.86" width="38.4" height="38.4" rx="4.84" ry="4.84"/>
    </g>
  </g>
</svg>