<?xml version="1.0" encoding="UTF-8"?>
<svg id="Layer_2" data-name="Layer 2" xmlns="http://www.w3.org/2000/svg" viewBox="0 0 256.31 71.15">
  <defs>
    <style>
      .cls-1 {
        fill: #f28321;
      }

      .cls-2 {
        fill: #fff;
      }

      .cls-3 {
        fill: #f16823;
      }

      .cls-4 {
        fill: #934227;
      }

      .cls-5, .cls-6, .cls-7 {
        fill: #c64127;
      }

      .cls-8 {
        fill: #59682e;
      }

      .cls-9 {
        fill: #f3941f;
        stroke: #f3941f;
      }

      .cls-9, .cls-6, .cls-7 {
        stroke-miterlimit: 10;
      }

      .cls-6 {
        stroke: #f79a75;
      }

      .cls-7 {
        stroke: #f4898b;
      }

      .cls-10 {
        fill: #231f20;
        font-family: TrebuchetMS-Bold, 'Trebuchet MS';
        font-size: 27px;
        font-weight: 700;
      }
    </style>
  </defs>
  <g id="exploreSugar">
    <rect class="cls-2" x="0" y="0" width="256.31" height="71.15" rx="35.57" ry="35.57"/>
    <g>
      <path class="cls-5" d="m36.75,46.83h24.65v1.01c0,2.76-2.24,5-5,5h-14.65c-2.76,0-5-2.24-5-5v-1.01h0Z"/>
      <path class="cls-4" d="m64.08,43.16c0,4.41-7.21,8.49-15.29,8.49s-15.29-4.08-15.29-8.49"/>
      <path class="cls-5" d="m79.72,26.64c0,12.81-13.72,23.19-30.64,23.19s-30.64-10.38-30.64-23.19"/>
      <path class="cls-6" d="m18.43,26.64c0-4.6,13.72-8.33,30.64-8.33s30.64,3.73,30.64,8.33"/>
      <path class="cls-7" d="m79.72,26.64c0,4.6-13.72,8.33-30.64,8.33s-30.64-3.73-30.64-8.33"/>
      <path class="cls-9" d="m77.8,29.29c-2.94,2.42-13.4,5.68-29,5.68s-25.8-2.77-28.24-5.74c-3.04-3.69,12.65-8.34,28.24-8.34s33.21,4.93,29,8.4Z"/>
      <path class="cls-1" d="m31.27,33.3c2.78-1.4,6.19-.06,9.08.25,1.55.17,3.15.11,4.64-.41s2.8-1.39,4.17-2.16,2.77-1.3,4.37-1.19c1.43.1,2.82.63,4.13,1.19,2.8,1.19,5.48,2.61,8.58,2.78,1.61.09,1.6-2.41,0-2.5-3.15-.17-5.92-1.95-8.8-3.05s-5.93-1.24-8.84.23c-1.49.76-2.86,1.81-4.46,2.34s-3.19.37-4.79.12c-3.17-.5-6.32-1.29-9.34.23-1.44.72-.17,2.88,1.26,2.16h0Z"/>
      <path class="cls-1" d="m29.41,31.77c.93-1.37,2.92-1.63,4.43-1.88,1.96-.32,3.97-.4,5.95-.27,1.77.12,3.58.52,5.31-.07s2.87-1.9,4.67-2.25,3.89-.3,5.78-.21c1.75.09,3.56.24,5.23.81,1.58.55,2.5,1.75,3.74,2.77,1.38,1.14,2.84,1.4,4.6,1.17,1.57-.21,1.59-2.71,0-2.5-1.03.14-1.93.22-2.81-.42-.68-.5-1.22-1.19-1.87-1.74-1.32-1.13-2.92-1.78-4.61-2.12-1.86-.36-3.77-.5-5.66-.52s-4.05-.03-5.92.55-3.23,2.22-5.26,2.27-3.99-.37-6.01-.29c-3.3.12-7.7.43-9.74,3.42-.91,1.33,1.26,2.58,2.16,1.26h0Z"/>
      <path class="cls-1" d="m60.32,32.26c-2.32-.63-4.69-1.42-7.11-1.52-1.12-.05-2.15.19-3.18.61-.78.32-1.73.88-2.59.69-1.57-.33-2.24,2.07-.66,2.41,1.1.23,2.13.04,3.16-.37.92-.37,1.81-.83,2.82-.85,2.33-.05,4.68.83,6.9,1.44,1.55.42,2.22-1.99.66-2.41h0Z"/>
      <path class="cls-1" d="m27.46,28.96c.19-1.71,2.82-2.56,4.16-3.04,2.01-.73,4.13-1.2,6.28-1.15s4.16.8,6.29.96c1.96.15,3.94-.21,5.85-.61s3.98-.97,6.03-1.04c2.17-.08,4.21.55,6.25,1.22,1.06.35,2.03.75,2.88,1.49.74.63,1.43,1.28,2.32,1.69,1.72.81,3.67.79,5.53.72,1.6-.06,1.61-2.56,0-2.5-1.13.04-2.29.11-3.41-.13-1.27-.27-2.04-1.04-3.01-1.83-1.65-1.35-3.8-1.95-5.83-2.52-2.25-.63-4.46-.77-6.77-.44-2.14.3-4.22.91-6.35,1.25-2.37.39-4.43.04-6.75-.41s-4.61-.43-6.93.03c-3.43.69-8.58,2.23-9.04,6.31-.18,1.6,2.32,1.58,2.5,0h0Z"/>
      <path class="cls-1" d="m25.13,28.27c-.07.37-.12.74-.12,1.12s.04.73.1,1.09c.1.63.33,1.25.63,1.81s1.16.81,1.71.45c.59-.38.78-1.09.45-1.71-.07-.14-.14-.28-.2-.43l.13.3c-.15-.37-.26-.76-.32-1.16l.04.33c-.05-.42-.06-.84,0-1.26l-.04.33c0-.07.02-.14.03-.21.06-.34.05-.66-.13-.96-.15-.26-.45-.51-.75-.57-.32-.07-.68-.06-.96.13-.26.17-.52.43-.57.75h0Z"/>
      <path class="cls-3" d="m30.02,29.29c2.8-1.51,5.92-2.26,9.11-2.17s6.08,1.52,9.22,2.24,6.29.61,9.4.05c1.64-.3,3.26-.74,4.85-1.26s3.15-1.27,4.8-.96,2.25-2.11.66-2.41c-3.29-.63-6.48,1.23-9.63,1.94-3.54.8-7.22.95-10.72-.13-3.23-1-6.19-2.06-9.63-1.98s-6.44.96-9.31,2.51c-1.42.77-.15,2.92,1.26,2.16h0Z"/>
      <path class="cls-3" d="m33.52,32.73c3.2-1.17,6.62-.55,9.95-.6,3.1-.04,6.35-.48,9.35.5,1.39.45,2.54,1.38,3.88,1.94s2.68.65,4.05.37c2.84-.57,4.95-2.78,6.3-5.23.78-1.41-1.38-2.67-2.16-1.26-1.27,2.3-3.57,4.69-6.48,4.07-1.33-.28-2.42-1.24-3.64-1.8-1.31-.6-2.69-.91-4.11-1.08-2.9-.33-5.83.05-8.75-.02s-6.14-.37-9.07.7c-1.5.55-.85,2.96.66,2.41h0Z"/>
      <path class="cls-3" d="m26.8,27.89c-.04-.99,4.02-1.56,4.76-1.68,1.83-.31,3.7-.4,5.55-.38,3.97.05,7.89.69,11.8,1.32s7.63,1.27,11.47,1.26c3.21,0,6.34-.65,8.88-2.72,1.25-1.02-.53-2.78-1.77-1.77-2.9,2.37-7.1,2.12-10.6,1.81-4.22-.38-8.37-1.23-12.57-1.8-3.89-.53-7.84-.84-11.75-.37-1.9.23-3.82.59-5.62,1.26-1.38.52-2.72,1.44-2.65,3.08s2.56,1.61,2.5,0h0Z"/>
      <path class="cls-3" d="m70.16,28.66h-6.19c-1.77,0-3.62.33-4.89-1.15-1.08-1.25-1.79-2.73-3.01-3.87s-2.53-1.93-4.01-2.51-3.28-1-4.86-.61-2.9,1.5-4.1,2.52c-1.36,1.16-2.52,2.49-3.59,3.92s-2.38,3.41-4.4,3.62c-1.58.17-1.6,2.67,0,2.5,3.85-.4,5.41-3.71,7.74-6.31,1.19-1.33,2.64-2.77,4.26-3.56s3.6-.07,5.05.69,2.71,1.92,3.67,3.32c.83,1.21,1.63,2.54,2.95,3.28,1.56.88,3.47.66,5.2.66,2.06,0,4.13,0,6.19,0,1.61,0,1.61-2.5,0-2.5h0Z"/>
      <path class="cls-8" d="m45.44,29.41h.17c.17,0,.33-.03.48-.11.15-.05.29-.14.4-.26.12-.11.21-.25.26-.4.08-.15.11-.31.11-.48l-.04-.33c-.06-.21-.17-.4-.32-.55l-.25-.2c-.19-.11-.41-.17-.63-.17h-.17c-.17,0-.33.03-.48.11-.15.05-.29.14-.4.26-.12.11-.21.25-.26.4-.08.15-.11.31-.11.48l.04.33c.06.21.17.4.32.55l.25.2c.19.11.41.17.63.17h0Z"/>
      <path class="cls-8" d="m49.89,28.36c1.61,0,1.61-2.5,0-2.5s-1.61,2.5,0,2.5h0Z"/>
      <path class="cls-8" d="m56.45,30.58c3.22,0,3.22-5,0-5s-3.22,5,0,5h0Z"/>
      <path class="cls-8" d="m53.04,31.68c1.61,0,1.61-2.5,0-2.5s-1.61,2.5,0,2.5h0Z"/>
      <path class="cls-8" d="m41.77,29.59c1.61,0,1.61-2.5,0-2.5s-1.61,2.5,0,2.5h0Z"/>
      <path class="cls-8" d="m46.92,26.82c3.22,0,3.22-5,0-5s-3.22,5,0,5h0Z"/>
      <path class="cls-8" d="m58.28,25.48c1.61,0,1.61-2.5,0-2.5s-1.61,2.5,0,2.5h0Z"/>
      <path class="cls-8" d="m35.74,28.02c1.61,0,1.61-2.5,0-2.5s-1.61,2.5,0,2.5h0Z"/>
    </g>
  </g>
  <g id="intro_page" data-name="intro page">
    <text class="cls-10" transform="translate(93.78 43.18)"><tspan x="0" y="0">Mee Siam</tspan></text>
  </g>
</svg>