<?xml version="1.0" encoding="UTF-8"?>
<svg id="Layer_2" data-name="Layer 2" xmlns="http://www.w3.org/2000/svg" viewBox="0 0 267.15 150.44">
  <defs>
    <style>
      .cls-1 {
        fill: #f28321;
      }

      .cls-2 {
        fill: #f16823;
      }

      .cls-3 {
        fill: #934227;
      }

      .cls-4, .cls-5, .cls-6 {
        fill: #c64127;
      }

      .cls-7 {
        fill: #59682e;
      }

      .cls-8 {
        fill: #f3941f;
        stroke: #f3941f;
      }

      .cls-8, .cls-5, .cls-6 {
        stroke-miterlimit: 10;
      }

      .cls-5 {
        stroke: #f79a75;
      }

      .cls-6 {
        stroke: #f4898b;
      }
    </style>
  </defs>
  <g id="exploreSugar">
    <g>
      <path class="cls-4" d="m80.05,124.34h107.05v21.1c0,2.76-2.24,5-5,5h-97.06c-2.76,0-5-2.24-5-5v-21.1h0Z"/>
      <path class="cls-3" d="m198.73,108.43c0,19.14-31.3,36.86-66.42,36.86s-66.42-17.72-66.42-36.86"/>
      <path class="cls-4" d="m266.65,36.67c0,55.63-59.58,100.73-133.08,100.73S.5,92.3.5,36.67"/>
      <path class="cls-5" d="m.5,36.67C.5,16.69,60.08.5,133.58.5s133.08,16.19,133.08,36.17"/>
      <path class="cls-6" d="m266.65,36.67c0,19.97-59.58,36.17-133.08,36.17S.5,56.64.5,36.67"/>
      <path class="cls-8" d="m258.31,48.19c-12.76,10.53-58.22,24.65-125.96,24.65S20.3,60.81,9.69,47.93C-3.51,31.88,64.61,11.69,132.35,11.69s144.21,21.43,125.96,36.49Z"/>
      <path class="cls-1" d="m54.77,63.04c9.22-4.92,20.1-2.71,29.86-1,10.8,1.9,21.87,3.57,32.33-.76,9.93-4.11,18.47-11.99,29.33-13.66,9.7-1.49,19.35,2.37,28.04,6.21,10.81,4.77,21.7,10.33,33.75,10.8,3.22.12,3.21-4.88,0-5-20.9-.81-37.69-18.21-58.9-17.28-5.57.24-10.79,1.94-15.75,4.42s-9.56,5.58-14.49,8.11c-4.71,2.42-9.64,3.97-14.95,4.18-5.34.21-10.65-.57-15.9-1.48-11.87-2.04-24.62-4.87-35.85,1.13-2.84,1.52-.32,5.83,2.52,4.32h0Z"/>
      <path class="cls-1" d="m45.62,57.47c2.7-4.33,7.65-6.42,12.38-7.71,6.06-1.66,12.39-2.52,18.64-2.98,6.78-.5,13.61-.42,20.38.24,6.39.62,13.1,1.71,19.24-.8,5.5-2.24,9.78-6.63,15.48-8.44,6.17-1.97,12.89-2.1,19.31-2.2,6.88-.11,13.77.23,20.6,1.01,5.61.64,11.42,1.64,16.58,4.05,2.77,1.29,5.26,2.96,7.5,5.02s4.18,4.2,6.44,6.12,4.9,3.7,7.87,4.53c3.69,1.03,7.49.54,11.21.02,1.34-.19,2.07-1.89,1.75-3.08-.4-1.44-1.73-1.93-3.08-1.75-3.07.43-6.25.78-9.24-.24-2.19-.75-4.1-2.22-5.8-3.76-4.18-3.75-7.78-7.93-12.85-10.57-5.37-2.79-11.3-4.15-17.25-4.97-6.89-.94-13.84-1.4-20.79-1.42s-13.61.13-20.19,1.51c-3.19.67-6.31,1.77-9.15,3.38-2.54,1.44-4.86,3.23-7.37,4.71-2.68,1.57-5.52,2.46-8.63,2.62s-6.4-.2-9.58-.54c-6.82-.73-13.67-.97-20.52-.58-7.32.42-14.8,1.35-21.89,3.29-6.04,1.65-11.96,4.53-15.37,10.01-1.71,2.74,2.62,5.25,4.32,2.52h0Z"/>
      <path class="cls-1" d="m181.63,63.88c-7.66-2.08-15.32-4.48-23.16-5.73-4.12-.66-8.28-1.08-12.43-.49-3.51.5-6.71,1.96-9.95,3.31s-6.82,2.83-10.39,1.99c-3.13-.74-4.47,4.08-1.33,4.82,7.19,1.69,13.2-2.65,19.79-4.61,3.72-1.1,7.62-.93,11.43-.43s7.73,1.42,11.52,2.4c4.41,1.14,8.79,2.37,13.19,3.56,3.11.84,4.44-3.98,1.33-4.82h0Z"/>
      <path class="cls-1" d="m36.76,46.73c.35-5.53,5.5-9.21,9.95-11.62,6.14-3.32,13.01-5.63,19.76-7.31s14.16-2.56,21.34-2.1c7.68.49,15.01,3.03,22.64,3.89,14.35,1.61,28.37-3.23,42.33-5.71,6.94-1.23,14.12-1.86,21.12-.71,3.76.62,7.44,1.61,11.09,2.71s7.22,2.18,10.74,3.51,6.79,3.15,9.65,5.65,5.81,5.32,9.44,6.98c7.15,3.25,15.11,3.14,22.79,2.83,3.21-.13,3.22-5.13,0-5-6.61.27-13.66.6-19.9-1.98-3.3-1.36-5.84-3.74-8.47-6.07-2.8-2.47-5.77-4.51-9.19-6.01s-6.99-2.61-10.55-3.74c-3.78-1.2-7.59-2.35-11.47-3.18-7.55-1.6-15.06-1.52-22.67-.45-14.23,2.02-28.18,7.34-42.73,6.36-7.79-.52-15.25-3.21-23.02-3.94-7.59-.71-15.28.04-22.7,1.72-4.16.94-8.24,2.19-12.23,3.67-3.68,1.37-7.38,2.84-10.82,4.74-6.06,3.34-11.65,8.45-12.1,15.76-.2,3.21,4.8,3.2,5,0h0Z"/>
      <path class="cls-1" d="m32.41,44.54c-.93,5.22-.14,10.52,2.37,15.2.62,1.15,2.31,1.61,3.42.9,1.17-.76,1.56-2.19.9-3.42-.25-.47-.49-.95-.71-1.43-.12-.27-.12-.28-.02-.03-.06-.14-.11-.28-.17-.43-.08-.21-.16-.43-.23-.64-.35-1.05-.62-2.12-.8-3.21-.02-.11-.04-.23-.05-.34.04.29.04.28,0-.01-.03-.27-.06-.53-.07-.8-.04-.53-.06-1.06-.06-1.6s.03-1.07.07-1.6c.02-.27.05-.53.08-.79-.07.57.07-.37.08-.46.23-1.28-.35-2.76-1.75-3.08-1.22-.28-2.83.37-3.08,1.75h0Z"/>
      <path class="cls-2" d="m49.32,45.66c18.26-10.09,40.43-12.6,60.47-6.77,5.57,1.62,10.94,3.81,16.49,5.48s11.16,2.67,16.87,3.14c11.38.93,22.89-.43,33.98-3.02,6.24-1.46,12.34-3.38,18.39-5.47s12.13-4.21,18.34-2.77c3.13.72,4.47-4.09,1.33-4.82-5.89-1.36-11.81-.21-17.47,1.59-5.52,1.75-10.94,3.76-16.53,5.29-11.12,3.04-22.62,4.87-34.17,4.44-5.57-.21-11.1-.96-16.49-2.37-5.76-1.5-11.28-3.74-16.94-5.55-10.29-3.29-21.19-4.61-31.97-3.79-12.2.92-24.11,4.39-34.82,10.31-2.82,1.56-.3,5.88,2.52,4.32h0Z"/>
      <path class="cls-2" d="m65.26,60.31c9.96-3.86,20.71-3.37,31.19-2.95,5.18.21,10.36.32,15.54.18s10.21-.4,15.32-.46c9.9-.1,20.17.57,29.13,5.18,4.54,2.33,8.69,5.4,13.57,7.02s10.05,1.55,14.91.32c10.93-2.76,19.07-11.41,24.24-21.06,1.52-2.84-2.8-5.37-4.32-2.52-4.29,8.03-10.72,15.49-19.66,18.31-4.36,1.38-9.04,1.64-13.43.26-4.75-1.48-8.76-4.64-13.17-6.85-9.08-4.55-19.28-5.66-29.31-5.67s-20.36.76-30.56.38c-11.63-.44-23.7-1.25-34.78,3.04-1.26.49-2.13,1.68-1.75,3.08.33,1.2,1.81,2.24,3.08,1.75h0Z"/>
      <path class="cls-2" d="m33.8,41.42c-.08-.57.3-1.35.74-1.9.73-.9,1.77-1.56,2.78-2.11,2.45-1.34,5.27-2.08,7.94-2.84,6.06-1.74,12.28-2.93,18.55-3.6,12.95-1.38,26.04-.83,38.97.58,13.58,1.48,27.02,3.93,40.51,5.99s26.44,3.9,39.75,3.84,26.09-2.43,36.12-10.94c1.03-.87.9-2.64,0-3.54-1.02-1.02-2.5-.88-3.54,0-8.64,7.33-20.38,9.29-31.38,9.46-13.33.21-26.71-1.67-39.86-3.69-26.83-4.11-53.99-9.69-81.25-6.64-7.39.83-14.72,2.24-21.82,4.49-5.72,1.82-13.34,4.89-12.33,12.22.19,1.34,1.9,2.07,3.08,1.75,1.44-.4,1.93-1.73,1.75-3.08h0Z"/>
      <path class="cls-2" d="m225.14,48.37c-6.94,0-13.87,0-20.81,0h-10.41c-3.2,0-6.51.22-9.69-.24-5.21-.76-8.66-4.42-11.56-8.53-3.11-4.42-5.9-8.97-9.75-12.81-7.94-7.92-18.87-13.42-30.12-14.3-3.24-.25-6.47.14-9.47,1.39s-5.43,2.89-7.92,4.71c-5.02,3.66-9.69,7.78-13.88,12.36-4.68,5.12-8.36,11-12.87,16.24-4.03,4.68-9.31,9.13-15.75,9.55-1.35.09-2.5,1.09-2.5,2.5,0,1.29,1.15,2.59,2.5,2.5,6.06-.4,11.41-3.35,15.83-7.4s7.99-9.56,11.8-14.48,8.05-9.3,12.73-13.27c2.28-1.93,4.66-3.76,7.15-5.42s5.03-3.12,7.97-3.58,6.01,0,8.89.63c2.65.59,5.28,1.4,7.78,2.46,4.85,2.06,9.36,4.98,13.21,8.58s6.67,7.93,9.67,12.27,6.48,8.55,11.56,10.53c3.32,1.29,6.96,1.34,10.47,1.34,3.88,0,7.76,0,11.64,0,7.85,0,15.69,0,23.54,0,3.22,0,3.22-5,0-5h0Z"/>
      <path class="cls-7" d="m117.78,45.78h.76c.34.01.67-.06.96-.22.31-.1.58-.27.8-.52.24-.23.42-.49.52-.8.16-.3.23-.62.22-.96l-.09-.66c-.12-.42-.33-.79-.64-1.1l-.51-.39c-.39-.23-.81-.34-1.26-.34h-.76c-.34-.01-.67.06-.96.22-.31.1-.58.27-.8.52-.24.23-.42.49-.52.8-.16.3-.23.62-.22.96l.09.66c.12.42.33.79.64,1.1l.51.39c.39.23.81.34,1.26.34h0Z"/>
      <path class="cls-7" d="m137.13,41.23c3.22,0,3.22-5,0-5s-3.22,5,0,5h0Z"/>
      <path class="cls-7" d="m165.58,45.4c3.22,0,3.22-5,0-5s-3.22,5,0,5h0Z"/>
      <path class="cls-7" d="m150.78,55.65c3.22,0,3.22-5,0-5s-3.22,5,0,5h0Z"/>
      <path class="cls-7" d="m101.84,46.54c3.22,0,3.22-5,0-5s-3.22,5,0,5h0Z"/>
      <path class="cls-7" d="m124.23,29.09c3.22,0,3.22-5,0-5s-3.22,5,0,5h0Z"/>
      <path class="cls-7" d="m173.55,28.71c3.22,0,3.22-5,0-5s-3.22,5,0,5h0Z"/>
      <path class="cls-7" d="m75.67,39.71c3.22,0,3.22-5,0-5s-3.22,5,0,5h0Z"/>
    </g>
  </g>
</svg>