<?xml version="1.0" encoding="UTF-8"?>
<svg id="Layer_2" data-name="Layer 2" xmlns="http://www.w3.org/2000/svg" viewBox="0 0 266.15 209.78">
  <defs>
    <style>
      .cls-1 {
        fill: #fff;
      }

      .cls-2 {
        fill: #934227;
      }

      .cls-3 {
        fill: #c64127;
      }
    </style>
  </defs>
  <g id="exploreSugar">
    <g>
      <path class="cls-3" d="m79.55,183.68h107.05v21.1c0,2.76-2.24,5-5,5h-97.06c-2.76,0-5-2.24-5-5v-21.1h0Z"/>
      <path class="cls-1" d="m93.03,68.37c-2.36,1.05-4.99-1-6.22-2.84-1.64-2.45-2.84-5.6-3.02-8.55-.38-6.21,3.93-11.22,8.17-15.22,4.71-4.44,10.07-8.56,12.87-14.58,2.55-5.48,2.77-11.8-.92-16.83S94.17,2.5,88.45.13c-1.25-.52-2.75.56-3.08,1.75-.4,1.44.49,2.56,1.75,3.08,4.51,1.87,9.71,4.11,12.66,8.19,3.55,4.9,1.75,10.9-1.59,15.4-3.92,5.29-9.7,8.87-13.84,13.97-2.07,2.55-3.83,5.34-4.82,8.49-1.04,3.34-.95,6.89-.03,10.24.97,3.53,2.65,7.3,5.5,9.72,3,2.55,6.92,3.34,10.55,1.72,1.23-.55,1.53-2.35.9-3.42-.74-1.27-2.18-1.45-3.42-.9h0Z"/>
      <path class="cls-1" d="m129.07,70.45c-2.36,1.05-4.99-1-6.22-2.84-1.64-2.45-2.84-5.6-3.02-8.55-.38-6.21,3.93-11.22,8.17-15.22,4.71-4.44,10.07-8.56,12.87-14.58,2.55-5.48,2.77-11.8-.92-16.83s-9.74-7.85-15.46-10.22c-1.25-.52-2.75.56-3.08,1.75-.4,1.44.49,2.56,1.75,3.08,4.51,1.87,9.71,4.11,12.66,8.19,3.55,4.9,1.75,10.9-1.59,15.4-3.92,5.29-9.7,8.87-13.84,13.97-2.07,2.55-3.83,5.34-4.82,8.49-1.04,3.34-.95,6.89-.03,10.24.97,3.53,2.65,7.3,5.5,9.72,3,2.55,6.92,3.34,10.55,1.72,1.23-.55,1.53-2.35.9-3.42-.74-1.27-2.18-1.45-3.42-.9h0Z"/>
      <path class="cls-1" d="m162.54,73.74c-2.36,1.05-4.99-1-6.22-2.84-1.64-2.45-2.84-5.6-3.02-8.55-.38-6.21,3.93-11.22,8.17-15.22,4.71-4.44,10.07-8.56,12.87-14.58,2.55-5.48,2.77-11.8-.92-16.83s-9.74-7.85-15.46-10.22c-1.25-.52-2.75.56-3.08,1.75-.4,1.44.49,2.56,1.75,3.08,4.51,1.87,9.71,4.11,12.66,8.19,3.55,4.9,1.75,10.9-1.59,15.4-3.92,5.29-9.7,8.87-13.84,13.97-2.07,2.55-3.83,5.34-4.82,8.49-1.04,3.34-.95,6.89-.03,10.24.97,3.53,2.65,7.3,5.5,9.72,3,2.55,6.92,3.34,10.55,1.72,1.23-.55,1.53-2.35.9-3.42-.74-1.27-2.18-1.45-3.42-.9h0Z"/>
      <path class="cls-2" d="m198.23,167.77c0,19.14-31.3,36.86-66.42,36.86s-66.42-17.72-66.42-36.86"/>
      <path class="cls-3" d="m266.15,96c0,55.63-59.58,100.73-133.08,100.73S0,151.63,0,96"/>
    </g>
  </g>
</svg>