<?xml version="1.0" encoding="UTF-8"?>
<svg id="Layer_2" data-name="Layer 2" xmlns="http://www.w3.org/2000/svg" viewBox="0 0 860.4 431.75">
  <defs>
    <style>
      .cls-1 {
        font-family: TrebuchetMS, 'Trebuchet MS';
        font-size: 22px;
      }

      .cls-1, .cls-2 {
        fill: #f1f2f2;
      }

      .cls-3 {
        fill: #f28321;
      }

      .cls-4 {
        fill: #f16823;
      }

      .cls-5 {
        fill: #934227;
      }

      .cls-6, .cls-7, .cls-8 {
        fill: #c64127;
      }

      .cls-9 {
        fill: #3b57a7;
      }

      .cls-10 {
        fill: #59682e;
      }

      .cls-11 {
        letter-spacing: -.03em;
      }

      .cls-12 {
        fill: #d6cdd5;
        font-size: 28px;
      }

      .cls-12, .cls-13, .cls-14 {
        font-family: TrebuchetMS-Bold, 'Trebuchet MS';
        font-weight: 700;
      }

      .cls-15 {
        letter-spacing: -.06em;
      }

      .cls-16 {
        fill: #72cbcb;
      }

      .cls-16, .cls-17, .cls-7, .cls-8, .cls-18 {
        stroke-miterlimit: 10;
      }

      .cls-16, .cls-18 {
        stroke: #72cbcb;
      }

      .cls-17 {
        fill: #f3941f;
        stroke: #f3941f;
      }

      .cls-7 {
        stroke: #f79a75;
      }

      .cls-8 {
        stroke: #f4898b;
      }

      .cls-13 {
        font-size: 27px;
      }

      .cls-13, .cls-18, .cls-14 {
        fill: #fff;
      }

      .cls-18 {
        stroke-width: 3px;
      }

      .cls-14 {
        font-size: 39px;
      }
    </style>
  </defs>
  <g id="exploreSugar">
    <rect class="cls-9" x="0" y="0" width="860.4" height="431.75" rx="57.84" ry="57.84"/>
    <g>
      <g>
        <path class="cls-16" d="m493.36,157.3c-7.66,0-13.86,2.11-13.86,4.71,0,5.62,6.21,10.18,13.86,10.18s13.86-4.56,13.86-10.18c0-2.6-6.21-4.71-13.86-4.71Z"/>
        <path class="cls-16" d="m550.81,147.51c-.62-.73-1.63-.98-2.58-1.07-5.31-.5-10.2,2.64-14.68,5.55-1.13.73-21.29,10.77-25.86,10.13l-.46,2.16c7.42.18,36.88-8.76,40.49-10.79,1.12-.63,2.27-1.31,3-2.37s.92-2.62.08-3.61Z"/>
      </g>
      <path class="cls-18" d="m482.96,162.97c-.3.35.39.52.34.98-.04.45,1.23,1.06,4.12,1.16,5.35.18,11.11,1.35,16.11-.61.38-.15.5-.64.23-.95l-7.86-9.06c-1.52-1.56-4.01-1.57-5.55-.03l-7.39,8.52"/>
    </g>
    <g>
      <g>
        <path class="cls-16" d="m572.58,157.3c-7.66,0-13.86,2.11-13.86,4.71,0,5.62,6.21,10.18,13.86,10.18s13.86-4.56,13.86-10.18c0-2.6-6.21-4.71-13.86-4.71Z"/>
        <path class="cls-16" d="m630.02,147.51c-.62-.73-1.63-.98-2.58-1.07-5.31-.5-10.2,2.64-14.68,5.55-1.13.73-21.29,10.77-25.86,10.13l-.46,2.16c7.42.18,36.88-8.76,40.49-10.79,1.12-.63,2.27-1.31,3-2.37s.92-2.62.08-3.61Z"/>
      </g>
      <path class="cls-18" d="m562.18,162.97c-.3.35.39.52.34.98-.04.45,1.23,1.06,4.12,1.16,5.35.18,11.11,1.35,16.11-.61.38-.15.5-.64.23-.95l-7.86-9.06c-1.52-1.56-4.01-1.57-5.55-.03l-7.39,8.52"/>
    </g>
    <g>
      <g>
        <path class="cls-16" d="m651.8,157.3c-7.66,0-13.86,2.11-13.86,4.71,0,5.62,6.21,10.18,13.86,10.18s13.86-4.56,13.86-10.18c0-2.6-6.21-4.71-13.86-4.71Z"/>
        <path class="cls-16" d="m709.24,147.51c-.62-.73-1.63-.98-2.58-1.07-5.31-.5-10.2,2.64-14.68,5.55-1.13.73-21.29,10.77-25.86,10.13l-.46,2.16c7.42.18,36.88-8.76,40.49-10.79,1.12-.63,2.27-1.31,3-2.37s.92-2.62.08-3.61Z"/>
      </g>
      <path class="cls-18" d="m641.39,162.97c-.3.35.39.52.34.98-.04.45,1.23,1.06,4.12,1.16,5.35.18,11.11,1.35,16.11-.61.38-.15.5-.64.23-.95l-7.86-9.06c-1.52-1.56-4.01-1.57-5.55-.03l-7.39,8.52"/>
    </g>
    <text class="cls-14" transform="translate(475 70)"><tspan x="0" y="0">Attack stats </tspan></text>
    <text class="cls-12" transform="translate(473.28 117.12)"><tspan x="0" y="0">teaspoons of sugar</tspan></text>
    <text class="cls-12" transform="translate(467.29 315.98)"><tspan x="0" y="0">defense st</tspan><tspan class="cls-11" x="135.06" y="0">r</tspan><tspan x="146.15" y="0">ategy</tspan></text>
    <g>
      <g>
        <path class="cls-16" d="m723.45,157.3c-7.66,0-13.86,2.11-13.86,4.71,0,5.62,6.21,10.18,13.86,10.18s13.86-4.56,13.86-10.18c0-2.6-6.21-4.71-13.86-4.71Z"/>
        <path class="cls-16" d="m780.9,147.51c-.62-.73-1.63-.98-2.58-1.07-5.31-.5-10.2,2.64-14.68,5.55-1.13.73-21.29,10.77-25.86,10.13l-.46,2.16c7.42.18,36.88-8.76,40.49-10.79,1.12-.63,2.27-1.31,3-2.37s.92-2.62.08-3.61Z"/>
      </g>
      <path class="cls-18" d="m713.05,162.97c-.3.35.39.52.34.98-.04.45,1.23,1.06,4.12,1.16,5.35.18,11.11,1.35,16.11-.61.38-.15.5-.64.23-.95l-7.86-9.06c-1.52-1.56-4.01-1.57-5.55-.03l-7.39,8.52"/>
    </g>
    <g>
      <g>
        <path class="cls-16" d="m491.77,200.69c-7.66,0-13.86,2.11-13.86,4.71,0,5.62,6.21,10.18,13.86,10.18s13.86-4.56,13.86-10.18c0-2.6-6.21-4.71-13.86-4.71Z"/>
        <path class="cls-16" d="m549.21,190.9c-.62-.73-1.63-.98-2.58-1.07-5.31-.5-10.2,2.64-14.68,5.55-1.13.73-21.29,10.77-25.86,10.13l-.46,2.16c7.42.18,36.88-8.76,40.49-10.79,1.12-.63,2.27-1.31,3-2.37s.92-2.62.08-3.61Z"/>
      </g>
      <path class="cls-18" d="m481.36,206.36c-.3.35.39.52.34.98-.04.45,1.23,1.06,4.12,1.16,5.35.18,11.11,1.35,16.11-.61.38-.15.5-.64.23-.95l-7.86-9.06c-1.52-1.56-4.01-1.57-5.55-.03l-7.39,8.52"/>
    </g>
    <g>
      <g>
        <path class="cls-16" d="m570.98,200.69c-7.66,0-13.86,2.11-13.86,4.71,0,5.62,6.21,10.18,13.86,10.18s13.86-4.56,13.86-10.18c0-2.6-6.21-4.71-13.86-4.71Z"/>
        <path class="cls-16" d="m628.42,190.9c-.62-.73-1.63-.98-2.58-1.07-5.31-.5-10.2,2.64-14.68,5.55-1.13.73-21.29,10.77-25.86,10.13l-.46,2.16c7.42.18,36.88-8.76,40.49-10.79,1.12-.63,2.27-1.31,3-2.37s.92-2.62.08-3.61Z"/>
      </g>
      <path class="cls-18" d="m560.58,206.36c-.3.35.39.52.34.98-.04.45,1.23,1.06,4.12,1.16,5.35.18,11.11,1.35,16.11-.61.38-.15.5-.64.23-.95l-7.86-9.06c-1.52-1.56-4.01-1.57-5.55-.03l-7.39,8.52"/>
    </g>
    <g>
      <g>
        <path class="cls-16" d="m650.2,200.69c-7.66,0-13.86,2.11-13.86,4.71,0,5.62,6.21,10.18,13.86,10.18s13.86-4.56,13.86-10.18c0-2.6-6.21-4.71-13.86-4.71Z"/>
        <path class="cls-16" d="m707.64,190.9c-.62-.73-1.63-.98-2.58-1.07-5.31-.5-10.2,2.64-14.68,5.55-1.13.73-21.29,10.77-25.86,10.13l-.46,2.16c7.42.18,36.88-8.76,40.49-10.79,1.12-.63,2.27-1.31,3-2.37s.92-2.62.08-3.61Z"/>
      </g>
      <path class="cls-18" d="m639.8,206.36c-.3.35.39.52.34.98-.04.45,1.23,1.06,4.12,1.16,5.35.18,11.11,1.35,16.11-.61.38-.15.5-.64.23-.95l-7.86-9.06c-1.52-1.56-4.01-1.57-5.55-.03l-7.39,8.52"/>
    </g>
    <g>
      <g>
        <path class="cls-16" d="m721.85,200.69c-7.66,0-13.86,2.11-13.86,4.71,0,5.62,6.21,10.18,13.86,10.18s13.86-4.56,13.86-10.18c0-2.6-6.21-4.71-13.86-4.71Z"/>
        <path class="cls-16" d="m779.3,190.9c-.62-.73-1.63-.98-2.58-1.07-5.31-.5-10.2,2.64-14.68,5.55-1.13.73-21.29,10.77-25.86,10.13l-.46,2.16c7.42.18,36.88-8.76,40.49-10.79,1.12-.63,2.27-1.31,3-2.37s.92-2.62.08-3.61Z"/>
      </g>
      <path class="cls-18" d="m711.45,206.36c-.3.35.39.52.34.98-.04.45,1.23,1.06,4.12,1.16,5.35.18,11.11,1.35,16.11-.61.38-.15.5-.64.23-.95l-7.86-9.06c-1.52-1.56-4.01-1.57-5.55-.03l-7.39,8.52"/>
    </g>
    <circle class="cls-2" cx="229.5" cy="193.72" r="114.71"/>
    <text class="cls-13" transform="translate(171.64 365.33)"><tspan x="0" y="0">Mee Siam</tspan></text>
    <text class="cls-1" transform="translate(466.63 348.75)"><tspan class="cls-15" x="0" y="0">A</tspan><tspan x="11.76" y="0">void consuming all the sweet </tspan><tspan x="0" y="26.4">and spicy gravy to minimise the </tspan><tspan x="0" y="52.8">sugar level.</tspan></text>
    <g>
      <path class="cls-6" d="m183.31,259.42h95.38v18.25c0,2.76-2.24,5-5,5h-85.38c-2.76,0-5-2.24-5-5v-18.25h0Z"/>
      <path class="cls-5" d="m289.05,245.24c0,17.05-27.88,32.84-59.18,32.84s-59.18-15.79-59.18-32.84"/>
      <path class="cls-6" d="m349.56,181.3c0,49.56-53.08,89.74-118.56,89.74s-118.56-40.18-118.56-89.74"/>
      <path class="cls-7" d="m112.44,181.3c0-17.8,53.08-32.22,118.56-32.22s118.56,14.43,118.56,32.22"/>
      <path class="cls-8" d="m349.56,181.3c0,17.8-53.08,32.22-118.56,32.22s-118.56-14.43-118.56-32.22"/>
      <path class="cls-17" d="m342.13,191.56c-11.37,9.38-51.87,21.96-112.22,21.96s-99.83-10.71-109.28-22.19c-11.77-14.29,48.93-32.28,109.28-32.28s128.48,19.09,112.22,32.51Z"/>
      <path class="cls-3" d="m160.93,205.04c8.15-4.34,17.79-2.37,26.42-.86,9.67,1.7,19.57,3.19,28.94-.68,8.84-3.65,16.46-10.7,26.14-12.17,8.61-1.31,17.19,2.16,24.91,5.58,9.63,4.26,19.32,9.17,30.05,9.59,3.22.13,3.21-4.87,0-5-18.65-.73-33.64-16.3-52.6-15.39-5,.24-9.67,1.78-14.12,4.01s-8.53,4.99-12.93,7.24c-4.13,2.11-8.47,3.46-13.12,3.64s-9.63-.54-14.38-1.36c-10.56-1.82-21.84-4.23-31.82,1.09-2.84,1.51-.32,5.83,2.52,4.32h0Z"/>
      <path class="cls-3" d="m152.88,199.97c2.37-3.79,6.7-5.6,10.84-6.74,5.45-1.5,11.16-2.27,16.79-2.67,5.96-.43,11.96-.35,17.91.23,5.62.55,11.51,1.5,16.94-.6,5.04-1.95,8.92-6,14.1-7.65s11.12-1.83,16.67-1.94c6.12-.11,12.24.16,18.32.83,5.06.56,10.32,1.4,14.97,3.55,2.48,1.15,4.72,2.62,6.74,4.47,1.91,1.75,3.67,3.67,5.63,5.36,2.1,1.8,4.39,3.36,7.07,4.17,3.39,1.02,6.91.56,10.34.08,1.34-.19,2.07-1.89,1.75-3.08-.4-1.44-1.73-1.93-3.08-1.75-2.77.39-5.69.71-8.37-.31-1.95-.74-3.62-2.11-5.13-3.51-3.74-3.44-7.05-7.12-11.69-9.4-4.93-2.43-10.27-3.57-15.68-4.28-6.11-.81-12.27-1.18-18.43-1.17s-12.1.15-17.92,1.46c-2.74.62-5.41,1.61-7.85,3.01-2.31,1.33-4.42,2.97-6.74,4.29-5.07,2.89-10.71,2.17-16.28,1.59-6.09-.64-12.21-.81-18.32-.43-6.44.4-13.03,1.23-19.25,2.96-5.38,1.5-10.6,4.11-13.65,8.98-1.71,2.74,2.61,5.25,4.32,2.52h0Z"/>
      <path class="cls-3" d="m273.89,205.28c-8.88-2.41-17.98-5.53-27.25-5.81-4.35-.13-8.21,1-12.18,2.67-3.22,1.36-6.83,3.15-10.4,2.32-3.13-.73-4.47,4.09-1.33,4.82,8.23,1.92,14.91-4.81,22.96-4.82,4.5,0,8.98.94,13.33,2.02s9.03,2.4,13.54,3.63c3.11.84,4.44-3.98,1.33-4.82h0Z"/>
      <path class="cls-3" d="m145.02,190.26c.32-4.91,5.03-8.16,8.99-10.25,5.44-2.88,11.47-4.92,17.43-6.38,6.33-1.56,12.85-2.27,19.37-1.79s13.27,2.78,20.03,3.47c12.87,1.31,25.39-3.08,37.91-5.25,6.06-1.05,12.32-1.53,18.42-.48,6.43,1.1,12.87,3.16,18.98,5.43,3.28,1.22,6.21,2.89,8.84,5.2s5.09,4.62,8.24,6.07c6.41,2.95,13.57,2.85,20.48,2.57,3.21-.13,3.22-5.13,0-5-5.93.24-12.39.59-17.95-1.89-2.8-1.25-4.96-3.29-7.23-5.29-2.5-2.2-5.17-4.01-8.23-5.34s-6.33-2.36-9.55-3.37-6.58-2.03-9.94-2.75c-6.77-1.45-13.51-1.4-20.34-.44-12.76,1.8-25.27,6.59-38.31,5.66-6.83-.49-13.38-2.83-20.21-3.49s-13.8.03-20.5,1.55c-7.04,1.6-14.27,4.03-20.6,7.55-5.46,3.03-10.39,7.64-10.82,14.22-.09,1.35,1.21,2.5,2.5,2.5,1.43,0,2.41-1.15,2.5-2.5h0Z"/>
      <path class="cls-3" d="m140.6,188.24c-.84,4.72-.14,9.51,2.14,13.75.62,1.15,2.31,1.61,3.42.9,1.17-.76,1.56-2.19.9-3.42-.23-.42-.43-.85-.63-1.28-.11-.26-.11-.25.01.04-.05-.13-.1-.25-.15-.38-.07-.19-.14-.38-.21-.57-.32-.93-.55-1.89-.71-2.86-.02-.1-.03-.2-.05-.3.04.33.05.35,0,.06-.02-.24-.05-.47-.07-.71-.04-.47-.05-.95-.05-1.42s.02-.95.06-1.42c.02-.23.03-.48.07-.71-.12.66.04-.22.07-.34.23-1.28-.35-2.76-1.75-3.08-1.22-.28-2.83.37-3.08,1.75h0Z"/>
      <path class="cls-4" d="m156.07,189.55c16.15-8.92,35.73-11.16,53.46-6.06,5.02,1.45,9.87,3.43,14.88,4.94s9.95,2.38,15.05,2.8c10.12.84,20.37-.36,30.24-2.65,5.48-1.27,10.85-2.94,16.16-4.78s10.97-3.89,16.59-2.6c3.13.72,4.47-4.1,1.33-4.82-5.37-1.23-10.74-.18-15.89,1.47-4.87,1.56-9.65,3.32-14.59,4.66-9.83,2.68-19.99,4.3-30.21,3.93-5.1-.18-10.15-.89-15.09-2.19s-10.05-3.37-15.1-4.96c-9.17-2.9-18.91-4.02-28.5-3.25-10.81.86-21.36,3.95-30.87,9.2-2.82,1.56-.3,5.88,2.52,4.32h0Z"/>
      <path class="cls-4" d="m170.2,202.62c8.83-3.41,18.34-2.99,27.63-2.62,4.66.19,9.31.29,13.97.16s9.17-.36,13.75-.41c8.74-.08,17.81.52,25.72,4.6,4.1,2.11,7.85,4.88,12.27,6.31s8.98,1.33,13.31.23c9.79-2.49,17.08-10.23,21.71-18.88,1.52-2.84-2.8-5.36-4.32-2.52-3.83,7.15-9.54,13.78-17.53,16.25-3.94,1.22-8.13,1.37-12.06.04-4.17-1.4-7.71-4.21-11.64-6.13-8.07-3.93-17.07-4.89-25.95-4.9s-17.97.68-26.98.34c-10.44-.39-21.28-1.13-31.23,2.71-1.26.49-2.13,1.68-1.75,3.08.33,1.2,1.81,2.24,3.08,1.75h0Z"/>
      <path class="cls-4" d="m142.37,185.46c-.17-1.28,1.84-2.63,3.01-3.27,2.22-1.22,4.79-1.87,7.21-2.56,5.5-1.57,11.15-2.62,16.85-3.2,11.56-1.17,23.23-.64,34.75.65,12.02,1.34,23.93,3.52,35.89,5.34,11.67,1.78,23.54,3.46,35.37,3.36,11.38-.09,23.09-2.28,31.99-9.82,1.03-.87.9-2.64,0-3.54-1.02-1.02-2.5-.88-3.54,0-7.67,6.5-18.11,8.21-27.85,8.35-11.91.18-23.86-1.51-35.6-3.32-23.9-3.67-48.1-8.62-72.37-5.87-6.59.75-13.12,2-19.44,4.02-5.27,1.68-11.98,4.51-11.08,11.19.18,1.34,1.9,2.07,3.08,1.75,1.45-.4,1.93-1.73,1.75-3.08h0Z"/>
      <path class="cls-4" d="m312.58,191.45c-6.3,0-12.6,0-18.91,0h-9.2c-2.78,0-5.66.2-8.41-.23-4.6-.72-7.6-4.03-10.14-7.67-2.71-3.88-5.19-7.86-8.56-11.23-7.15-7.14-17-12.07-27.13-12.84-2.86-.22-5.73.15-8.39,1.24s-5,2.66-7.3,4.34c-4.44,3.25-8.57,6.89-12.28,10.95-4.19,4.58-7.48,9.86-11.54,14.54-3.53,4.08-8.14,7.97-13.77,8.35-1.35.09-2.5,1.08-2.5,2.5,0,1.28,1.15,2.59,2.5,2.5,5.43-.36,10.21-2.96,14.18-6.57s7.1-8.41,10.44-12.76,7.1-8.27,11.23-11.81c1.98-1.7,4.05-3.29,6.21-4.77s4.46-2.86,7.08-3.37,5.39-.1,7.96.46c2.4.52,4.78,1.25,7.04,2.21,4.31,1.83,8.32,4.43,11.74,7.63s5.9,7.02,8.55,10.87,5.76,7.58,10.25,9.4c2.96,1.2,6.22,1.28,9.37,1.28,3.47,0,6.95,0,10.42,0,7.05,0,14.1,0,21.14,0,3.22,0,3.22-5,0-5h0Z"/>
      <path class="cls-10" d="m216.93,189.69h.68c.34.01.67-.06.96-.22.31-.1.58-.27.8-.52.24-.23.42-.49.52-.8.16-.3.23-.62.22-.96l-.09-.66c-.12-.42-.33-.79-.64-1.1l-.51-.39c-.39-.23-.81-.34-1.26-.34h-.68c-.34-.01-.67.06-.96.22-.31.1-.58.27-.8.52-.24.23-.42.49-.52.8-.16.3-.23.62-.22.96l.09.66c.12.42.33.79.64,1.1l.51.39c.39.23.81.34,1.26.34h0Z"/>
      <path class="cls-10" d="m234.16,185.64c3.22,0,3.22-5,0-5s-3.22,5,0,5h0Z"/>
      <path class="cls-10" d="m259.51,189.36c3.22,0,3.22-5,0-5s-3.22,5,0,5h0Z"/>
      <path class="cls-10" d="m246.33,198.48c3.22,0,3.22-5,0-5s-3.22,5,0,5h0Z"/>
      <path class="cls-10" d="m202.73,190.37c3.22,0,3.22-5,0-5s-3.22,5,0,5h0Z"/>
      <path class="cls-10" d="m222.67,174.82c3.22,0,3.22-5,0-5s-3.22,5,0,5h0Z"/>
      <path class="cls-10" d="m266.61,174.48c3.22,0,3.22-5,0-5s-3.22,5,0,5h0Z"/>
      <path class="cls-10" d="m179.41,184.29c3.22,0,3.22-5,0-5s-3.22,5,0,5h0Z"/>
    </g>
    <g>
      <g>
        <path class="cls-16" d="m488.94,244.02c-7.66,0-13.86,2.11-13.86,4.71,0,5.62,6.21,10.18,13.86,10.18s13.86-4.56,13.86-10.18c0-2.6-6.21-4.71-13.86-4.71Z"/>
        <path class="cls-16" d="m546.39,234.24c-.62-.73-1.63-.98-2.58-1.07-5.31-.5-10.2,2.64-14.68,5.55-1.13.73-21.29,10.77-25.86,10.13l-.46,2.16c7.42.18,36.88-8.76,40.49-10.79,1.12-.63,2.27-1.31,3-2.37s.92-2.62.08-3.61Z"/>
      </g>
      <path class="cls-18" d="m478.54,249.69c-.3.35.39.52.34.98-.04.45,1.23,1.06,4.12,1.16,5.35.18,11.11,1.35,16.11-.61.38-.15.5-.64.23-.95l-7.86-9.06c-1.52-1.56-4.01-1.57-5.55-.03l-7.39,8.52"/>
    </g>
    <g>
      <g>
        <path class="cls-16" d="m568.16,244.02c-7.66,0-13.86,2.11-13.86,4.71,0,5.62,6.21,10.18,13.86,10.18s13.86-4.56,13.86-10.18c0-2.6-6.21-4.71-13.86-4.71Z"/>
        <path class="cls-16" d="m625.6,234.24c-.62-.73-1.63-.98-2.58-1.07-5.31-.5-10.2,2.64-14.68,5.55-1.13.73-21.29,10.77-25.86,10.13l-.46,2.16c7.42.18,36.88-8.76,40.49-10.79,1.12-.63,2.27-1.31,3-2.37s.92-2.62.08-3.61Z"/>
      </g>
      <path class="cls-18" d="m557.76,249.69c-.3.35.39.52.34.98-.04.45,1.23,1.06,4.12,1.16,5.35.18,11.11,1.35,16.11-.61.38-.15.5-.64.23-.95l-7.86-9.06c-1.52-1.56-4.01-1.57-5.55-.03l-7.39,8.52"/>
    </g>
    <g>
      <g>
        <path class="cls-16" d="m639.81,244.02c-7.66,0-13.86,2.11-13.86,4.71,0,5.62,6.21,10.18,13.86,10.18s13.86-4.56,13.86-10.18c0-2.6-6.21-4.71-13.86-4.71Z"/>
        <path class="cls-16" d="m697.26,234.24c-.62-.73-1.63-.98-2.58-1.07-5.31-.5-10.2,2.64-14.68,5.55-1.13.73-21.29,10.77-25.86,10.13l-.46,2.16c7.42.18,36.88-8.76,40.49-10.79,1.12-.63,2.27-1.31,3-2.37.73-1.06.92-2.62.08-3.61Z"/>
      </g>
      <path class="cls-18" d="m629.41,249.69c-.3.35.39.52.34.98-.04.45,1.23,1.06,4.12,1.16,5.35.18,11.11,1.35,16.11-.61.38-.15.5-.64.23-.95l-7.86-9.06c-1.52-1.56-4.01-1.57-5.55-.03l-7.39,8.52"/>
    </g>
  </g>
</svg>