<?xml version="1.0" encoding="UTF-8"?>
<svg id="Layer_2" data-name="Layer 2" xmlns="http://www.w3.org/2000/svg" viewBox="0 0 93.85 71.15">
  <defs>
    <style>
      .cls-1 {
        fill: #fff;
      }

      .cls-2 {
        fill: #934227;
      }

      .cls-3 {
        fill: #b5ddbe;
      }

      .cls-4 {
        fill: #c64127;
      }
    </style>
  </defs>
  <g id="intro_page" data-name="intro page">
    <g>
      <rect class="cls-1" x="0" y="0" width="93.85" height="71.15" rx="35.57" ry="35.57"/>
      <g>
        <path class="cls-4" d="m36.11,57.78h25.56v1.23c0,2.76-2.24,5-5,5h-15.56c-2.76,0-5-2.24-5-5v-1.23h0Z"/>
        <path class="cls-3" d="m39.3,29.57c-.8.31-1.2-.77-1.38-1.38-.27-.9-.1-1.67.4-2.45,1.03-1.6,2.79-2.57,3.89-4.13s1.46-3.59.46-5.27c-.93-1.56-2.66-2.34-4.26-3.01-.63-.26-1.37.28-1.54.87-.21.72.25,1.28.87,1.54,1.32.55,3.31,1.43,2.98,3.18-.36,1.91-2.46,3.05-3.67,4.39-1.39,1.55-2.17,3.46-1.55,5.53.56,1.88,2.25,3.97,4.46,3.13.63-.24,1.07-.84.87-1.54-.17-.6-.9-1.12-1.54-.87h0Z"/>
        <path class="cls-3" d="m47.91,30.06c-.8.31-1.2-.77-1.38-1.38-.27-.9-.1-1.67.4-2.45,1.03-1.6,2.79-2.57,3.89-4.13s1.46-3.59.46-5.27c-.93-1.56-2.66-2.34-4.26-3.01-.63-.26-1.37.28-1.54.87-.21.72.25,1.28.87,1.54,1.32.55,3.31,1.43,2.98,3.18-.36,1.91-2.46,3.05-3.67,4.39-1.39,1.55-2.17,3.46-1.55,5.53.56,1.88,2.25,3.97,4.46,3.13.63-.24,1.07-.84.87-1.54-.17-.6-.9-1.12-1.54-.87h0Z"/>
        <path class="cls-3" d="m55.89,30.85c-.8.31-1.2-.77-1.38-1.38-.27-.9-.1-1.67.4-2.45,1.03-1.6,2.79-2.57,3.89-4.13s1.46-3.59.46-5.27c-.93-1.56-2.66-2.34-4.26-3.01-.63-.26-1.37.28-1.54.87-.21.72.25,1.28.87,1.54,1.32.55,3.31,1.43,2.98,3.18-.36,1.91-2.46,3.05-3.67,4.39-1.39,1.55-2.17,3.46-1.55,5.53.56,1.88,2.25,3.97,4.46,3.13.63-.24,1.07-.84.87-1.54-.17-.6-.9-1.12-1.54-.87h0Z"/>
        <path class="cls-2" d="m64.45,53.98c0,4.57-7.47,8.8-15.86,8.8s-15.86-4.23-15.86-8.8"/>
        <path class="cls-4" d="m80.66,36.85c0,13.28-14.22,24.05-31.77,24.05s-31.77-10.77-31.77-24.05"/>
      </g>
    </g>
  </g>
</svg>