<?xml version="1.0" encoding="UTF-8"?>
<svg id="Layer_2" data-name="Layer 2" xmlns="http://www.w3.org/2000/svg" viewBox="0 0 313.29 270.15">
  <defs>
    <style>
      .cls-1 {
        stroke-width: 12px;
      }

      .cls-1, .cls-2, .cls-3, .cls-4 {
        stroke-miterlimit: 10;
      }

      .cls-1, .cls-3 {
        stroke: #fcb216;
      }

      .cls-1, .cls-3, .cls-4 {
        fill: none;
        stroke-linecap: round;
      }

      .cls-5 {
        fill: #fff;
      }

      .cls-6, .cls-2 {
        fill: #ffc60b;
      }

      .cls-7 {
        fill: #fcb216;
      }

      .cls-8 {
        fill: #231f20;
      }

      .cls-2, .cls-4 {
        stroke: #ffc60b;
        stroke-width: 4px;
      }

      .cls-3 {
        stroke-width: 2px;
      }

      .cls-9 {
        fill: #936d2a;
        opacity: .72;
      }
    </style>
  </defs>
  <g id="confused_2" data-name="confused 2">
    <g>
      <ellipse class="cls-9" cx="126.59" cy="262.74" rx="54.36" ry="7.41"/>
      <g>
        <polyline class="cls-4" points="146.13 244.04 145.36 263.52 128.02 263.52"/>
        <path class="cls-2" d="m128.02,263.52c0-3.56,2.29-6.45,5.11-6.45,1.41,0,2.68.72,3.6,1.87.93,1.17,1.51,2.79,1.51,4.58"/>
        <path class="cls-2" d="m132.9,260.34c.73,3.38,6.65,3.33,8.13,3.18"/>
      </g>
      <g>
        <path class="cls-1" d="m35.14,161.47l-4.97,15.09c-.42,1.28-1.61,2.14-2.96,2.14H8.27"/>
        <ellipse class="cls-1" cx="7.87" cy="175.19" rx="1.87" ry="2.71"/>
      </g>
      <path class="cls-6" d="m29.92,116.85c-.21.79,51.48-105.53,161.87-102.29,109.08,3.21,116.81,63.14,116.81,63.14,0,0,21.81,60.38-42.46,55.32-64.27-5.06-65.83,40.51-65.83,40.51,0,0-.79,13.37-6.1,28.92-10.07,29.5-36.42,66.87-104.53,35.75-25.38-11.6-41.93-24.76-52.45-38.03-8.74-11.03-13.32-22.13-15.34-32.47-5.51-28.24,8.03-50.84,8.03-50.84Z"/>
      <g>
        <polyline class="cls-4" points="116.5 243.25 115.73 262.74 98.39 262.74"/>
        <path class="cls-2" d="m98.39,262.74c0-3.56,2.29-6.45,5.11-6.45,1.41,0,2.68.72,3.6,1.87.93,1.17,1.51,2.79,1.51,4.58"/>
        <path class="cls-2" d="m103.27,259.55c.73,3.38,6.65,3.33,8.13,3.18"/>
      </g>
      <path class="cls-7" d="m37.23,200.16s99.17,61.53,154.36,9.18c0,0-20.6,54.22-78.84,37.31-58.24-16.91-75.53-46.49-75.53-46.49Z"/>
      <g>
        <path class="cls-7" d="m258.69,132.4c-.05,0-.11-.02-.16-.03.05,0,.11.02.16.03Z"/>
        <path class="cls-7" d="m310.94,109.79c9.56-32.03-7.09-90.51-104.6-93.73-.53-2.35-62.27-5.08-102.24,21.67,32.44-19.14,168.41-45.04,186.82,56.88,2.63,14.56-4.51,29.34-17.93,35.58-4.33,2.02-9.17,3.08-14.29,2.21,3.97.71,19.57,3,33.93-2.08,5.5-.45,10.59-4.62,14.34-11.12,2.54-3.9,3.58-7.59,3.98-9.41Z"/>
        <path class="cls-7" d="m258.53,132.37c-.27-.05-.54-.1-.81-.16,0,0,.28.06.81.16Z"/>
      </g>
      <ellipse class="cls-8" cx="48.7" cy="137.35" rx="6.57" ry="12.05"/>
      <ellipse class="cls-8" cx="90.55" cy="137.35" rx="6.57" ry="12.05"/>
      <path class="cls-3" d="m92.82,120s5.14-.19,8.6,5.14"/>
      <path class="cls-3" d="m50.73,120s-5.14-.19-8.6,5.14"/>
      <ellipse class="cls-8" cx="66.7" cy="149.4" rx="7.45" ry="5.14"/>
      <g>
        <path class="cls-1" d="m107.83,180.53l-36.35.38c-1.47-.31-2.59-1.54-2.76-3.04l-2.42-21.24"/>
        <ellipse class="cls-1" cx="66.31" cy="157.87" rx="3.04" ry="2.11" transform="translate(-17.41 8.5) rotate(-6.49)"/>
      </g>
      <path class="cls-5" d="m23.06,7.51v46.74c0,3.92,3.45,7.68,7.5,7.5s7.5-3.3,7.5-7.5V7.51C38.06,3.58,34.62-.18,30.56,0s-7.5,3.3-7.5,7.5h0Z"/>
      <path class="cls-5" d="m30.56,80.45c3.92,0,7.68-3.45,7.5-7.5s-3.3-7.5-7.5-7.5c-3.92,0-7.68,3.45-7.5,7.5s3.3,7.5,7.5,7.5h0Z"/>
    </g>
  </g>
</svg>