<?xml version="1.0" encoding="UTF-8"?>
<svg id="Layer_2" data-name="Layer 2" xmlns="http://www.w3.org/2000/svg" viewBox="0 0 862.77 531.98">
  <defs>
    <style>
      .cls-1 {
        fill: #9e511c;
      }

      .cls-2 {
        fill: #ce6a2b;
      }

      .cls-3, .cls-4 {
        fill: #231f20;
      }

      .cls-4, .cls-5 {
        stroke: #231f20;
        stroke-miterlimit: 10;
        stroke-width: 20px;
      }

      .cls-5 {
        fill: #c5692c;
      }
    </style>
  </defs>
  <g id="fix_diabetes" data-name="fix diabetes">
    <g>
      <path class="cls-3" d="m201.37,157.84c-21.39-.44-42.78-.87-64.17-1.31-5.2-.11-10.42-.32-15.62-.28-4.78.04-9.7.58-13.96,2.92-3.82,2.1-6.71,5.54-9.02,9.17-2.48,3.91-4.51,8.13-6.5,12.3-8.4,17.65-14.36,36.35-18.76,55.36-2.2,9.52-4.03,19.13-5.6,28.78-.79,4.83-1.51,9.67-2.19,14.52-.6,4.23-1.19,8.71-3.18,12.55-4.12,7.94-14.09,10.03-22.03,12.08-9.92,2.56-20.06,4.26-30.27,5.03-2.55.19-5.1.33-7.66.41-3.21.11-3.22,5.11,0,5,10.44-.35,20.86-1.6,31.09-3.72,4.98-1.04,9.92-2.28,14.78-3.75,4.1-1.23,8.28-2.7,11.81-5.18,3.83-2.69,6.45-6.32,8.04-10.71s2-8.79,2.64-13.23c1.39-9.67,2.99-19.31,4.9-28.9,3.82-19.09,8.95-37.98,16.41-55.99,1.85-4.46,3.86-8.86,6.02-13.18,1.92-3.84,3.84-7.83,6.47-11.24,2.67-3.47,6.06-5.76,10.36-6.65,4.66-.96,9.58-.54,14.3-.44,21.39.44,42.78.87,64.17,1.31,2.65.05,5.31.11,7.96.16,3.22.07,3.22-4.93,0-5h0Z"/>
      <path class="cls-2" d="m859.13,239.04l-39.84-184.82c-3.99-18.52-22.24-30.3-40.76-26.3h0c-18.52,3.99-30.3,22.24-26.3,40.76l.7,3.25c-9.96,3.2-21.41,6.77-34.65,9.3l-445.01-11.92c-60.49,11.56-97,86.5-81.55,167.37l9.91,51.85c15.46,80.88,77.03,137.07,137.52,125.51l393.45-152.39c21.78-4.16,42.14-6.86,58.56-12.37l.91,4.23c3.99,18.52,22.24,30.3,40.76,26.3h0c18.52-3.99,30.3-22.24,26.3-40.76Z"/>
      <path class="cls-1" d="m201.63,288.53c15.46,80.88,77.03,137.07,137.52,125.51l393.45-152.39c21.78-4.16,42.14-6.86,58.56-12.37l.91,4.23c3.99,18.52,22.24,30.3,40.76,26.3h0c18.52-3.99,30.3-22.24,26.3-40.76l-20.27-94.02"/>
      <circle class="cls-5" cx="251.16" cy="367.17" r="154.8"/>
      <circle class="cls-4" cx="251.16" cy="367.17" r="62.99"/>
      <rect class="cls-1" x="765.23" y="25.13" width="80.24" height="257.6" rx="36.3" ry="36.3" transform="translate(-14.58 153.91) rotate(-10.82)"/>
      <path class="cls-5" d="m135.36,479.7l225.77-221.48"/>
      <path class="cls-5" d="m368.73,483.27l-225.77-221.48"/>
      <path class="cls-5" d="m241.58,525.16l13.33-315.98"/>
      <path class="cls-5" d="m405.98,383.71l-315.47-22.35"/>
      <path class="cls-3" d="m219.08,5c3.22,0,3.22-5,0-5s-3.22,5,0,5h0Z"/>
    </g>
  </g>
</svg>