<?xml version="1.0" encoding="UTF-8"?>
<svg id="Layer_2" data-name="Layer 2" xmlns="http://www.w3.org/2000/svg" viewBox="0 0 523.76 461.84">
  <defs>
    <style>
      .cls-1 {
        stroke-width: 12px;
      }

      .cls-1, .cls-2, .cls-3, .cls-4 {
        stroke-linecap: round;
        stroke-miterlimit: 10;
      }

      .cls-1, .cls-3, .cls-4 {
        fill: none;
      }

      .cls-1, .cls-4 {
        stroke: #231f20;
      }

      .cls-5 {
        fill: #4058a7;
      }

      .cls-6, .cls-2 {
        fill: #45439b;
      }

      .cls-2 {
        stroke-width: 11px;
      }

      .cls-2, .cls-3 {
        stroke: #45439b;
      }

      .cls-3 {
        stroke-width: 20px;
      }

      .cls-4 {
        stroke-width: 5px;
      }
    </style>
  </defs>
  <g id="evil_diabetes" data-name="evil diabetes">
    <g>
      <line class="cls-3" x1="84.92" y1="208.54" x2="15.21" y2="204.57"/>
      <path class="cls-6" d="m8.43,179.03c7.92.45,13.87,9.02,13.29,19.15s-7.46,17.97-15.38,17.52"/>
      <line class="cls-3" x1="79.72" y1="300.12" x2="10" y2="296.16"/>
      <path class="cls-6" d="m3.22,270.62c7.92.45,13.87,9.02,13.29,19.15s-7.46,17.97-15.38,17.52"/>
    </g>
    <rect class="cls-5" x="62.86" y="56.7" width="460.94" height="403.5" rx="201.75" ry="201.75" transform="translate(571.52 533.14) rotate(-176.75)"/>
    <line class="cls-1" x1="405.34" y1="159.07" x2="362.91" y2="204.62"/>
    <line class="cls-1" x1="393.89" y1="368.01" x2="365.79" y2="313.03"/>
    <line class="cls-3" x1="287.36" y1="78.67" x2="274.66" y2="10"/>
    <line class="cls-3" x1="244.01" y1="403.61" x2="213.37" y2="340.86"/>
    <circle class="cls-2" cx="214.48" cy="341.82" r="10.73"/>
    <polyline class="cls-4" points="314.58 223.06 326.7 237.61 312.9 252.54 325.12 265.25 311.33 280.18"/>
    <line class="cls-1" x1="361.76" y1="160.19" x2="406.49" y2="203.5"/>
    <line class="cls-1" x1="350.78" y1="354.41" x2="408.91" y2="326.63"/>
  </g>
</svg>