<?xml version="1.0" encoding="UTF-8"?>
<svg id="Layer_2" data-name="Layer 2" xmlns="http://www.w3.org/2000/svg" viewBox="0 0 315.81 195.06">
  <defs>
    <style>
      .cls-1 {
        fill: #231f20;
      }

      .cls-2 {
        fill: none;
        stroke: #231f20;
        stroke-linecap: round;
      }

      .cls-2, .cls-3, .cls-4, .cls-5 {
        stroke-miterlimit: 10;
      }

      .cls-3 {
        fill: #fff;
        stroke-width: 7px;
      }

      .cls-3, .cls-4, .cls-5 {
        stroke: #ffd155;
      }

      .cls-4 {
        fill: #f5ecb8;
        stroke-width: 15px;
      }

      .cls-5 {
        fill: #f8e87f;
        stroke-width: 23px;
      }
    </style>
  </defs>
  <g id="fix_diabetes" data-name="fix diabetes">
    <polygon class="cls-4" points="7.5 176.67 7.5 59.93 231.82 108.12 231.82 141.32 7.5 176.67"/>
    <line class="cls-3" x1="162.5" y1="108.46" x2="2.28" y2="83.47"/>
    <line class="cls-3" x1="167.57" y1="130.79" x2="7.35" y2="155.78"/>
    <line class="cls-3" x1="161.92" y1="120.79" x2="9.01" y2="115.62"/>
    <path class="cls-5" d="m255.98,180.16l-32.77-16.34c-4.36-2.18-9.52-2.07-13.79.27l-32.1,17.61c-10.76,5.9-23.65-3.04-21.81-15.13l5.49-36.07c.73-4.8-.96-9.65-4.52-12.97l-26.74-24.95c-8.96-8.36-4.4-23.33,7.72-25.32l36.16-5.95c4.81-.79,8.93-3.89,11-8.29l15.58-33.03c5.22-11.07,20.93-11.38,26.58-.52l16.86,32.39c2.24,4.31,6.48,7.25,11.32,7.85l36.37,4.54c12.19,1.52,17.34,16.3,8.71,25l-25.74,25.97c-3.43,3.46-4.92,8.37-4.01,13.14l6.9,35.83c2.31,12.01-10.21,21.45-21.2,15.97Z"/>
    <ellipse class="cls-1" cx="185.96" cy="115.99" rx="11.92" ry="18.46"/>
    <ellipse class="cls-1" cx="246.33" cy="115.99" rx="11.92" ry="18.46"/>
    <path class="cls-2" d="m207.35,117.07s2.96,9.81,6.89,2.38c.4-.75,1.49-.71,1.82.08.99,2.42,2.97,4.8,5.93-2.46"/>
  </g>
</svg>