<?xml version="1.0" encoding="UTF-8"?>
<svg id="Layer_2" data-name="Layer 2" xmlns="http://www.w3.org/2000/svg" viewBox="0 0 1287.8 531.98">
  <defs>
    <style>
      .cls-1 {
        stroke: #fcb216;
        stroke-width: 12px;
      }

      .cls-1, .cls-2, .cls-3, .cls-4, .cls-5, .cls-6, .cls-7 {
        stroke-miterlimit: 10;
      }

      .cls-1, .cls-5 {
        stroke-linecap: round;
      }

      .cls-1, .cls-5, .cls-6, .cls-7 {
        fill: none;
      }

      .cls-8, .cls-4 {
        fill: #ffc60b;
      }

      .cls-9 {
        fill: #fcb216;
      }

      .cls-10 {
        fill: #9e511c;
      }

      .cls-11 {
        fill: #ce6a2b;
      }

      .cls-12, .cls-2 {
        fill: #231f20;
      }

      .cls-2, .cls-3 {
        stroke-width: 20px;
      }

      .cls-2, .cls-3, .cls-7 {
        stroke: #231f20;
      }

      .cls-3 {
        fill: #c5692c;
      }

      .cls-4, .cls-6 {
        stroke: #ffc60b;
        stroke-width: 4px;
      }

      .cls-5 {
        stroke: #da9b13;
        stroke-width: 2px;
      }
    </style>
  </defs>
  <g id="fix_diabetes" data-name="fix diabetes">
    <g>
      <path class="cls-1" d="m389.28,288.96l6.95,21.12c.59,1.79,2.26,3,4.14,3h26.52"/>
      <ellipse class="cls-1" cx="427.45" cy="308.16" rx="2.62" ry="3.8"/>
    </g>
    <path class="cls-8" d="m396.58,226.51c.29,1.11-72.05-147.7-226.55-143.16C17.37,87.84,6.56,171.72,6.56,171.72c0,0-30.53,84.5,59.43,77.42,89.96-7.09,92.14,56.7,92.14,56.7,0,0,1.1,18.71,8.54,40.47,14.1,41.29,50.98,93.58,146.3,50.03,35.52-16.23,58.68-34.65,73.41-53.23,12.23-15.43,18.64-30.97,21.47-45.45,7.72-39.53-11.24-71.16-11.24-71.16Z"/>
    <ellipse class="cls-12" cx="346.01" cy="270.68" rx="7.87" ry="18.28"/>
    <ellipse class="cls-12" cx="298.97" cy="270.68" rx="7.87" ry="18.28"/>
    <path class="cls-7" d="m318.27,271.91s4.37-5.55,8.45,0"/>
    <path class="cls-5" d="m344.2,247.52s6.74-10.77,10.5-4.99"/>
    <g>
      <polyline class="cls-6" points="275.42 403.42 276.5 430.69 300.79 430.69"/>
      <path class="cls-4" d="m306.13,432.64c0-4.99-3.2-9.03-7.15-9.03-1.97,0-3.75,1-5.04,2.62-1.3,1.64-2.11,3.9-2.11,6.41"/>
      <path class="cls-4" d="m293.93,426.23c-1.02,4.73-9.31,4.66-11.38,4.46"/>
    </g>
    <g>
      <polyline class="cls-6" points="218.93 404.39 220.01 431.66 244.31 431.66"/>
      <path class="cls-4" d="m249.64,433.61c0-4.99-3.2-9.03-7.15-9.03-1.97,0-3.75,1-5.04,2.62-1.3,1.64-2.11,3.9-2.11,6.41"/>
      <path class="cls-4" d="m237.44,427.21c-1.02,4.73-9.31,4.66-11.38,4.46"/>
    </g>
    <path class="cls-9" d="m386.36,343.11s-138.79,86.12-216.04,12.84c0,0,28.83,75.88,110.34,52.22,81.51-23.66,105.7-65.07,105.7-65.07Z"/>
    <g>
      <path class="cls-9" d="m76.41,248.27c.07-.01.16-.03.22-.04-.07.01-.15.03-.22.04Z"/>
      <path class="cls-9" d="m3.29,216.63c-13.37-44.82,9.92-126.68,146.4-131.18.74-3.28,87.16-7.12,143.09,30.32C247.37,88.99,57.08,52.74,31.32,195.37c-3.68,20.38,6.32,41.06,25.09,49.8,6.07,2.82,12.83,4.31,20,3.09-5.56,1-27.38,4.19-47.48-2.92-7.7-.63-14.82-6.46-20.07-15.56-3.55-5.45-5.02-10.63-5.56-13.16Z"/>
      <path class="cls-9" d="m76.63,248.23c.38-.07.76-.14,1.14-.22,0,0-.4.09-1.14.22Z"/>
    </g>
    <g>
      <path class="cls-1" d="m216.33,296.03l6.95,21.12c.59,1.79,2.26,3,4.14,3h26.52"/>
      <ellipse class="cls-1" cx="254.49" cy="315.24" rx="2.62" ry="3.8"/>
    </g>
    <path class="cls-5" d="m304.22,247.52s-6.74-10.77-10.5-4.99"/>
    <g>
      <path class="cls-12" d="m626.4,157.84c-21.39-.44-42.78-.87-64.17-1.31-5.2-.11-10.42-.32-15.62-.28-4.78.04-9.7.58-13.96,2.92-3.82,2.1-6.71,5.54-9.02,9.17-2.48,3.91-4.51,8.13-6.5,12.3-8.4,17.65-14.36,36.35-18.76,55.36-2.2,9.52-4.03,19.13-5.6,28.78-.79,4.83-1.51,9.67-2.19,14.52-.6,4.23-1.19,8.71-3.18,12.55-4.12,7.94-14.09,10.03-22.03,12.08-9.92,2.56-20.06,4.26-30.27,5.03-2.55.19-5.1.33-7.66.41-3.21.11-3.22,5.11,0,5,10.44-.35,20.86-1.6,31.09-3.72,4.98-1.04,9.92-2.28,14.78-3.75,4.1-1.23,8.28-2.7,11.81-5.18,3.83-2.69,6.45-6.32,8.04-10.71s2-8.79,2.64-13.23c1.39-9.67,2.99-19.31,4.9-28.9,3.82-19.09,8.95-37.98,16.41-55.99,1.85-4.46,3.86-8.86,6.02-13.18,1.92-3.84,3.84-7.83,6.47-11.24s6.06-5.76,10.36-6.65c4.66-.96,9.58-.54,14.3-.44,21.39.44,42.78.87,64.17,1.31,2.65.05,5.31.11,7.96.16,3.22.07,3.22-4.93,0-5h0Z"/>
      <path class="cls-11" d="m1284.17,239.04l-39.84-184.82c-3.99-18.52-22.24-30.3-40.76-26.3h0c-18.52,3.99-30.3,22.24-26.3,40.76l.7,3.25c-9.96,3.2-21.41,6.77-34.65,9.3l-445.01-11.92c-60.49,11.56-97,86.5-81.55,167.37l9.91,51.85c15.46,80.88,77.03,137.07,137.52,125.51l393.45-152.39c21.78-4.16,42.14-6.86,58.56-12.37l.91,4.23c3.99,18.52,22.24,30.3,40.76,26.3h0c18.52-3.99,30.3-22.24,26.3-40.76Z"/>
      <path class="cls-10" d="m626.66,288.53c15.46,80.88,77.03,137.07,137.52,125.51l393.45-152.39c21.78-4.16,42.14-6.86,58.56-12.37l.91,4.23c3.99,18.52,22.24,30.3,40.76,26.3h0c18.52-3.99,30.3-22.24,26.3-40.76l-20.27-94.02"/>
      <circle class="cls-3" cx="676.2" cy="367.17" r="154.8"/>
      <circle class="cls-2" cx="676.2" cy="367.17" r="62.99"/>
      <rect class="cls-10" x="1190.26" y="25.13" width="80.24" height="257.6" rx="36.3" ry="36.3" transform="translate(-7.02 233.69) rotate(-10.82)"/>
      <path class="cls-3" d="m560.39,479.7l225.77-221.48"/>
      <path class="cls-3" d="m793.76,483.27l-225.77-221.48"/>
      <path class="cls-3" d="m666.61,525.16l13.33-315.98"/>
      <path class="cls-3" d="m831.01,383.71l-315.47-22.35"/>
      <path class="cls-12" d="m644.11,5c3.22,0,3.22-5,0-5s-3.22,5,0,5h0Z"/>
    </g>
  </g>
</svg>