<?xml version="1.0" encoding="UTF-8"?>
<svg id="Layer_2" data-name="Layer 2" xmlns="http://www.w3.org/2000/svg" viewBox="0 0 481.6 504.23">
  <defs>
    <style>
      .cls-1 {
        fill: #231f20;
      }

      .cls-2 {
        fill: #4058a7;
      }

      .cls-3, .cls-4 {
        fill: #45439b;
      }

      .cls-4 {
        stroke-width: 11px;
      }

      .cls-4, .cls-5 {
        stroke: #45439b;
      }

      .cls-4, .cls-5, .cls-6 {
        stroke-linecap: round;
        stroke-miterlimit: 10;
      }

      .cls-5 {
        stroke-width: 20px;
      }

      .cls-5, .cls-6 {
        fill: none;
      }

      .cls-6 {
        stroke: #231f20;
        stroke-width: 5px;
      }
    </style>
  </defs>
  <g id="evil_diabetes" data-name="evil diabetes">
    <g>
      <line class="cls-5" x1="201.39" y1="424.41" x2="202.52" y2="494.23"/>
      <path class="cls-3" d="m177.53,502.85c-.13-7.93,7.99-14.49,18.13-14.65s18.46,6.13,18.59,14.06"/>
      <line class="cls-5" x1="293.12" y1="422.94" x2="294.24" y2="492.76"/>
      <path class="cls-3" d="m269.26,501.38c-.13-7.93,7.99-14.49,18.13-14.65,10.14-.16,18.46,6.13,18.59,14.06"/>
    </g>
    <rect class="cls-2" x="36.45" y="25.71" width="460.94" height="403.5" rx="201.75" ry="201.75" transform="translate(589.99 91.04) rotate(116.67)"/>
    <line class="cls-6" x1="227.33" y1="110.94" x2="248.03" y2="140.96"/>
    <line class="cls-6" x1="379.6" y1="187.43" x2="343.16" y2="188.74"/>
    <line class="cls-5" x1="99.57" y1="161.49" x2="31.51" y2="145.85"/>
    <line class="cls-5" x1="380.52" y1="330.41" x2="310.76" y2="333.59"/>
    <ellipse class="cls-4" cx="17.63" cy="138.63" rx="12.15" ry="10.73" transform="translate(-19.16 3.81) rotate(-8.02)"/>
    <circle class="cls-4" cx="312.08" cy="332.95" r="10.73"/>
    <path class="cls-1" d="m204.35,158.74c-.5-.48,0,.06.04.22.07.38-.09-.08-.02-.13-.09.05-.03.04.06-.16-.07.15-.05.05.12-.19.02-.03.22-.24.38-.31.05-.02.68-.04.95,0,1.96.29,4.16,1.83,5.63,3.1,2.65,2.29,3.2,5.3,1.56,8.36-1.81,3.37-5.14,5.24-8.92,5.51-2.28.17-4.54-.1-6.75-.62s-4.48-1.13-6.49-2.11c-1.86-.91-2.03-2.7-2.28-4.61-.31-2.29-.38-4.62-.28-6.93.2-4.61,1.21-9.21,2.98-13.48,1.52-3.67,3.66-7.89,7.43-9.67s8.58-.75,12.52.32c7.66,2.09,16.11,4.71,19.3,12.76,2.81,7.09,1.63,15.33-.88,22.33-1.34,3.73-3.23,7.42-6.25,10.06-3.31,2.89-7.79,3.28-11.99,3.34-8.54.14-17.54.23-25.66-2.81s-13.39-9.42-15.01-17.54c-1.54-7.68,1.43-15.66,7.11-20.93,1.39-1.29,2.93-2.35,4.59-3.25,2.83-1.54.31-5.86-2.52-4.32-8.62,4.68-14.4,14.03-14.58,23.86s5.53,19.95,14.4,24.88c9.12,5.06,20,5.18,30.16,5.12,5.43-.03,11.16-.37,15.67-3.73,4.13-3.07,6.68-7.56,8.51-12.28,3.33-8.63,4.51-18.96.63-27.61-2.02-4.5-5.6-8.03-9.94-10.3-4.63-2.42-9.97-4.02-15.07-5.1s-11.03-1.23-15.53,2.15-6.75,8.47-8.47,13.42c-1.82,5.25-2.64,10.92-2.39,16.46.12,2.69.29,5.69,1.32,8.21,1.12,2.73,3.43,3.97,6.07,4.94,5.32,1.96,11.22,3.27,16.85,1.91,4.78-1.15,8.72-4.55,10.54-9.12s.63-9.53-3.09-12.77-10.91-7.36-14.64-2.03c-1.41,2.01-1.43,4.81.41,6.56,2.33,2.22,5.87-1.31,3.54-3.54h0Z"/>
    <path class="cls-1" d="m346.87,230.33c-.5-.48,0,.06.04.22.07.38-.09-.08-.02-.13-.09.05-.03.04.06-.16-.07.15-.05.05.12-.19.02-.03.22-.24.38-.31.05-.02.68-.04.95,0,1.96.29,4.16,1.83,5.63,3.1,2.65,2.29,3.2,5.3,1.56,8.36-1.81,3.37-5.14,5.24-8.92,5.51-2.28.17-4.54-.1-6.75-.62s-4.48-1.13-6.49-2.11c-1.86-.91-2.03-2.7-2.28-4.61-.31-2.29-.38-4.62-.28-6.93.2-4.61,1.21-9.21,2.98-13.48,1.52-3.67,3.66-7.89,7.43-9.67s8.58-.75,12.52.32c7.66,2.09,16.11,4.71,19.3,12.76,2.81,7.09,1.63,15.33-.88,22.33-1.34,3.73-3.23,7.42-6.25,10.06-3.31,2.89-7.79,3.28-11.99,3.34-8.54.14-17.54.23-25.66-2.81s-13.39-9.42-15.01-17.54c-1.54-7.68,1.43-15.66,7.11-20.93,1.39-1.29,2.93-2.35,4.59-3.25,2.83-1.54.31-5.86-2.52-4.32-8.62,4.68-14.4,14.03-14.58,23.86s5.53,19.95,14.4,24.88c9.12,5.06,20,5.18,30.16,5.12,5.43-.03,11.16-.37,15.67-3.73,4.13-3.07,6.68-7.56,8.51-12.28,3.33-8.63,4.51-18.96.63-27.61-2.02-4.5-5.6-8.03-9.94-10.3-4.63-2.42-9.97-4.02-15.07-5.1s-11.03-1.23-15.53,2.15-6.75,8.47-8.47,13.42c-1.82,5.25-2.64,10.92-2.39,16.46.12,2.69.29,5.69,1.32,8.21,1.12,2.73,3.43,3.97,6.07,4.94,5.32,1.96,11.22,3.27,16.85,1.91,4.78-1.15,8.72-4.55,10.54-9.12s.63-9.53-3.09-12.77-10.91-7.36-14.64-2.03c-1.41,2.01-1.43,4.81.41,6.56,2.33,2.22,5.87-1.31,3.54-3.54h0Z"/>
    <polyline class="cls-6" points="242.88 193.89 261.05 188.56 269.27 207.15 285.8 200.99 294.02 219.58"/>
  </g>
</svg>