<?xml version="1.0" encoding="UTF-8"?>
<svg id="Layer_2" data-name="Layer 2" xmlns="http://www.w3.org/2000/svg" viewBox="0 0 893.49 513.15">
  <defs>
    <style>
      .cls-1 {
        stroke-width: 12px;
      }

      .cls-1, .cls-2, .cls-3, .cls-4, .cls-5 {
        stroke-miterlimit: 10;
      }

      .cls-1, .cls-4 {
        stroke: #fcb216;
        stroke-linecap: round;
      }

      .cls-1, .cls-4, .cls-5 {
        fill: none;
      }

      .cls-6 {
        fill: #f58762;
      }

      .cls-7 {
        fill: #00b585;
      }

      .cls-8 {
        fill: #fff;
      }

      .cls-9, .cls-2 {
        fill: #ffc60b;
      }

      .cls-10 {
        fill: #fcb216;
      }

      .cls-11 {
        fill: #ac75b2;
      }

      .cls-12 {
        fill: #bce5f2;
      }

      .cls-13, .cls-3 {
        fill: #231f20;
      }

      .cls-14 {
        fill: #62bb46;
      }

      .cls-2, .cls-5 {
        stroke: #ffc60b;
        stroke-width: 4px;
      }

      .cls-3 {
        stroke: #231f20;
      }

      .cls-4 {
        stroke-width: 2px;
      }
    </style>
  </defs>
  <g id="running">
    <g>
      <g>
        <path class="cls-1" d="m623.42,220.25l16.55,14.84c1.4,1.26,3.45,1.47,5.08.53l22.99-13.22"/>
        <ellipse class="cls-1" cx="666.08" cy="217.87" rx="2.62" ry="3.8" transform="translate(-19.93 361.1) rotate(-29.91)"/>
      </g>
      <path class="cls-9" d="m598.61,162.47c.8.82-136.1-92.11-267.76-11.14-130.1,80-97.65,158.11-97.65,158.11,0,0,15.67,88.47,90.11,37.48,74.44-50.99,108.14,3.21,108.14,3.21,0,0,10.28,15.67,27.58,30.83,32.81,28.76,90.85,55.71,151.76-29.57,22.7-31.78,33.59-59.3,37.1-82.74,2.91-19.47.72-36.14-4.05-50.1-13.02-38.11-45.22-56.08-45.22-56.08Z"/>
      <path class="cls-13" d="m531.2,255.94c3.65,6.35,2.63-3.94,6.4-6.11,3.77-2.17,10.89,4.62,7.24-1.74-3.65-6.35-7.64-6.75-11.4-4.59-3.77,2.17-5.89,6.08-2.24,12.43Z"/>
      <path class="cls-3" d="m563.51,235.34s-1.81,13.85-14.2,8.17"/>
      <path class="cls-4" d="m563.68,206.81s1.42-6.92,7.55-3.79"/>
      <path class="cls-4" d="m528.04,228.86s-6.7-2.26-7.07,4.62"/>
      <g>
        <polyline class="cls-5" points="581.78 376.24 596.32 399.34 617.38 387.22"/>
        <path class="cls-2" d="m622.97,386.26c-2.49-4.32-7.28-6.23-10.7-4.26-1.71.98-2.75,2.74-3.06,4.79-.32,2.07.11,4.44,1.36,6.61"/>
        <path class="cls-2" d="m609.21,386.78c1.47,4.61-5.75,8.68-7.65,9.54"/>
      </g>
      <g>
        <polyline class="cls-5" points="559.07 389.93 546.41 414.11 567.48 426.23"/>
        <path class="cls-2" d="m571.12,430.57c2.49-4.32,1.73-9.43-1.7-11.4-1.71-.98-3.75-1-5.68-.24s-3.78,2.33-5.03,4.5"/>
        <path class="cls-2" d="m563.75,418.94c-3.24,3.59-10.39-.6-12.09-1.81"/>
      </g>
      <path class="cls-10" d="m647.89,268.65s-77.37,143.85-180.87,118.85c0,0,62.83,51.4,121.68-9.74,58.86-61.15,59.19-109.11,59.19-109.11Z"/>
      <g>
        <path class="cls-10" d="m331.92,340.97c.06-.05.12-.1.17-.15-.06.05-.12.1-.17.15Z"/>
        <path class="cls-10" d="m252.76,349.99c-33.94-32.19-54.56-114.76,61.5-186.7-.99-3.22,72-49.62,139.16-45.05-52.72-.58-235.74,62.87-186.96,199.36,6.97,19.5,25.95,32.44,46.58,30.66,6.67-.58,13.27-2.66,18.88-7.29-4.32,3.64-21.65,17.29-42.62,21.15-6.98,3.29-16.07,1.79-25.15-3.48-5.8-2.96-9.65-6.71-11.39-8.64Z"/>
        <path class="cls-10" d="m332.09,340.82c.29-.25.59-.5.88-.76,0,0-.3.27-.88.76Z"/>
      </g>
      <path class="cls-1" d="m477.02,308.98l16.55,14.84c1.4,1.26-1.19-37.95.44-38.88"/>
      <ellipse class="cls-1" cx="494.02" cy="282.69" rx="2.62" ry="3.8" transform="translate(-75.16 283.95) rotate(-29.91)"/>
      <path class="cls-13" d="m572.43,234.3c3.65,6.35,2.63-3.94,6.4-6.11,3.77-2.17,10.89,4.62,7.24-1.74-3.65-6.35-7.64-6.75-11.4-4.59-3.77,2.17-5.89,6.08-2.24,12.43Z"/>
      <path class="cls-8" d="m680.52,97.97c3.92,0,7.68-3.45,7.5-7.5s-3.3-7.5-7.5-7.5c-3.92,0-7.68,3.45-7.5,7.5s3.3,7.5,7.5,7.5h0Z"/>
      <path class="cls-12" d="m364.47,43.57c-.48-2.45-.97-4.9-1.35-7.37-.05-.32-.09-.64-.14-.96-.09-.59,0,.04.02.13-.07-.64-.15-1.28-.21-1.92-.12-1.28-.2-2.56-.22-3.84-.02-1.12,0-2.24.09-3.36.02-.28.15-2.3.05-.85.03-.5.16-1,.25-1.49.18-.93.41-1.85.69-2.75.13-.42.27-.84.42-1.26.06-.17.15-.54.27-.71-.59.85-.13.3.02-.02.39-.85.83-1.68,1.33-2.48.23-.37.47-.73.72-1.09.1-.14.6-.77.16-.24-.47.57.22-.24.31-.35.62-.7,1.3-1.3,1.98-1.94.43-.41-.29.24-.29.21,0-.06.51-.37.6-.43.49-.33.99-.63,1.51-.91.28-.15,1.46-.67.56-.31.47-.19.94-.35,1.42-.5,1.1-.35,2.23-.6,3.37-.8.15-.03,1.07-.15.41-.07s.26-.02.42-.04c.51-.05,1.01-.09,1.52-.12,1.06-.07,2.13-.1,3.19-.1,1.86-.01,3.72.06,5.58.2.89.07,1.78.15,2.66.25.2.02,1.54.2.75.09-.75-.11.03,0,.22.03.29.04.59.09.88.13,3.56.57,7.08,1.39,10.53,2.42s6.91,2.27,10.27,3.65c.22.09.44.18.67.28.83.34-.06-.04-.2-.08.39.15.78.33,1.16.5.89.39,1.77.78,2.65,1.19,1.71.79,3.41,1.6,5.1,2.44,13.65,6.79,26.52,15.01,40.19,21.75,7,3.45,14.23,6.57,21.72,8.83,3.54,1.07,7.14,1.94,10.79,2.55,4.88.82,9.88,1.37,14.82.81,8.66-.99,16.33-4.92,22.2-11.38,5.51-6.07,9.26-13.41,12.12-21.04.64-1.7,1.22-3.43,1.76-5.16.78-2.5-.92-5.57-3.49-6.15-2.72-.62-5.31.82-6.15,3.49-.56,1.79-1.17,3.57-1.83,5.33-.32.85-.61,1.75-1.02,2.57.07-.13.44-1.01.07-.18-.1.23-.2.45-.3.68-.2.45-.4.9-.61,1.34-1.6,3.41-3.47,6.71-5.71,9.75-.12.16-.37.41-.43.57,0-.02.59-.73.23-.31-.3.36-.6.74-.91,1.1-.61.72-1.25,1.41-1.91,2.08-.62.62-1.25,1.22-1.91,1.8-.31.27-.63.52-.94.78-.52.45.74-.54.19-.14-.23.17-.46.35-.7.51-1.47,1.04-3.03,1.95-4.67,2.7-1.05.48.57-.2-.27.11-.45.16-.89.33-1.34.48-1.13.37-2.29.66-3.46.89-.23.04-.45.08-.68.12-.14.02-1.09.15-.47.08s-.33.03-.47.04c-.23.02-.46.04-.69.06-1.22.09-2.45.12-3.68.1s-2.46-.1-3.69-.22c-.54-.05-1.07-.12-1.61-.18-.59-.06.1.02.18.03-.42-.06-.85-.12-1.27-.19-3.65-.58-7.26-1.42-10.81-2.46s-7.17-2.33-10.66-3.75c-.16-.07-1.58-.65-.93-.38.61.25-.53-.23-.75-.32-.9-.39-1.8-.79-2.69-1.2-1.74-.79-3.46-1.61-5.17-2.46-13.72-6.78-26.64-15.04-40.36-21.83C412.75,5.46,397.93.07,382.31,0c-4.58-.02-9.41.3-13.71,1.99-4.66,1.83-8.37,4.87-11.14,9.03-5.5,8.23-5.42,18.42-3.97,27.83.38,2.47.86,4.92,1.35,7.37s3.71,4.28,6.15,3.49c2.73-.88,4.04-3.4,3.49-6.15h0Z"/>
      <path class="cls-8" d="m134.24,293.18c3.92,0,7.68-3.45,7.5-7.5s-3.3-7.5-7.5-7.5c-3.92,0-7.68,3.45-7.5,7.5s3.3,7.5,7.5,7.5h0Z"/>
      <path class="cls-8" d="m7.51,326.68c3.92,0,7.68-3.45,7.5-7.5s-3.3-7.5-7.5-7.5c-3.92,0-7.68,3.45-7.5,7.5s3.3,7.5,7.5,7.5h0Z"/>
      <path class="cls-8" d="m505.71,513.15c3.92,0,7.68-3.45,7.5-7.5s-3.3-7.5-7.5-7.5c-3.92,0-7.68,3.45-7.5,7.5s3.3,7.5,7.5,7.5h0Z"/>
      <path class="cls-8" d="m690.72,415.54c3.92,0,7.68-3.45,7.5-7.5s-3.3-7.5-7.5-7.5c-3.92,0-7.68,3.45-7.5,7.5s3.3,7.5,7.5,7.5h0Z"/>
      <path class="cls-8" d="m307.6,106.71c3.92,0,7.68-3.45,7.5-7.5s-3.3-7.5-7.5-7.5c-3.92,0-7.68,3.45-7.5,7.5s3.3,7.5,7.5,7.5h0Z"/>
      <path class="cls-8" d="m756.27,17.85c3.92,0,7.68-3.45,7.5-7.5s-3.3-7.5-7.5-7.5c-3.92,0-7.68,3.45-7.5,7.5s3.3,7.5,7.5,7.5h0Z"/>
      <path class="cls-8" d="m779.58,226.17c3.92,0,7.68-3.45,7.5-7.5s-3.3-7.5-7.5-7.5c-3.92,0-7.68,3.45-7.5,7.5s3.3,7.5,7.5,7.5h0Z"/>
      <path class="cls-8" d="m724.22,304.83c3.92,0,7.68-3.45,7.5-7.5s-3.3-7.5-7.5-7.5c-3.92,0-7.68,3.45-7.5,7.5s3.3,7.5,7.5,7.5h0Z"/>
      <path class="cls-8" d="m826.19,328.14c3.92,0,7.68-3.45,7.5-7.5s-3.3-7.5-7.5-7.5c-3.92,0-7.68,3.45-7.5,7.5s3.3,7.5,7.5,7.5h0Z"/>
      <path class="cls-9" d="m223.51,70.51c3.2-2.73,8.49-.51,10.96,2.6,3.7,4.67,3.23,11.65,2.99,17.22l4.91-.66c-.66-3.52,2.7-6.66,5.88-7.35,4.23-.92,8.64,1.53,11.55,4.41,6.08,6.01,8.08,15.51,4.69,23.39-1.85,4.31-5.06,7.93-9.12,10.27l3.03.39c-2.11-1.93-1.3-5.57.94-7.35,3.03-2.41,7.57-2.16,11.12-1.34,7.15,1.64,14.37,6.89,15.08,14.72.36,4-.74,7.99-3.72,10.78-2.35,2.21,1.19,5.74,3.54,3.54,7.68-7.2,6.38-19.71-.65-26.83-3.56-3.61-8.35-6.05-13.29-7.12-5.27-1.13-11.19-.95-15.52,2.63s-5.23,10.65-1.04,14.5c.83.76,2.04.96,3.03.39,9.6-5.55,14.77-16.71,12.79-27.6-1.93-10.57-11.99-22.16-23.76-19.61-6.04,1.31-10.52,7.35-9.37,13.5.54,2.87,4.8,2.04,4.91-.66.31-7.25.35-15.76-5.01-21.38-4.5-4.72-12.23-6.46-17.47-1.98-1.03.88-.9,2.63,0,3.54,1.02,1.02,2.51.88,3.54,0h0Z"/>
      <path class="cls-9" d="m35.61,240.64c3.74-2.18,8.43-1.72,12.14.31,4.03,2.21,6.83,6.04,8.87,10.07,2.13,4.21,4.12,9.44,3.07,14.22-.82,3.72-3.32,6.65-6.39,8.8-3.36,2.35-7.15,4-10.98,5.43-3.29,1.22-8.94,3.67-11.52.37.12.15-.25-.43-.34-.59-.12-.22-.14-.28-.27-.76-.06-.22-.11-.44-.15-.66.02.11.03.39-.01-.15-.04-.47-.03-.94,0-1.4.1-1.3.73-2.97,1.58-4.26,2.2-3.34,6.84-4.29,10.82-4.5,4.81-.25,9.7-.05,14.52.01,4.05.05,8.67.27,12.03,2.84,1.76,1.35,2.89,3.28,3.82,5.26,1.08,2.29,2,4.7,2.81,7.1,1.58,4.69,1.84,9.33-.44,13.84-4.5,8.88-14.42,13.17-23.2,16.64-1.95.77-4.54,1.85-6.64,1-1.29-.52-1.96-1.78-2.14-3.01-.59-3.97,3.01-6.64,6.55-7.66,7.54-2.17,16.81.73,21.37,7.23,4.15,5.9,3.83,14.42-1.07,19.85-1.24,1.37-2.64,2.4-4.3,3.2-1.22.59-1.54,2.32-.9,3.42.73,1.24,2.2,1.49,3.42.9,8.74-4.22,12.68-15.44,9.83-24.48-3.12-9.89-13.55-16-23.62-15.82-5.44.1-11.36,1.96-14.56,6.64-2.79,4.08-2.28,10.35,1.82,13.38,5.19,3.84,12.1.03,17.14-2.17,5.52-2.41,11-5.24,15.34-9.5,4-3.92,6.92-8.98,7.6-14.58.75-6.24-1.97-12.57-4.51-18.13-1.18-2.58-2.75-5.03-4.99-6.81-2.09-1.66-4.55-2.75-7.15-3.33-5.33-1.19-10.87-.73-16.29-.83-5.88-.11-12.38-.29-17.55,2.98-3.83,2.42-6.31,6.98-6.31,11.51,0,5.29,3.83,9.19,9.1,9.47,2.93.16,5.84-.82,8.56-1.8,2.42-.88,4.83-1.82,7.17-2.91,4.48-2.08,8.77-4.83,11.75-8.85,3.52-4.74,3.98-10.67,2.51-16.27-2.8-10.72-10.83-22.39-23.05-22.41-2.8,0-5.55.71-7.97,2.12-2.78,1.62-.26,5.95,2.52,4.32h0Z"/>
      <path class="cls-11" d="m752.67,348.89c3.33-.53,6.67-1.06,10-1.59s6.4-1.11,9.63-1.29c5.26-.31,10.19.85,14.14,4.47,3.35,3.07,5.77,7.4,6.1,11.99s-1.28,8.97-4.25,12.36-7,5.85-11.47,6.32c-3.95.41-8.47-1.11-10.93-4.29-1.18-1.53-1.71-3.33-1.26-5.13.5-2.03,1.99-3.56,3.77-4.56,4.81-2.69,10.51-.31,14.61,2.63,7.79,5.59,12.32,15.35,12.41,24.84.08,8.93-4.32,19.79-13.59,22.65-4.28,1.32-8.72.12-11.88-3.05-1.45-1.45-2.58-3.27-2.9-5.32-.25-1.58-.02-4.27,1.62-5.22.99-.57,2.34-.46,3.44-.4,1.18.06,2.33.22,3.48.47,2.17.47,4.26,1.21,6.24,2.23,4.06,2.09,7.66,5.17,10.29,8.92,5.42,7.7,6.62,17.47,2.25,25.96s-12.41,14.47-21.62,15.25c-.97.08-2.14.18-2.97.01-.37-.08-.76-.22-.98-.34-.01,0-.31-.12-.26-.21s.22,1.14.24.29c.08-3.22-4.92-3.22-5,0-.09,3.44,3.29,5.09,6.27,5.31,2.8.21,5.8-.33,8.48-1.1,5.54-1.6,10.64-4.79,14.61-8.95,8.03-8.42,11.3-20.68,7-31.71-4.13-10.61-13.85-19.21-25.29-20.84-3.34-.47-7.13-.72-9.86,1.63-2.33,2.01-3.25,5.58-2.97,8.56.55,6.04,5.16,10.88,10.64,13.03,12.15,4.74,23.27-6.6,26.43-17.41,3.36-11.46.18-24.28-7.45-33.33-4.22-5-10.18-9.16-16.79-9.95-6.22-.74-13.11,2.65-14.95,8.94-1.66,5.65,1.85,11.03,6.66,13.77,5.27,3,11.41,2.96,16.9.61,10.94-4.69,17.12-17.53,12.51-28.78-2.25-5.48-6.47-10.23-11.92-12.7-6.98-3.16-14.47-1.8-21.76-.64-3.65.58-7.3,1.16-10.96,1.74-1.33.21-2.08,1.88-1.75,3.08.39,1.42,1.74,1.96,3.08,1.75h0Z"/>
      <path class="cls-14" d="m763.38,96.82c4.01-.69,8.03-1.38,12.06-1.93l-2.66.36c7.58-1.01,15.27-1.53,22.89-.55l-2.66-.36c4.38.6,8.67,1.71,12.75,3.41l-2.39-1.01c3.08,1.31,5.99,2.95,8.65,4.97l-2.02-1.56c2.23,1.73,4.23,3.69,5.97,5.92l-1.56-2.02c1.73,2.28,3.14,4.76,4.27,7.39l-1.01-2.39c1.7,4.07,2.7,8.37,3.3,12.73l-.36-2.66c.97,7.4.54,14.82.89,22.25.39,8.4,1.94,16.98,6.63,24.13,7.57,11.57,20.21,17.89,33.27,21.22,7.24,1.85,14.68,2.84,22.08,3.69,2.37.27,5.46-1.31,7.07-2.93,1.73-1.73,3.04-4.58,2.93-7.07s-.97-5.27-2.93-7.07l-2.02-1.56c-1.56-.9-3.24-1.36-5.05-1.37-1.58-.18-3.15-.37-4.72-.59l2.66.36c-8.54-1.16-17.12-2.83-25.09-6.19l2.39,1.01c-3.51-1.5-6.86-3.34-9.89-5.67l2.02,1.56c-2.09-1.64-3.98-3.48-5.63-5.57l1.56,2.02c-1.55-2.02-2.83-4.2-3.84-6.54l1.01,2.39c-1.19-2.87-1.91-5.87-2.34-8.95l.36,2.66c-1.04-7.91-.31-15.92-.95-23.86-.72-8.94-2.51-17.89-7.08-25.73-9.02-15.47-26.74-22.42-43.94-23.11-10.72-.43-21.43,1.5-31.95,3.31-2.33.4-4.83,2.63-5.98,4.6-1.25,2.14-1.79,5.3-1.01,7.71s2.28,4.75,4.6,5.98c2.51,1.32,4.92,1.49,7.71,1.01h0Z"/>
      <path class="cls-6" d="m50.34,62.91c2.64-1.03,5.38-1.72,8.19-2.1l-3.32.45c3.2-.4,6.42-.37,9.61.05l-3.32-.45c3.19.45,6.3,1.3,9.27,2.54l-2.99-1.26c2.73,1.17,5.28,2.64,7.64,4.44l-2.53-1.95c2.3,1.79,4.34,3.85,6.13,6.15l-1.95-2.53c1.91,2.51,3.49,5.24,4.72,8.15l-1.26-2.99c1.25,3.04,2.11,6.21,2.54,9.46l-.45-3.32c.37,3.01.38,6.03,0,9.03l.45-3.32c-.73,5.22-2.63,10.17-4.67,15l1.26-2.99c-4.21,9.94-9.49,20.07-9.23,31.18.14,5.95,1.75,12.21,5.09,17.19s7.41,8.79,12.47,11.62c8.82,4.94,19.23,6.77,29.26,6.6,5.88-.1,11.9-.79,17.59-2.29,5.47-1.44,11.03-3.72,15.66-7.01,5.63-3.99,10.61-8.95,13.83-15.13,1.56-2.99,2.96-6.26,3.65-9.58s1.17-7,.78-10.49c.06-1.72-.29-3.33-1.08-4.82-.5-1.55-1.37-2.89-2.58-4.02-2.17-2.17-5.73-3.8-8.84-3.66s-6.59,1.21-8.84,3.66c-2.1,2.29-4.02,5.61-3.66,8.84.2,1.77.19,3.53-.02,5.31l.45-3.32c-.31,2.27-.92,4.45-1.81,6.56l1.26-2.99c-.98,2.24-2.23,4.33-3.71,6.27l1.95-2.53c-1.6,2.04-3.42,3.86-5.46,5.47l2.53-1.95c-2.4,1.84-5.02,3.32-7.79,4.52l2.99-1.26c-4.03,1.7-8.27,2.74-12.61,3.33l3.32-.45c-5.39.69-10.9.79-16.3.09l3.32.45c-3.8-.51-7.54-1.42-11.08-2.89l2.99,1.26c-2.26-.96-4.41-2.15-6.37-3.63l2.53,1.95c-1.46-1.14-2.79-2.41-3.94-3.86l1.95,2.53c-1.08-1.41-1.97-2.92-2.67-4.55l1.26,2.99c-.66-1.62-1.11-3.28-1.37-5l.45,3.32c-.29-2.16-.25-4.32.02-6.48l-.45,3.32c.69-4.96,2.5-9.65,4.43-14.24l-1.26,2.99c2.98-7.02,6.5-13.99,8.21-21.47,1.88-8.2,1.75-16.89-.74-24.96s-6.72-15.3-12.68-20.97-13.69-9.97-21.81-11.83c-4.48-1.03-9.25-1.6-13.86-1.3s-9.43,1.06-13.81,2.77c-1.63.39-3.04,1.13-4.25,2.24-1.36.88-2.43,2.05-3.22,3.51-1.57,2.68-2.23,6.63-1.26,9.63s2.85,5.94,5.74,7.47,6.55,2.46,9.63,1.26h0Z"/>
      <path class="cls-7" d="m122.47,414.91c2.56-.46,5.11-.91,7.68-1.31.56-.09,1.12-.17,1.69-.25.13-.02,1.13-.16.54-.08-.53.07.26-.03.3-.04,1.29-.16,2.57-.3,3.86-.42,2.57-.22,5.15-.33,7.73-.27,1.21.03,2.42.1,3.62.21.56.05,1.13.1,1.69.19-1.39-.22.44.09.73.14,1.93.35,3.84.84,5.7,1.47.48.16.96.34,1.43.52.18.07.35.14.53.21.67.25-.79-.37-.15-.06.91.43,1.83.85,2.71,1.34.82.45,1.63.94,2.4,1.47.22.15,1.13.62,1.22.87-.02-.05-.9-.74-.13-.09.19.16.38.32.57.48.75.65,1.47,1.34,2.14,2.06.29.32.58.64.86.98.11.13.59.77.19.22-.45-.6.25.37.27.39.52.74.99,1.51,1.42,2.31.26.49.49.98.74,1.48.1.2.35.88-.02-.06.12.32.25.64.37.96.73,2,1.26,4.08,1.68,6.17.85,4.26,1.26,8.59,2.05,12.86,1.58,8.53,5.4,16.15,11.07,22.71,5.31,6.15,12.11,11.1,19.28,14.86,7.77,4.08,16.22,7.05,24.84,8.65,17.62,3.25,37.18,1.27,51.94-9.64,13.11-9.69,22.58-25.21,22.14-41.88-.06-2.21-.33-4.4-.7-6.58-.43-2.59-3.77-4.26-6.15-3.49-2.8.9-3.95,3.38-3.49,6.15.04.24.08.48.12.72.09.51-.17.48-.03-.24-.07.35.1.92.13,1.27.08.96.13,1.93.13,2.89,0,.9-.02,1.8-.08,2.7-.03.42-.06.84-.1,1.26-.02.18-.04.36-.06.54-.02.18-.04.36-.06.54-.05.38-.03.24.06-.44-.29.71-.29,1.72-.45,2.48-.2.94-.43,1.88-.7,2.8-.25.87-.52,1.73-.83,2.59-.14.4-.29.8-.44,1.19-.09.23-.18.45-.27.68-.27.68-.09-.07.08-.19-.24.16-.47,1.06-.6,1.33-.18.39-.37.77-.56,1.15-.44.87-.91,1.73-1.4,2.57-.96,1.64-2.02,3.21-3.15,4.74-.42.57.13.09.11-.13,0,.07-.29.37-.34.43-.27.34-.54.67-.82,1-.64.75-1.29,1.49-1.97,2.2-1.32,1.39-2.71,2.7-4.17,3.93-.33.28-.67.55-1,.82-.7.57.03,0,.14-.1-.18.16-.4.3-.59.44-.79.59-1.6,1.15-2.42,1.68-1.54,1-3.14,1.92-4.79,2.74-.47.24-.95.46-1.43.68-.19.09-.39.18-.58.26-.14.06-.96.42-.38.17.54-.23-.11.04-.19.07-.26.1-.52.21-.79.31-.59.23-1.19.45-1.78.65-1.99.69-4.02,1.27-6.07,1.75-1.03.24-2.06.45-3.1.63-.48.09-.97.16-1.46.24-.16.02-1.05.15-.38.06.72-.1-.59.07-.59.07-2.1.24-4.22.38-6.33.42s-4.4-.02-6.59-.17c-1.06-.08-2.13-.17-3.19-.29-.21-.02-.42-.05-.64-.08-.16-.02-1.06-.14-.4-.05s-.24-.04-.39-.06c-.35-.05-.71-.11-1.06-.17-4.3-.7-8.54-1.75-12.68-3.11-2.02-.66-4-1.43-5.98-2.21-.66-.26.81.35.16.07-.23-.1-.46-.2-.69-.3-.4-.18-.8-.36-1.2-.54-.92-.42-1.83-.86-2.73-1.32-3.44-1.74-6.76-3.75-9.88-6.03-.33-.24-.78-.49-1.06-.79.8.87-.22-.18-.47-.39-.78-.63-1.54-1.29-2.29-1.96-1.39-1.25-2.71-2.57-3.96-3.96-.62-.69-1.22-1.4-1.8-2.12-.78-.98.29.42-.23-.31-.32-.45-.65-.9-.96-1.35-1.08-1.57-2.05-3.21-2.9-4.91-.19-.38-.38-.77-.56-1.16-.19-.42-.65-1.2-.16-.33-.46-.83-.73-1.89-1.02-2.8-.65-2.03-1.12-4.12-1.51-6.21-1.56-8.55-1.86-17.56-6.68-25.11s-12.31-12.08-20.54-14.39c-9.69-2.72-19.86-1.81-29.66-.27-2.4.38-4.8.8-7.2,1.23-2.58.46-4.27,3.75-3.49,6.15.9,2.77,3.38,3.99,6.15,3.49h0Z"/>
    </g>
  </g>
</svg>