<?xml version="1.0" encoding="UTF-8"?>
<svg id="Layer_2" data-name="Layer 2" xmlns="http://www.w3.org/2000/svg" viewBox="0 0 290.8 121.95">
  <defs>
    <style>
      .cls-1 {
        fill: #fff;
      }
    </style>
  </defs>
  <g id="Layer_11" data-name="Layer 11">
    <path class="cls-1" d="m251.4,76.56c-.48-.09-.83-.51-.83-1h0c0-25.62-22.26-46.39-49.72-46.39-3.18,0-6.3.28-9.31.81-.46.08-.93-.16-1.11-.59C183.15,12.18,165.18,0,144.15,0s-38.75,12.01-46.12,29.02c-.18.42-.61.66-1.07.61-2.29-.3-4.63-.46-7.01-.46-27.46,0-49.72,20.77-49.72,46.39h0c0,.49-.35.91-.83,1C17.24,80.92.51,99.05,0,120.91c-.01.57.44,1.04,1.01,1.04h93.41s5.01,0,5.01,0h190.36c.57,0,1.02-.47,1.01-1.04-.51-21.86-17.24-39.99-39.4-44.35Z"/>
  </g>
</svg>