<?xml version="1.0" encoding="UTF-8"?>
<svg id="Layer_2" data-name="Layer 2" xmlns="http://www.w3.org/2000/svg" viewBox="0 0 399.42 320.05">
  <defs>
    <style>
      .cls-1 {
        stroke-width: 12px;
      }

      .cls-1, .cls-2, .cls-3, .cls-4, .cls-5 {
        stroke-miterlimit: 10;
      }

      .cls-1, .cls-3 {
        stroke: #fcb216;
        stroke-linecap: round;
      }

      .cls-1, .cls-3, .cls-4, .cls-5 {
        fill: none;
      }

      .cls-6, .cls-2 {
        fill: #ffc60b;
      }

      .cls-7 {
        fill: #fcb216;
      }

      .cls-8 {
        fill: #e84b25;
      }

      .cls-9 {
        fill: #231f20;
      }

      .cls-2, .cls-4 {
        stroke: #ffc60b;
        stroke-width: 4px;
      }

      .cls-3 {
        stroke-width: 2px;
      }

      .cls-5 {
        stroke: #231f20;
      }
    </style>
  </defs>
  <g id="intro_page" data-name="intro page">
    <g>
      <path class="cls-1" d="m356.11,187.74l6.36,19.28c.54,1.63,2.06,2.73,3.79,2.73h24.26"/>
      <ellipse class="cls-1" cx="391.02" cy="205.27" rx="2.4" ry="3.46"/>
    </g>
    <path class="cls-6" d="m362.79,130.75c.26,1.01-65.91-134.8-207.25-130.65C15.89,4.19,6,80.75,6,80.75c0,0-27.93,77.13,54.36,70.66,82.29-6.47,84.29,51.75,84.29,51.75,0,0,1.01,17.07,7.81,36.94,12.9,37.68,46.63,85.41,133.83,45.66,32.49-14.81,53.68-31.63,67.15-48.58,11.19-14.08,17.05-28.27,19.64-41.48,7.06-36.07-10.29-64.94-10.29-64.94Z"/>
    <ellipse class="cls-9" cx="316.53" cy="171.06" rx="7.2" ry="16.68"/>
    <ellipse class="cls-9" cx="273.5" cy="171.06" rx="7.2" ry="16.68"/>
    <path class="cls-5" d="m298.88,169.94s-4,5.07-7.73,0"/>
    <path class="cls-3" d="m314.87,149.93s4.28-4.83,7.72.44"/>
    <path class="cls-3" d="m276.54,151.16s-4.28-4.83-7.72.44"/>
    <g>
      <polyline class="cls-4" points="251.95 292.21 252.94 317.1 275.16 317.1"/>
      <path class="cls-2" d="m280.04,318.88c0-4.55-2.93-8.24-6.55-8.24-1.8,0-3.43.91-4.61,2.39-1.19,1.49-1.93,3.56-1.93,5.85"/>
      <path class="cls-2" d="m268.88,313.03c-.93,4.31-8.52,4.25-10.41,4.07"/>
    </g>
    <g>
      <polyline class="cls-4" points="200.28 293.1 201.26 317.99 223.49 317.99"/>
      <path class="cls-2" d="m228.37,319.77c0-4.55-2.93-8.24-6.55-8.24-1.8,0-3.43.91-4.61,2.39s-1.93,3.56-1.93,5.85"/>
      <path class="cls-2" d="m217.21,313.92c-.93,4.31-8.52,4.25-10.41,4.07"/>
    </g>
    <path class="cls-7" d="m353.44,237.17s-126.97,78.6-197.63,11.72c0,0,26.37,69.26,100.94,47.66,74.56-21.59,96.7-59.39,96.7-59.39Z"/>
    <g>
      <path class="cls-7" d="m69.9,150.61c.07-.01.14-.03.2-.04-.07.01-.14.02-.2.04Z"/>
      <path class="cls-7" d="m3.01,121.73C-9.22,80.82,12.08,6.11,136.93,2.01c.68-3,79.73-6.49,130.9,27.68C226.29,5.24,52.22-27.85,28.65,102.33c-3.37,18.6,5.78,37.48,22.95,45.45,5.55,2.58,11.74,3.93,18.3,2.82-5.09.91-25.05,3.83-43.44-2.66-7.04-.57-13.55-5.9-18.36-14.2-3.25-4.98-4.59-9.7-5.09-12.01Z"/>
      <path class="cls-7" d="m70.1,150.57c.35-.06.69-.13,1.04-.2,0,0-.36.08-1.04.2Z"/>
    </g>
    <g>
      <ellipse class="cls-1" cx="232.81" cy="211.73" rx="2.4" ry="3.46"/>
      <path class="cls-1" d="m197.89,194.2l6.36,19.28c.54,1.63,2.06,2.73,3.79,2.73h24.26"/>
    </g>
    <path class="cls-8" d="m158.59,257.83c-17.25,4.89-35.2-5.13-40.09-22.38,0,0-12.84-45.32-12.85-45.33-2.49-8.78-1.12-18.36,3.73-26.1,2.71-4.32,4.75-8.01,9.57-5.43,4.07,2.18,7.84,5.61,11.14,8.8,13.26,12.83,21.64,30.8,22.26,49.3.17,5.07-.18,10.27,1.36,15.11.95,2.99,2.58,5.71,4.1,8.46,1.82,3.3,3.51,6.7,4.71,10.28,1.7,5.06,1.18,5.83-3.94,7.28Z"/>
    <path class="cls-8" d="m213.59,200.84c.18.41-.13-.44-.12-.41-.06-.19-.11-.37-.16-.56-.13-.51-.24-1.02-.34-1.53-.22-1.12-.38-2.25-.57-3.37-.35-2.05-.76-4.23-1.85-6.04-2.82-4.72-7.56-8.05-12.88-9.24s-11.5-1.07-17.13-.7c-5.94.4-11.86,1.31-17.64,2.75-6.48,1.61-12.76,3.91-18.78,6.78-1.22.58-1.54,2.32-.9,3.42.73,1.25,2.2,1.48,3.42.9,9.83-4.69,20.56-7.64,31.41-8.65,5.29-.49,10.81-.75,16.1-.07,2.23.29,4.53.84,6.51,1.93s3.78,2.9,5.16,4.8c1.18,1.63,1.46,3.71,1.81,5.79.39,2.31.72,4.56,1.64,6.73.53,1.24,2.36,1.52,3.42.9,1.28-.75,1.43-2.17.9-3.42h0Z"/>
    <path class="cls-8" d="m151.73,226.99c7.14,2.12,14.72-1.42,21.27-3.97,6.99-2.72,13.88-5.72,20.94-8.24,1.27-.45,2.12-1.7,1.75-3.08-.34-1.23-1.8-2.2-3.08-1.75-6.77,2.42-13.37,5.26-20.05,7.89-3.23,1.27-6.48,2.53-9.79,3.57s-6.46,1.72-9.72.75c-3.09-.92-4.41,3.91-1.33,4.82h0Z"/>
  </g>
</svg>