<?xml version="1.0" encoding="UTF-8"?>
<svg id="Layer_2" data-name="Layer 2" xmlns="http://www.w3.org/2000/svg" viewBox="0 0 447.24 228.68">
  <defs>
    <style>
      .cls-1, .cls-2 {
        fill: #fff;
      }

      .cls-3 {
        letter-spacing: -.05em;
      }

      .cls-4 {
        fill: #231f20;
        stroke: #fff;
        stroke-miterlimit: 10;
      }

      .cls-2 {
        font-family: TrebuchetMS, 'Trebuchet MS';
        font-size: 26px;
      }
    </style>
  </defs>
  <g id="fix_diabetes" data-name="fix diabetes">
    <g>
      <ellipse class="cls-1" cx="108.21" cy="80.56" rx="94.16" ry="80.56"/>
      <g>
        <path class="cls-1" d="m45.74,126.34c1.16,7.31-3.02,14.64-8.79,19.27s-12.94,7.09-19.95,9.45c-4.75,1.61-9.51,3.21-14.26,4.82,9.29.35,18.57.7,27.86,1.05,6.53.25,13.13.49,19.53-.84,10.32-2.14,19.57-8.37,26.19-16.57s10.68-18.28,12.54-28.65"/>
        <path class="cls-1" d="m43.33,127c.96,6.56-3.23,12.92-8.15,16.84-5.66,4.51-12.78,6.76-19.53,9.04-4.52,1.53-9.05,3.06-13.57,4.59-2.66.9-2.22,4.8.66,4.91,8.29.31,16.58.63,24.87.94s16.1.81,23.95-.98c13.39-3.06,24.64-12.53,31.5-24.21,4.08-6.94,6.75-14.68,8.2-22.59.24-1.33-.36-2.7-1.75-3.08-1.21-.33-2.83.41-3.08,1.75-2.39,13.08-8.24,25.63-18.52,34.34-4.68,3.97-10.23,6.98-16.16,8.59-7.22,1.95-14.77,1.54-22.17,1.26-8.95-.34-17.91-.68-26.86-1.01l.66,4.91c8.25-2.79,16.7-5.27,24.71-8.7,7.25-3.1,14.14-7.8,17.81-15,2.07-4.06,2.88-8.41,2.23-12.92-.19-1.34-1.89-2.07-3.08-1.75-1.43.39-1.94,1.73-1.75,3.08h0Z"/>
      </g>
      <text class="cls-2" transform="translate(108.21 221.86)"><tspan x="0" y="0">click to see what </tspan><tspan class="cls-3" x="205.94" y="0">P</tspan><tspan x="219.22" y="0">anny says!</tspan></text>
      <path class="cls-1" d="m301.59,171.95c-13.99-21.3-33.16-39.11-55.44-51.5-6.33-3.52-12.9-6.57-19.65-9.2-2-.78-3.3,1.43-3.08,3.08.74,5.44,1.48,10.88,2.21,16.32.38,2.77,5.15,2.14,4.91-.66-.25-3.01-.51-6.02-.76-9.03-.12-1.46-.25-2.93-.37-4.39-.05-.6-.13-1.22-.12-1.83,0-.3.26-.88,0-.64.33-.3.96-.38,1.35-.49.71-.2,1.42-.4,2.14-.61,1.42-.4,2.85-.81,4.27-1.21,3.01-.85,6.01-1.71,9.02-2.56s1.78-5.7-1.33-4.82c-3.32.94-6.64,1.89-9.97,2.83-1.66.47-3.32.94-4.98,1.41-1.47.42-3,.84-4.08,1.99-2.18,2.34-1.29,6.01-1.05,8.86.3,3.5.59,6.99.89,10.49l4.91-.66c-.74-5.44-1.48-10.88-2.21-16.32l-3.08,3.08c22.83,8.88,43.36,23.44,59.5,41.84,4.58,5.22,8.78,10.75,12.6,16.56,1.76,2.68,6.09.18,4.32-2.52h0Z"/>
      <circle class="cls-4" cx="58.28" cy="80.56" r="12.49"/>
      <circle class="cls-4" cx="112.95" cy="80.56" r="12.49"/>
      <circle class="cls-4" cx="168.35" cy="80.56" r="12.49"/>
    </g>
  </g>
</svg>