<?xml version="1.0" encoding="UTF-8"?>
<svg id="Layer_2" data-name="Layer 2" xmlns="http://www.w3.org/2000/svg" viewBox="0 0 220.59 175.88">
  <defs>
    <style>
      .cls-1 {
        stroke-width: 12px;
      }

      .cls-1, .cls-2, .cls-3, .cls-4, .cls-5 {
        stroke-miterlimit: 10;
      }

      .cls-1, .cls-3 {
        stroke: #fcb216;
        stroke-linecap: round;
      }

      .cls-1, .cls-3, .cls-4, .cls-5 {
        fill: none;
      }

      .cls-6, .cls-2 {
        fill: #ffc60b;
      }

      .cls-7 {
        fill: #fcb216;
      }

      .cls-8 {
        fill: #231f20;
      }

      .cls-2, .cls-4 {
        stroke: #ffc60b;
        stroke-width: 4px;
      }

      .cls-3 {
        stroke-width: 2px;
      }

      .cls-5 {
        stroke: #231f20;
      }
    </style>
  </defs>
  <g id="Layer_14" data-name="Layer 14">
    <g>
      <path class="cls-1" d="m194.24,102.64l3.47,10.54c.29.89,1.13,1.49,2.07,1.49h13.23"/>
      <ellipse class="cls-1" cx="213.28" cy="112.23" rx="1.31" ry="1.89"/>
    </g>
    <path class="cls-6" d="m197.89,71.48c.14.55-35.95-73.7-113.04-71.43C8.67,2.29,3.27,44.15,3.27,44.15c0,0-15.23,42.17,29.65,38.63,44.89-3.54,45.97,28.29,45.97,28.29,0,0,.55,9.33,4.26,20.19,7.04,20.6,25.44,46.7,73,24.96,17.72-8.1,29.28-17.29,36.63-26.56,6.1-7.7,9.3-15.45,10.71-22.68,3.85-19.72-5.61-35.51-5.61-35.51Z"/>
    <ellipse class="cls-8" cx="172.65" cy="93.52" rx="3.93" ry="9.12"/>
    <ellipse class="cls-8" cx="149.18" cy="93.52" rx="3.93" ry="9.12"/>
    <path class="cls-5" d="m163.02,92.91s-2.18,2.77-4.22,0"/>
    <path class="cls-3" d="m171.75,81.97s2.34-2.64,4.21.24"/>
    <path class="cls-3" d="m150.84,82.64s-2.34-2.64-4.21.24"/>
    <g>
      <polyline class="cls-4" points="137.43 159.76 137.96 173.36 150.09 173.36"/>
      <path class="cls-2" d="m150.67,175.4c0-2.49-1.03-3.79-3-3.79-.98,0-1.87.5-2.52,1.31s-1.05,1.24-1.05,2.49"/>
      <path class="cls-2" d="m146.66,171.14c-.51,2.36-4.65,2.32-5.68,2.22"/>
    </g>
    <g>
      <polyline class="cls-4" points="110.69 160.24 111.22 173.85 123.35 173.85"/>
      <path class="cls-2" d="m124.56,175.86c0-2.49-1.6-3.94-3.57-3.94-.98,0-1.87.5-2.52,1.31s-1.05,1.38-1.05,2.63"/>
      <path class="cls-2" d="m119.92,171.63c-.51,2.36-4.65,2.32-5.68,2.22"/>
    </g>
    <path class="cls-7" d="m192.79,129.67s-69.25,42.97-107.8,6.41c0,0,14.39,37.86,55.06,26.06,40.67-11.81,52.74-32.47,52.74-32.47Z"/>
    <g>
      <path class="cls-7" d="m38.13,82.34s.08-.01.11-.02c-.04,0-.07.01-.11.02Z"/>
      <path class="cls-7" d="m1.64,66.55C-5.03,44.19,6.59,3.34,74.69,1.1c.37-1.64,43.49-3.55,71.4,15.13C123.43,2.86,28.48-15.23,15.63,55.95c-1.84,10.17,3.15,20.49,12.52,24.85,3.03,1.41,6.4,2.15,9.98,1.54-2.78.5-13.66,2.09-23.69-1.46-3.84-.31-7.39-3.22-10.01-7.76-1.77-2.72-2.5-5.3-2.78-6.57Z"/>
      <path class="cls-7" d="m38.24,82.32c.19-.03.38-.07.57-.11,0,0-.2.04-.57.11Z"/>
    </g>
    <g>
      <path class="cls-1" d="m107.94,106.17l3.47,10.54c.29.89,1.13,1.49,2.07,1.49h13.23"/>
      <ellipse class="cls-1" cx="126.99" cy="115.76" rx="1.31" ry="1.89"/>
    </g>
  </g>
</svg>