<?xml version="1.0" encoding="UTF-8"?>
<svg id="Layer_2" data-name="Layer 2" xmlns="http://www.w3.org/2000/svg" viewBox="0 0 459.47 376.05">
  <defs>
    <style>
      .cls-1 {
        stroke-width: 12px;
      }

      .cls-1, .cls-2, .cls-3, .cls-4, .cls-5 {
        stroke-miterlimit: 10;
      }

      .cls-1, .cls-3 {
        stroke: #fcb216;
        stroke-linecap: round;
      }

      .cls-1, .cls-3, .cls-4, .cls-5 {
        fill: none;
      }

      .cls-6 {
        fill: #fff;
      }

      .cls-7, .cls-2 {
        fill: #ffc60b;
      }

      .cls-8 {
        fill: #fcb216;
      }

      .cls-9 {
        fill: #231f20;
      }

      .cls-2, .cls-4 {
        stroke: #ffc60b;
        stroke-width: 4px;
      }

      .cls-3 {
        stroke-width: 2px;
      }

      .cls-5 {
        stroke: #231f20;
      }

      .cls-10 {
        fill: #936d2a;
        opacity: .72;
      }
    </style>
  </defs>
  <g id="confused">
    <g>
      <ellipse class="cls-10" cx="261.3" cy="365.68" rx="76.09" ry="10.37"/>
      <g>
        <path class="cls-1" d="m389.28,223.95l6.95,21.12c.59,1.79,2.26,3,4.14,3h26.52"/>
        <ellipse class="cls-1" cx="427.45" cy="243.15" rx="2.62" ry="3.8"/>
      </g>
      <path class="cls-7" d="m396.58,161.5c.29,1.11-72.05-147.7-226.55-143.16C17.37,22.83,6.56,106.71,6.56,106.71c0,0-30.53,84.5,59.43,77.42,89.96-7.09,92.14,56.7,92.14,56.7,0,0,1.1,18.71,8.54,40.47,14.1,41.29,50.98,93.58,146.3,50.03,35.52-16.23,58.68-34.65,73.41-53.23,12.23-15.43,18.64-30.97,21.47-45.45,7.72-39.53-11.24-71.16-11.24-71.16Z"/>
      <path class="cls-9" d="m291.1,202.4c0,2.75,3.52,4.97,7.87,4.97s7.87-2.23,7.87-4.97c0-2.75-3.52,0-7.87,0-4.35,0-7.87-2.75-7.87,0Z"/>
      <path class="cls-5" d="m326.72,209.08s-4.37-4.9-8.45,0"/>
      <path class="cls-3" d="m306.84,189.27s-9.22-10.7-12.97-4.92"/>
      <g>
        <polyline class="cls-4" points="275.42 338.41 276.5 365.68 300.79 365.68"/>
        <path class="cls-2" d="m306.13,367.63c0-4.99-3.2-9.03-7.15-9.03-1.97,0-3.75,1-5.04,2.62-1.3,1.64-2.11,3.9-2.11,6.41"/>
        <path class="cls-2" d="m293.93,361.22c-1.02,4.73-9.31,4.66-11.38,4.46"/>
      </g>
      <g>
        <polyline class="cls-4" points="249.64 339.38 248.56 366.65 224.26 366.65"/>
        <path class="cls-2" d="m218.93,368.6c0-4.99,3.2-9.03,7.15-9.03,1.97,0,3.75,1,5.04,2.62s2.11,3.9,2.11,6.41"/>
        <path class="cls-2" d="m231.13,362.2c1.02,4.73,9.31,4.66,11.38,4.46"/>
      </g>
      <path class="cls-8" d="m386.36,278.1s-138.79,86.12-216.04,12.84c0,0,28.83,75.88,110.34,52.22,81.51-23.66,105.7-65.07,105.7-65.07Z"/>
      <g>
        <path class="cls-8" d="m76.41,183.26c.07-.01.16-.03.22-.04-.07.01-.15.03-.22.04Z"/>
        <path class="cls-8" d="m3.29,151.62C-10.08,106.79,13.21,24.94,149.69,20.44c.74-3.28,87.16-7.12,143.09,30.32C247.37,23.97,57.08-12.28,31.32,130.36c-3.68,20.38,6.32,41.06,25.09,49.8,6.07,2.82,12.83,4.31,20,3.09-5.56,1-27.38,4.19-47.48-2.92-7.7-.63-14.82-6.46-20.07-15.56-3.55-5.45-5.02-10.63-5.56-13.16Z"/>
        <path class="cls-8" d="m76.63,183.22c.38-.07.76-.14,1.14-.22,0,0-.4.09-1.14.22Z"/>
      </g>
      <g>
        <path class="cls-1" d="m216.33,231.02l6.95,21.12c.59,1.79,2.26,3,4.14,3h26.52"/>
        <ellipse class="cls-1" cx="254.49" cy="250.23" rx="2.62" ry="3.8"/>
      </g>
      <path class="cls-3" d="m340.55,188.16s9.22-10.7,12.97-4.92"/>
      <path class="cls-9" d="m340.55,202.4c0,2.75,3.52,4.97,7.87,4.97s7.87-2.23,7.87-4.97c0-2.75-3.52,0-7.87,0-4.35,0-7.87-2.75-7.87,0Z"/>
      <path class="cls-6" d="m363.17,29.01c-.07-.91-.1-1.81-.08-2.72.01-.45.04-.91.08-1.36.02-.19.04-.39.06-.58.12-1.25-.15.69,0-.02.2-.89.35-1.78.6-2.66.12-.44.26-.87.41-1.3.06-.18.13-.37.2-.55.07-.18.14-.36.21-.54l-.2.48c-.03-.64.91-1.85,1.24-2.41.23-.39.47-.77.73-1.14.11-.16.22-.32.33-.47.53-.77-.36.38.04-.06.57-.62,1.1-1.26,1.71-1.84.23-.22.84-.94,1.15-1.01,0,0-.74.52-.25.2.27-.17.52-.37.79-.54.69-.45,1.41-.86,2.16-1.22.15-.07.89-.44.27-.14-.57.28,0,0,.11-.04.48-.18.96-.35,1.44-.5.25-.08,2.6-.59,2.6-.6,0,.03-1.27.12-.2.03.19-.02.38-.04.57-.05.5-.04,1.01-.05,1.52-.05.44,0,.88.02,1.32.06.12,0,.7.11.75.08-.05.03-.95-.18-.39-.04.93.23,1.83.44,2.75.72.59.19.15.3-.17-.1.07.09.38.18.49.23.38.18.75.38,1.12.59s.72.44,1.07.68c.04.03.42.33.44.31-.48-.38-.58-.46-.3-.23.09.08.19.15.28.23.64.55,1.24,1.15,1.79,1.78.03.03.34.42.35.41-.04.02-.7-.99-.12-.15.27.4.55.79.79,1.21.22.36.42.73.61,1.11.08.16.16.32.24.49.32.66-.18-.01-.08-.2-.06.12.31.86.35,1.02.16.51.29,1.03.4,1.56.24,1.18,0-.64.06.26.02.36.05.71.06,1.07,0,.48-.02.96-.05,1.44,0,.12-.11.78,0,.13.12-.76-.11.48-.11.51-.18.84-.43,1.66-.72,2.46-.06.15-.4.92-.12.32.26-.57-.03.04-.07.13-.24.48-.47.95-.73,1.42-.46.82-.96,1.62-1.5,2.39-.27.39-.56.77-.83,1.16-.42.61.5-.61.04-.04-.17.21-.34.43-.51.64-1.26,1.55-2.61,3.04-3.95,4.52-3.2,3.52-6.4,7.04-9.6,10.56-1.79,1.97-3.97,3.93-5.33,6.24-1.79,3.05-1.03,6.17.11,9.26,1.88,5.08,3.82,10.15,5.8,15.19.95,2.43,3.39,4.39,6.15,3.49,2.35-.76,4.52-3.54,3.49-6.15-1.86-4.74-3.69-9.49-5.46-14.27-.39-1.04-.64-2.38-1.2-3.33-.33-.57-.05.73-.04.07.02-.61-.03.27-.04.31-.18.81-.12.47.03.14-.33.77-.16.22.11-.08,1.68-1.89,3.4-3.74,5.1-5.61,3.3-3.63,6.65-7.23,9.9-10.92s6.06-7.38,7.92-11.85c3.49-8.38.87-18.36-6.17-24.09-7.49-6.1-17.82-6.58-26.21-1.96-9.1,5-14.08,15.75-13.28,25.93.2,2.6,2.15,5.13,5,5,2.54-.11,5.22-2.21,5-5h0Z"/>
      <path class="cls-6" d="m385.69,94.44c2.62,0,5.12-2.3,5-5s-2.2-5-5-5c-2.62,0-5.12,2.3-5,5s2.2,5,5,5h0Z"/>
      <path class="cls-6" d="m420.59,52.14c.38-.79.79-1.56,1.24-2.31.26-.43.54-.85.82-1.26.11-.15.22-.3.33-.46.34-.5-.59.69.02-.03.57-.67,1.15-1.32,1.77-1.94.31-.31.63-.6.96-.89.19-.16.39-.32.57-.48.52-.47-.96.68.02-.02.71-.51,1.43-.99,2.19-1.42.38-.22.76-.42,1.15-.61.17-.08.34-.16.5-.24,1.08-.52-.65.22,0,0,.83-.28,1.64-.58,2.49-.79.42-.1.84-.18,1.27-.27.94-.19-.14-.02-.24.02.26-.1.64-.07.92-.08.86-.06,1.72-.06,2.58-.01.42.03.88.01,1.28.12-.13-.03-1.15-.2-.24-.01.24.05.48.09.72.14.84.18,1.67.42,2.47.71.17.06.53.15.69.26-.1-.07-1.02-.48-.18-.07.44.22.88.43,1.3.67.37.21.74.43,1.09.67.2.13.4.28.6.41.47.3-.27-.22-.28-.23.79.43,1.53,1.35,2.12,2.01.12.14.23.28.36.42.47.51-.48-.72-.11-.14.23.36.49.71.71,1.07s.43.74.62,1.13c.02.03.23.5.24.5-.23-.58-.28-.69-.15-.35.05.11.09.23.13.34.32.86.57,1.75.75,2.66.04.18.06.36.1.54.12.56-.07-.39-.05-.42-.13.24.1,1.37.1,1.65,0,.43,0,.86-.03,1.28,0,.13-.1.67-.06.73-.01-.02.17-.99.06-.42-.18.9-.36,1.78-.66,2.65-.06.17-.14.52-.25.68.07-.1.5-1.01.06-.2-.2.38-.39.76-.61,1.12-.21.34-.42.82-.72,1.08.02-.01.59-.69.2-.27-.21.23-.4.47-.62.7-.26.28-1.53,1.82-1.91,1.76.14.02.73-.51.12-.11-.21.14-.41.29-.62.42-.42.28-.84.54-1.28.79-.77.45-1.56.85-2.36,1.23-.23.11-.46.21-.7.32-.1.04-.7.31-.11.05.63-.27-.14.05-.29.12-.24.1-.48.19-.72.28-1.81.69-3.66,1.29-5.51,1.89-4.61,1.47-9.22,2.94-13.83,4.42-2.56.82-5.54,1.41-7.85,2.82-2.85,1.75-3.78,4.56-4.31,7.66-.93,5.42-1.8,10.86-2.61,16.3-.39,2.58.64,5.5,3.49,6.15,2.38.54,5.74-.73,6.15-3.49.78-5.2,1.61-10.39,2.49-15.57.18-1.06.5-2.17.61-3.24.07-.67-.41.74-.08.16s-.4.4-.45.48c-.24.38-.22.13.08,0-1.22.53-.11.05.13-.03,2.44-.83,4.91-1.57,7.37-2.36,4.7-1.5,9.41-2.94,14.08-4.51,4.05-1.36,8.21-2.93,11.67-5.49,3.96-2.92,7.05-6.74,8.35-11.57,1.17-4.36.95-9.26-.72-13.46-3.55-8.95-12.35-14.48-21.92-14.52-10.25-.05-19.78,6.66-24.14,15.78-1.13,2.36-.73,5.51,1.79,6.84,2.23,1.18,5.64.73,6.84-1.79h0Z"/>
      <path class="cls-6" d="m409.88,120.71c2.62,0,5.12-2.3,5-5s-2.2-5-5-5c-2.62,0-5.12,2.3-5,5s2.2,5,5,5h0Z"/>
    </g>
  </g>
</svg>