<?xml version="1.0" encoding="UTF-8"?>
<svg id="Layer_2" data-name="Layer 2" xmlns="http://www.w3.org/2000/svg" viewBox="0 0 862.74 449.74">
  <defs>
    <style>
      .cls-1 {
        letter-spacing: -.05em;
      }

      .cls-2 {
        stroke-width: 12px;
      }

      .cls-2, .cls-3, .cls-4, .cls-5 {
        stroke-miterlimit: 10;
      }

      .cls-2, .cls-4 {
        stroke: #fcb216;
        stroke-linecap: round;
      }

      .cls-2, .cls-4, .cls-5 {
        fill: none;
      }

      .cls-6 {
        fill: #fff;
      }

      .cls-7, .cls-3 {
        fill: #ffc60b;
      }

      .cls-8 {
        fill: #fcb216;
      }

      .cls-9 {
        fill: #e84b25;
      }

      .cls-10, .cls-11 {
        fill: #231f20;
      }

      .cls-3, .cls-5 {
        stroke: #ffc60b;
        stroke-width: 4px;
      }

      .cls-11 {
        font-family: TrebuchetMS, 'Trebuchet MS';
        font-size: 20px;
      }

      .cls-4 {
        stroke-width: 2px;
      }
    </style>
  </defs>
  <g id="intro_page" data-name="intro page">
    <path class="cls-7" d="m362.79,260.44c.26,1.01-65.91-134.8-207.25-130.65C15.89,133.88,6,210.44,6,210.44c0,0-27.93,77.13,54.36,70.66,82.29-6.47,84.29,51.75,84.29,51.75,0,0,1.01,17.07,7.81,36.94,12.9,37.68,46.63,85.41,133.83,45.66,32.49-14.81,53.68-31.63,67.15-48.58,11.19-14.08,17.05-28.27,19.64-41.48,7.06-36.07-10.29-64.94-10.29-64.94Z"/>
    <ellipse class="cls-10" cx="316.53" cy="300.75" rx="7.2" ry="16.68"/>
    <ellipse class="cls-10" cx="273.5" cy="300.75" rx="7.2" ry="16.68"/>
    <path class="cls-4" d="m276.54,280.85s0-3.92-7.72-2.02"/>
    <g>
      <polyline class="cls-5" points="251.95 421.9 252.94 446.79 275.16 446.79"/>
      <path class="cls-3" d="m280.04,448.57c0-4.55-2.93-8.24-6.55-8.24-1.8,0-3.43.91-4.61,2.39-1.19,1.49-1.93,3.56-1.93,5.85"/>
      <path class="cls-3" d="m268.88,442.72c-.93,4.31-8.52,4.25-10.41,4.07"/>
    </g>
    <g>
      <polyline class="cls-5" points="200.28 422.79 201.26 447.68 223.49 447.68"/>
      <path class="cls-3" d="m228.37,449.46c0-4.55-2.93-8.24-6.55-8.24-1.8,0-3.43.91-4.61,2.39s-1.93,3.56-1.93,5.85"/>
      <path class="cls-3" d="m217.21,443.61c-.93,4.31-8.52,4.25-10.41,4.07"/>
    </g>
    <path class="cls-8" d="m353.44,366.86s-126.97,78.6-197.63,11.72c0,0,26.37,69.26,100.94,47.66s96.7-59.39,96.7-59.39Z"/>
    <g>
      <path class="cls-8" d="m69.9,280.3c.07-.01.14-.03.2-.04-.07.01-.14.02-.2.04Z"/>
      <path class="cls-8" d="m3.01,251.42c-12.23-40.91,9.07-115.62,133.92-119.73.68-3,79.73-6.49,130.9,27.68-41.54-24.45-215.61-57.53-239.18,72.65-3.37,18.6,5.78,37.48,22.95,45.45,5.55,2.58,11.74,3.93,18.3,2.82-5.09.91-25.05,3.83-43.44-2.66-7.04-.57-13.55-5.9-18.36-14.2-3.25-4.98-4.59-9.7-5.09-12.01Z"/>
      <path class="cls-8" d="m70.1,280.26c.35-.06.69-.13,1.04-.2,0,0-.36.08-1.04.2Z"/>
    </g>
    <g>
      <ellipse class="cls-2" cx="232.81" cy="341.42" rx="2.4" ry="3.46"/>
      <path class="cls-2" d="m197.89,323.89l6.36,19.28c.54,1.63,2.06,2.73,3.79,2.73h24.26"/>
    </g>
    <path class="cls-9" d="m158.59,387.52c-17.25,4.89-35.2-5.13-40.09-22.38,0,0-12.84-45.32-12.85-45.33-2.49-8.78-1.12-18.36,3.73-26.1,2.71-4.32,4.75-8.01,9.57-5.43,4.07,2.18,7.84,5.61,11.14,8.8,13.26,12.83,21.64,30.8,22.26,49.3.17,5.07-.18,10.27,1.36,15.11.95,2.99,2.58,5.71,4.1,8.46,1.82,3.3,3.51,6.7,4.71,10.28,1.7,5.06,1.18,5.83-3.94,7.28Z"/>
    <path class="cls-9" d="m213.59,330.53c.18.41-.13-.44-.12-.41-.06-.19-.11-.37-.16-.56-.13-.51-.24-1.02-.34-1.53-.22-1.12-.38-2.25-.57-3.37-.35-2.05-.76-4.23-1.85-6.04-2.82-4.72-7.56-8.05-12.88-9.24s-11.5-1.07-17.13-.7c-5.94.4-11.86,1.31-17.64,2.75-6.48,1.61-12.76,3.91-18.78,6.78-1.22.58-1.54,2.32-.9,3.42.73,1.25,2.2,1.48,3.42.9,9.83-4.69,20.56-7.64,31.41-8.65,5.29-.49,10.81-.75,16.1-.07,2.23.29,4.53.84,6.51,1.93s3.78,2.9,5.16,4.8c1.18,1.63,1.46,3.71,1.81,5.79.39,2.31.72,4.56,1.64,6.73.53,1.24,2.36,1.52,3.42.9,1.28-.75,1.43-2.17.9-3.42h0Z"/>
    <path class="cls-9" d="m151.73,356.68c7.14,2.12,14.72-1.42,21.27-3.97,6.99-2.72,13.88-5.72,20.94-8.24,1.27-.45,2.12-1.7,1.75-3.08-.34-1.23-1.8-2.2-3.08-1.75-6.77,2.42-13.37,5.26-20.05,7.89-3.23,1.27-6.48,2.53-9.79,3.57s-6.46,1.72-9.72.75c-3.09-.92-4.41,3.91-1.33,4.82h0Z"/>
    <g>
      <rect class="cls-6" x="360.95" y="0" width="501.79" height="169.39" rx="75.14" ry="75.14"/>
      <g>
        <path class="cls-6" d="m395.17,137.06c5.4,30.48.05,62.45-15.05,90.1,72.02-14.47,137.77-53.34,181.52-107.3"/>
        <path class="cls-6" d="m392.76,137.73c4.1,23.37,1.68,47.65-6.49,69.89-2.31,6.29-5.11,12.39-8.31,18.27-1.09,2,.7,4.1,2.82,3.67,14.08-2.84,27.98-6.6,41.57-11.27,13.49-4.63,26.68-10.14,39.46-16.48,12.64-6.26,24.87-13.35,36.57-21.22s22.64-16.33,33.06-25.6c10.27-9.14,19.91-18.99,28.76-29.51,1.08-1.28,2.14-2.57,3.2-3.87.85-1.05,1.02-2.51,0-3.54-.88-.88-2.68-1.05-3.54,0-8.57,10.56-17.91,20.48-27.9,29.7s-20.77,17.87-32.02,25.7c-11.45,7.97-23.44,15.17-35.83,21.58-12.46,6.43-25.33,12.05-38.52,16.8s-27.07,8.77-40.96,11.8c-1.73.38-3.46.74-5.19,1.09l2.82,3.67c11.83-21.74,18.01-46.47,17.4-71.24-.17-6.97-.89-13.91-2.1-20.78-.23-1.33-1.86-2.08-3.08-1.75-1.4.39-1.98,1.74-1.75,3.08h0Z"/>
      </g>
    </g>
    <ellipse class="cls-10" cx="295.01" cy="305.85" rx="8.99" ry="5.1"/>
    <path class="cls-4" d="m312.67,282.12s0-3.92,7.72-2.02"/>
    <text class="cls-11" transform="translate(438.47 67.75)"><tspan x="0" y="0">The situation is worse than i thought! </tspan><tspan class="cls-1" x="0" y="24">W</tspan><tspan x="16.12" y="24">e need to find the powerups and </tspan><tspan x="0" y="48">defeat the evil diabtes monster!</tspan></text>
  </g>
</svg>