<?xml version="1.0" encoding="UTF-8"?>
<svg id="Layer_2" data-name="Layer 2" xmlns="http://www.w3.org/2000/svg" viewBox="0 0 409.67 251.93">
  <defs>
    <style>
      .cls-1 {
        fill: #fff;
      }

      .cls-2 {
        fill: #ffc60b;
      }

      .cls-3 {
        fill: #fcb216;
      }

      .cls-4, .cls-5 {
        fill: #231f20;
      }

      .cls-5 {
        stroke: #231f20;
      }

      .cls-5, .cls-6 {
        stroke-miterlimit: 10;
      }

      .cls-6 {
        fill: none;
        stroke: #fcb216;
        stroke-linecap: round;
        stroke-width: 2px;
      }
    </style>
  </defs>
  <g id="peeking_panny" data-name="peeking panny">
    <g>
      <path class="cls-2" d="m399.03,243.33c3.48-7.62,7.38-21.67,8.8-28.91,7.72-39.53-11.24-71.16-11.24-71.16.29,1.11-72.05-147.7-226.55-143.16C17.37,4.59,6.56,88.47,6.56,88.47c0,0-30.53,84.5,59.43,77.42,89.96-7.09,92.14,56.7,92.14,56.7,0,0,.58,9.87,3.75,23.62"/>
      <ellipse class="cls-4" cx="346.01" cy="187.43" rx="7.87" ry="18.28"/>
      <ellipse class="cls-4" cx="298.97" cy="187.43" rx="7.87" ry="18.28"/>
      <path class="cls-6" d="m298.97,163.41s-5.57-.2-9.32,5.57"/>
      <g>
        <path class="cls-3" d="m76.41,165.02c.07-.01.16-.03.22-.04-.07.01-.15.03-.22.04Z"/>
        <path class="cls-3" d="m3.29,133.38C-10.08,88.56,13.21,6.7,149.69,2.2c.74-3.28,87.16-7.12,143.09,30.32C247.37,5.74,57.08-30.51,31.32,112.13c-3.68,20.38,6.32,41.06,25.09,49.8,6.07,2.82,12.83,4.31,20,3.09-5.56,1-27.38,4.19-47.48-2.92-7.7-.63-14.82-6.46-20.07-15.56-3.55-5.45-5.02-10.63-5.56-13.16Z"/>
        <path class="cls-3" d="m76.63,164.98c.38-.07.76-.14,1.14-.22,0,0-.4.09-1.14.22Z"/>
      </g>
      <path class="cls-1" d="m310.22,179.93c-6.8.2-6.78.36-6.66,14.12-.5-13.76-.5-13.92-7.33-14.12,6.84-.2,6.83-.36,7.33-14.12-.12,13.76-.14,13.92,6.66,14.12Z"/>
      <path class="cls-6" d="m344.56,163.41s5.57-.2,9.32,5.57"/>
      <path class="cls-5" d="m332.53,188.2c.42,1.13-4.05,5.15-9,4.88-4.37-.24-8.1-3.79-7.67-4.88.29-.75,2.43-.03,8.45-.01,5.96.02,7.96-.68,8.22.01Z"/>
      <path class="cls-1" d="m356.2,179.93c-6.8.2-6.78.36-6.66,14.12-.5-13.76-.5-13.92-7.33-14.12,6.84-.2,6.83-.36,7.33-14.12-.12,13.76-.14,13.92,6.66,14.12Z"/>
    </g>
  </g>
</svg>