<?xml version="1.0" encoding="UTF-8"?>
<svg id="Layer_2" data-name="Layer 2" xmlns="http://www.w3.org/2000/svg" viewBox="0 0 436.07 350.48">
  <defs>
    <style>
      .cls-1 {
        stroke-width: 12px;
      }

      .cls-1, .cls-2, .cls-3, .cls-4, .cls-5 {
        stroke-miterlimit: 10;
      }

      .cls-1, .cls-3 {
        stroke: #fcb216;
        stroke-linecap: round;
      }

      .cls-1, .cls-3, .cls-4, .cls-5 {
        fill: none;
      }

      .cls-6, .cls-2 {
        fill: #ffc60b;
      }

      .cls-7 {
        fill: #fcb216;
      }

      .cls-8 {
        fill: #231f20;
      }

      .cls-2, .cls-4 {
        stroke: #ffc60b;
        stroke-width: 4px;
      }

      .cls-3 {
        stroke-width: 2px;
      }

      .cls-5 {
        stroke: #231f20;
      }
    </style>
  </defs>
  <g id="running">
    <g>
      <path class="cls-1" d="m389.28,205.71l6.95,21.12c.59,1.79,2.26,3,4.14,3h26.52"/>
      <ellipse class="cls-1" cx="427.45" cy="224.92" rx="2.62" ry="3.8"/>
    </g>
    <path class="cls-6" d="m396.58,143.26c.29,1.11-72.05-147.7-226.55-143.16C17.37,4.59,6.56,88.47,6.56,88.47c0,0-30.53,84.5,59.43,77.42,89.96-7.09,92.14,56.7,92.14,56.7,0,0,1.1,18.71,8.54,40.47,14.1,41.29,50.98,93.58,146.3,50.03,35.52-16.23,58.68-34.65,73.41-53.23,12.23-15.43,18.64-30.97,21.47-45.45,7.72-39.53-11.24-71.16-11.24-71.16Z"/>
    <ellipse class="cls-8" cx="346.01" cy="187.43" rx="7.87" ry="18.28"/>
    <ellipse class="cls-8" cx="298.97" cy="187.43" rx="7.87" ry="18.28"/>
    <path class="cls-5" d="m326.72,186.2s-4.37,5.55-8.45,0"/>
    <path class="cls-3" d="m344.2,164.27s4.68-5.29,8.43.48"/>
    <path class="cls-3" d="m302.3,165.62s-4.68-5.29-8.43.48"/>
    <g>
      <polyline class="cls-4" points="275.42 320.17 276.5 347.44 300.79 347.44"/>
      <path class="cls-2" d="m306.13,349.39c0-4.99-3.2-9.03-7.15-9.03-1.97,0-3.75,1-5.04,2.62-1.3,1.64-2.11,3.9-2.11,6.41"/>
      <path class="cls-2" d="m293.93,342.98c-1.02,4.73-9.31,4.66-11.38,4.46"/>
    </g>
    <g>
      <polyline class="cls-4" points="249.64 321.15 248.56 348.42 224.26 348.42"/>
      <path class="cls-2" d="m218.93,350.37c0-4.99,3.2-9.03,7.15-9.03,1.97,0,3.75,1,5.04,2.62,1.3,1.64,2.11,3.9,2.11,6.41"/>
      <path class="cls-2" d="m231.13,343.96c1.02,4.73,9.31,4.66,11.38,4.46"/>
    </g>
    <path class="cls-7" d="m386.36,259.86s-138.79,86.12-216.04,12.84c0,0,28.83,75.88,110.34,52.22,81.51-23.66,105.7-65.07,105.7-65.07Z"/>
    <g>
      <path class="cls-7" d="m76.41,165.02c.07-.01.16-.03.22-.04-.07.01-.15.03-.22.04Z"/>
      <path class="cls-7" d="m3.29,133.38C-10.08,88.56,13.21,6.7,149.69,2.2c.74-3.28,87.16-7.12,143.09,30.32C247.37,5.74,57.08-30.51,31.32,112.13c-3.68,20.38,6.32,41.06,25.09,49.8,6.07,2.82,12.83,4.31,20,3.09-5.56,1-27.38,4.19-47.48-2.92-7.7-.63-14.82-6.46-20.07-15.56-3.55-5.45-5.02-10.63-5.56-13.16Z"/>
      <path class="cls-7" d="m76.63,164.98c.38-.07.76-.14,1.14-.22,0,0-.4.09-1.14.22Z"/>
    </g>
    <g>
      <path class="cls-1" d="m216.33,212.78l6.95,21.12c.59,1.79,2.26,3,4.14,3h26.52"/>
      <ellipse class="cls-1" cx="254.49" cy="231.99" rx="2.62" ry="3.8"/>
    </g>
  </g>
</svg>